<svg display="none" xmlns="http://www.w3.org/2000/svg">
	<symbol id="solving-problems-icon-1" viewBox="0 0 44 39">
		<path d="M0 30.3396V1.09191L1.16991 0H42.4286C42.9418 0.318215 43.409 0.684005 43.6765 1.2479V30.1836C43.5416 30.3825 43.4191 30.5907 43.2694 30.7771C42.7928 31.3691 42.1377 31.49 41.4209 31.4892C36.9675 31.4819 32.5143 31.4806 28.0614 31.4853H27.6098V34.1925H30.2616C32.0118 34.1925 33.2721 35.4505 33.2846 37.2061C33.2893 37.8025 33.2935 38.4005 33.2971 39H10.2952C10.3053 38.3519 10.317 37.7037 10.3256 37.0556C10.342 35.9146 11.1445 34.8016 12.2076 34.3952C12.9002 34.1301 13.6115 34.2081 14.3236 34.1971C14.8765 34.1886 15.4311 34.1971 15.9918 34.1971V31.4908H15.4591C11.0296 31.4908 6.60009 31.4908 2.17057 31.4908C1.62929 31.4908 1.09425 31.458 0.668406 31.0821C0.421166 30.8598 0.221502 30.5876 0 30.3396ZM41.7267 29.4208V2.0177H1.87965V29.4208H41.7267ZM18.0883 31.4767V34.1691H25.5164V31.4767H18.0883ZM31.2232 37.0564C31.1554 36.4753 30.8535 36.2367 30.2234 36.2367H13.3931C13.2765 36.2321 13.1597 36.2389 13.0445 36.257C12.6389 36.3396 12.4143 36.6305 12.4267 37.0564H31.2232Z" fill="#262626"/>
        <path d="M21.8629 23.7423H41.1274C41.6226 23.7423 41.6172 23.7423 41.6133 24.2477C41.6133 24.6119 41.618 24.9754 41.6375 25.3396C41.6523 25.6149 41.5665 25.7662 41.2647 25.7296C41.1997 25.7253 41.1346 25.7253 41.0697 25.7296H2.62265C2.01352 25.7296 1.96984 25.682 1.9987 25.0635C2.0143 24.7398 2.05329 24.4161 2.04237 24.094C2.03223 23.8125 2.14143 23.7392 2.4066 23.7423C3.32849 23.7548 4.25194 23.747 5.1746 23.747L21.8629 23.7423Z" fill="#19BB4F"/>
        <path d="M20.4204 14.1766C18.8652 12.9287 17.3521 11.7174 15.8133 10.4844L16.7398 9.3246L21.6168 13.218L26.5 9.31836C26.8268 9.72861 27.1239 10.0983 27.4312 10.4883L22.8241 14.1782L27.4336 17.8743L26.5031 19.0317L21.6277 15.1375L16.7492 19.0325L15.8086 17.8696L20.4204 14.1766Z" fill="#262626"/>
        <path d="M39.0279 27.6488C39.0279 28.6565 39.0279 28.6565 38.0366 28.6565C37.7776 28.6565 37.5187 28.6487 37.2605 28.6565C37.032 28.6643 36.9291 28.5785 36.9337 28.3391C36.9423 27.8477 36.94 27.3556 36.9337 26.8642C36.9337 26.6568 37.0117 26.5522 37.2293 26.5522C37.7199 26.5522 38.2113 26.5569 38.7019 26.5522C38.928 26.5522 39.0372 26.638 39.0287 26.8736C39.0209 27.131 39.0279 27.3899 39.0279 27.6488Z" fill="#19BB4F"/>
	</symbol>
	<symbol id="solving-problems-icon-2" viewBox="0 0 47 39">
		<path d="M46.254 2.028V30.42C46.2251 30.4777 46.1931 30.5346 46.1682 30.5939C45.6113 31.9308 44.6277 32.526 43.1613 32.526C34.7708 32.5018 26.3804 32.5143 17.9891 32.5143C12.9233 32.5143 7.85719 32.5143 2.79084 32.5143C2.23207 32.5162 1.68512 32.3535 1.21836 32.0463C0.58188 31.6391 0.25662 31.0167 0 30.342V2.106C0.37986 1.08186 1.05144 0.34944 2.106 0H44.148C44.6074 0.29094 45.1175 0.5265 45.5091 0.89076C45.8312 1.19106 46.0114 1.64346 46.254 2.028ZM23.088 30.5448C29.796 30.5448 36.504 30.5346 43.212 30.558C44.0895 30.558 44.382 30.108 44.3648 29.381C44.3313 27.7727 44.3539 26.1635 44.3539 24.5552C44.3539 17.3537 44.3539 10.1517 44.3539 2.94918C44.3539 2.23236 44.0489 1.93518 43.3337 1.93518C29.8657 1.93518 16.399 1.93518 2.93358 1.93518C2.21286 1.93518 1.93128 2.22144 1.92972 2.94918C1.90944 10.3535 1.8902 17.7593 1.872 25.1667C1.872 26.6331 1.90554 28.0995 1.9227 29.5659C1.9305 30.2679 2.2113 30.5448 2.92266 30.5448H23.088Z" fill="#262626"/>
		<path d="M15.366 39.0001C14.6897 38.5789 14.49 37.9783 14.9276 37.4612C15.1031 37.2545 15.4401 37.132 15.7232 37.0805C16.0883 37.0142 16.4798 37.0985 16.8495 37.0454C17.7192 36.9222 18.2184 36.3739 18.3729 35.4191C18.4946 34.6664 18.5967 33.9106 18.7122 33.1571C18.7355 33.0553 18.7665 32.9555 18.805 32.8584H20.8026C20.5499 34.2679 20.3034 35.6477 20.0546 37.0384H26.208C25.9607 35.657 25.7135 34.2764 25.4607 32.8631H27.4809C27.5589 33.3155 27.6416 33.7819 27.7204 34.2484C27.7992 34.7148 27.8663 35.1937 27.9544 35.6633C28.1104 36.5018 28.7679 37.0478 29.6236 37.0673C29.8958 37.0727 30.1696 37.0673 30.4418 37.0673C30.9473 37.0673 31.3482 37.3348 31.4652 37.7404C31.6071 38.2326 31.4379 38.6405 30.9746 38.9276C30.944 38.9497 30.9151 38.9739 30.888 39.0001H15.366Z" fill="#262626"/>
		<path d="M2.125 26.9422V25.0281H44.1155V26.9422H2.125Z" fill="#19BB4F"/>
		<path d="M23.3022 22.2402H34.1395C34.6582 22.2402 34.6597 22.2402 34.6621 22.7589C34.666 23.8993 34.666 23.8993 33.5373 23.8993H12.6825C11.9929 23.8993 11.9805 23.886 11.9805 23.2067C11.9805 22.2402 11.9805 22.2402 12.9344 22.2402H23.3022Z" fill="#262626"/>
		<path d="M12.9633 14.586C13.8291 14.4659 14.7003 14.3762 15.5591 14.2186C17.7712 13.8146 19.9092 13.1734 21.9551 12.2164C24.001 11.2593 25.8418 10.0417 27.3699 8.38423C28.0484 7.64869 28.6288 6.82423 29.2996 5.97949C28.5609 5.75173 27.8878 6.06607 27.1764 5.77279C27.5259 5.46079 27.8004 5.21197 28.0765 4.96939C28.6412 4.47565 29.2138 3.99049 29.7746 3.49207C30.0023 3.28849 30.2379 3.22843 30.4633 3.44995C31.2059 4.17613 31.936 4.91557 32.6684 5.65267C32.6918 5.67685 32.6933 5.72287 32.7245 5.82037C32.5802 5.85141 32.4341 5.8733 32.287 5.88589C31.819 5.89603 31.273 5.74549 30.9064 5.93737C30.553 6.12223 30.3799 6.65575 30.1318 7.03873C29.0929 8.63695 27.7388 9.91069 26.1874 11.0105C24.7054 12.0588 23.1454 12.9379 21.4512 13.5681C20.1408 14.0564 18.7875 14.4425 17.3866 14.5454C16.0053 14.6468 14.6184 14.6632 13.2339 14.7131C13.1379 14.7079 13.0426 14.6938 12.9492 14.671L12.9633 14.586Z" fill="#262626"/>
		<path d="M33.2606 21.7088H31.6016V8.26787C31.6016 7.73747 31.6016 7.72967 32.1413 7.73903C32.5001 7.74605 32.972 7.64933 33.1826 7.83653C33.3636 7.99253 33.2606 8.49407 33.2606 8.84195C33.2637 12.9499 33.2637 17.0579 33.2606 21.1659V21.7088Z" fill="#262626"/>
		<path d="M26.9801 21.7145C26.5121 21.7145 26.0503 21.7255 25.5885 21.7036C25.5105 21.7036 25.4325 21.5593 25.374 21.4696C25.3452 21.422 25.3678 21.3425 25.3678 21.2777C25.3678 18.458 25.3748 15.6376 25.36 12.8179C25.36 12.4364 25.4747 12.3062 25.8459 12.3428C26.1184 12.3612 26.3917 12.3612 26.6642 12.3428C26.9036 12.3343 27.0253 12.4146 27.0245 12.6751C27.0198 15.6251 27.0178 18.5748 27.0183 21.5242C27.0112 21.5887 26.9984 21.6523 26.9801 21.7145Z" fill="#262626"/>
		<path d="M19.2539 21.7495C19.2445 21.5389 19.2336 21.4118 19.2336 21.2815C19.2336 19.2285 19.2398 17.1764 19.2266 15.1242C19.2266 14.7989 19.2858 14.6375 19.6509 14.678C20.0448 14.7225 20.5705 14.5868 20.8014 14.7942C21.0018 14.9744 20.8841 15.5235 20.8848 15.9096C20.8903 17.7153 20.8786 19.521 20.895 21.326C20.895 21.6629 20.7717 21.7581 20.4675 21.7487C20.0697 21.7401 19.6727 21.7495 19.2539 21.7495Z" fill="#262626"/>
		<path d="M15.2326 17.0198V21.7037H13.618V21.0602C13.618 19.8403 13.6258 18.6196 13.6133 17.3997C13.6133 17.1205 13.6772 16.9988 13.9807 17.0175C14.38 17.0386 14.7825 17.0198 15.2326 17.0198Z" fill="#262626"/>
		<path d="M23.1178 27.7219C23.7418 27.718 24.1974 28.1619 24.2098 28.789C24.2215 29.3092 23.7005 29.8092 23.1514 29.8295C22.5804 29.8506 22.1015 29.3943 22.0531 28.7882C22.0102 28.2461 22.5594 27.7258 23.1178 27.7219Z" fill="#19BB4F"/>
	</symbol>
	<symbol id="solving-problems-icon-3" viewBox="0 0 40 39">
		<path d="M2.88654 0C3.51051 0.639574 4.13448 1.28461 4.76392 1.91872C6.5802 3.74073 8.39831 5.56195 10.2182 7.3824C10.3742 7.53839 10.4764 7.73884 10.6636 8.00637C11.7368 6.85514 12.6915 5.8326 13.6563 4.79836L22.9029 14.1174L25.8769 10.8353L34.7326 19.6646L38.1052 16.1999L38.2245 16.2405C38.3127 16.8465 38.4024 17.4526 38.489 18.0586C38.8867 20.8311 39.2843 23.6039 39.6815 26.377C39.7034 26.533 39.7463 26.6796 39.779 26.8309V26.9089C39.2167 26.8574 38.652 26.8309 38.0935 26.7529C35.4463 26.3832 32.8022 26.0002 30.1566 25.6212C29.7759 25.5666 29.3953 25.505 28.9952 25.4433L32.4138 22.0637L25.9011 15.5526L22.9021 18.4985L13.7608 9.28162C12.8311 10.2332 11.9615 11.1262 11.0887 12.0162C10.7283 12.3836 10.7213 12.3843 10.361 12.0271C7.1059 8.79284 3.85214 5.55935 0.599669 2.32664C0.535712 2.26425 0.482674 2.19171 0.398438 2.09265L2.41855 0H2.88654Z" fill="#19BB4F"/>
		<path d="M0 11.6217C0.960141 11.6123 1.92106 11.5967 2.8812 11.6053C2.97012 11.6053 3.08477 11.748 3.13781 11.8502C3.18071 11.9329 3.14873 12.0538 3.14873 12.1575C3.14873 20.9503 3.14873 29.7426 3.14873 38.5344C3.14873 38.6904 3.13079 38.8464 3.12143 38.9985H0V11.6217Z" fill="#262626"/>
		<path d="M6.08198 38.9987C6.07106 38.8575 6.05078 38.7156 6.05078 38.5744C6.05078 31.2739 6.05078 23.9737 6.05078 16.6737V16.2236H9.24319V16.7548C9.24319 23.9898 9.24319 31.225 9.24319 38.4605C9.24319 38.6407 9.26737 38.8201 9.27985 39.0003L6.08198 38.9987Z" fill="#262626"/>
		<path d="M12.168 38.9983C12.175 38.8298 12.1875 38.6613 12.1875 38.4928C12.1875 32.7476 12.1849 27.0018 12.1797 21.2555C12.1797 20.8656 12.2655 20.7369 12.6726 20.7525C13.5384 20.7852 14.4073 20.7626 15.3331 20.7626V21.2977C15.3331 27.0304 15.3331 32.7632 15.3331 38.496C15.3331 38.6629 15.3534 38.8306 15.3643 38.9983H12.168Z" fill="#262626"/>
		<path d="M18.25 38.9988C18.2609 38.8311 18.2812 38.6642 18.2812 38.4965C18.2812 33.7688 18.2786 29.0412 18.2734 24.3135C18.2734 23.9235 18.3569 23.7972 18.7632 23.8128C19.6298 23.8471 20.4979 23.8237 21.4307 23.8237V24.3494C21.4307 29.0646 21.4307 33.7792 21.4307 38.4933C21.4307 38.6618 21.4416 38.8303 21.4471 38.9988H18.25Z" fill="#262626"/>
		<path d="M24.414 38.9983C24.4047 38.8696 24.3867 38.7409 24.3867 38.6083C24.3867 34.8525 24.3867 31.0964 24.3867 27.3401V26.8955H27.5339C27.5432 27.0016 27.562 27.1123 27.562 27.2231C27.562 31.0574 27.562 34.8915 27.562 38.7253C27.5574 38.8167 27.548 38.9078 27.5339 38.9983H24.414Z" fill="#262626"/>
		<path d="M30.4968 38.9983C30.4859 38.8696 30.4656 38.7417 30.4656 38.613C30.4656 35.8737 30.4711 33.1337 30.457 30.3945C30.457 30.0201 30.5608 29.8992 30.9383 29.9101C31.8189 29.9358 32.701 29.9179 33.6019 29.9179C33.6239 30.0105 33.6388 30.1046 33.6463 30.1995C33.6463 33.0557 33.6463 35.9122 33.6463 38.769C33.6418 38.846 33.6319 38.9226 33.6167 38.9983H30.4968Z" fill="#262626"/>
		<path d="M36.582 38.9988C36.5898 37.5995 36.5979 36.2002 36.6062 34.801C36.6062 34.2823 36.5953 33.7636 36.6171 33.2457C36.621 33.1482 36.7528 32.9758 36.8269 32.9751C37.8113 32.9665 38.7956 32.9829 39.7799 32.993V38.9988H36.582Z" fill="#262626"/>
	</symbol>
	<symbol id="solving-problems-icon-4" viewBox="0 0 39 39">
		<path d="M29.1731 0C30.2323 0.43368 30.6364 1.03662 30.6379 2.21754C30.6421 4.85654 30.6421 7.49501 30.6379 10.133C30.6379 14.2217 30.6426 18.3105 30.6278 22.3985C30.6336 22.7984 30.5621 23.1957 30.4172 23.5685C29.8111 24.999 27.8494 25.201 26.9727 23.9171C26.7582 23.5971 26.4431 23.3578 26.0773 23.237C22.1128 21.7763 18.1489 20.3125 14.1854 18.8456C13.2143 18.4868 12.2479 18.1131 11.2713 17.7684C11.0029 17.6749 10.721 17.6256 10.4367 17.6225C8.87674 17.6093 7.31674 17.6295 5.75674 17.6139C3.95806 17.5968 2.54314 16.0539 2.54314 14.4105C2.54314 13.0588 2.55562 11.7062 2.54314 10.3545C2.5252 8.71649 3.88864 7.19003 5.55472 7.12685C6.94234 7.07459 8.33308 7.03403 9.71992 7.07849C10.6427 7.10813 11.4819 6.90221 12.3236 6.57617C13.4936 6.12222 14.6799 5.7057 15.8562 5.26578C18.8061 4.16286 21.753 3.05916 24.6967 1.95468C25.2661 1.74174 25.8456 1.55532 26.4127 1.33068C26.5736 1.26355 26.7115 1.15108 26.8097 1.00698C27.11 0.55224 27.4899 0.20046 28.0031 0H29.1731ZM26.5312 2.85012C26.1779 2.98116 25.8753 3.09504 25.5726 3.20658C23.008 4.15194 20.4436 5.09782 17.8795 6.04422C15.9357 6.76494 13.9967 7.49969 12.0513 8.21573C11.8259 8.29919 11.7596 8.41931 11.7604 8.64473C11.7661 11.1272 11.7661 13.6102 11.7604 16.0937C11.7604 16.3035 11.8095 16.4057 12.0248 16.4837C13.9608 17.1862 15.8931 17.8979 17.8218 18.6186C20.1545 19.4839 22.4862 20.3515 24.8168 21.2214C25.3714 21.4274 25.9299 21.6216 26.5328 21.8376L26.5312 2.85012ZM10.3073 8.51993C10.253 8.50555 10.1977 8.49563 10.1419 8.49029C8.76442 8.49029 7.38616 8.45909 6.0079 8.49497C4.64602 8.53085 3.9799 9.46841 3.96898 10.5308C3.95572 11.7523 3.94948 12.9745 3.96898 14.1968C3.9955 15.3972 4.83712 16.1928 6.04456 16.1951C7.24056 16.1951 8.43656 16.1951 9.63256 16.1951H10.3104L10.3073 8.51993ZM27.9875 12.3552C27.9875 15.6832 27.9888 19.0112 27.9914 22.3392C27.9896 22.5451 28.0217 22.7498 28.0866 22.9452C28.2215 23.3352 28.7106 23.4444 28.9492 23.1168C29.116 22.8788 29.2073 22.5962 29.2113 22.3056C29.2254 15.6647 29.2277 9.02381 29.2183 2.3829C29.2183 2.17932 29.2183 1.9422 29.1177 1.78152C29.0171 1.62084 28.7979 1.43754 28.624 1.42974C28.45 1.42194 28.2075 1.58574 28.1139 1.74174C28.0047 1.92738 27.993 2.18868 27.9922 2.41644C27.9859 5.72832 27.9844 9.04123 27.9875 12.3552Z" fill="#19BB4F"/>
		<path d="M39 28.704C38.7746 29.4177 38.447 30.055 37.8362 30.5363C37.1943 31.0433 36.4728 31.2601 35.6748 31.2609C32.3354 31.265 28.996 31.265 25.6565 31.2609C18.2517 31.2609 10.8469 31.2609 3.44214 31.2609C2.57244 31.2609 1.7823 31.0542 1.10214 30.4871C0.53118 30.0168 0.20592 29.399 0 28.704V6.39605C0.20202 5.80326 0.45552 5.2479 0.919619 4.79628C1.56702 4.16604 2.32362 3.84546 3.2253 3.84468C8.13929 3.84468 13.0533 3.84468 17.9673 3.84468C18.0136 3.84471 18.0594 3.85421 18.1019 3.87258C18.1445 3.89096 18.1828 3.91783 18.2145 3.95154C17.8932 4.10754 17.5781 4.27602 17.2512 4.41954C16.6028 4.7019 15.9505 4.97516 15.2942 5.23932C15.1584 5.27936 15.0166 5.29469 14.8754 5.28456C11.0666 5.28456 7.25712 5.3064 3.44916 5.27364C2.28462 5.26428 1.37982 6.05363 1.38216 7.32815C1.3962 14.1521 1.3988 20.9766 1.38996 27.8016C1.38996 29.0636 2.16996 29.8335 3.43356 29.8335H35.568C36.8324 29.8335 37.6108 29.0652 37.6116 27.8055C37.6116 20.9805 37.6053 14.1555 37.6194 7.33127C37.6194 6.03882 36.6974 5.2401 35.5524 5.27832C34.1757 5.32434 32.7966 5.28924 31.4184 5.28924H30.9839V3.84468H31.6079C32.9729 3.84468 34.3379 3.87744 35.7021 3.83532C37.1358 3.79164 38.546 4.82748 38.9001 6.14568C38.9279 6.23124 38.9612 6.31488 39 6.39605V28.704Z" fill="#262626"/>
		<path d="M12.2454 39.0001C11.2782 38.7014 10.5114 38.1569 10.0395 37.2334C9.77497 36.7252 9.66643 36.1502 9.72752 35.5806C9.76106 35.2413 10.0536 35.0346 10.5075 35.0346C11.3655 35.0268 12.2235 35.0346 13.0815 35.0346C13.6143 35.0346 14.1478 35.0237 14.6797 35.04C14.9293 35.0471 15.0479 34.9761 15.1072 34.7179C15.3287 33.7601 15.5838 32.81 15.8092 31.8522C15.8669 31.6065 15.9652 31.4981 16.2249 31.523C16.5993 31.5581 16.9761 31.5667 17.3949 31.5893C17.0962 32.7866 16.8247 33.8732 16.5432 34.9995H22.4548C22.2294 34.0861 22.0055 33.1891 21.7785 32.2921C21.603 31.601 21.5999 31.6018 22.3245 31.6018C23.1006 31.6018 23.1045 31.6018 23.2948 32.3491C23.4922 33.1134 23.7043 33.8747 23.8736 34.6461C23.9399 34.9464 24.0569 35.0424 24.3634 35.0361C25.6239 35.0198 26.8859 35.065 28.1449 35.019C29.3617 34.9753 29.4241 35.5112 29.2103 36.501C28.9272 37.8301 28.0193 38.6101 26.7533 39.0001H12.2454ZM11.2813 36.4776C11.7048 37.281 12.3117 37.6172 13.1463 37.6156C16.9792 37.6078 20.8126 37.6078 24.6466 37.6156C25.1013 37.6156 25.5568 37.6242 26.0108 37.6156C26.8087 37.5953 27.4499 37.1554 27.6581 36.4838L11.2813 36.4776Z" fill="#262626"/>
		<path d="M1.6239 25.9413H36.6186C36.8619 25.9413 37.1771 25.8563 37.3276 25.9764C37.4415 26.0677 37.3487 26.4202 37.3463 26.6566C37.3385 27.4537 37.4462 27.3664 36.6443 27.3664C25.1674 27.3664 13.69 27.3664 2.21202 27.3664C1.659 27.3664 1.57008 27.2767 1.58802 26.7166C1.59114 26.4779 1.6083 26.2385 1.6239 25.9413Z" fill="#262626"/>
		<path d="M5.07812 17.8943C5.48138 17.8943 5.85812 17.9045 6.23252 17.8943C6.5258 17.8842 6.61394 18.0168 6.6116 18.2953C6.60302 19.4902 6.60692 20.686 6.6116 21.8833C6.6116 22.4792 6.77852 22.6469 7.36742 22.6492C7.66694 22.6492 7.96594 22.6492 8.26442 22.6492C8.75504 22.6492 8.99762 22.4152 8.99918 21.9129C9.00464 20.7047 9.01322 19.4949 8.99372 18.2875C8.98826 17.9318 9.09044 17.8358 9.44144 17.8834C9.7706 17.9279 10.1115 17.8928 10.4671 17.8928C10.4859 17.9913 10.4989 18.0907 10.5061 18.1907C10.5061 19.5292 10.5061 20.8674 10.5061 22.2054C10.5061 23.1983 9.55532 24.1554 8.5655 24.1554C7.9064 24.1515 7.2395 24.1772 6.59132 24.0719C5.738 23.9331 5.10933 23.093 5.10933 22.2304C5.10465 20.9574 5.10933 19.6837 5.10933 18.4084C5.09997 18.2352 5.08592 18.0691 5.07812 17.8943Z" fill="#19BB4F"/>
		<path d="M30.9805 11.1119V9.73444C32.2207 9.50044 33.2815 10.5745 33.2198 11.7858C33.1933 12.3038 33.2276 12.8264 33.1746 13.3412C33.0701 14.3552 32.0132 15.1422 30.9906 14.9909V13.6454C31.7378 13.4067 31.7924 13.3334 31.7924 12.5237C31.7924 12.342 31.7924 12.1602 31.7924 11.9777C31.7862 11.406 31.5967 11.1954 30.9805 11.1119Z" fill="#19BB4F"/>
		<path d="M33.4907 15.7012L34.9064 17.1099L33.9704 18.0989C33.5468 17.6847 33.1194 17.2783 32.7114 16.8509C32.6623 16.801 32.6826 16.6169 32.738 16.5459C32.979 16.2472 33.2489 15.9672 33.4907 15.7012Z" fill="#19BB4F"/>
		<path d="M35.0748 7.61188C34.6068 8.0635 34.2044 8.4613 33.7832 8.83882C33.7342 8.86572 33.6792 8.87982 33.6233 8.87982C33.5674 8.87982 33.5124 8.86572 33.4634 8.83882C33.1638 8.5939 32.8885 8.32012 32.543 8.00032C33.0258 7.537 33.44 7.12984 33.869 6.7414C33.914 6.71849 33.9641 6.70739 34.0146 6.70917C34.0651 6.71094 34.1143 6.72552 34.1576 6.75154C34.454 7.00582 34.7277 7.28194 35.0748 7.61188Z" fill="#19BB4F"/>
		<path d="M36.4564 13.0393H34.3668C34.3668 12.6314 34.3535 12.2344 34.3785 11.8389C34.3832 11.7656 34.5392 11.6455 34.6289 11.6416C35.1476 11.6229 35.6671 11.6416 36.1889 11.6299C36.394 11.6299 36.465 11.7126 36.4611 11.9076C36.451 12.2695 36.4564 12.6314 36.4564 13.0393Z" fill="#19BB4F"/>
	</symbol>
	<symbol id="solving-problems-icon-5" viewBox="0 0 48 39">
		<path d="M0 2.20563C0.402505 1.42316 0.928981 0.742924 1.74526 0.371814C2.14777 0.189077 2.59938 0.0176096 3.03328 0.0176096C16.1909 -0.00117397 29.3501 -0.00493069 42.511 0.00633945C43.5003 0.00714446 44.2756 0.48532 44.926 1.20983C45.6256 1.99069 45.8461 2.9076 45.8421 3.9372C45.8244 8.48444 45.8244 13.0322 45.8421 17.5805C45.8524 17.8184 45.7961 18.0545 45.6794 18.2622C45.5628 18.4698 45.3905 18.6408 45.182 18.7558C44.7199 19.0384 44.2691 18.9812 43.8465 18.6633C43.6826 18.5486 43.5496 18.3953 43.459 18.217C43.3685 18.0387 43.3232 17.8408 43.3272 17.6409C43.3272 15.8167 43.3353 13.9918 43.3272 12.1668C43.3224 11.2757 43.258 10.3845 43.262 9.49419C43.2701 7.58551 43.3103 5.67683 43.3289 3.76896C43.3369 2.91162 42.9336 2.50831 42.0948 2.50831H3.65394C2.63399 2.50831 2.27979 2.85688 2.28542 3.87119C2.29589 5.92155 2.32567 7.97191 2.32406 10.0223C2.31601 17.8132 2.29938 25.6043 2.27415 33.3957C2.27415 34.3336 2.72657 34.8262 3.70305 34.8262C11.1349 34.8262 18.5667 34.8407 26.0018 34.8061C26.9356 34.8021 27.735 35.8913 27.1868 36.6898C26.9163 37.0827 26.5428 37.2533 26.1016 37.3339C26.0213 37.3412 25.9405 37.3412 25.8601 37.3339C18.3872 37.3339 10.9151 37.3491 3.44303 37.3194C2.15501 37.3145 1.03524 36.8243 0.351789 35.6288C0.241503 35.43 0.116726 35.2416 0 35.05V2.20563Z" fill="#262626"/>
		<path d="M41.3129 31.1445C41.9956 31.799 42.6935 32.4567 43.3786 33.1289C44.2351 33.9701 45.082 34.8194 45.9313 35.6711C46.2992 36.039 46.6478 36.4278 47.0309 36.7796C47.588 37.2908 47.6283 38.1884 47.0213 38.7052C46.8076 38.8901 46.5357 38.9942 46.2532 38.9994C45.9706 39.0045 45.6952 38.9104 45.4749 38.7334C44.9419 38.2906 44.4517 37.7955 43.9574 37.3077C43.0719 36.4359 42.2025 35.5528 41.3266 34.6729C40.7897 34.1343 40.2544 33.5926 39.7166 33.054C39.6619 32.9993 39.5967 32.955 39.5146 32.8874C37.341 34.5296 34.9035 35.2791 32.189 35.0472C29.2402 34.7952 26.7857 33.4911 24.9688 31.1993C21.335 26.6155 22.1086 20.396 26.2198 16.7976C30.1644 13.3474 35.9604 13.3361 39.8567 16.6849C44.1651 20.3783 44.7785 26.5117 41.3129 31.1445ZM40.9958 24.6545C41.0875 20.2737 37.4594 16.8765 33.5374 16.726C28.6268 16.5384 25.1757 20.268 25.1653 24.6062C25.1564 29.1006 28.5712 32.3488 32.6921 32.5654C37.4344 32.8133 41.1061 28.9493 40.9958 24.6545Z" fill="#19BB4F"/>
		<path d="M22.7807 11.1737H3.38001C2.60237 11.1737 2.60237 11.1737 2.60156 10.3953C2.60156 9.99279 2.60156 9.59029 2.60156 9.18778C2.60156 8.83519 2.74727 8.66211 3.1385 8.66211C16.2714 8.66962 29.4044 8.66962 42.5373 8.66211C42.8593 8.66211 42.9978 8.73536 42.9833 9.08554C42.9567 9.70782 42.9833 10.3325 42.9599 10.9556C42.9599 11.0361 42.7909 11.1681 42.6983 11.1697C41.9472 11.1858 41.1962 11.1745 40.4443 11.1745L22.7807 11.1737Z" fill="#262626"/>
		<path d="M12.8867 5.56343C12.8867 4.78579 13.3375 4.32935 14.1023 4.32935C14.8469 4.32935 15.3492 4.82604 15.3492 5.56021C15.3492 6.25251 14.7777 6.84822 14.116 6.84822C13.3432 6.845 12.8867 6.36924 12.8867 5.56343Z" fill="#262626"/>
		<path d="M9.72766 4.39064C10.5536 4.31658 10.9585 4.91551 10.9819 5.574C11.0028 6.13751 10.585 6.82097 9.75664 6.78876C9.02167 6.75978 8.496 6.28805 8.50002 5.5893C8.50405 4.98876 8.96854 4.25862 9.72766 4.39064Z" fill="#262626"/>
		<path d="M5.39324 6.7838C4.69691 6.7838 4.11569 6.23317 4.14145 5.56984C4.16721 4.90651 4.61319 4.38728 5.40371 4.3744C5.56565 4.37033 5.72674 4.39917 5.87722 4.45918C6.02769 4.51919 6.16442 4.60912 6.27912 4.72352C6.39382 4.83792 6.48411 4.97441 6.54452 5.12473C6.60492 5.27504 6.63419 5.43606 6.63054 5.59802C6.63215 6.22753 6.03081 6.88523 5.39324 6.7838Z" fill="#262626"/>
		<path d="M32.272 26.5831C32.243 25.8055 32.4169 25.1051 32.9619 24.5239C33.329 24.1335 33.7138 23.7575 34.0535 23.3454C34.5429 22.7497 34.6097 21.9141 34.2563 21.3546C33.9029 20.7951 33.3475 20.7782 32.7936 20.8474C32.3002 20.9086 31.8799 21.1694 31.785 21.6903C31.7173 22.0582 31.5338 22.1137 31.2343 22.0799C31.1807 22.0771 31.127 22.0771 31.0733 22.0799C30.3826 22.0799 30.3617 22.0517 30.5396 21.3852C30.6184 21.0787 30.7657 20.794 30.9704 20.5527C31.1751 20.3113 31.4318 20.1195 31.7214 19.9917C32.5594 19.5956 33.4384 19.5892 34.303 19.8887C35.5202 20.3137 36.1336 21.8867 35.5307 23.1465C35.2698 23.6899 34.8802 24.193 34.4697 24.6382C33.6977 25.4795 33.6735 25.4569 33.4916 26.5839L32.272 26.5831Z" fill="#19BB4F"/>
		<path d="M32.9724 29.3229C32.4894 29.3294 32.2286 29.0943 32.219 28.6411C32.2101 28.208 32.4951 27.9166 32.9435 27.9093C33.3919 27.9021 33.6849 28.1693 33.697 28.6065C33.709 29.0436 33.4353 29.3173 32.9724 29.3229Z" fill="#19BB4F"/>
	</symbol>
	<symbol id="solving-problems-icon-6" viewBox="0 0 44 39">
		<path d="M0 30.3396V1.09191L1.16991 0H42.4286C42.9418 0.318215 43.409 0.684005 43.6765 1.2479V30.1836C43.5416 30.3825 43.4191 30.5907 43.2694 30.7771C42.7928 31.3691 42.1377 31.49 41.4209 31.4892C36.9675 31.4819 32.5143 31.4806 28.0614 31.4853H27.6098V34.1925H30.2616C32.0118 34.1925 33.2721 35.4505 33.2846 37.2061C33.2893 37.8025 33.2935 38.4005 33.2971 39H10.2952C10.3053 38.3519 10.317 37.7037 10.3256 37.0556C10.342 35.9146 11.1445 34.8016 12.2076 34.3952C12.9002 34.1301 13.6115 34.2081 14.3236 34.1971C14.8765 34.1886 15.4311 34.1971 15.9918 34.1971V31.4908H15.4591C11.0296 31.4908 6.60009 31.4908 2.17057 31.4908C1.62929 31.4908 1.09425 31.458 0.668406 31.0821C0.421166 30.8598 0.221502 30.5876 0 30.3396ZM1.88043 29.4224H41.7267V2.0138H1.88043V29.4224ZM25.5313 31.4837H18.0984V34.1613H25.5313V31.4837ZM31.2248 37.0463C31.1429 36.4738 30.852 36.2367 30.2546 36.2367H13.3471C13.269 36.2332 13.1908 36.2353 13.1131 36.2429C12.706 36.2983 12.4533 36.5775 12.401 37.0463H31.2248Z" fill="#262626"/>
		<path d="M21.8225 25.7254H2.56198C2.01602 25.7254 1.9856 25.6965 1.99808 25.1576C2.00666 24.7676 2.01524 24.3776 2.05892 23.9939C2.06984 23.9027 2.20867 23.8013 2.31084 23.7529C2.39663 23.7131 2.51518 23.7435 2.61891 23.7435H41.062C41.608 23.7435 41.608 23.7435 41.608 24.3074C41.608 24.6062 41.6259 24.9049 41.6298 25.2036C41.6353 25.7254 41.6298 25.7254 41.1236 25.7254H21.8225Z" fill="#262626"/>
		<path d="M28.0733 15.5085C28.0866 15.6727 28.0968 15.7547 28.0992 15.8381C28.1227 16.7716 28.1227 16.7729 27.5387 16.7729H4.61827C4.36741 16.7729 4.13223 16.8537 4.14086 16.1843C4.14791 15.6214 4.23649 15.4675 4.5822 15.4688C12.2866 15.4841 19.991 15.4884 27.6954 15.4816C27.8146 15.4816 27.9298 15.4983 28.0733 15.5085Z" fill="#19BB4F"/>
		<path d="M28.1064 11.9912V13.2494C27.9682 13.2607 27.8528 13.2796 27.7374 13.2796C20.0181 13.2796 12.2978 13.2829 4.5764 13.2896C4.26863 13.2896 4.1383 13.1915 4.14066 12.6379C4.14301 12.0843 4.26078 11.9812 4.57404 11.9824C8.60431 11.9975 12.6346 12.0009 16.6649 11.9925H28.1064V11.9912Z" fill="#19BB4F"/>
		<path d="M13.82 8.56743H11.8249C11.8108 8.85445 11.7976 9.12041 11.7851 9.37779C11.2392 9.45578 11.2392 9.45578 11.2392 8.96364C11.2392 8.79518 11.2446 8.62593 11.2392 8.45746C11.2306 8.25624 11.2836 8.14549 11.4731 8.0051C11.8678 7.7134 11.9497 7.22516 11.977 6.74706C11.9941 6.43508 12.0175 6.12311 12.0152 5.81113C12.0152 5.56935 12.0862 5.45704 12.3506 5.46718C12.8045 5.48434 13.26 5.48044 13.7147 5.46718C13.9533 5.46016 14.0321 5.54986 14.0267 5.7854C14.0157 6.5123 14.0267 7.2392 14.0267 7.99808C14.4314 7.99808 14.4314 8.26248 14.4127 8.54794C14.4041 8.69066 14.4127 8.83339 14.4127 8.9769C14.4127 9.44486 14.3854 9.46748 13.8582 9.36687C13.8465 9.12509 13.834 8.86615 13.82 8.56743ZM13.4199 8.03318V6.05759H12.6649C12.5518 6.72912 12.4426 7.37257 12.3311 8.03162L13.4199 8.03318Z" fill="#19BB4F"/>
		<path d="M4.47266 8.48803L5.36101 6.82286C4.87822 6.5686 4.60603 6.20749 4.6224 5.66231C4.64034 5.0485 4.99677 4.5782 5.60747 4.49709C6.12278 4.44062 6.64129 4.41848 7.15954 4.43079C7.23753 4.43079 7.38806 4.59458 7.38884 4.68349C7.40444 5.94309 7.39976 7.20269 7.39976 8.50519H6.80155V7.02876C6.01537 6.86342 5.9717 6.88213 5.64412 7.52012C5.53181 7.73929 5.41014 7.95221 5.29159 8.16981C5.06541 8.59644 5.05761 8.60112 4.47266 8.48803ZM6.78595 4.94477C6.51531 4.94477 6.28523 4.94477 6.05515 4.94477C5.96456 4.94672 5.87451 4.95928 5.78685 4.98221C5.4039 5.0797 5.20658 5.33942 5.22842 5.70833C5.25181 6.11546 5.46786 6.39155 5.85237 6.43211C6.15498 6.46409 6.46462 6.43835 6.78829 6.43835L6.78595 4.94477Z" fill="#19BB4F"/>
		<path d="M15.4069 7.27424C15.4124 7.59791 15.5372 7.87713 15.8476 8.01362C16.1728 8.15791 16.523 8.15167 16.7952 7.89663C17.0526 7.65485 17.1906 7.76638 17.3412 8.00582C17.0034 8.51278 16.5292 8.67735 15.9576 8.5822C15.3609 8.48314 14.9709 8.13529 14.8407 7.53942C14.7369 7.0621 14.7463 6.58478 14.9772 6.13553C15.2548 5.59893 15.7977 5.33766 16.4099 5.43359C16.9013 5.51158 17.2546 5.90155 17.3591 6.4826C17.4878 7.19859 17.4878 7.19703 16.7702 7.19859C16.3428 7.19859 15.9152 7.20275 15.4872 7.21107C15.467 7.21731 15.4444 7.2446 15.4069 7.27424ZM16.8061 6.65575C16.6821 6.0903 16.4793 5.89063 16.0995 5.91715C15.7197 5.94367 15.4935 6.21275 15.4678 6.65575H16.8061Z" fill="#19BB4F"/>
		<path d="M20.6042 8.48719C20.2143 8.56518 19.9101 8.63304 19.6745 8.25945C19.4865 7.98028 19.2729 7.71918 19.0366 7.47951C18.9367 7.37266 18.7815 7.31806 18.5686 7.18625V8.51215H18.0078V5.54215C18.5 5.40254 18.5499 5.43919 18.5538 5.93211C18.5538 6.1661 18.5566 6.40008 18.5623 6.63406C18.5777 6.68544 18.5984 6.7351 18.624 6.78225C18.7511 6.70425 18.893 6.65668 18.9804 6.55918C19.2027 6.32385 19.4024 6.06822 19.577 5.79563C19.797 5.43373 20.0926 5.43296 20.5083 5.52109C20.1035 6.02493 19.733 6.49055 19.3587 6.95695C19.7822 7.47639 20.1799 7.96541 20.6042 8.48719Z" fill="#19BB4F"/>
		<path d="M8.85053 8.52216H8.23828V6.84061C8.23828 6.54216 8.23828 6.24318 8.23828 5.94368C8.23828 5.4414 8.23828 5.4414 8.82089 5.51238V6.72362H10.1546C10.1546 6.41165 10.1624 6.08953 10.1546 5.77132C10.1468 5.55606 10.2232 5.46948 10.4455 5.46948C10.6678 5.46948 10.7481 5.54046 10.7458 5.76274C10.738 6.59415 10.7458 7.42557 10.7411 8.25854C10.7411 8.57051 10.6444 8.60405 10.1561 8.47302V7.30624H8.85365L8.85053 8.52216Z" fill="#19BB4F"/>
		<path d="M36.9375 27.5786C36.9375 26.5569 36.9375 26.5569 37.9514 26.5522C39.0293 26.5468 39.0293 26.5468 39.0293 27.6348C39.0293 28.6565 39.0293 28.6565 38.0154 28.6565C36.9375 28.6565 36.9375 28.6565 36.9375 27.5786Z" fill="#262626"/>
		<path d="M23.3989 7.44355C23.3209 8.12599 22.9309 8.51128 22.3421 8.6002C21.7828 8.68443 21.1839 8.37245 20.9709 7.86315C20.7581 7.36884 20.7354 6.81336 20.907 6.30328C21.1144 5.67933 21.6869 5.35332 22.3889 5.43365C22.9348 5.49604 23.3248 5.87041 23.3895 6.40779C23.3891 6.45002 23.3844 6.49209 23.3755 6.53336C23.1103 6.61135 22.9145 6.63553 22.7601 6.29938C22.6782 6.12077 22.3967 5.97181 22.1814 5.93125C21.9006 5.87743 21.6596 6.04356 21.5348 6.3259C21.443 6.53425 21.3936 6.75878 21.3895 6.98641C21.3853 7.21405 21.4265 7.44024 21.5107 7.65179C21.6136 7.93647 21.8226 8.07842 22.1346 8.09246C22.4466 8.1065 22.6322 7.98015 22.8178 7.73992C22.9184 7.59642 23.1563 7.55742 23.3989 7.44355Z" fill="#19BB4F"/>
	</symbol>
	<symbol id="solving-problems-icon-7" viewBox="0 0 41 39">
		<path d="M0 31.8242L1.34937 30.6667C2.62465 29.5708 4.03408 28.6722 5.49967 27.8587C7.51515 26.741 9.61175 25.8089 11.8238 25.1483C12.1818 25.0414 12.2387 24.8776 12.0071 24.5906C10.873 23.1866 9.94949 21.6563 9.40974 19.9239C9.27246 19.4832 9.03768 19.1673 8.70775 18.8569C7.74291 17.9467 7.3498 16.758 7.22578 15.4733C7.12126 14.3541 7.2484 13.2707 7.86147 12.2855C7.92075 12.1904 7.90359 12.0367 7.89267 11.9119C7.73667 10.171 7.72965 8.4332 8.1485 6.72425C8.9784 3.34146 11.0719 1.18636 14.4664 0.352553C15.1411 0.186416 15.8399 0.118558 16.5279 0H18.8678C19.6314 0.136497 20.4106 0.216836 21.1563 0.419632C24.2318 1.255 26.1942 3.23928 27.0842 6.29292C27.6216 8.14226 27.6247 10.029 27.4703 11.9275C27.4527 12.0903 27.4824 12.2547 27.5561 12.401C28.6621 14.3041 28.2152 17.7922 26.2519 19.2165C26.1615 19.282 26.1077 19.4216 26.0726 19.5378C25.5081 21.379 24.5833 23.0896 23.352 24.5703C23.118 24.8581 23.1499 25.0196 23.5033 25.1389C23.7373 25.2169 23.9713 25.284 24.2092 25.3581C24.2318 25.3651 24.2482 25.3901 24.2872 25.4252C24.0758 25.8932 23.8691 26.3612 23.6413 26.8182C23.6148 26.872 23.4651 26.9017 23.3855 26.8853C22.9955 26.8011 22.5985 26.7129 22.2155 26.5928C22.0861 26.5522 21.9145 26.4314 21.8864 26.3167C21.7234 25.6545 21.5744 24.9907 21.4761 24.3129C21.4535 24.1569 21.6243 23.9385 21.7546 23.7911C22.5499 22.9146 23.2074 21.9223 23.7045 20.8482C24.0703 20.0363 24.3145 19.1689 24.6187 18.3281C24.6553 18.2275 24.706 18.0941 24.7871 18.0543C25.979 17.5083 26.2691 16.4319 26.4118 15.2776C26.521 14.4071 26.3151 13.6232 25.8237 12.8807C25.6716 12.6514 25.6974 12.2637 25.7301 11.9572C25.9197 10.1882 25.9205 8.4332 25.4181 6.70943C24.7622 4.47321 23.3715 2.91558 21.1212 2.2136C18.5972 1.42659 16.0786 1.46559 13.6115 2.44759C11.9392 3.1137 10.8238 4.35622 10.1796 6.0207C9.58757 7.54791 9.42846 9.14064 9.54389 10.7654C9.58601 11.3472 9.63281 11.9299 9.66167 12.5125C9.67079 12.6368 9.63961 12.7607 9.57275 12.8659C8.70697 14.021 8.79277 15.2682 9.22878 16.5318C9.45498 17.187 9.84497 17.7244 10.5095 18.027C10.5738 18.0665 10.6295 18.1186 10.6732 18.1801C10.7168 18.2416 10.7477 18.3113 10.7638 18.385C11.2489 20.5003 12.3097 22.3044 13.7199 23.9229C13.8151 24.0321 13.9297 24.2014 13.9102 24.3223C13.8026 24.9704 13.6763 25.617 13.5086 26.2512C13.4703 26.3955 13.2613 26.5554 13.1022 26.5967C9.40272 27.5569 6.08388 29.2853 3.0123 31.5184C2.65663 31.7766 2.33683 32.0839 1.99364 32.3616C1.89061 32.4381 1.80846 32.5392 1.75476 32.6557C1.70106 32.7723 1.67753 32.9005 1.68633 33.0285C1.70427 34.2367 1.69257 35.4464 1.69491 36.6546C1.69491 37.1561 1.78227 37.2419 2.29082 37.2419C12.4951 37.2419 22.6994 37.2435 32.9037 37.2466C33.6322 37.2466 34.3615 37.3168 35.0931 37.355C35.0081 38.2193 34.2257 38.8939 33.3241 38.9485C33.1946 38.9563 33.0636 38.9485 32.9341 38.9485C22.7943 38.9485 12.6545 38.9532 2.51467 38.9626C1.27606 38.968 0.399352 38.5874 0 37.3621V31.8242Z" fill="#262626"/>
		<path d="M39 38.9999C38.311 38.2959 37.6222 37.5918 36.9338 36.8877C36.3426 36.2864 35.7482 35.6866 35.1344 35.0657C33.3771 36.401 31.4169 36.8558 29.2884 36.4143C27.6005 36.0641 26.2285 35.1608 25.1872 33.7779C23.1397 31.0589 23.3152 26.9351 26.1014 24.4181C27.2941 23.3461 28.8186 22.716 30.4201 22.6329C32.0216 22.5499 33.6031 23.019 34.9004 23.9618C37.6911 25.9898 38.9196 30.2579 36.3043 33.9269C37.064 34.6687 37.8339 35.4182 38.6006 36.1717C39.0733 36.6397 39.5366 37.1077 40.0108 37.571C40.0855 37.6368 40.1647 37.6973 40.2479 37.752V38.2199L39.468 38.9999H39ZM36.0805 29.6089C36.0711 26.6652 33.6711 24.305 30.6986 24.3113C27.8672 24.3191 25.4267 26.7596 25.4727 29.6151C25.5195 32.5081 27.751 34.8964 30.7992 34.8949C33.7912 34.891 36.0274 32.4847 36.0805 29.6089Z" fill="#19BB4F"/>
	</symbol>
	<symbol id="solving-problems-icon-8" viewBox="0 0 44 39">
		<path d="M33.306 39H10.296C10.3061 38.3518 10.3178 37.7036 10.3264 37.0555C10.3428 35.9143 11.1454 34.8013 12.2086 34.3949C12.9012 34.1297 13.6126 34.2077 14.3247 34.1968C14.8777 34.1882 15.4323 34.1968 15.9931 34.1968V31.4902H15.4604C11.0305 31.4902 6.60062 31.4902 2.17074 31.4902C1.62942 31.4902 1.09434 31.4574 0.66846 31.0814C0.4212 30.8623 0.22152 30.59 0 30.342V1.092L1.17 0H42.432C42.9452 0.31824 43.4125 0.68406 43.68 1.248V30.186C43.5451 30.3849 43.4226 30.5932 43.2728 30.7796C42.7963 31.3716 42.1411 31.4925 41.4242 31.4917C36.9704 31.4844 32.5169 31.4831 28.0636 31.4878H27.612V34.1952H30.264C32.0143 34.1952 33.2748 35.4533 33.2873 37.2091C33.2961 37.8061 33.3024 38.403 33.306 39ZM1.8798 29.4232H41.73V2.01552H1.8798V29.4232ZM25.5505 34.1812C25.5505 33.3793 25.5364 32.6141 25.5575 31.8505C25.5661 31.5385 25.4693 31.4605 25.1636 31.4605C22.9289 31.473 20.6942 31.4668 18.4603 31.4683C18.3456 31.4683 18.2309 31.48 18.096 31.4878V34.1827L25.5505 34.1812ZM31.232 37.05C31.1345 36.4525 30.8537 36.238 30.2133 36.238H13.4207C13.3166 36.2333 13.2124 36.2356 13.1087 36.245C12.7023 36.3012 12.448 36.5867 12.4067 37.05H31.232Z" fill="#262626"/>
		<path d="M21.8588 23.7448H41.1248C41.6217 23.7448 41.6154 23.7448 41.6115 24.2494C41.6115 24.6004 41.6115 24.9514 41.6365 25.3009C41.6568 25.6129 41.564 25.779 41.2247 25.7283C41.1727 25.7244 41.1206 25.7244 41.0687 25.7283H2.61935C2.00861 25.7283 1.96493 25.6815 1.99535 25.063C2.01095 24.7393 2.04917 24.4156 2.03903 24.0934C2.02967 23.8134 2.13575 23.737 2.40173 23.7409C3.23399 23.7541 4.06547 23.7455 4.89773 23.7455L21.8588 23.7448Z" fill="#262626"/>
		<path d="M28.7589 8.48887C28.7254 8.84923 28.7199 9.21583 28.6513 9.56917C28.5288 10.1932 28.7542 10.6822 29.1676 11.1214C29.4157 11.3858 29.6622 11.6541 29.8923 11.9341C30.3291 12.4645 30.3384 13.0261 29.9149 13.5674C29.6923 13.8699 29.4469 14.1549 29.1809 14.42C28.5733 14.9933 28.5772 15.6937 28.6809 16.4371C28.7308 16.7831 28.7488 17.133 28.7347 17.4823C28.7106 18.0181 28.3057 18.3839 27.6427 18.5204C27.351 18.5805 27.0593 18.6437 26.7652 18.6889C26.1412 18.7856 25.7005 19.1265 25.4049 19.6795C25.2091 20.0446 25.011 20.4112 24.7809 20.7559C24.444 21.2598 23.9518 21.4041 23.3886 21.181C23.0392 21.0422 22.6975 20.8831 22.359 20.7177C21.7709 20.4299 21.1937 20.4174 20.6048 20.7239C20.2832 20.8936 19.9504 21.0411 19.6087 21.1654C18.9223 21.4096 18.5167 21.2707 18.1127 20.6537C17.9022 20.3261 17.7091 19.9876 17.5339 19.6397C17.25 19.0859 16.7976 18.7919 16.1939 18.6866C15.8099 18.6272 15.4298 18.5444 15.0559 18.4385C14.4724 18.2615 14.2252 17.9339 14.226 17.3216C14.2217 16.8679 14.2559 16.4146 14.3281 15.9667C14.4272 15.3981 14.2299 14.9473 13.8835 14.5354C13.6495 14.2585 13.396 13.998 13.1558 13.7266C12.6324 13.1369 12.6036 12.5566 13.0817 11.9326C13.2624 11.6951 13.4611 11.4719 13.6761 11.2649C14.2774 10.6947 14.4662 10.0169 14.2946 9.21193C14.2228 8.87419 14.2392 8.51695 14.2252 8.16751C14.2041 7.63321 14.5138 7.30951 14.9724 7.14805C15.3162 7.03168 15.6708 6.9499 16.0309 6.90391C16.7493 6.79783 17.2789 6.46789 17.6088 5.79397C17.796 5.40963 18.0193 5.04398 18.2757 4.70197C18.5877 4.28389 19.0253 4.15597 19.5237 4.35877C19.9207 4.51477 20.3162 4.68247 20.6992 4.87201C21.2577 5.14891 21.7912 5.10601 22.3426 4.84159C22.7264 4.65439 23.1226 4.48825 23.5228 4.33771C23.9783 4.16533 24.3862 4.29559 24.6678 4.67155C24.9526 5.04114 25.1983 5.43925 25.401 5.85949C25.713 6.53029 26.2723 6.78223 26.9407 6.90001C27.2364 6.93965 27.529 6.99906 27.8167 7.07785C28.3658 7.25413 28.8205 7.52713 28.7589 8.48887ZM27.798 8.5068C27.8526 8.20183 27.6833 8.07079 27.4228 8.01307C27.1623 7.95535 26.9173 7.89373 26.6607 7.85707C25.5422 7.71589 24.8839 7.02793 24.3792 6.07165C23.8746 5.11537 24.0501 5.14111 23.0478 5.61067C22.5057 5.86417 21.9558 6.16291 21.3403 6.04435C20.8247 5.93331 20.3214 5.77105 19.8381 5.55997C18.9496 5.19415 19.0846 5.14969 18.6439 5.94997C18.3319 6.51625 18.0636 7.15039 17.4474 7.44289C16.9538 7.66555 16.4349 7.82716 15.9022 7.92414C15.1815 8.07 15.0894 8.11837 15.2337 8.82271C15.5036 10.1393 15.2119 11.2407 14.1846 12.1627C13.5825 12.7016 13.6238 12.8069 14.1948 13.4029C14.6885 13.9192 15.2166 14.4395 15.2821 15.1969C15.3265 15.707 15.2821 16.2304 15.2251 16.742C15.1471 17.462 15.1393 17.5096 15.8398 17.6C17.055 17.756 17.9918 18.2693 18.5448 19.4182C19.0908 20.5547 19.0128 20.3862 20.0182 19.8932C20.9542 19.4362 21.8754 19.3589 22.8184 19.8511C23.0361 19.965 23.2732 20.0438 23.4892 20.1631C23.7817 20.3238 23.9799 20.2411 24.1296 19.965C24.2958 19.653 24.458 19.3457 24.6374 19.0454C24.9361 18.5462 25.3082 18.1094 25.8854 17.9362C26.33 17.8005 26.7847 17.6944 27.2395 17.5993C27.7707 17.4869 27.8409 17.4089 27.7722 16.8715C27.7449 16.6531 27.7028 16.4363 27.6724 16.2179C27.5585 15.3973 27.6856 14.6392 28.2527 13.9964C28.4586 13.7624 28.6677 13.5331 28.8767 13.3022C29.3104 12.8233 29.3104 12.7399 28.8705 12.2789C28.7535 12.1564 28.6365 12.0324 28.521 11.9115C27.8479 11.2204 27.5179 10.41 27.6583 9.43579C27.7036 9.12145 27.7512 8.81413 27.798 8.5068Z" fill="#19BB4F"/>
		<path d="M39.0319 27.6172C39.0319 28.6585 39.0319 28.6586 37.9961 28.6586C36.9384 28.6586 36.9384 28.6585 36.9384 27.6001C36.9384 27.3661 36.947 27.1321 36.9384 26.8981C36.9267 26.6508 37.0266 26.544 37.2785 26.5486C37.7309 26.5588 38.1833 26.5642 38.6349 26.5486C38.9399 26.5369 39.06 26.6532 39.0366 26.9566C39.0179 27.1765 39.0312 27.3973 39.0319 27.6172Z" fill="#262626"/>
		<path d="M22.1695 17.1682H21.0525V10.5897L19.0541 11.7324L18.9332 11.6544C18.9332 11.3268 18.9208 10.9984 18.9426 10.6731C18.9473 10.5951 19.0596 10.5101 19.1423 10.4649C20.0167 9.98517 20.7842 9.39627 21.3512 8.55075C21.4487 8.40645 21.8075 8.41815 22.0478 8.40723C22.0891 8.40723 22.1835 8.65059 22.1835 8.78163C22.1913 11.4451 22.1931 14.1085 22.189 16.7719C22.189 16.896 22.1773 17.0223 22.1695 17.1682Z" fill="#19BB4F"/>
	</symbol>
	<symbol id="solving-problems-icon-9" viewBox="0 0 40 39">
		<path d="M0 2.82379C0.181676 2.8144 0.363351 2.79639 0.548159 2.79639C2.84338 2.79639 5.13782 2.79639 7.49021 2.79639C7.57948 3.37117 7.66875 3.94987 7.76664 4.57712H1.73845V37.4174H24.6828V30.8629C25.2803 31.043 25.8128 31.1965 26.3391 31.3712C26.3808 31.3957 26.4161 31.4298 26.4421 31.4706C26.4681 31.5115 26.484 31.5579 26.4886 31.6061C26.4886 34.0707 26.4821 36.5353 26.4691 39H0V2.82379Z" fill="#262626"/>
		<path d="M39.1548 23.1841C39.0718 23.4879 38.988 23.7918 38.9058 24.0956C38.5311 25.5034 37.8476 26.8102 36.905 27.921C36.1108 28.8495 35.1647 29.6365 34.1071 30.2483C33.0162 30.8889 31.8361 31.2475 30.5879 31.4026C29.3076 31.5595 28.0099 31.4964 26.7508 31.2162C25.4728 30.9374 24.3592 30.3149 23.3091 29.5506C22.1674 28.7189 21.2731 27.6657 20.5268 26.4848C20.3788 26.2499 20.3177 25.9648 20.1956 25.7135C19.6639 24.6171 19.3021 23.4824 19.2888 22.2561C19.2809 21.5467 19.1963 20.8184 19.3232 20.1316C19.4736 19.3204 19.5158 18.4676 19.9614 17.7197C20.3185 17.1199 20.573 16.455 20.9575 15.8756C21.4642 15.1128 22.0977 14.4566 22.7985 13.8497C23.7641 13.0134 24.8534 12.4018 26.0202 11.9359C26.5863 11.7103 27.223 11.6414 27.8346 11.5553C29.4358 11.334 31.0669 11.5044 32.5879 12.0518C33.8158 12.4832 34.8964 13.1551 35.8823 14.0095C37.5519 15.4496 38.4986 17.2984 39.0358 19.394C39.0726 19.5365 39.1141 19.6782 39.1517 19.82L39.1548 23.1841ZM29.2449 13.2914C24.7813 13.2914 21.1909 16.8607 21.1251 21.224C21.053 26.0212 24.7516 29.3556 28.8628 29.5388C33.5832 29.7487 37.3741 25.8998 37.3804 21.4269C37.3858 16.9304 33.6842 13.2718 29.2449 13.2914Z" fill="#19BB4F"/>
		<path d="M7.14453 0H19.3058C19.1727 0.704776 19.0553 1.37353 18.9143 2.03994C18.5619 3.73845 18.1923 5.43304 17.8517 7.1339C17.8055 7.36883 17.7091 7.40015 17.5181 7.39937C14.6467 7.39937 11.7767 7.39937 8.90804 7.39937C8.6598 7.39937 8.56035 7.29209 8.5165 7.06578C8.27844 5.68833 8.0396 4.30697 7.77413 2.93265C7.58854 1.96946 7.36223 1.01801 7.14453 0ZM9.49379 1.7408C9.47499 1.79953 9.44758 1.83868 9.45385 1.87079C9.6739 3.05246 9.89316 4.23414 10.1304 5.41268C10.1469 5.49099 10.3035 5.60062 10.3951 5.60141C12.2988 5.61237 14.2017 5.60767 16.1054 5.61237C16.3246 5.61237 16.3865 5.51527 16.4186 5.31245C16.4899 4.87862 16.5987 4.45105 16.6864 4.02036C16.843 3.26546 16.9887 2.50979 17.1414 1.7408H9.49379Z" fill="#262626"/>
		<path d="M22.6725 31.0259C22.6725 31.5843 22.6835 32.0784 22.6616 32.5702C22.6616 32.6485 22.5245 32.7495 22.4267 32.798C22.3538 32.8348 22.2481 32.8067 22.1565 32.8067C16.2197 32.8067 10.2828 32.8098 4.34601 32.8161C3.9435 32.8161 3.81116 32.7119 3.85031 32.3157C3.87215 31.9767 3.87398 31.6368 3.8558 31.2977C3.85188 31.098 3.9341 31.0056 4.13379 31.0244C4.19879 31.0306 4.26457 31.0244 4.32956 31.0244H22.6694L22.6725 31.0259Z" fill="#262626"/>
		<path d="M13.2329 13.2339C10.2572 13.2339 7.28144 13.2268 4.31041 13.2425C3.94236 13.2425 3.82803 13.136 3.85544 12.7805C3.88285 12.425 3.86719 12.0757 3.86014 11.7249C3.85622 11.526 3.93297 11.4312 4.13657 11.4508C4.20157 11.4571 4.26734 11.4508 4.33234 11.4508C10.2807 11.4508 16.229 11.4477 22.1773 11.4414C22.5735 11.4414 22.7192 11.5393 22.6769 11.9402C22.6518 12.253 22.6518 12.5672 22.6769 12.8799C22.6926 13.154 22.5853 13.2425 22.3143 13.2386C21.4412 13.2261 20.5665 13.2339 19.6926 13.2339H13.2329Z" fill="#262626"/>
		<path d="M20.2727 26.3116H19.7574C14.6152 26.3116 9.47293 26.3142 4.33067 26.3195C3.95558 26.3195 3.8201 26.2208 3.85221 25.8426C3.88197 25.4792 3.84281 25.1112 3.87022 24.7462C3.87727 24.6554 4.01274 24.5481 4.11376 24.498C4.19833 24.4573 4.31893 24.4886 4.42699 24.4886C9.13881 24.4886 13.8506 24.5043 18.5617 24.4698C19.1639 24.4659 19.5413 24.592 19.759 25.1558C19.8945 25.5129 20.0699 25.859 20.2727 26.3116Z" fill="#262626"/>
		<path d="M11.7257 17.9326C14.2426 17.9326 16.7594 17.9326 19.2763 17.9428C19.3546 17.9428 19.5112 18.0947 19.501 18.1613C19.4517 18.6123 19.3781 19.061 19.2872 19.5051C19.27 19.5888 19.1502 19.6726 19.0578 19.7149C18.9795 19.7494 18.8784 19.7243 18.7876 19.7243C13.9617 19.7243 9.13583 19.7269 4.30993 19.7321C3.94815 19.7321 3.81972 19.635 3.85261 19.2733C3.87937 18.9606 3.87937 18.6462 3.85261 18.3336C3.82834 18.0203 3.94188 17.9342 4.2512 17.9365C6.29897 17.9491 8.34674 17.9428 10.3945 17.9428H11.7257V17.9326Z" fill="#262626"/>
		<path d="M24.6776 4.57528H23.0621C21.6925 4.57528 20.3213 4.56901 18.954 4.58154C18.6713 4.58154 18.6118 4.50324 18.6846 4.23777C18.7951 3.83918 18.864 3.42884 18.9799 3.03182C19.0081 2.93315 19.1459 2.79689 19.2344 2.79689C21.5053 2.78671 23.7763 2.79689 26.0409 2.78906C26.3972 2.78906 26.5108 2.88147 26.5108 3.24795C26.4951 5.77784 26.4951 8.30798 26.5108 10.8384C26.5108 11.2448 26.4552 11.5432 26.0308 11.6826C25.7363 11.7812 25.4615 11.9394 25.1655 12.0295C24.687 12.1751 24.6815 12.161 24.6807 11.6739V4.57528H24.6776Z" fill="#262626"/>
		<path d="M34.4461 22.2881H33.9638C30.8197 22.2881 27.6756 22.2819 24.5323 22.2967C24.1533 22.2967 24.0194 22.1926 24.0624 21.8167C24.0902 21.5436 24.0902 21.2684 24.0624 20.9952C24.0288 20.6429 24.1407 20.5254 24.5143 20.5254C26.8103 20.5418 29.1063 20.5332 31.4054 20.5332C32.2927 20.5332 33.1799 20.5473 34.0679 20.5262C34.389 20.5191 34.4743 20.6303 34.4595 20.9326C34.4297 21.3633 34.4461 21.794 34.4461 22.2881Z" fill="#19BB4F"/>
	</symbol>
	<symbol id="solving-problems-icon-10" viewBox="0 0 40 39">
		<path d="M0 2.82306C0.181676 2.81367 0.363351 2.79565 0.548159 2.79565C2.84338 2.79565 5.13782 2.79565 7.49021 2.79565C7.57948 3.37044 7.66875 3.94836 7.76664 4.57561H1.73845V37.4182H24.6828V30.8622C25.2803 31.0431 25.8128 31.1958 26.3391 31.3712C26.3809 31.3957 26.4163 31.4297 26.4423 31.4706C26.4683 31.5114 26.4842 31.5579 26.4886 31.6061C26.4886 34.0708 26.4821 36.5354 26.4691 39H0V2.82306Z" fill="#262626"/>
		<path d="M39.1548 23.1833C39.0718 23.4871 38.988 23.791 38.9058 24.0948C38.5309 25.5028 37.8475 26.8098 36.905 27.9209C36.111 28.8495 35.1649 29.6362 34.1071 30.2475C33.0162 30.8881 31.8361 31.2467 30.5879 31.4025C29.3075 31.5592 28.0098 31.4959 26.7508 31.2154C25.4728 30.9366 24.3592 30.3141 23.3091 29.5498C22.1674 28.7181 21.2731 27.6649 20.5268 26.484C20.3788 26.2491 20.3177 25.964 20.1956 25.7127C19.6639 24.6163 19.3021 23.4824 19.2888 22.2553C19.2809 21.5459 19.1963 20.8176 19.3232 20.1308C19.4736 19.3195 19.5158 18.4668 19.9614 17.7197C20.3185 17.1191 20.573 16.455 20.9575 15.8748C21.4642 15.112 22.0977 14.4566 22.7985 13.8497C23.7641 13.0126 24.8534 12.401 26.0202 11.9351C26.5863 11.7095 27.223 11.6406 27.8346 11.5553C29.4358 11.3333 31.0669 11.5034 32.5879 12.051C33.8158 12.4824 34.8964 13.1543 35.8823 14.0087C37.5519 15.4488 38.4986 17.2976 39.0358 19.3932C39.0726 19.5357 39.1141 19.6774 39.1517 19.8192L39.1548 23.1833ZM29.2418 13.2914C24.7829 13.2914 21.1893 16.8599 21.1251 21.2264C21.0538 26.0204 24.7523 29.3571 28.8651 29.538C33.5926 29.7463 37.3772 25.8904 37.3804 21.4229C37.3835 16.9202 33.6732 13.2694 29.2418 13.2914Z" fill="#19BB4F"/>
		<path d="M7.14453 0H19.3058C19.1727 0.704776 19.0553 1.37431 18.9143 2.0415C18.5627 3.73923 18.1931 5.43461 17.8524 7.13155C17.8054 7.36648 17.7076 7.39624 17.5173 7.39624C14.646 7.39624 11.776 7.39624 8.90726 7.39624C8.65823 7.39624 8.56035 7.28661 8.52041 7.06108C8.27531 5.68206 8.03725 4.30149 7.77178 2.92561C7.58854 1.96711 7.36223 1.01175 7.14453 0ZM9.47656 1.7361C9.46065 1.79988 9.4525 1.86535 9.45228 1.93109C9.6645 3.06186 9.88611 4.19107 10.0905 5.32341C10.1367 5.57948 10.2737 5.61394 10.4969 5.61315C12.3346 5.60689 14.1727 5.60689 16.0114 5.61315C16.2855 5.61315 16.4108 5.54581 16.4288 5.24902C16.4444 4.9812 16.5376 4.7173 16.5924 4.45105C16.778 3.55364 16.9621 2.65544 17.1516 1.73453L9.47656 1.7361Z" fill="#262626"/>
		<path d="M22.6724 31.0249C22.6724 31.5841 22.6833 32.0774 22.6614 32.57C22.6614 32.6483 22.5244 32.7493 22.4265 32.7971C22.3536 32.8346 22.2472 32.8057 22.1555 32.8057C16.2192 32.8057 10.2827 32.8091 4.34583 32.8158C3.94254 32.8158 3.81176 32.7101 3.85013 32.3147C3.87197 31.9757 3.8738 31.6358 3.85562 31.2967C3.85092 31.0962 3.93392 31.0054 4.13361 31.0241C4.19861 31.0296 4.26439 31.0241 4.32938 31.0241H22.6692L22.6724 31.0249Z" fill="#262626"/>
		<path d="M13.233 13.229C10.2573 13.229 7.2816 13.2227 4.31058 13.2376C3.94331 13.2376 3.82741 13.1327 3.8556 12.7764C3.87479 12.4246 3.87636 12.072 3.8603 11.72C3.85639 11.5219 3.93235 11.4263 4.13673 11.4459C4.20094 11.4522 4.26672 11.4459 4.3325 11.4459C10.2808 11.4459 16.2291 11.4428 22.1774 11.4365C22.5729 11.4365 22.7193 11.5344 22.677 11.9353C22.6519 12.2481 22.6519 12.5623 22.677 12.875C22.6927 13.1499 22.5862 13.2392 22.3153 13.2345C21.4672 13.222 20.6191 13.2298 19.7718 13.2298L13.233 13.229Z" fill="#262626"/>
		<path d="M3.85786 24.4862H4.40602C9.11706 24.4862 13.8289 24.4979 18.5407 24.4697C19.1257 24.4697 19.5297 24.5574 19.7451 25.14C19.8798 25.5034 20.063 25.8448 20.2525 26.2622C20.0756 26.2802 19.9393 26.3053 19.8077 26.3053C14.6263 26.3053 9.44491 26.3081 4.2635 26.3139C3.93069 26.3139 3.83359 26.2113 3.84925 25.8918C3.87509 25.44 3.85786 24.9858 3.85786 24.4862Z" fill="#262626"/>
		<path d="M11.7532 17.9326C14.2701 17.9326 16.7869 17.9326 19.3038 17.942C19.3758 17.942 19.5152 18.0877 19.5081 18.1527C19.4565 18.6029 19.386 19.0516 19.2912 19.4949C19.2716 19.5865 19.1346 19.6664 19.0352 19.7212C18.9749 19.7541 18.8785 19.7282 18.8002 19.7282C13.9749 19.7282 9.14923 19.7311 4.32334 19.7368C3.93884 19.7368 3.81825 19.6217 3.85349 19.2529C3.87858 18.9402 3.87858 18.6259 3.85349 18.3132C3.83156 18.0133 3.95294 17.942 4.23798 17.9428C6.74385 17.953 9.24972 17.9483 11.7501 17.9483L11.7532 17.9326Z" fill="#262626"/>
		<path d="M24.6762 4.57454H23.8892C22.2448 4.57454 20.6003 4.56828 18.9597 4.58081C18.6394 4.58081 18.6159 4.47588 18.6935 4.20806C18.8054 3.82278 18.8845 3.42498 18.966 3.03343C19.0012 2.85959 19.0443 2.7758 19.2643 2.77737C21.4812 2.79303 23.6982 2.78989 25.9151 2.79224C26.4969 2.79224 26.4977 2.79224 26.4977 3.39287C26.4977 5.87055 26.4859 8.34823 26.5079 10.8267C26.5118 11.2574 26.4202 11.5456 25.9989 11.6936C25.6935 11.8001 25.3912 11.9175 25.0936 12.0436C24.7436 12.1916 24.67 12.0507 24.6715 11.7155C24.6809 9.49858 24.6762 7.28167 24.6762 5.06476V4.57454Z" fill="#262626"/>
		<path d="M28.3133 20.5365V16.293H30.1395V16.7268C30.1395 17.8356 30.1528 18.9445 30.1317 20.0533C30.1246 20.4183 30.21 20.5545 30.6062 20.5451C31.7534 20.5193 32.9014 20.5451 34.0518 20.5302C34.3564 20.5263 34.4739 20.6086 34.4543 20.9218C34.4277 21.3501 34.4472 21.7832 34.4472 22.253C34.275 22.2648 34.1254 22.2828 33.9774 22.2836C32.8294 22.2836 31.6814 22.2945 30.5318 22.2781C30.2186 22.2734 30.1317 22.3697 30.1356 22.6775C30.152 23.8771 30.1356 25.0776 30.1481 26.2797C30.1481 26.5663 30.0753 26.6814 29.7761 26.6626C29.4244 26.6403 29.0715 26.6403 28.7198 26.6626C28.412 26.6822 28.3102 26.5764 28.3141 26.2632C28.3306 25.1027 28.3204 23.9414 28.3204 22.7808V22.3016H24.069C24.069 21.7331 24.0565 21.217 24.0863 20.7025C24.0863 20.6407 24.3212 20.5459 24.4504 20.5459C25.5851 20.5334 26.7213 20.5389 27.8552 20.5389L28.3133 20.5365Z" fill="#19BB4F"/>
	</symbol>
	<symbol id="solving-problems-icon-11" viewBox="0 0 52 39">
		<path d="M35.957 0C36.0722 0.37208 35.8897 0.636844 35.6179 0.840508C35.1792 1.16794 34.6904 1.16167 34.2141 0.945474C33.8225 0.768442 33.629 0.444929 33.6854 0H34.3121C34.4021 0.261631 34.5048 0.508378 34.8471 0.506028C35.1894 0.503678 35.2442 0.243614 35.3304 0H35.957Z" fill="#19BB4F"/>
		<path d="M35.361 32.5628C35.361 31.0745 35.4111 29.5861 35.3461 28.0978C35.2842 26.6878 36.4428 25.4236 37.7016 25.0875C38.3633 24.9023 39.0145 24.6811 39.6521 24.4248C40.4448 24.1177 40.697 24.1671 41.2281 24.8165C41.8493 25.5755 42.4759 26.3299 43.0956 27.0881C43.2648 27.2957 43.4089 27.2189 43.5444 27.0615C43.9408 26.5993 44.3345 26.1351 44.7257 25.6687C45.0108 25.3319 45.2881 24.9888 45.5787 24.6575C45.986 24.1929 46.3291 24.1287 46.9002 24.3441C47.5879 24.6058 48.2788 24.8627 48.9791 25.0906C50.4674 25.5732 51.3933 26.6612 51.3643 28.3179C51.3142 31.2162 51.3401 34.1145 51.3643 37.0129C51.3737 38.2051 50.4909 39.1545 49.2423 38.979C49.112 38.9684 48.9812 38.9668 48.8507 38.9743H37.0608C36.1443 38.9743 35.3618 38.1839 35.361 37.2588C35.3605 35.6943 35.3605 34.1289 35.361 32.5628ZM47.7297 37.3223C48.2914 37.3223 48.7731 37.3074 49.2533 37.3278C49.5611 37.3411 49.6763 37.2102 49.6755 36.9228C49.6724 34.0125 49.67 31.1027 49.6684 28.1934C49.6684 27.5064 49.3692 27.0262 48.7081 26.7905C48.0869 26.5696 47.4697 26.3338 46.8422 26.1317C46.7745 26.1212 46.7052 26.1265 46.6399 26.1472C46.5746 26.1678 46.5148 26.2033 46.4654 26.2507C45.8215 26.9557 45.2286 27.7163 44.5549 28.3939C43.7034 29.2501 42.4869 29.0002 41.796 28.1589C41.2963 27.5518 40.7949 26.9448 40.3124 26.3236C40.1134 26.0682 39.9043 26.0706 39.6356 26.174C39.1061 26.3784 38.575 26.5821 38.0353 26.756C37.4956 26.9299 36.9958 27.4524 37.0029 28.1245C37.0342 31.0228 37.0162 33.9172 37.017 36.8147C37.0053 36.9051 37.008 36.9969 37.0248 37.0865C37.0546 37.1703 37.1305 37.3019 37.1893 37.3035C37.8214 37.3191 38.4544 37.3129 39.1163 37.3129V36.7896C39.1163 35.1713 39.1366 33.5529 39.1045 31.933C39.0943 31.4512 39.5526 31.0447 39.9051 31.0439C40.3359 31.0439 40.7941 31.4356 40.7847 31.94C40.7558 33.5709 40.7746 35.2018 40.7746 36.8335V37.2933H46.0276V36.8084C46.0276 35.2418 46.0197 33.6751 46.0362 32.1085C46.0334 31.852 46.0997 31.5996 46.2281 31.3776C46.4263 31.0745 46.7482 30.9609 47.1219 31.0948C47.508 31.2343 47.7266 31.5202 47.7281 31.9487C47.7321 33.5537 47.7281 35.1603 47.7281 36.7638L47.7297 37.3223Z" fill="#262626"/>
		<path d="M25.6615 27.0797C26.1119 26.5713 26.5466 26.0778 26.9845 25.5875C27.3966 25.1261 27.7906 24.6475 28.2378 24.2213C28.3741 24.0929 28.6898 24.0435 28.8794 24.1015C29.893 24.4148 30.9231 24.7 31.8889 25.1276C32.9214 25.5843 33.6663 26.4264 33.6647 27.7659C33.6647 30.8334 33.6404 33.9017 33.6765 36.9684C33.6898 38.0165 32.7537 38.8374 31.82 38.8311C27.7083 38.8037 23.5951 38.8241 19.4842 38.8163C18.3437 38.8163 17.6825 37.9828 17.6724 37.0146C17.6324 33.8813 17.6261 30.748 17.6771 27.6147C17.6912 26.7413 18.147 25.9948 18.8959 25.4629C19.5093 25.0282 20.208 24.8182 20.9114 24.6052C21.3939 24.4595 21.8686 24.2871 22.3472 24.1281C22.8447 23.9628 23.1517 24.0827 23.465 24.483C24.0721 25.2585 24.7011 26.0175 25.3262 26.7789C25.4304 26.8873 25.5424 26.9879 25.6615 27.0797ZM30.0481 37.1603C30.5964 37.1603 31.0821 37.1431 31.5623 37.1658C31.9297 37.183 32.0628 37.0671 32.0605 36.6778C32.0456 33.7795 32.0605 30.8812 32.0472 27.9829C32.0472 27.4212 31.8357 26.9293 31.2732 26.7053C30.5917 26.435 29.893 26.2079 29.2053 25.9525C28.9844 25.8742 28.8763 25.9415 28.7243 26.1233C28.1078 26.8572 27.4592 27.5654 26.8185 28.279C26.3485 28.8014 25.0575 28.8719 24.5664 28.3526C23.8833 27.6304 23.2692 26.8439 22.6081 26.0998C22.5251 26.0058 22.323 25.9306 22.2094 25.9627C21.5993 26.1269 20.998 26.322 20.4077 26.547C19.6565 26.8447 19.3111 27.3178 19.3189 28.1348C19.3401 30.824 19.3267 33.5132 19.3267 36.2031C19.3267 36.4122 19.2978 36.6277 19.3393 36.8298C19.3643 36.9512 19.4959 37.1431 19.5845 37.1431C20.179 37.1713 20.7759 37.1572 21.4167 37.1572V36.6872C21.4167 35.4997 21.4167 34.3119 21.4167 33.1238C21.4167 32.6672 21.4096 32.2097 21.4167 31.753C21.4261 31.3308 21.8287 30.8757 22.2235 30.8216C22.5572 30.7754 22.9716 31.1154 23.0781 31.5439C23.1174 31.7075 23.1368 31.8753 23.136 32.0436C23.1397 33.5842 23.1397 35.1247 23.136 36.6653V37.1305H28.3843V36.6441C28.3843 35.0252 28.3843 33.4064 28.3843 31.7875C28.3843 31.2548 28.7321 30.8475 29.1974 30.8232C29.6306 30.8021 30.045 31.2713 30.045 31.7875C30.045 33.4064 30.045 35.0252 30.045 36.6441L30.0481 37.1603Z" fill="#262626"/>
		<path d="M8.02943 38.5944C5.98103 38.5944 3.93107 38.5615 1.88345 38.6085C0.856513 38.6312 0.034021 37.8416 0.0238378 36.7747C-0.00514527 33.6947 -0.0106286 30.6147 0.0238378 27.5315C0.038721 26.1998 0.85808 25.2418 2.31898 24.7193C3.13364 24.4319 3.95848 24.1601 4.77862 23.8804C5.099 23.7715 5.56195 23.9666 5.83455 24.3097C6.37739 24.9865 6.91632 25.6656 7.47483 26.3291C7.97773 26.9268 7.99183 26.9213 8.49315 26.3369C9.06028 25.6789 9.58981 24.9833 10.1906 24.3598C10.6872 23.8467 10.7021 23.6869 11.5332 23.9822C12.3643 24.2776 13.2252 24.5361 14.0516 24.8619C14.9916 25.2332 15.6394 25.9171 15.9371 26.8986C15.9645 27.0259 15.9735 27.1564 15.9637 27.2863C15.9637 30.5241 15.9637 33.7618 15.9637 36.9995C15.9637 37.8338 15.2078 38.5944 14.3697 38.5952C12.2578 38.5978 10.1444 38.5975 8.02943 38.5944ZM12.3659 36.9831H13.8143C14.354 36.9831 14.3548 36.9831 14.3556 36.4308C14.3556 33.5983 14.3281 30.7658 14.3704 27.9349C14.3845 26.9949 13.9138 26.5727 13.2064 26.3142C12.673 26.1191 12.1254 25.9617 11.599 25.751C11.3805 25.6633 11.2559 25.7189 11.129 25.8685C10.8235 26.2218 10.529 26.5852 10.2102 26.926C9.78016 27.3858 9.38614 27.9075 8.87855 28.2576C8.13596 28.7691 7.23357 28.5545 6.68524 27.9811C6.04839 27.3216 5.50242 26.5711 4.91962 25.8614C4.80134 25.7173 4.70186 25.6601 4.49271 25.7455C3.87075 25.997 3.23234 26.2108 2.59941 26.4348C2.34157 26.5212 2.1172 26.686 1.95776 26.9063C1.79832 27.1265 1.7118 27.3912 1.71034 27.6631C1.71034 28.342 1.71034 29.0208 1.71034 29.6997C1.71034 31.9714 1.7166 34.243 1.70485 36.5147C1.70485 36.8679 1.80904 37.0152 2.17485 36.9925C2.57884 36.9651 2.98423 36.9651 3.38822 36.9925C3.75247 37.0199 3.85822 36.8914 3.85822 36.5319C3.84255 34.8352 3.85038 33.1385 3.85195 31.4403C3.85195 30.986 4.14178 30.6859 4.59063 30.6664C5.06062 30.6452 5.45228 31.0424 5.45228 31.5734C5.45698 33.2184 5.45228 34.8634 5.45228 36.5084C5.45228 36.658 5.4656 36.8084 5.47187 36.9557H10.6935V36.4598C10.6935 34.8932 10.7013 33.3265 10.6872 31.7599C10.6829 31.6052 10.7094 31.4511 10.7651 31.3067C10.8207 31.1623 10.9045 31.0304 11.0115 30.9186C11.2583 30.6405 11.5473 30.6131 11.8575 30.7204C12.0159 30.7679 12.1538 30.8673 12.2489 31.0025C12.3441 31.1377 12.3911 31.301 12.3824 31.4661C12.3745 33.1894 12.3573 34.9081 12.3455 36.629C12.3393 36.7301 12.3542 36.8319 12.3659 36.9831Z" fill="#262626"/>
		<path d="M25.1578 10.4895H8.59669V11.8212C8.59669 12.317 8.58729 12.8137 8.59669 13.3095C8.60374 13.5845 8.48859 13.6847 8.22461 13.6761C7.89874 13.6651 7.57131 13.6589 7.24545 13.6761C6.96659 13.6926 6.88747 13.5813 6.89139 13.3126C6.9047 12.3883 6.89687 11.4632 6.89687 10.4974C6.7402 10.4895 6.59842 10.4786 6.46056 10.4778C5.79473 10.4778 5.1289 10.4778 4.46386 10.4778C4.26795 10.4767 4.08002 10.4 3.93932 10.2637C3.79861 10.1274 3.716 9.94194 3.70873 9.74616C3.68132 9.32943 3.98838 8.92445 4.37926 8.87432C4.50949 8.86295 4.6403 8.85981 4.77092 8.86492C18.711 8.86492 32.6513 8.86492 46.5919 8.86492C47.0243 8.86492 47.3807 8.94325 47.5797 9.38662C47.8194 9.9138 47.4802 10.4754 46.8958 10.4833C46.1031 10.4895 45.3104 10.4833 44.4675 10.4833V10.9454C44.4675 11.8854 44.455 12.8254 44.4753 13.7654C44.4816 14.0858 44.3696 14.1774 44.0696 14.1571C43.7565 14.1378 43.4426 14.1378 43.1296 14.1571C42.8593 14.172 42.763 14.0787 42.7669 13.7999C42.7802 12.834 42.7599 11.8682 42.7787 10.9016C42.7849 10.5835 42.7003 10.477 42.3666 10.4786C38.6466 10.4895 34.925 10.4848 31.2066 10.4848C29.8937 10.4848 28.5812 10.4848 27.2688 10.4848C26.7816 10.4848 26.7698 10.4982 26.7698 10.9979C26.7698 11.8463 26.755 12.6954 26.7769 13.5429C26.7847 13.8641 26.6735 13.9597 26.3719 13.9346C26.1247 13.9115 25.8758 13.9115 25.6285 13.9346C25.2619 13.9722 25.1264 13.8563 25.1397 13.4646C25.1695 12.6304 25.1491 11.7946 25.1491 10.958L25.1578 10.4895Z" fill="#19BB4F"/>
		<path d="M11.8551 18.6918C11.9538 19.4564 11.8172 20.2329 11.4634 20.918C10.9057 22.0146 9.8028 22.9773 8.41318 23.0063C8.04815 23.0142 7.67058 23.0596 7.31652 22.9891C5.74439 22.6711 4.69316 21.7201 4.34458 20.1644C4.15478 19.3052 4.11108 18.4202 4.21533 17.5465C4.33675 16.5564 4.77776 15.6752 5.63942 15.0203C6.2747 14.5386 6.95462 14.389 7.70192 14.2746C8.84949 14.0999 9.8169 14.4313 10.6135 15.2216C10.9966 15.6016 11.353 16.0747 11.5363 16.5729C11.7807 17.2379 11.8441 17.9688 11.9851 18.6714L11.8551 18.6918ZM5.84073 18.5296C5.84073 18.7991 5.83133 18.9949 5.84073 19.19C5.88147 19.895 6.12038 20.5075 6.71101 20.9227C7.6228 21.5627 8.46174 21.5963 9.3798 20.8851C9.89053 20.4895 10.1318 19.9451 10.1733 19.3137C10.2328 18.4074 10.3167 17.5042 9.71506 16.6959C8.91137 15.6149 7.181 15.6039 6.35381 16.663C5.89165 17.2552 5.81645 17.9053 5.84073 18.5296Z" fill="#262626"/>
		<path d="M47.2336 19.0231C47.1248 19.6968 47.0934 20.3939 46.8905 21.037C46.4887 22.306 45.0356 23.3541 43.7149 23.409C42.8188 23.4458 41.9916 23.3306 41.2529 22.8285C40.1195 22.0569 39.4991 20.9799 39.5093 19.5863C39.514 18.9495 39.4771 18.2962 39.6064 17.6813C39.72 17.1135 39.9528 16.5763 40.2895 16.1052C40.8746 15.3219 41.6485 14.6835 42.6762 14.6569C43.704 14.6302 44.7544 14.6005 45.6529 15.3352C46.8388 16.3026 47.2697 17.5285 47.1185 19.0169L47.2336 19.0231ZM45.5291 19.1492C45.5291 17.8419 45.4336 17.5301 44.8069 16.858C44.0808 16.0794 42.8282 16.0465 42.0136 16.7013C41.5091 17.1055 41.2302 17.6249 41.2044 18.2727C41.173 19.1798 41.0767 20.0743 41.6313 20.9172C42.3175 21.9629 44.0925 21.9355 44.7951 21.2149C45.3897 20.6015 45.6059 19.8793 45.5291 19.1492Z" fill="#262626"/>
		<path d="M21.883 18.8163C21.8595 18.0596 21.8367 17.3084 22.2049 16.6041C22.801 15.4613 23.6533 14.6239 24.9779 14.4892C25.5505 14.4312 26.1458 14.6458 26.7317 14.6537C27.5237 14.6607 28.0211 15.1338 28.5162 15.636C29.0866 16.2164 29.4291 16.9827 29.4812 17.7948C29.5345 18.4666 29.5345 19.1416 29.4812 19.8134C29.3621 21.348 28.1723 22.7023 26.7333 23.0987C25.4212 23.459 24.2134 23.2013 23.2044 22.3397C22.2464 21.5211 21.7388 20.4401 21.8783 19.128C21.8853 19.0243 21.8868 18.9202 21.883 18.8163ZM27.8284 18.5711C27.8166 18.2624 27.8848 17.7094 27.5699 17.1611C27.0748 16.3065 26.1184 15.8365 25.0531 16.1342C24.2572 16.3566 23.542 17.1227 23.5428 18.0972C23.5428 18.5405 23.553 18.9839 23.5428 19.4288C23.5276 19.8573 23.6561 20.2786 23.9079 20.6257C24.8314 21.9574 26.7278 21.8791 27.5676 20.4832C27.8817 19.9552 27.8394 19.3944 27.8284 18.5711Z" fill="#262626"/>
		<path d="M12.4644 2.68136C12.8286 2.91166 13.091 3.22969 13.1231 3.69968C13.1811 4.56682 12.7761 5.188 11.9121 5.28043C11.1045 5.36973 10.2797 5.29923 9.42976 5.29923C9.42271 5.19975 9.40939 5.08617 9.40939 4.97337C9.40939 3.5109 9.41566 2.04921 9.40234 0.586745C9.40234 0.273415 9.46579 0.138683 9.80889 0.157483C10.4598 0.193515 11.117 0.148866 11.7672 0.213099C12.6915 0.306314 13.2164 1.08729 12.9438 1.94425C12.8623 2.20196 12.6422 2.41581 12.4644 2.68136ZM10.3893 4.55429C10.8061 4.55429 11.1844 4.58641 11.5549 4.54567C11.9536 4.50102 12.1871 4.16968 12.1722 3.77253C12.1573 3.37538 11.9482 3.1161 11.5306 3.0785C11.1601 3.0456 10.7849 3.07224 10.3893 3.07224V4.55429ZM10.3893 2.36489C10.8507 2.31398 11.2659 2.30301 11.6638 2.21293C11.9975 2.1346 12.0555 1.83693 12.0367 1.52595C12.0179 1.21497 11.8299 1.02932 11.5526 1.00191C11.1727 0.963525 10.7857 0.992508 10.3893 0.992508V2.36489Z" fill="#19BB4F"/>
		<path d="M17.8281 1.50695C18.7164 1.35028 18.7462 1.37457 18.7462 2.21899V4.55879H19.8475V1.53907C19.9165 1.49833 19.9376 1.47483 19.9603 1.47327C20.7828 1.40433 20.7828 1.40433 20.7828 2.21351V4.55722H21.8795V1.46308C22.1497 1.46308 22.3808 1.43958 22.6033 1.47483C22.6557 1.49562 22.702 1.52925 22.738 1.57265C22.774 1.61604 22.7985 1.6678 22.8093 1.72315C22.8226 2.90989 22.8187 4.09662 22.8187 5.31861H17.8281V1.50695Z" fill="#19BB4F"/>
		<path d="M34.1903 3.76709C34.5914 3.0882 34.9929 2.40776 35.3951 1.72574C35.529 1.49858 36.1431 1.34191 36.3507 1.49074C36.3813 1.52161 36.4054 1.55832 36.4216 1.59869C36.4377 1.63906 36.4456 1.68227 36.4447 1.72574C36.451 2.91091 36.4494 4.09608 36.4494 5.31729H35.5564V3.11614L35.4311 3.02763C35.3966 3.10596 35.3692 3.18429 35.3285 3.25323C35.0347 3.76004 34.7355 4.26372 34.4449 4.77209C34.0642 5.43635 34.0665 5.43792 33.1814 5.31102V4.31855C33.1814 3.52347 33.2002 2.72761 33.1728 1.93254C33.1602 1.55341 33.2793 1.40379 33.6561 1.45706C33.799 1.46586 33.9424 1.46586 34.0853 1.45706V3.73497L34.1903 3.76709Z" fill="#19BB4F"/>
		<path d="M32.4043 5.34689C32.0816 5.28031 31.6766 5.54899 31.3907 5.11189C30.8275 5.49651 30.2353 5.58189 29.6463 5.19728C28.8708 4.68733 28.9413 3.58833 29.781 3.19745C30.1123 3.04078 30.5056 3.0165 30.8737 2.94991C31.0276 2.935 31.1825 2.93342 31.3367 2.94521C31.4205 2.61465 31.3993 2.30759 31.0915 2.22612C30.8487 2.16111 30.4069 2.17677 30.3183 2.32012C30.0121 2.81675 29.6134 2.59428 29.2013 2.63972C29.2366 2.21046 29.4042 1.92924 29.7168 1.72088C30.2706 1.35036 30.8737 1.33313 31.4777 1.51408C32.0197 1.67623 32.3009 2.08669 32.3182 2.65617C32.3315 3.08621 32.3182 3.51783 32.3284 3.9463C32.3417 4.39985 32.3761 4.85026 32.4043 5.34689ZM31.3265 3.54524C31.0327 3.57814 30.7468 3.57893 30.4774 3.64707C30.1585 3.72541 30.0074 3.96902 30.0763 4.2988C30.1452 4.62858 30.4084 4.7077 30.6748 4.65913C31.3093 4.54712 31.4902 4.37008 31.3265 3.54759V3.54524Z" fill="#19BB4F"/>
		<path d="M17.0075 5.3444C16.7051 5.28565 16.297 5.54963 16.0127 5.1047C15.5176 5.46895 14.9818 5.54571 14.4241 5.29975C13.9251 5.07885 13.6839 4.58144 13.7598 4.00804C13.8217 3.54431 14.2768 3.11897 14.8455 3.02889C15.216 2.97092 15.592 2.95055 15.9915 2.9106C16.0699 2.58866 15.9759 2.30823 15.6602 2.18994C15.361 2.07793 15.0406 2.08968 14.826 2.40849C14.6928 2.60589 14.1358 2.75785 13.9416 2.62547C13.8773 2.58239 13.846 2.41867 13.8703 2.33016C14.0434 1.69645 14.8495 1.32124 15.7597 1.43325C16.4647 1.5202 16.9135 1.98158 16.9448 2.66542C16.9574 2.95134 16.9448 3.23882 16.9488 3.52708C16.9644 4.12006 16.9864 4.71382 17.0075 5.3444ZM15.9821 3.5404C15.6698 3.56659 15.3589 3.60842 15.0508 3.66573C14.7743 3.73075 14.6427 3.95478 14.6834 4.23207C14.7288 4.53444 14.9442 4.66682 15.2419 4.66995C15.8067 4.67622 16.0785 4.30257 15.9821 3.5404Z" fill="#19BB4F"/>
		<path d="M28.6691 4.05309C28.5414 4.9265 27.9375 5.43096 27.0656 5.43331C26.1774 5.43331 25.4677 4.8513 25.3525 3.98416C25.2577 3.27917 25.264 2.57417 25.7489 1.97493C26.1468 1.48065 27.0257 1.2574 27.6868 1.4971C28.3088 1.72192 28.655 2.22324 28.6268 2.86322C28.066 3.01989 27.9414 2.97367 27.6774 2.52326C27.614 2.4208 27.5265 2.3354 27.4225 2.27448C27.3186 2.21355 27.2013 2.17896 27.0809 2.17371C26.9605 2.16846 26.8407 2.19271 26.7318 2.24435C26.6229 2.29599 26.5283 2.37345 26.4562 2.46999C26.1875 2.84677 26.1734 3.97554 26.4327 4.34997C26.692 4.7244 27.4252 4.81997 27.6077 4.42831C27.8615 3.8886 28.2477 4.04056 28.6691 4.05309Z" fill="#19BB4F"/>
		<path d="M39.1054 2.21289V5.33209H38.2061V2.23012H37.0053C36.9951 2.07345 36.9943 1.96379 36.9779 1.85256C36.9324 1.54471 37.0562 1.44523 37.3695 1.45306C38.1638 1.47264 38.9581 1.45933 39.7524 1.45933C40.4323 1.45933 40.4401 1.46951 40.3203 2.21289H39.1054Z" fill="#19BB4F"/>
	</symbol>
	<symbol id="solving-problems-icon-12" viewBox="0 0 39 39">
		<path d="M0 31.2779C0.1911 30.2491 1.04052 29.7655 1.74876 29.1641C1.7979 29.122 1.84548 29.0776 1.89228 29.0323C2.98428 27.9965 4.05756 26.9482 5.15892 25.9256C6.35778 24.8117 7.60656 23.7548 9.10806 23.063C10.0441 22.6332 10.9801 22.1964 12.051 22.2424C12.2967 22.2526 12.5588 22.0825 12.7943 22.1192C13.7124 22.2627 14.6281 22.4312 15.5337 22.6379C16.6397 22.8906 17.7286 23.2143 18.8354 23.4623C19.2839 23.5622 19.759 23.5715 20.2223 23.5739C22.3798 23.5848 24.5372 23.5669 26.6963 23.5895C27.0933 23.5934 27.4853 23.6784 27.8483 23.8391C28.1135 23.9615 28.2274 23.9132 28.4014 23.7377C29.7736 22.3566 31.1516 20.9801 32.5354 19.6084C33.0728 19.0772 33.7124 18.7652 34.4604 18.5515C35.2747 18.3175 35.951 18.5515 36.5937 18.897C37.2621 19.2517 37.763 19.8566 37.9868 20.5795C38.3627 21.7261 38.2496 22.7736 37.4275 23.6675C36.4822 24.6963 35.4931 25.6846 34.5119 26.6798C32.7538 28.4629 30.9915 30.2411 29.225 32.0143C28.5644 32.6804 27.9061 33.3488 27.2337 34.0025C26.97 34.2688 26.6784 34.5059 26.364 34.7099C26.1449 34.8395 25.8954 34.9087 25.6409 34.9104C21.4809 34.9229 17.3209 34.9229 13.1609 34.9104C12.7382 34.9104 12.4363 35.0765 12.1259 35.3215C11.1602 36.0827 10.1813 36.8269 9.21024 37.5835C8.60652 38.0515 8.00748 38.5273 7.4061 38.9999H6.24C5.99274 38.7698 5.72754 38.5561 5.50134 38.3065C4.79778 37.5328 4.10488 36.7499 3.42264 35.9579C2.808 35.2559 2.1918 34.5539 1.61226 33.8207C1.05534 33.1187 0.312 32.5556 0 31.6679V31.2779ZM18.706 33.4658H24.8274C25.0773 33.4725 25.3259 33.4274 25.5576 33.3335C25.7892 33.2395 25.999 33.0987 26.1737 32.9198C29.4819 29.5981 32.7954 26.2818 36.114 22.9709C36.6389 22.4452 36.8722 21.8789 36.6226 21.106C36.2404 19.9204 34.7974 19.5639 33.9355 20.3618C32.3801 21.8041 30.9176 23.3469 29.4115 24.8406C29.2601 24.9911 29.2867 25.1019 29.3498 25.2797C29.4887 25.6697 29.6962 26.0855 29.6782 26.4809C29.64 27.3319 29.3857 28.0987 28.6572 28.6938C28.1112 29.1423 27.5223 29.4403 26.8546 29.4465C23.5927 29.4761 20.3299 29.4644 17.068 29.4504C16.8 29.45 16.5375 29.3749 16.3098 29.2336C16.2279 29.1664 16.1623 29.0815 16.1178 28.9853C16.0734 28.8891 16.0513 28.7841 16.0532 28.6782C16.0969 28.2976 16.6156 27.9481 17.0149 27.9481C20.2254 27.9481 23.4359 27.959 26.6464 27.9325C27.0265 27.9218 27.3943 27.7956 27.7009 27.5706C28.2071 27.1806 28.3124 26.5948 28.0964 25.9958C27.8803 25.3967 27.3398 25.0598 26.6674 25.0403C24.2424 24.9826 21.8158 24.9545 19.3892 24.9436C18.4532 24.9389 17.5633 24.7314 16.6772 24.4982C15.458 24.1776 14.2732 23.7392 12.9956 23.6519C12.2259 23.6015 11.4542 23.7109 10.7289 23.9732C9.25626 24.4966 7.96848 25.3726 6.81252 26.4053C5.07 27.9598 3.3813 29.5775 1.68324 31.1789C1.60524 31.2569 1.5561 31.4909 1.60992 31.5556C2.03268 32.0837 2.48274 32.5907 2.92656 33.1016C3.28848 33.5165 3.66132 33.9229 4.01856 34.3426C4.86356 35.341 5.70414 36.343 6.5403 37.3487C6.71502 37.5585 6.89286 37.5398 7.07772 37.3939C7.66974 36.9259 8.24772 36.4439 8.84598 35.9798C9.72504 35.2949 10.6127 34.6218 11.498 33.9416C11.8771 33.6499 12.2561 33.4432 12.7819 33.4526C14.7537 33.4869 16.7302 33.4658 18.706 33.4658Z" fill="#262626"/>
		<path d="M24.803 0C25.0572 0.07254 25.3334 0.10296 25.5619 0.22464C26.4378 0.69264 26.9862 1.39464 26.9753 2.42892C26.9753 2.71908 27.0533 2.90394 27.3255 3.05292C27.9495 3.38442 28.5392 3.76818 29.1616 4.09656C29.2763 4.15662 29.4962 4.08798 29.6358 4.01856C30.082 3.78924 30.5383 3.6543 31.0469 3.6933C31.7559 3.7479 32.3619 4.02636 32.7777 4.59498C33.1645 5.10167 33.498 5.64691 33.773 6.22206C34.241 7.2618 33.975 8.70948 32.876 9.36468C32.603 9.5277 32.4696 9.72582 32.4922 10.0776C32.5328 10.7117 32.4922 11.3513 32.5133 11.987C32.5187 12.1352 32.6076 12.3404 32.7246 12.4129C33.2124 12.7101 33.5909 13.1572 33.8034 13.6874C34.0603 14.291 34.0704 14.9712 33.8315 15.5821C33.5374 16.3028 33.1677 16.9954 32.5835 17.5516C32.2016 17.9166 31.7119 18.1483 31.1875 18.212C30.6631 18.2757 30.1322 18.168 29.6741 17.9049C29.4362 17.7692 29.2708 17.7567 29.0142 17.926C28.4541 18.2972 27.8387 18.5843 27.2623 18.9329C27.1344 19.0109 26.9955 19.202 26.9971 19.3393C27.0158 20.6232 26.3411 21.3962 25.2078 21.8478C25.1225 21.8784 25.0324 21.8932 24.9418 21.8915C24.2866 21.8915 23.6291 21.9242 22.9754 21.8868C22.0137 21.8306 21.1814 21.0873 20.931 20.2714C20.8359 19.9594 20.8406 19.617 20.7672 19.2964C20.7386 19.1557 20.6592 19.0305 20.5442 18.9446C19.9537 18.5905 19.3242 18.2972 18.7595 17.9088C18.4889 17.7232 18.318 17.8308 18.0903 17.8955C17.6777 18.0157 17.2635 18.1927 16.8423 18.2122C15.9297 18.2551 15.2402 17.7653 14.7363 17.0547C14.412 16.5781 14.1413 16.0673 13.929 15.5314C13.5109 14.5174 13.9118 13.1079 14.943 12.5245C15.1973 12.3809 15.333 12.2234 15.3166 11.8958C15.2733 11.2863 15.2733 10.6746 15.3166 10.0651C15.3486 9.6954 15.1762 9.51288 14.9149 9.36312C14.2433 8.98404 13.9516 8.37954 13.8229 7.6518C13.6708 6.7938 14.028 6.0918 14.4469 5.3898C14.7839 4.81494 15.145 4.27128 15.7487 3.97098C16.5942 3.54978 17.4405 3.56148 18.2564 4.0911C18.3093 4.12289 18.3686 4.14247 18.43 4.1484C18.4914 4.15434 18.5533 4.14649 18.6113 4.12542C19.2205 3.77598 19.8032 3.37896 20.4225 3.0498C20.6791 2.91252 20.7821 2.77992 20.7782 2.49288C20.7665 1.47888 21.3 0.77688 22.1221 0.26988C22.3561 0.1248 22.6603 0.08658 22.9325 0L24.803 0ZM32.4641 7.2618L32.5546 7.22436C32.3565 6.82968 32.1818 6.42174 31.9563 6.04344C31.5429 5.34924 31.1311 4.83834 30.0726 5.5185C30.0399 5.53956 30.0024 5.55204 29.9681 5.56998C29.4323 5.85 28.937 5.85 28.4206 5.47092C27.9526 5.12538 27.4308 4.84692 26.9246 4.54896C26.4316 4.26114 25.7624 4.18626 25.6188 3.48192C25.5616 3.22167 25.5334 2.9559 25.5346 2.68944C25.5479 2.02098 24.9886 1.44144 24.3779 1.52568C23.9957 1.58028 23.5979 1.53114 23.2079 1.53816C22.8701 1.5444 22.4427 1.85016 22.3623 2.16762C22.2872 2.46337 22.2426 2.76602 22.229 3.07086C22.2056 3.67224 21.8702 4.15194 21.3015 4.34148C21.1646 4.37862 21.0322 4.43095 20.9069 4.49748C20.3406 4.84458 19.7907 5.21898 19.215 5.54892C18.981 5.68152 18.6846 5.81646 18.4389 5.78292C18.1067 5.74002 17.7837 5.55828 17.478 5.39292C16.861 5.06688 16.3142 5.1909 15.9492 5.7876C15.762 6.09258 15.5904 6.4116 15.4305 6.72906C15.1068 7.37802 15.3306 7.84836 15.9585 8.22588C16.7549 8.70558 17.0794 9.1962 16.8165 10.1759C16.6839 10.6681 16.6683 11.2679 16.8306 11.7445C17.0732 12.4558 16.6114 13.448 15.9562 13.6859C15.3135 13.9199 15.0779 14.7334 15.4664 15.2864C15.5949 15.4607 15.7099 15.6445 15.8103 15.8363C16.2058 16.6444 16.8064 17.0063 17.6753 16.4081C18.1511 16.0805 18.6854 16.0306 19.2002 16.3426C19.7579 16.6811 20.2992 17.0446 20.853 17.3893C20.9752 17.456 21.1038 17.5104 21.2368 17.5516C21.9723 17.8238 22.3046 18.3261 22.236 19.1318C22.1845 19.7324 22.4887 20.2613 22.9434 20.3151C23.5674 20.3884 24.2078 20.3455 24.8404 20.3362C24.9278 20.3362 25.0182 20.2426 25.1001 20.1802C25.5362 19.8619 25.5447 19.4002 25.5354 18.922C25.5229 18.3136 25.7842 17.8604 26.3669 17.635C27.0754 17.3667 27.7344 16.9823 28.3169 16.4978C28.8714 16.0298 29.4697 16.0298 30.0992 16.4143C30.8012 16.8464 31.3284 16.7887 31.7847 16.1889C31.9844 15.9268 32.0967 15.6 32.2878 15.3309C32.38 15.1947 32.4413 15.04 32.4676 14.8776C32.4938 14.7153 32.4843 14.5491 32.4397 14.3908C32.3952 14.2325 32.3166 14.0858 32.2096 13.961C32.1025 13.8361 31.9695 13.7361 31.8198 13.6679C31.1038 13.3559 30.8058 12.675 30.9104 11.8895C30.9884 11.296 30.9478 10.6821 30.9213 10.0784C30.887 9.32958 30.809 8.892 31.6794 8.346C32.071 8.10498 32.5382 7.86786 32.4641 7.2618Z" fill="#19BB4F"/>
		<path d="M28.2141 10.9785C28.3077 13.2257 26.2813 15.4011 23.7174 15.3028C21.5857 15.2248 19.4336 13.3817 19.56 10.6805C19.6481 8.79994 21.4765 6.44356 24.1924 6.62062C26.1424 6.74776 28.3428 8.58622 28.2141 10.9785ZM21.0381 10.9262C21.1379 12.6539 22.2861 13.8122 23.9062 13.7982C25.6151 13.7818 26.7048 12.5502 26.7352 10.9988C26.7664 9.37714 25.5122 8.12602 23.8867 8.11978C22.368 8.11198 21.0966 9.34204 21.0381 10.9262Z" fill="#19BB4F"/>
	</symbol>
	<symbol id="solving-problems-icon-13" viewBox="0 0 39 39">
		<path d="M2.19243 0C2.22841 0.132969 2.29411 0.265156 2.29489 0.397343C2.30115 2.5478 2.30115 4.69825 2.29489 6.8487C2.28942 8.16275 2.2464 9.47758 2.24796 10.7916C2.25996 19.2871 2.27638 27.7822 2.29724 36.2771V36.7167H38.9889C38.9889 37.452 38.9936 38.1372 38.9819 38.8216C38.9819 38.8787 38.8826 38.9655 38.8153 38.9827C38.6997 39.0008 38.5823 39.0047 38.4657 38.9944C25.8378 38.9944 13.2096 38.9944 0.581154 38.9944C0.387175 38.9944 0.193979 38.9678 0 38.953V0H2.19243Z" fill="#262626"/>
		<path d="M35.1754 26.676C35.213 26.464 35.2536 26.2528 35.2873 26.0401C35.5165 24.5 35.7284 22.9575 35.9756 21.4214C36.1179 20.5375 36.8915 19.9939 37.7237 20.1409C38.5286 20.2825 39.0894 20.9935 38.9525 21.9196C38.6139 24.2168 38.3002 26.518 37.9654 28.8152C37.7683 30.1606 37.5501 31.5036 37.3319 32.9076C36.9893 32.8168 36.6694 32.7378 36.3542 32.6471C33.069 31.7022 29.7839 30.7558 26.4988 29.8078C25.6744 29.5661 25.2645 28.9404 25.3576 28.0925C25.3899 27.7435 25.553 27.4197 25.8141 27.186C26.0753 26.9523 26.4151 26.826 26.7655 26.8324C27.2966 26.8371 27.8316 27.0319 28.3549 27.1774C29.7049 27.5512 31.0503 27.9454 32.4636 28.2646L22.7999 13.1319L16.5949 21.3079C14.0302 15.857 11.5022 10.4858 8.9531 5.06769L2.58935 10.9395C2.56901 10.7142 2.55024 10.6039 2.55024 10.4936C2.55024 9.37277 2.53851 8.25192 2.55885 7.13028C2.56659 6.92999 2.64629 6.73921 2.78333 6.59293C3.95659 5.49163 5.15722 4.4138 6.34065 3.32032C7.26752 2.46462 8.18188 1.59485 9.10484 0.735242C9.35827 0.498244 9.62108 0.274542 9.93395 0L17.2081 15.4424L23.0134 7.80373L35.0722 26.6721L35.1754 26.676Z" fill="#262626"/>
		<path d="M8.23011 28.521C8.97474 28.521 9.71624 28.521 10.453 28.521C11.0921 28.521 11.0107 28.4686 11.0162 29.0881C11.0111 29.179 11.0111 29.2702 11.0162 29.3611C11.0522 29.645 10.9177 29.7162 10.6541 29.7115C9.9501 29.6974 9.24615 29.7186 8.5422 29.7013C8.26218 29.6943 8.18552 29.7936 8.19256 30.0611C8.20821 30.697 8.19726 31.3337 8.19726 32.0299C7.70214 32.0299 7.23675 32.0424 6.7737 32.015C6.708 32.015 6.60397 31.8163 6.60084 31.7076C6.58442 31.0592 6.59302 30.41 6.59302 29.7068C6.18864 29.7068 5.81554 29.6943 5.44323 29.7107C5.18902 29.7225 5.08812 29.6325 5.10298 29.376C5.11784 29.1194 5.10689 28.8363 5.10689 28.5218H6.57347V27.1022H5.11159C5.11159 26.6673 5.09594 26.2919 5.12488 25.9195C5.13114 25.8413 5.30244 25.7217 5.40412 25.7154C5.778 25.6904 6.15501 25.7052 6.59068 25.7052V19.7607C7.11551 19.7607 7.58247 19.7443 8.04786 19.7607C9.20313 19.8092 10.3748 19.7701 11.5082 19.9547C13.3854 20.2613 14.3436 21.5628 14.2771 23.4666C14.2075 25.4768 12.8942 26.8229 10.7862 27.006C9.94698 27.0787 9.10145 27.0881 8.23011 27.1272V28.521ZM8.21603 25.7436C9.04435 25.7005 9.82887 25.717 10.5954 25.6067C11.8766 25.4221 12.4726 24.8245 12.6056 23.7357C12.7284 22.7126 12.3342 21.8436 11.5583 21.4893C10.4851 20.9989 9.3494 21.171 8.21603 21.1561V25.7436Z" fill="#19BB4F"/>
	</symbol>
	<symbol id="solving-problems-icon-14" viewBox="0 0 40 39">
		<path d="M21.0546 38.9998C19.4426 38.4226 17.8306 37.8457 16.2186 37.269C14.6664 36.7168 13.1166 36.1552 11.555 35.631C11.1338 35.4898 10.6759 35.4352 10.229 35.397C9.78207 35.3588 9.32343 35.3884 8.84061 35.3884V34.078C10.1034 34.0188 11.3171 34.0531 12.5386 34.5343C14.7335 35.4001 16.9846 36.1263 19.2099 36.9118C19.9072 37.1583 20.5882 37.4718 21.3042 37.6348C21.7441 37.7347 22.3073 37.7479 22.6934 37.5568C25.0989 36.3642 27.4685 35.0998 29.8522 33.8628C31.901 32.7999 33.9514 31.7394 36.0033 30.6812C36.4065 30.4721 36.8082 30.2592 37.2107 30.0494C37.7372 29.7756 37.908 29.3201 37.685 28.7811C37.593 28.5389 37.4106 28.3419 37.1761 28.2317C36.9416 28.1215 36.6735 28.1068 36.4284 28.1906C33.6157 29.0634 30.8007 29.9316 27.9911 30.8161C27.684 30.9179 27.3945 31.0668 27.1331 31.2576C26.7264 31.5638 26.2313 31.73 25.7221 31.731C23.5516 31.7279 21.3807 31.7279 19.2091 31.731C18.4018 31.731 18.0789 31.9697 17.809 32.745C17.7825 32.823 17.7108 32.9322 17.653 32.9354C17.3033 32.9568 16.9526 32.9545 16.6032 32.9283C16.5525 32.9244 16.4791 32.699 16.4877 32.5812C16.5766 31.4112 17.6538 30.4347 18.8652 30.4316C21.1014 30.4253 23.3369 30.4316 25.5731 30.4277C26.3095 30.4277 26.804 29.9222 26.7923 29.207C26.7814 28.5572 26.265 28.0721 25.5661 28.0705C24.1621 28.0658 22.7581 28.0198 21.3541 28.0853C20.3479 28.1321 19.4377 27.8841 18.5204 27.5393C16.8824 26.9216 15.2327 26.3311 13.5838 25.7399C13.3881 25.6735 13.1827 25.6406 12.9762 25.6424C11.7406 25.633 10.5059 25.6377 9.27117 25.6377H8.83203V24.3249C8.96541 24.3187 9.10191 24.3054 9.23763 24.3054C10.5901 24.3054 11.9419 24.3015 13.2936 24.3054C13.4745 24.3027 13.6546 24.3303 13.8264 24.3873C15.923 25.1494 18.0157 25.9224 20.1124 26.6852C20.2709 26.7388 20.4373 26.7652 20.6046 26.7632C22.2558 26.7695 23.9086 26.8108 25.5575 26.7531C26.8352 26.7078 28.0754 27.7445 28.1315 29.0042C28.148 29.1208 28.1741 29.2358 28.2095 29.3481C28.9966 29.1032 29.761 28.8669 30.5246 28.6274C32.4551 28.0198 34.3832 27.4036 36.3168 26.8077C37.2092 26.5323 38.4283 27.2289 38.9033 28.1867C39.4134 29.2148 39.0024 30.6539 37.7084 31.3145C33.9191 33.2505 30.1549 35.2348 26.3812 37.1996L22.9266 38.9998H21.0546Z" fill="#262626"/>
		<path d="M25.4232 0C26.1189 0.366599 26.7999 0.765959 27.5151 1.092C28.2171 1.40868 28.2709 1.81194 27.9504 2.418C27.4153 3.42809 26.9169 4.45691 26.4169 5.48417C26.3124 5.69867 26.1922 5.79617 25.945 5.78057C25.5831 5.75795 25.218 5.77511 24.775 5.77511C25.3857 4.54661 25.9754 3.36101 26.5869 2.13252C26.1072 1.8915 25.6439 1.63878 25.1619 1.43052C25.0495 1.38138 24.86 1.4508 24.729 1.5132C24.1572 1.78542 23.605 2.1021 23.0223 2.34546C22.7807 2.44411 22.5118 2.45296 22.2642 2.37042C21.6659 2.12628 21.0942 1.81272 20.5201 1.51242C20.4162 1.44913 20.2965 1.41638 20.1749 1.4179C20.0532 1.41941 19.9344 1.45514 19.8321 1.521C19.4515 1.74096 19.0521 1.92036 18.6356 2.12628C19.2456 3.34307 19.8376 4.53257 20.4546 5.77199C19.9803 5.77199 19.5677 5.78447 19.1567 5.76263C19.0983 5.75301 19.0427 5.73079 18.9938 5.69752C18.9449 5.66425 18.9039 5.62072 18.8735 5.56997C18.289 4.42597 17.7134 3.27625 17.1466 2.12082C16.9672 1.75578 17.0787 1.43208 17.4438 1.2441C18.113 0.898558 18.7901 0.569399 19.4616 0.2301C19.5812 0.160187 19.6966 0.0833562 19.8072 0L20.5872 0C21.2322 0.341639 21.8757 0.684839 22.5231 1.02102C22.5521 1.03373 22.5835 1.0403 22.6152 1.0403C22.6469 1.0403 22.6782 1.03373 22.7072 1.02102C23.3546 0.684839 23.9981 0.341639 24.6432 0H25.4232Z" fill="#262626"/>
		<path d="M26.8915 8.81946C29.1074 9.6291 30.8531 11.1306 32.1174 13.2031C33.2905 15.1167 33.9715 17.291 34.0994 19.532C34.2406 21.8626 34.2149 24.2026 34.2663 26.5387C34.271 26.7641 34.1977 26.8601 33.9543 26.8725C32.9193 26.9271 32.9201 26.9342 32.9201 25.9116C32.9201 24.5723 32.9294 23.2338 32.9201 21.8946C32.899 19.6076 32.6174 17.3651 31.6838 15.249C30.7657 13.1687 29.3758 11.505 27.3228 10.459C26.4467 9.99825 25.4686 9.76592 24.4789 9.78354C23.167 9.81552 21.8534 9.78978 20.5407 9.79134C18.7537 9.79134 17.2327 10.4793 15.9169 11.6407C14.1361 13.2116 13.2485 15.2708 12.7431 17.5367C12.3874 19.1295 12.3242 20.7464 12.3063 22.368C12.3063 22.627 12.3063 22.8852 12.3063 23.1738H10.9654C10.9654 22.7206 10.9553 22.2807 10.9654 21.8423C11.0076 20.1817 11.1214 18.5281 11.5114 16.9065C11.9116 15.2389 12.5418 13.6679 13.5472 12.2686C14.6572 10.7234 16.0916 9.5862 17.8887 8.92554C18.058 8.86314 18.2288 8.8023 18.338 8.76252C18.338 8.33352 18.2935 7.9326 18.3466 7.54572C18.409 7.13645 18.6169 6.7634 18.932 6.49494C19.2472 6.22647 19.6486 6.08058 20.0626 6.08401C21.7653 6.08401 23.4688 6.07855 25.1716 6.08947C25.429 6.08947 25.7433 6.08947 25.9328 6.22207C26.3852 6.54499 26.822 6.93187 26.8798 7.54104C26.9227 7.9443 26.8915 8.35458 26.8915 8.81946ZM22.5796 8.46846C23.3596 8.46846 24.1396 8.46846 24.9196 8.46846C25.3611 8.46846 25.6099 8.25942 25.6021 7.90686C25.5943 7.57068 25.3533 7.371 24.9321 7.37022C23.3877 7.3671 21.843 7.3671 20.2981 7.37022C19.8785 7.37022 19.6382 7.57536 19.6343 7.91622C19.6304 8.25708 19.8738 8.46924 20.2856 8.4708C21.0485 8.47158 21.8144 8.46846 22.5796 8.46846Z" fill="#262626"/>
		<path d="M0.0127622 35.2997H7.27143V24.4483H6.80343C4.68495 24.4483 2.56648 24.4421 0.448002 24.4553C0.116502 24.4553 -0.00673775 24.382 0.000282234 24.0256C0.0197822 23.1122 0.000282222 23.1122 0.929261 23.1122H7.16925C8.22849 23.1122 8.62239 23.5412 8.62239 24.6074C8.62239 27.2454 8.64267 29.8826 8.65125 32.5205C8.65437 33.4929 8.65125 34.4661 8.64189 35.4401C8.63721 36.0641 8.08497 36.614 7.42275 36.6171C5.05701 36.628 2.69206 36.6171 0.324762 36.6249C0.0962221 36.6249 -0.00829775 36.5617 0.00496223 36.3129C0.0252422 35.9946 0.0127622 35.6717 0.0127622 35.2997Z" fill="#262626"/>
		<path d="M3.78103 33.5011C3.77635 34.2873 3.84811 34.1906 3.05641 34.1945C2.34584 34.1945 2.45035 34.2304 2.45113 33.4223C2.45113 32.7492 2.35832 32.8708 3.25141 32.8638C3.86527 32.8591 3.77245 32.8131 3.78103 33.5011Z" fill="#262626"/>
		<path d="M4.88404 32.8645C5.28886 32.8645 5.65 32.8528 6.0088 32.8746C6.08212 32.8793 6.15388 33.0064 6.2155 33.0852C6.23422 33.1094 6.22018 33.1632 6.2194 33.1999C6.1921 34.3621 6.43546 34.1842 5.16406 34.1834C5.07046 34.1834 4.9051 34.0423 4.8973 33.9557C4.8661 33.6109 4.88404 33.2607 4.88404 32.8645Z" fill="#262626"/>
		<path d="M21.6929 20.479C22.2408 20.479 22.7865 20.479 23.3287 20.479C23.799 20.479 23.7391 20.4399 23.7431 20.9016C23.7394 20.9694 23.7394 21.0373 23.7431 21.105C23.7696 21.3166 23.6706 21.3697 23.4766 21.3662C22.9586 21.3557 22.4406 21.3714 21.9225 21.3586C21.7165 21.3534 21.6601 21.4274 21.6652 21.6268C21.6768 22.1007 21.6687 22.5752 21.6687 23.094C21.3044 23.094 20.9619 23.1033 20.6211 23.0829C20.5728 23.0829 20.4962 22.9348 20.4939 22.8538C20.4818 22.3706 20.4882 21.8867 20.4882 21.3627C20.1906 21.3627 19.916 21.3534 19.6421 21.3656C19.455 21.3744 19.3807 21.3073 19.3917 21.1161C19.4026 20.9249 19.3945 20.7139 19.3945 20.4796H20.4738V19.4216H19.398C19.398 19.0975 19.3865 18.8177 19.4078 18.5402C19.4124 18.4819 19.5384 18.3927 19.6133 18.388C19.8884 18.3694 20.1658 18.3805 20.4864 18.3805V13.9503C20.8727 13.9503 21.2163 13.938 21.5588 13.9503C22.4089 13.9864 23.2711 13.9573 24.1052 14.0948C25.4866 14.3233 26.1917 15.2933 26.1428 16.7121C26.0915 18.2103 25.1251 19.2135 23.5739 19.3499C22.9563 19.4041 22.3341 19.4111 21.6929 19.4402V20.479ZM21.6825 18.409C22.2921 18.377 22.8694 18.3892 23.4335 18.307C24.3763 18.1694 24.8149 17.7241 24.9127 16.9127C25.0031 16.1502 24.713 15.5026 24.142 15.2385C23.3523 14.873 22.5165 15.0013 21.6825 14.9902V18.409Z" fill="#19BB4F"/>
	</symbol>
</svg>