<svg width="191" height="226" viewBox="0 0 191 226" fill="none" xmlns="http://www.w3.org/2000/svg">
<path d="M10.6343 225.986C10.5955 225.883 10.5493 225.784 10.4962 225.688C9.56099 225.969 8.88504 225.071 7.97651 225.152C7.69547 225.179 7.31025 224.912 7.10189 224.66C6.74332 224.237 5.94866 224.372 5.83721 223.651C5.83721 223.599 5.6119 223.579 5.49076 223.543C5.36962 223.507 5.13704 223.5 5.07889 223.406C4.40294 222.304 3.29332 221.584 2.56649 220.525C1.83966 219.466 1.14191 218.457 0.831798 217.208C0.723786 216.852 0.596817 216.502 0.451425 216.159C-0.0912724 216.046 -0.0476628 215.918 0.228531 215.323C0.417506 214.9 0.279409 214.333 0.281832 213.832C0.284255 213.33 0.281832 212.78 0.281832 212.256C0.281832 210.306 0.308482 208.354 0.281832 206.404C0.269718 204.831 0.167963 203.258 0.14858 201.682C0.14858 200.883 0.281832 200.081 0.274564 199.281C0.245491 197.314 0.160694 195.35 0.14858 193.383C0.14858 192.225 0.296369 191.065 0.272141 189.908C0.213995 187.206 0.054093 184.507 0.00321509 181.798C-0.0234352 180.17 0.124353 178.537 0.124353 176.908C0.124353 175.28 0.00321509 173.702 0.00321509 172.093C0.00321509 170.484 0.126776 168.923 0.126776 167.338C0.129198 165.686 0.00321509 164.027 0.00321509 162.382C0.00321509 160.737 0.114662 159.032 0.126776 157.355C0.126776 156.395 -0.00647593 155.434 0.000792337 154.474C0.0201744 152.283 0.124353 150.093 0.126776 147.901C0.126776 146.025 0.00563785 144.147 0.00321509 142.272C0.00321509 140.574 0.126776 138.876 0.126776 137.178C0.126776 135.526 0.00321509 133.874 0.00321509 132.221C0.00321509 130.569 0.112239 128.859 0.126776 127.197C0.136467 126.323 0.00321509 125.425 0.00321509 124.536C0.0250199 122.053 0.119507 119.573 0.129198 117.092C0.129198 115.574 0.000792337 114.056 0.00563785 112.529C0.00563785 110.608 0.109816 108.687 0.129198 106.765C0.129198 105.987 -0.00405318 105.207 0.00321509 104.431C0.0274427 101.948 0.109816 99.4672 0.131621 96.9864C0.131621 96.0738 -0.00405318 95.1613 0.00321509 94.2487C0.0250199 91.8472 0.12193 89.4649 0.129198 87.0706C0.129198 85.4184 0.00321509 83.7661 0.00563785 82.1139C0.00563785 80.2815 0.117085 78.4492 0.129198 76.6169C0.136467 75.6514 0.00321509 74.6596 0.00321509 73.6798C0.0225971 71.4224 0.109816 69.165 0.131621 66.9076C0.131621 65.995 -0.00405318 65.08 0.00321509 64.1675C0.0250199 61.6195 0.117085 59.0715 0.129198 56.5211C0.129198 55.0033 0.00321509 53.4856 0.00563785 51.9582C0.00563785 50.1475 0.117085 48.3391 0.129198 46.5284C0.129198 45.527 -0.00405318 44.5232 0.00321509 43.5217C0.0225971 41.2643 0.109816 39.0069 0.131621 36.7495C0.131621 35.8585 -0.00405318 34.9676 0.00321509 34.0766C0.0250199 31.6751 0.119507 29.2472 0.129198 26.8337C0.134044 25.2583 0.00321509 23.6733 0.00321509 22.0979C0.00321509 20.4673 0.119507 18.8391 0.126776 17.2085C0.126776 16.0485 -0.0137442 14.8886 0.0104834 13.7311C0.0274427 12.8929 0.228531 12.05 0.308482 11.2191C0.287825 10.9997 0.225343 10.7862 0.124353 10.5899C0.0855888 10.4698 -0.0234352 10.3161 0.0153289 10.2345C0.194613 9.86225 0.436888 9.51403 0.61375 9.149C0.727619 8.90885 0.715505 8.61347 0.856025 8.38773C1.37465 7.40251 1.94978 6.44755 2.5786 5.52754C3.19883 4.68941 3.9838 3.96896 4.69125 3.19327C4.88022 2.98915 5.03528 2.7538 5.24121 2.56888C5.40596 2.41759 5.63128 2.32873 5.81298 2.19425C5.95474 2.07858 6.08756 1.95255 6.21032 1.81721C6.283 1.74517 6.3363 1.62749 6.4211 1.59387C7.14792 1.3225 7.91109 1.14719 8.57493 0.779763C9.42879 0.315947 10.385 0.068461 11.3587 0.0593116C16.0588 -0.0223395 20.7614 0.00407704 25.464 0.00407704C75.9881 0.00407704 126.511 0.00407704 177.034 0.00407704C178.618 0.00407704 180.092 0.460363 181.579 0.897436C182.614 1.20243 183.394 1.89166 184.244 2.47763C184.835 2.88348 185.664 2.9195 186.073 3.60633C186.366 4.08663 186.577 4.65339 186.941 5.08566C187.883 6.20236 188.31 7.58322 188.993 8.8296C189.126 9.06975 189.291 9.3099 189.407 9.55005C189.434 9.60769 189.317 9.73017 189.269 9.82142L189.8 10.1072C189.762 10.1921 189.715 10.2727 189.659 10.3474C189.388 10.6043 189.3 10.7988 189.775 10.9285C189.846 10.9596 189.909 11.0062 189.96 11.0649C190.01 11.1235 190.046 11.1926 190.066 11.2671C190.096 11.5117 190.102 11.7587 190.083 12.0044C190.083 31.0819 190.083 50.1595 190.083 69.237C190.083 69.5949 190.299 70.0679 189.722 70.2529C189.683 70.2649 189.693 70.4522 189.695 70.5603C189.729 75.0655 189.764 79.5707 189.8 84.0759C189.8 85.5648 189.785 87.0538 189.8 88.5427C189.812 89.3664 189.938 90.1878 189.93 91.0115C189.901 94.2775 189.802 97.5436 189.795 100.81C189.756 117.197 189.731 133.585 189.72 149.971C189.71 158.467 189.705 166.963 189.705 175.458C189.705 175.633 189.87 175.806 189.947 175.989C190.03 176.161 190.08 176.346 190.098 176.536C190.112 177.701 190.119 178.868 190.098 180.033C190.098 180.237 189.921 180.431 189.841 180.638C189.769 180.789 189.724 180.952 189.71 181.118C189.71 182.485 189.695 183.854 189.71 185.22C189.71 185.395 189.882 185.563 189.952 185.744C190.032 185.917 190.082 186.103 190.1 186.294C190.1 195.579 190.1 204.86 190.1 214.137C190.1 214.47 190.139 214.823 189.654 214.917C189.606 214.917 189.608 215.309 189.627 215.515C189.647 215.722 189.766 215.995 189.749 216.012C189.022 216.269 189.187 216.973 188.942 217.475C188.423 218.534 187.973 219.648 187.26 220.582C186.548 221.516 185.565 222.294 184.721 223.152C184.6 223.274 184.574 223.483 184.479 223.632C184.385 223.781 184.264 223.942 184.176 223.93C183.316 223.815 182.987 224.636 182.357 224.907C182.032 225.047 181.686 225.126 181.351 225.241C180.625 225.481 179.912 225.748 179.195 226L10.6343 225.986ZM9.15397 213.738L9.03525 213.716C9.07858 213.951 9.14848 214.181 9.24361 214.401C9.54161 214.934 9.79115 215.794 10.2127 215.892C10.9541 216.067 11.1212 216.829 11.8747 216.994C12.6282 217.16 13.4035 217.475 14.2078 217.503C15.2036 217.542 16.1993 217.523 17.1927 217.523C33.3864 217.523 49.5793 217.523 65.7714 217.523C76.5365 217.523 87.3008 217.523 98.0643 217.523H144.741C155.123 217.523 165.502 217.523 175.883 217.506C176.772 217.506 177.691 217.314 178.415 216.687C178.759 216.387 179.05 215.885 179.435 215.806C180.239 215.64 180.234 214.931 180.537 214.461C180.726 214.168 181.046 213.685 180.518 213.301C180.457 213.255 180.501 213.046 180.518 212.914C180.68 211.764 180.99 210.654 180.971 209.456C180.893 204.547 180.918 199.639 180.915 194.73C180.906 179.711 180.901 164.692 180.901 149.673C180.901 137.77 180.895 125.866 180.884 113.963C180.884 102.259 180.889 90.5576 180.898 78.8575C180.898 67.0661 180.893 55.2755 180.884 43.4857C180.884 40.796 180.884 38.1039 180.884 35.4143C180.884 32.7246 180.966 30.0325 180.862 27.3452C180.76 24.7035 181.07 22.0619 180.62 19.401C180.256 17.2517 180.499 15.0087 180.499 12.8161C180.499 12.5447 180.625 12.2734 180.741 11.8363C180.713 11.6791 180.659 11.5279 180.579 11.3896C180.125 10.7028 180.036 9.67013 178.883 9.6197C178.759 9.6197 178.64 9.39396 178.526 9.26908C178.413 9.1442 178.328 8.94488 178.202 8.91846C177.426 8.75516 176.644 8.51741 175.861 8.51741C166.251 8.49179 156.641 8.48619 147.031 8.5006H106.51C94.7742 8.5006 83.0375 8.4966 71.3001 8.48859C58.8843 8.48859 46.4684 8.49259 34.0526 8.5006C27.2915 8.5006 20.5296 8.5062 13.7669 8.51741C13.1868 8.48337 12.6065 8.58197 12.071 8.80559C11.3902 9.15381 10.8232 9.71816 10.1982 10.1744C9.69424 10.5467 9.20969 10.9093 9.57553 11.6514C9.5934 11.715 9.5934 11.7823 9.57553 11.8459C9.498 12.2421 9.41562 12.636 9.33325 13.0322C9.28237 13.2916 9.26541 13.5582 9.19515 13.8103C9.12489 14.0625 8.91896 14.3074 8.91896 14.5548C8.89958 18.157 8.91896 21.7737 8.91896 25.3832C8.91896 25.5177 8.88019 25.7194 8.95045 25.7746C9.55857 26.2309 9.33325 26.8769 9.33325 27.4557C9.34294 63.2781 9.34294 99.1005 9.33325 134.923C9.33325 160.859 9.33325 186.795 9.33325 212.732C9.30311 213.072 9.24312 213.408 9.15397 213.738Z" fill="#EDA481"/>
<path d="M130.067 205.107C129.541 205.039 129.03 205.618 128.647 204.866C128.565 204.703 128.051 204.715 127.734 204.708C126.968 204.689 126.365 204.091 125.517 204.228C125.105 204.292 124.621 203.846 124.158 203.658C123.913 203.579 123.664 203.513 123.412 203.462C123.22 203.406 122.954 203.394 122.859 203.265C122.46 202.712 121.825 202.58 121.27 202.304C120.66 202.004 120.594 201.696 120.904 201.084C121.52 199.854 122.099 198.608 122.687 197.369C123.276 196.13 123.872 194.843 124.47 193.584C125.314 191.809 126.161 190.036 127.012 188.265C127.184 187.978 127.341 187.683 127.482 187.381C127.649 186.918 127.753 186.432 127.899 185.904C128.153 185.653 128.374 185.372 128.558 185.066C128.977 184.18 129.285 183.246 129.711 182.367C130.21 181.346 130.833 180.388 131.317 179.36C131.756 178.428 131.896 177.302 132.502 176.514C133.18 175.631 133.512 174.627 134.023 173.692C134.218 173.27 134.38 172.833 134.508 172.386C134.55 172.267 134.599 172.151 134.656 172.038C134.808 171.767 134.925 171.478 135.002 171.178C135.237 170.888 135.454 170.584 135.652 170.268C136.26 169.149 136.432 167.936 136.432 166.678C136.432 155.493 136.438 144.308 136.451 133.121C136.451 132.161 136.463 132.142 137.42 132.127C138.561 132.108 139.705 132.067 140.846 132.082C141.171 132.082 141.49 132.257 141.815 132.346C141.94 132.397 142.073 132.426 142.208 132.43C142.629 132.377 142.997 132.19 143.419 132.61C143.637 132.829 144.214 132.689 144.63 132.73C145.088 132.778 145.546 132.841 146.002 132.908C146.136 132.923 146.267 132.965 146.384 133.033C146.869 133.34 148.102 133.674 148.679 133.82C149.255 133.967 149.742 134.301 150.27 134.541C150.304 134.558 150.321 134.63 150.353 134.637C151.792 134.947 152.928 135.917 154.263 136.414C154.808 136.618 155.264 136.791 155.668 137.206C155.86 137.401 156.257 137.382 156.531 137.519C156.691 137.598 156.795 137.79 156.95 137.864C157.193 137.982 157.422 138.128 157.631 138.299C158.094 138.765 158.43 139.375 159.206 139.421C159.317 139.421 159.426 139.61 159.516 139.728C159.605 139.846 159.639 140.062 159.741 140.091C160.901 140.432 161.296 141.656 162.287 142.226C162.861 142.552 163.213 143.246 163.702 143.739C164.008 144.012 164.332 144.266 164.671 144.497C164.738 144.544 164.798 144.6 164.848 144.663C165.984 146.366 167.067 148.107 168.269 149.762C168.996 150.746 169.224 151.961 169.941 152.903C170.91 154.183 171.072 155.784 171.751 157.17C172.095 157.892 172.394 158.634 172.647 159.392C172.71 159.576 172.569 159.831 172.511 160.112C172.829 160.268 173.313 160.427 172.785 160.933C172.779 160.999 172.788 161.065 172.81 161.127C172.833 161.189 172.869 161.245 172.916 161.291C173.471 161.464 173.272 161.786 173.124 162.12C173.076 162.23 173.025 162.449 173.064 162.47C173.606 162.794 173.386 163.172 173.272 163.635C173.197 163.94 173.485 164.327 173.587 164.684C173.63 164.841 173.641 165.004 173.621 165.165C173.553 165.455 173.501 165.748 173.466 166.044C173.453 168.027 173.453 170.012 173.466 171.997C173.505 172.217 173.564 172.433 173.643 172.643C173.671 172.757 173.663 172.877 173.619 172.986C173.352 173.51 172.993 174.002 173.485 174.605C173.553 174.689 173.388 175.025 173.258 175.181C173.032 175.448 172.8 175.662 173.139 176.005C173.178 176.055 173.208 176.111 173.228 176.171C172.625 176.493 172.933 177.033 172.887 177.489C172.887 177.528 172.645 177.542 172.528 177.571C172.804 178.275 172.264 178.8 172.204 179.36C172.097 180.321 171.036 181 171.453 182.069C171.479 182.136 171.375 182.268 171.305 182.35C171.116 182.522 170.947 182.714 170.801 182.924C170.282 183.966 169.832 185.037 169.294 186.07C168.739 187.146 168.143 188.2 167.528 189.242C167.305 189.617 166.934 189.903 166.689 190.268C166.232 190.947 165.822 191.661 165.379 192.352C165.294 192.503 165.164 192.622 165.006 192.693C164.431 192.866 164.192 193.294 163.99 193.803C163.884 194.072 163.627 194.283 163.465 194.523C163.08 195.124 162.253 195.244 161.965 196.017C161.839 196.336 161.17 196.442 160.754 196.656C160.637 196.718 160.446 196.826 160.451 196.896C160.504 197.681 159.881 197.65 159.397 197.818C159.23 197.876 159.111 198.058 158.963 198.185C158.777 198.337 158.588 198.488 158.394 198.632C158.263 198.728 158.074 198.779 157.994 198.901C157.66 199.427 157.267 199.83 156.541 199.83C156.482 199.977 156.412 200.152 156.349 200.311C155.823 200.361 155.38 200.443 155.155 201.002C155.084 201.112 154.987 201.203 154.872 201.267C154.757 201.33 154.627 201.364 154.496 201.365C153.556 201.211 152.991 201.939 152.25 202.237C152.024 202.326 151.886 202.619 151.661 202.734C151.355 202.867 151.037 202.971 150.711 203.044C149.766 203.313 148.773 203.481 147.896 203.884C147.559 204.038 146.927 203.841 146.818 204.468C146.799 204.554 146.505 204.624 146.333 204.643C145.65 204.713 144.681 204.504 144.342 204.883C143.741 205.536 142.92 204.718 142.45 205.421C142.372 205.539 141.943 205.421 141.677 205.421C141.353 205.425 141.029 205.449 140.708 205.493C140.357 205.548 140.012 205.717 139.664 205.719C137.658 205.736 135.652 205.738 133.645 205.697C133.069 205.685 132.502 205.491 131.925 205.426C131.587 205.408 131.249 205.418 130.913 205.457C130.571 205.469 130.183 205.594 130.067 205.107Z" fill="#EDA481"/>
<path d="M126.266 180.854C126.048 181.049 125.855 181.27 125.692 181.512C124.822 183.285 123.964 185.064 123.138 186.858C123.029 187.098 123.124 187.422 123.124 187.766C122.252 188.059 122.155 188.967 121.796 189.687C120.748 191.812 119.717 193.947 118.705 196.092C118.491 196.608 118.304 197.134 118.147 197.67C117.891 197.957 117.663 198.267 117.464 198.597C116.815 199.913 116.214 201.25 115.577 202.571C115.092 203.556 114.237 203.741 113.338 203.071C112.72 202.612 112.127 202.139 111.499 201.683C111.394 201.63 111.283 201.586 111.17 201.553C110.954 201.445 110.743 201.33 110.508 201.205L109.823 200.614C109.728 200.532 109.634 200.374 109.542 200.374C109.154 200.374 108.868 200.314 108.832 199.85C108.832 199.802 108.59 199.725 108.478 199.74C107.802 199.833 107.7 199.37 107.604 198.892C106.891 198.892 106.465 198.537 106.256 197.835C106.19 197.698 106.091 197.579 105.968 197.487C105.597 197.127 105.241 196.752 104.842 196.418C104.275 195.938 103.671 195.503 103.1 195.028C103.006 194.958 102.93 194.866 102.88 194.761C102.83 194.655 102.806 194.539 102.811 194.423C102.811 194.082 102.276 193.748 101.959 193.426C101.857 193.325 101.631 193.306 101.581 193.198C100.384 190.624 98.431 188.469 97.3601 185.825C97.2376 185.585 97.08 185.364 96.8925 185.17C96.6115 184.43 96.3668 183.851 96.1657 183.249C95.9549 182.615 95.7926 181.964 95.5964 181.327C95.5322 181.102 95.4436 180.885 95.3323 180.679C95.1215 180.302 94.6273 179.992 95.09 179.478C94.6321 179.183 94.5134 178.808 94.8041 178.328C94.8162 178.306 94.7048 178.165 94.6394 178.155C94.0216 178.071 94.3704 177.744 94.431 177.459C94.4722 177.262 94.4964 176.942 94.3826 176.851C93.9658 176.515 93.944 176.327 94.2251 175.89C94.2866 175.774 94.3188 175.645 94.3188 175.513C94.3188 175.382 94.2866 175.253 94.2251 175.136C93.6436 174.483 93.9247 173.731 93.915 173.028C93.915 172.396 94.0749 171.765 94.1015 171.131C94.1282 170.497 94.2856 170.235 95.0028 170.235C106.647 170.257 118.292 170.265 129.939 170.259C130.272 170.245 130.604 170.308 130.908 170.444C131.039 170.516 131.114 170.948 131.022 171.116C130.814 171.496 130.414 171.774 130.222 172.158C129.273 174.065 128.359 176.001 127.441 177.922C127.119 178.599 126.794 179.277 126.516 179.973C126.436 180.271 126.391 180.577 126.382 180.886L126.266 180.854Z" fill="#EDA481"/>
<path d="M23.3172 138.041C22.9392 138.103 22.5685 138.189 22.6509 137.579C22.6679 137.462 22.4474 137.315 22.3505 137.174C21.9943 136.65 21.6503 136.117 21.2918 135.596C21.127 135.356 20.9211 135.142 20.7684 134.895C20.6951 134.743 20.6461 134.581 20.6231 134.414C20.3299 133.021 21.1658 131.965 21.74 130.838C22.0162 130.296 22.3529 129.787 22.6751 129.268C22.7318 129.181 22.8176 129.116 22.9174 129.085C23.6849 128.944 24.3964 128.59 24.9695 128.065C25.0349 128.005 25.1875 128.026 25.299 128.029C27.6806 128.053 30.0621 128.098 32.4437 128.106C38.029 128.125 43.6126 128.135 49.1946 128.137H71.169C74.1757 128.137 77.1823 128.137 80.1865 128.137C80.4991 128.137 80.8237 128 81.1169 128.058C81.7056 128.175 82.2725 128.401 82.8564 128.538C83.1278 128.605 83.4209 128.591 83.5832 128.735C84.0072 129.215 84.4675 129.695 84.8479 130.207C85.1847 130.673 85.427 131.206 85.725 131.701C85.8703 131.941 86.0569 132.166 86.2095 132.421C86.3162 132.579 86.3843 132.759 86.4082 132.947C86.4324 133.547 86.4082 134.148 86.4082 134.734L85.8364 135.043C86.1199 135.375 86.2798 135.541 85.7056 135.805C85.3107 135.985 85.1386 136.616 84.831 137.006C84.5855 137.293 84.3251 137.567 84.0508 137.827C83.7649 138.129 83.4815 138.439 83.1907 138.737C83.1255 138.802 83.0402 138.843 82.9485 138.855C82.3307 138.915 81.6741 138.855 81.1023 139.035C78.5318 139.878 75.9031 139.275 73.3083 139.385C70.6675 139.505 68.0194 139.412 65.3738 139.412H57.4465C47.5665 139.412 37.6865 139.412 27.8065 139.412C27.3923 139.412 26.9004 139.597 26.5952 139.088C26.5637 139.035 26.4256 139.018 26.3529 139.023C25.8998 139.054 25.4686 139.352 25.0276 138.809C24.8169 138.552 24.2257 138.617 23.8163 138.499C23.6253 138.424 23.4433 138.328 23.2736 138.213L23.3172 138.041Z" fill="#EDA481"/>
<path d="M138.516 25.2486C147.107 25.2486 155.7 25.2702 164.291 25.227C165.619 25.227 166.804 25.5536 168.02 25.9859C169.127 26.3773 169.791 27.2803 170.401 28.0968C170.791 28.6423 171.063 29.2621 171.198 29.9169C171.334 30.5717 171.33 31.2473 171.189 31.9008C171.082 32.4435 170.52 32.9142 170.462 33.4474C170.397 34.0982 169.774 34.1918 169.558 34.6865C169.343 35.1813 168.892 35.5367 168.463 35.8489C168.202 36.041 167.79 36.041 167.441 36.1034C166.91 36.228 166.371 36.3139 165.827 36.3604C163.531 36.4348 161.224 36.4973 158.93 36.5117C157.537 36.5117 156.141 36.406 154.746 36.3964C153.915 36.3964 153.084 36.5213 152.255 36.5141C149.832 36.4925 147.431 36.4036 145.018 36.3964C143.238 36.3964 141.459 36.5069 139.688 36.5117C138.363 36.5117 137.035 36.3892 135.71 36.3964C133.53 36.3964 131.335 36.4973 129.149 36.5117C128.049 36.5117 126.949 36.3892 125.852 36.3964C123.55 36.4108 121.249 36.5045 118.952 36.5117C117.377 36.5117 115.802 36.4108 114.225 36.3964C113.418 36.3964 112.604 36.5621 111.802 36.4973C110.932 36.4276 110.077 36.1803 109.217 36.005C108.934 35.9473 108.563 35.9569 108.393 35.784C107.742 35.114 107.194 34.3431 106.53 33.6851C106.111 33.2745 106.409 32.5252 105.755 32.2706C105.716 32.2562 105.714 32.1025 105.724 32.0185C105.774 31.579 105.837 31.1419 105.896 30.7049C105.92 30.619 105.931 30.5298 105.927 30.4407C105.866 30.1045 105.702 29.7587 105.745 29.4393C105.777 29.2183 106.121 29.0574 106.269 28.8365C106.455 28.5331 106.624 28.2196 106.775 27.8975C106.959 27.5349 107.134 27.165 107.315 26.8024C107.347 26.7424 107.378 26.6631 107.429 26.6391C108.144 26.3077 108.849 25.9523 109.583 25.6785C111.279 25.0109 113.084 25.2751 114.848 25.2702C122.736 25.2366 130.625 25.2294 138.516 25.2486Z" fill="#EDA481"/>
<path d="M23.8153 171.712C23.023 171.56 22.4585 170.919 22.0878 170.182C21.7414 169.493 20.8159 169.058 21.0412 168.054C20.5348 167.752 20.4016 166.347 20.874 165.893C20.9564 165.814 21.0872 165.653 21.063 165.614C20.7311 165.064 21.3198 164.843 21.4288 164.473C21.7414 163.436 22.8389 163.097 23.275 162.209C23.2944 162.173 23.3356 162.125 23.3695 162.12C24.0963 162.026 24.6438 161.503 25.47 161.457C34.5675 160.962 43.6697 161.352 52.7672 161.272C61.8646 161.193 70.9379 161.243 80.0377 161.272C81.0087 161.242 81.9768 161.393 82.8918 161.717C83.4369 161.937 84.2679 162.077 84.4762 162.884C84.4956 162.956 84.6894 162.975 84.796 163.033C85.0383 163.165 85.3702 163.141 85.1909 163.674C85.094 163.957 85.4889 164.613 85.8281 164.79C86.4411 165.107 86.1261 165.216 85.9638 165.388C86.1419 165.89 86.2852 166.402 86.3926 166.923C86.4524 167.154 86.4437 167.398 86.3677 167.624C86.2916 167.851 86.1514 168.051 85.9638 168.201C85.5374 168.573 85.4381 169.303 85.1667 169.865C84.9811 170.287 84.7521 170.69 84.4835 171.066C84.2573 171.316 83.9475 171.476 83.6113 171.517C83.4756 171.671 83.3133 171.976 83.2116 171.957C82.6277 171.853 82.2158 172.461 81.5544 172.23C81.1256 172.079 80.5514 172.382 80.0426 172.382C70.9072 172.382 61.7718 172.382 52.6364 172.382C51.8684 172.382 51.0979 172.406 50.3299 172.382C47.8296 172.334 45.3293 172.24 42.8194 172.23C41.1234 172.23 39.4445 172.355 37.7582 172.37C34.4487 172.398 31.1376 172.404 27.8249 172.386C26.7153 172.386 25.6008 172.307 24.4961 172.211C24.2877 172.192 24.0939 171.916 23.8153 171.712Z" fill="#EDA481"/>
<path d="M106.8 100.745C106.768 100.656 106.693 100.423 106.604 100.198C106.264 99.3595 105.906 98.531 105.591 97.6833C105.521 97.4675 105.528 97.2343 105.61 97.0229C105.993 96.1655 106.458 95.3418 106.807 94.4701C107.01 94.0166 107.312 93.6137 107.691 93.2909C107.963 93.0268 108.193 92.6209 108.547 92.4192C108.82 92.2607 109.186 92.2535 109.516 92.179C109.574 92.167 109.688 92.2319 109.698 92.2151C110.153 91.4394 110.858 92.0998 111.439 91.9341C112.021 91.7684 112.741 91.8861 113.395 91.8837L131.706 91.862H157.816C160.076 91.862 162.337 91.8284 164.6 91.862C165.372 91.8741 166.14 92.1022 166.916 92.143C168.854 92.2463 169.467 93.8649 170.424 95.0801C170.598 95.2986 171.507 95.4043 170.862 95.8341C171.02 96.2064 171.223 96.4561 171.211 96.6987C171.173 97.532 171.274 98.471 170.921 99.1674C170.436 100.128 169.612 100.957 168.839 101.749C168.631 101.96 168.793 102.469 168.185 102.45C167.635 102.438 167.083 102.931 166.528 102.931C162.124 102.971 157.719 102.955 153.312 102.952C144.858 102.952 136.404 102.947 127.948 102.938C122.906 102.938 117.864 102.938 112.823 102.938C111.946 102.938 111.02 103.132 110.206 102.911C109.535 102.729 108.634 102.911 108.171 102.016C107.917 101.531 107.33 101.216 106.8 100.745Z" fill="#EDA481"/>
<path d="M170.769 65.4669C170.857 65.7647 171.235 66.1081 170.583 66.1489C170.537 66.1489 170.488 66.2834 170.457 66.3626C170.06 67.3545 169.246 67.9812 168.468 68.6561C167.959 69.1027 167.356 69.3093 166.772 69.6167C166.023 70.0057 165.318 69.8712 164.613 69.8736C146.953 69.8928 129.293 69.8928 111.632 69.8736C110.862 69.8422 110.096 69.7376 109.345 69.5614C109.154 69.523 109.004 69.2684 108.757 69.0403C108.454 69.0859 108.061 69.1484 107.979 68.5096C107.95 68.2886 107.482 68.1517 107.291 67.914C106.69 67.1695 106.167 66.3794 105.992 65.4092C105.968 65.2651 105.823 65.1427 105.789 64.9962C105.704 64.6191 105.532 64.2109 105.609 63.8603C105.748 63.3049 105.966 62.772 106.256 62.2777C106.607 61.6445 107 61.0348 107.431 60.4525C107.778 59.9722 108.199 59.5712 108.589 59.1365C108.616 59.1018 108.652 59.0758 108.694 59.0621C109.345 58.9828 109.992 58.8699 110.646 58.8435C111.594 58.8051 112.543 58.8243 113.491 58.8243C123.167 58.8243 132.844 58.8291 142.523 58.8387C150.052 58.8387 157.58 58.7979 165.11 58.7979C165.985 58.7979 166.891 58.613 167.734 59.0188C167.872 59.0944 167.997 59.1908 168.104 59.3046C168.163 59.3646 168.165 59.5255 168.213 59.5448C169.425 59.8113 169.607 60.9857 170.249 61.7493C170.599 62.1436 170.881 62.5933 171.082 63.0798C171.324 63.7714 171.126 64.6023 171.094 65.3732C171.101 65.3948 170.912 65.4212 170.769 65.4669Z" fill="#EDA481"/>
<path d="M27.1408 94.8633C27.5091 94.9065 27.9597 94.9977 28.4103 95.0097C29.3576 95.0362 30.3098 95.0097 31.2595 95.0097H41.1613C46.2927 95.0097 51.4233 95.0049 56.5531 94.9953C60.1872 94.9953 63.8213 95.029 67.4555 95.0218C70.6414 95.0218 73.8249 94.9737 77.0108 94.9569C77.6892 94.9569 78.3651 94.9977 79.0435 94.9929C82.8642 94.9737 86.6849 94.9257 90.5031 94.9425C91.2442 94.9469 91.9765 95.1022 92.6545 95.3988C93.0616 95.5813 93.3038 96.1481 93.5897 96.5635C93.7713 96.8519 93.9379 97.1492 94.0888 97.4545C93.9095 97.7547 93.6963 98.0861 93.5098 98.4295C93.2094 98.9794 92.7054 99.2628 92.2184 99.6302C91.4141 100.238 90.5782 99.9544 89.7957 99.9664C85.9992 100.031 82.2028 99.9905 78.4087 99.9833C73.006 99.9833 67.6032 99.952 62.2005 99.9496C54.5187 99.9496 46.8354 99.9496 39.1504 99.9496C34.6756 99.9496 30.1983 99.9496 25.7211 99.9496C25.0222 99.9307 24.3257 99.86 23.6375 99.7383C23.2208 99.6759 22.1136 98.0573 22.1184 97.6346C22.1451 95.2619 22.1838 92.8892 22.1863 90.5189C22.1863 82.1777 22.1863 73.8381 22.1863 65.5001C22.1863 55.6811 22.1863 45.8622 22.1863 36.0432C22.1863 34.6023 22.2008 33.1734 22.1863 31.7373C22.1863 31.4179 22.0021 31.0865 22.0457 30.7767C22.1244 30.3773 22.2615 29.9914 22.4528 29.6312C22.695 29.1341 24.1051 28.3464 24.5993 28.4737C25.0765 28.5761 25.5211 28.793 25.8941 29.1053C26.2671 29.4176 26.5571 29.8159 26.7386 30.2652C26.8258 30.4789 27.056 30.6302 27.165 30.8368C27.2903 31.0485 27.3649 31.286 27.3831 31.5308C27.3831 36.7052 27.3831 41.8861 27.3831 47.0733C27.3831 62.0939 27.3831 77.1145 27.3831 92.1351C27.3685 93.0693 27.2159 94.0155 27.1408 94.8633Z" fill="#EDA481"/>
<path d="M21.0196 201.194C20.4212 200.863 20.4236 199.525 21.0729 199.007C20.8137 198.401 20.9857 197.957 21.5575 197.479C21.7997 197.273 21.9039 196.91 22.1268 196.668C22.6768 196.06 23.1468 195.412 23.9681 195.037C24.5947 194.757 25.2748 194.615 25.962 194.619C34.9844 194.59 44.0075 194.585 53.0315 194.602C61.8051 194.612 70.5779 194.629 79.3499 194.653C79.8684 194.653 80.3892 194.593 80.9077 194.607C81.4262 194.622 82.0537 194.564 82.5067 194.787C82.8072 194.936 83.1342 195.111 83.4346 195.294C84.6824 196.041 85.4165 197.179 85.8065 198.553C85.8308 198.637 85.8332 198.769 85.8889 198.793C86.8241 199.273 86.2644 200.138 86.4122 200.817C86.4292 200.897 86.4122 201.043 86.3589 201.058C85.5521 201.487 85.7145 202.458 85.2178 203.056C84.9925 203.329 84.7647 203.598 84.5394 203.87C84.0549 204.46 83.6987 205.212 82.8435 205.395C82.3829 205.474 81.9175 205.523 81.4504 205.541C81.2711 205.556 81.0918 205.52 80.9126 205.522C76.5516 205.541 72.1906 205.56 67.8297 205.58C64.462 205.58 61.0968 205.58 57.7292 205.58H47.6263C44.2126 205.58 40.8014 205.58 37.3902 205.58C34.1824 205.58 30.9747 205.532 27.7694 205.527C27.1056 205.527 26.4417 205.63 25.7779 205.668C25.4654 205.688 25.0898 205.923 24.8984 205.395C24.8621 205.294 24.4502 205.315 24.208 205.299C23.6604 205.258 23.2946 205.157 23.0281 204.506C22.7858 203.92 22.0808 203.521 21.5744 203.034C21.4469 202.923 21.3374 202.794 21.2498 202.65C21.1223 202.439 21.0284 202.209 20.9711 201.97C20.9576 201.711 20.9738 201.45 21.0196 201.194Z" fill="#EDA481"/>
<path d="M44.0969 77.3612C43.6657 77.6014 43.2005 77.1787 42.8492 76.8809C42.4776 76.5816 42.0375 76.3771 41.5676 76.2854C41.0976 76.1677 40.6809 75.8555 40.223 75.6754C39.6609 75.4569 39.0746 75.3008 38.5125 75.0846C38.3841 75.0342 38.309 74.8445 38.1733 74.6956L28.5913 93.533H28.3636C28.2834 93.2889 28.2219 93.0393 28.1794 92.7861C28.1043 92.0657 28.2618 91.3116 27.7458 90.6704C27.6513 90.5527 27.6804 90.327 27.6779 90.1493C27.6779 89.3207 27.6489 88.4898 27.69 87.6613C27.7496 87.3777 27.8543 87.1054 28.0002 86.8544C28.0413 86.7559 28.1722 86.6142 28.1431 86.5758C27.77 86.0067 28.412 85.6368 28.429 85.1349C28.429 84.7675 28.7415 84.4145 28.9305 84.0518C29.776 82.4596 30.641 80.877 31.472 79.2752C32.8061 76.7024 34.1273 74.1232 35.4356 71.5376C35.5 71.3481 35.5526 71.1548 35.5931 70.9588C35.7069 70.6346 35.7675 70.2888 36.286 70.3393C36.7666 70.3454 37.2472 70.323 37.7251 70.272C37.8707 70.2799 38.0144 70.309 38.1515 70.3585C38.1854 70.3585 38.1975 70.4449 38.2315 70.4569C38.9583 70.7283 39.6851 70.9925 40.3974 71.2662C40.7124 71.3863 41.02 71.3959 41.3108 71.7345C41.6015 72.0731 42.2581 72.1356 42.7644 72.2869C43.1157 72.3925 43.4016 72.3853 43.7335 72.7672C44.1163 73.2331 44.928 73.406 45.5894 73.5693C46.1563 73.7134 46.7329 73.6701 47.1666 74.2249C47.3362 74.4434 47.8353 74.4074 48.235 74.5011C48.5233 75.5217 49.8486 74.7292 50.3331 75.5481C51.106 73.9943 51.891 72.4646 52.6323 70.9156C53.9091 68.2451 55.1568 65.5603 56.4215 62.885C56.7655 62.1645 57.1483 61.4441 57.4827 60.7236C57.6135 60.4427 57.6402 60.116 57.7613 59.8303C57.7943 59.7646 57.842 59.7073 57.9008 59.6628C57.9596 59.6182 58.0279 59.5876 58.1005 59.5733C59.1447 59.5949 60.1889 59.6285 61.2307 59.6958C61.4663 59.7279 61.6893 59.8206 61.8776 59.9648C62.3158 60.2532 62.8116 60.4449 63.3312 60.5267C63.7794 60.618 64.184 60.9013 64.6274 61.0502C65.2379 61.252 65.8606 61.4249 66.4832 61.581C67.164 61.7515 67.806 62.1237 68.5498 61.9868C68.7727 62.5248 69.3929 62.3831 69.7612 62.4887C70.4226 62.6857 70.8321 61.9796 71.1616 61.4297C71.6897 60.5531 72.2106 59.6718 72.7315 58.788C73.3154 57.801 73.892 56.8092 74.4759 55.8222C74.9968 54.9432 75.5395 54.0763 76.0434 53.1805C76.4601 52.4456 76.8114 51.6724 77.2354 50.9399C78.0704 49.4894 78.9233 48.0485 79.7938 46.6172C80.2784 45.8271 80.8065 45.0706 81.2766 44.2757C81.8919 43.2287 82.4492 42.1456 83.0718 41.1009C83.6242 40.1716 84.2444 39.283 84.8017 38.3536C85.4074 37.3474 85.3662 37.2874 84.2129 37.1817C84.0922 37.1554 83.9733 37.1217 83.8568 37.0808C84.1621 36.7014 83.7163 35.8801 84.6951 35.9953C84.9567 35.419 85.6302 35.3037 85.9719 34.9291C86.2432 34.6313 86.6987 34.4872 86.7593 34.3455C87.0645 33.6251 87.8883 33.6731 88.2686 33.2192C88.5109 32.9454 88.6175 32.6933 89.0076 32.6909C89.0657 32.6909 89.1747 32.6284 89.1747 32.5948C89.1747 31.8744 89.7804 31.9608 90.2044 31.7903C90.2892 31.7567 90.3401 31.6294 90.3958 31.5382C90.5048 31.3604 90.5896 31.0434 90.7156 31.029C91.0098 31.0083 91.3047 31.0577 91.5757 31.1731C91.8325 31.2716 91.7453 32.3499 91.4812 32.5012C91.0185 32.7677 91.1057 33.1376 91.2389 33.5458C91.3068 33.7427 91.3891 34.0958 91.3019 34.1582C90.7689 34.5424 90.7617 34.9243 91.1008 35.4478C91.1808 35.5727 90.9506 35.8777 90.8925 36.1082C90.8343 36.3388 90.7205 36.6389 90.8101 36.723C91.2292 37.1192 90.9748 37.4699 90.7011 37.6836C90.3377 37.9526 90.374 38.1831 90.5073 38.5265C90.6599 38.9252 90.8004 39.3526 90.265 39.6192C90.2445 39.6292 90.2276 39.6451 90.2165 39.6648C90.0905 39.893 89.9743 40.1211 89.8458 40.3493L89.073 39.4655C89.0439 39.4319 89.0197 39.3935 88.8622 39.1893C88.3777 40.0491 87.9658 40.8416 87.5127 41.6125C87.2995 41.9703 87.0015 42.2777 86.7859 42.6355C86.6767 42.8586 86.5953 43.0941 86.5436 43.3367C86.5218 43.4088 86.5436 43.5024 86.4928 43.5601C86.0349 44.2013 85.5236 44.8137 85.1142 45.4813C84.4286 46.562 83.7768 47.6643 83.1445 48.7737C82.4516 49.9913 81.8144 51.2401 81.1167 52.4528C80.7411 53.1013 80.2614 53.6896 79.8786 54.3356C79.4304 55.0969 79.0694 55.911 78.6115 56.6675C78.018 57.6449 77.3565 58.5887 76.746 59.5493C76.2873 60.2745 75.852 61.0134 75.4401 61.7659C75.3626 61.9052 75.4401 62.1237 75.336 62.2246C74.9919 62.7049 74.5655 63.1708 74.3281 63.7063C74.0907 64.2418 73.6303 64.6501 73.5843 65.3417C73.5577 65.7404 72.9544 66.1486 72.5401 66.4656C72.1718 66.749 71.8569 67.0756 71.2221 67.0156C70.5947 66.9572 69.9732 66.848 69.3639 66.689C68.482 66.4608 67.6679 66.0838 66.8103 65.8028C66.1876 65.5987 65.5165 65.5459 64.8842 65.3633C64.4602 65.2409 64.0774 64.9743 63.6559 64.8302C63.055 64.6237 62.4445 64.4772 61.8267 64.2899C61.5844 64.2178 61.3688 64.0353 61.1313 64.0161C60.5911 63.9705 60.1186 64.153 59.92 64.6981C59.5372 65.702 59.2149 66.7274 58.8103 67.7192C58.6747 68.053 58.3646 68.3124 58.1368 68.6102C57.9826 68.7853 57.8463 68.9752 57.7298 69.1769C57.3373 70.003 56.9424 70.8292 56.5984 71.6769C56.47 71.9939 56.4797 72.3661 56.3561 72.6375C56.0382 73.025 55.7506 73.436 55.496 73.8671C54.6311 75.6154 53.8776 77.4237 52.923 79.124C52.6154 79.6691 52.1671 80.548 51.1884 80.2431C50.4405 80.0108 49.7293 79.6753 49.0757 79.2464C48.9279 79.2825 48.7075 79.4001 48.6396 79.3425C48.109 78.8886 47.2805 79.1432 46.7935 78.4467C46.5512 78.0937 45.8438 78.0553 45.3398 77.8704C44.974 77.7095 44.596 77.5558 44.0969 77.3612Z" fill="#EDA481"/>
<path d="M80.1975 75.4734C80.1975 69.9163 80.1975 64.3568 80.1975 58.7998C80.1975 58.3843 79.9988 57.928 80.5706 57.5678C80.8395 57.3973 80.7983 56.7561 80.9219 56.3382C80.9917 56.1261 81.0852 55.9223 81.2005 55.7306C81.7529 54.758 82.2931 53.7806 82.8722 52.8272C83.6402 51.5616 84.4494 50.3224 85.2223 49.0617C85.8328 48.065 86.4336 47.0636 87.003 46.0478C87.4124 45.3273 87.7468 44.5492 88.1635 43.824C88.2677 43.6463 88.5632 43.5838 88.7716 43.4565C88.8637 43.6343 89.026 43.8048 89.0405 43.9897C89.1108 44.835 89.1229 45.6851 89.1907 46.5329C89.2222 46.9411 89.0357 47.4334 89.5856 47.6976C89.6632 47.7336 89.6559 47.9882 89.6559 48.1419C89.6559 49.5299 89.7358 50.9252 89.6292 52.3085C89.5638 53.149 89.1689 53.9655 89.3676 54.8397C89.416 55.0144 89.475 55.186 89.5444 55.3536C89.5784 55.4545 89.6704 55.5793 89.6389 55.6538C89.0163 57.1211 89.6123 58.6292 89.4815 60.1134C89.431 60.8737 89.4448 61.6368 89.5226 62.3948C89.5444 62.6782 89.2077 63.1825 89.8764 63.2425C89.9203 63.3864 89.9383 63.5368 89.9297 63.6868C89.9297 71.5077 89.9297 79.3294 89.9297 87.1519C89.9297 87.368 90.0435 87.7091 89.5856 87.5866C89.5529 87.7112 89.5294 87.838 89.5154 87.966C89.4451 89.6231 89.3603 91.2777 89.3288 92.9323C89.3167 93.5159 89.1156 93.7056 88.5293 93.6984C86.1066 93.6744 83.6838 93.6984 81.2732 93.6984C80.4373 93.6984 80.1902 93.4438 80.1902 92.6321C80.195 86.915 80.1975 81.1954 80.1975 75.4734Z" fill="#EDA481"/>
<path d="M111.21 134.397C111.675 134.486 112.077 134.522 112.002 134.08C112.319 133.864 112.535 133.713 112.758 133.571C112.879 133.494 113.02 133.444 113.143 133.367C113.54 133.127 113.916 132.838 114.328 132.622C114.856 132.318 115.415 132.07 115.997 131.885C116.421 131.772 116.724 131.693 116.874 131.222C116.93 131.044 117.308 130.896 117.552 130.867C118.446 130.78 119.305 130.484 120.06 130.002C120.516 129.709 121.182 129.762 121.741 129.601C121.984 129.536 122.18 129.306 122.422 129.248C122.798 129.157 123.2 129.164 123.585 129.102C123.781 129.07 123.966 128.97 124.159 128.922C124.554 128.825 124.949 128.725 125.349 128.662C126.153 128.54 126.96 128.448 127.772 128.328C128.201 128.266 128.624 128.172 129.048 128.088C129.132 128.057 129.219 128.034 129.308 128.021C130.5 128.021 131.694 128.021 132.978 128.021V163.909C132.978 164.925 132.978 164.937 131.946 164.937C127.424 164.937 122.901 164.937 118.379 164.937C111.819 164.937 105.261 164.937 98.7034 164.937C97.7586 164.937 96.8161 164.85 95.8737 164.814C95.5296 164.814 95.4085 164.646 95.4133 164.313C95.4279 163.393 95.3649 162.468 95.44 161.556C95.4836 161.037 95.7889 160.545 95.8761 160.023C95.9173 159.769 95.7186 159.478 95.6459 159.2C95.5732 158.921 95.314 158.597 95.8882 158.51C95.956 158.51 96.0433 158.095 95.9851 157.917C95.8712 157.571 95.612 157.279 96.1911 157.072C96.3049 157.031 96.2758 156.592 96.334 156.188C96.4672 155.902 96.6829 155.468 96.8743 155.009C96.8961 154.956 96.7459 154.853 96.7313 154.769C96.7192 154.602 96.7192 154.434 96.7313 154.267C97.3273 154.313 97.1892 153.818 97.3007 153.506C97.6544 152.545 98.0275 151.585 98.3521 150.6C98.4116 150.373 98.4458 150.14 98.4539 149.906C98.7091 149.647 98.9424 149.367 99.1517 149.07C99.9487 147.692 100.68 146.277 101.514 144.923C102.059 144.041 102.907 143.314 103.307 142.387C103.641 141.616 104.302 141.287 104.748 140.706C105.119 140.225 105.337 139.63 105.717 139.162C106.164 138.638 106.657 138.156 107.19 137.721C107.341 137.593 107.699 137.701 107.842 137.572C108.155 137.286 108.363 136.89 108.668 136.594C108.939 136.362 109.234 136.159 109.548 135.989C109.654 135.922 109.901 135.912 109.901 135.876C109.901 135.009 111.04 135.346 111.205 134.676C111.185 134.611 111.183 134.543 111.21 134.397ZM130.107 130.672C129.283 130.725 128.513 130.622 127.871 130.86C127.168 131.121 126.417 131.032 125.717 131.443C125.233 131.731 124.486 131.426 123.919 131.863C123.677 132.058 123.214 132.228 122.95 132.132C122.483 131.964 122.299 132.445 121.923 132.406C121.672 132.373 121.416 132.391 121.172 132.459C120.537 132.665 120.007 133.134 119.302 133.179C119.197 133.208 119.099 133.256 119.013 133.321C118.771 133.458 118.529 133.609 118.287 133.725C118.11 133.804 117.906 133.821 117.722 133.885C117.238 134.058 116.753 134.219 116.603 134.803C115.927 134.563 115.634 135.108 115.239 135.451C115.057 135.607 114.808 135.908 114.677 135.867C113.901 135.627 113.569 136.299 113.051 136.57C112.877 136.662 112.651 136.861 112.642 137.024C112.617 137.425 112.373 137.394 112.104 137.432C111.949 137.48 111.801 137.55 111.668 137.641C111.934 138.153 111.425 138.095 111.232 138.122C110.638 138.237 110.199 138.451 110.076 139.111C110.04 139.306 109.834 139.618 109.7 139.62C108.816 139.62 108.508 140.394 108.004 140.867C107.704 141.148 107.624 141.794 107.312 141.904C106.403 142.221 106.086 142.987 105.616 143.66C105.473 143.864 105.223 143.991 105.075 144.19C104.726 144.671 104.402 145.151 104.075 145.648C103.423 146.628 102.708 147.569 102.149 148.604C101.475 149.846 100.911 151.15 100.346 152.447C100.014 153.179 99.7494 153.939 99.5538 154.719C99.3867 155.439 98.7786 156.119 99.3237 156.909C98.8706 157.303 99.062 157.896 98.9045 158.297C98.7301 158.748 98.4733 159.077 98.512 159.651C98.5581 160.391 98.2964 161.145 98.231 161.897C98.1729 162.559 98.5896 162.778 99.2607 162.617C99.7794 162.526 100.307 162.496 100.833 162.528C101.388 162.528 101.943 162.636 102.495 162.624C103.001 162.612 103.508 162.442 104.012 162.451C106.371 162.497 108.729 162.605 111.089 162.636C111.978 162.636 112.867 162.447 113.754 162.456C115.367 162.475 116.981 162.639 118.599 162.636C120.394 162.636 122.187 162.497 123.982 162.447C125.09 162.418 126.197 162.447 127.307 162.447C127.527 162.447 127.747 162.507 127.97 162.519C128.569 162.552 129.182 162.603 129.766 162.583C129.884 162.583 130.081 162.298 130.088 162.134C130.129 161.414 130.117 160.693 130.117 159.973C130.117 153.383 130.117 146.793 130.117 140.201L130.107 130.672Z" fill="#EDA481"/>
<path d="M75.945 64.2085C76.2697 64.2829 76.7421 64.2613 76.8753 64.4486C77.0086 64.636 76.8414 65.0874 76.8075 65.4213C76.7736 65.7551 76.7251 66.0961 76.7203 66.4323C76.7057 67.5538 76.6815 68.6753 76.7203 69.7944C76.7663 71.6844 76.8923 73.5744 76.8996 75.4643C76.8996 76.9173 76.7251 78.3726 76.73 79.8255C76.73 81.5618 76.9044 83.298 76.9068 85.0367C76.9068 86.5113 76.7348 87.9858 76.73 89.4603C76.73 90.6106 76.856 91.7634 76.9238 92.9137C76.9359 93.1322 76.9238 93.3531 76.9238 93.6341C76.6524 93.6509 76.4392 93.6749 76.2163 93.6749C73.842 93.6749 71.4677 93.6749 69.0934 93.6749C68.2964 93.6749 68.1583 93.5549 68.151 92.7432C68.1365 91.3983 68.151 90.0535 68.151 88.7086C68.151 82.2102 68.151 75.7101 68.151 69.2084C68.151 68.2694 68.3182 68.2887 69.1589 68.5072C70.2467 68.793 71.4387 69.1916 72.5338 68.6056C72.9626 68.3655 73.5029 68.1061 73.6918 67.5178C73.7258 67.4049 73.9196 67.3377 74.0407 67.2536C74.1959 67.1724 74.3387 67.0697 74.4647 66.9486C74.8233 66.4899 75.1794 66.0264 75.4944 65.5365C75.6938 65.1839 75.8718 64.8199 76.0274 64.4462L75.945 64.2085Z" fill="#EDA481"/>
<path d="M61.2293 66.3023C61.6944 66.2566 62.0263 66.2182 62.3583 66.1942C62.447 66.1864 62.5361 66.2039 62.6151 66.2446C62.9761 66.4415 63.308 66.7537 63.6908 66.833C64.4176 66.9867 64.3861 67.5342 64.3861 68.0145C64.3982 73.55 64.3861 79.0879 64.3861 84.6233C64.3861 87.1993 64.3805 89.777 64.3692 92.3562C64.3692 92.5123 64.3692 92.6708 64.3692 92.8365C64.3352 93.4128 64.1535 93.7322 63.4437 93.7178C61.0694 93.6674 58.6951 93.701 56.3208 93.6986C55.4752 93.6986 55.1094 93.3432 55.1094 92.5315C55.1094 88.6531 55.1094 84.7746 55.1215 80.8986C55.1215 80.6224 55.2984 80.3463 55.4025 80.0749C55.4413 79.974 55.577 79.8491 55.5479 79.7891C55.0803 78.7565 55.9476 77.9784 56.1051 77.0682C56.2505 76.2421 56.8005 75.4832 57.1929 74.7027C57.9852 73.1321 58.8138 71.5808 59.5818 69.9982C60.1705 68.7422 60.7084 67.4646 61.2293 66.3023Z" fill="#EDA481"/>
<path d="M51.6359 82.2242V83.6194C51.6359 86.4852 51.6359 89.3502 51.6359 92.2144C51.6384 92.3929 51.653 92.571 51.6795 92.7476C51.7595 93.2927 51.4518 93.6865 50.9067 93.6865C48.4839 93.6865 46.0668 93.6865 43.6553 93.6865C43.0351 93.6865 42.7856 93.3767 42.7807 92.5554C42.7686 89.6448 42.7807 86.7342 42.7686 83.826C42.7686 82.4595 42.7468 81.0931 42.7807 79.729C42.7916 79.6019 42.8335 79.4794 42.9027 79.3719C42.9719 79.2644 43.0664 79.1751 43.1781 79.1118C43.4591 79.0374 43.9291 78.5379 44.1011 79.2703C44.1011 79.3087 44.1496 79.3712 44.169 79.3712C45.1381 79.2943 45.7535 80.1997 46.6911 80.2861C47.0981 80.3246 47.4663 80.6968 47.8734 80.8625C48.1646 80.9632 48.466 81.0324 48.7722 81.069C48.903 81.0931 49.0969 81.0186 49.1671 81.0834C49.6371 81.5325 50.238 81.679 50.8291 81.8687C51.0485 81.9831 51.2481 82.1315 51.4203 82.3082L51.6359 82.2242Z" fill="#EDA481"/>
<path d="M39.2745 79.9742C39.3811 80.1976 39.575 80.4233 39.5798 80.6491C39.6089 82.126 39.6161 83.6053 39.5798 85.0822C39.5507 86.6312 39.4441 88.1802 39.4296 89.7291C39.4296 90.6537 39.5313 91.5807 39.5822 92.5053C39.5822 92.7262 39.5822 92.9472 39.5822 93.0937C38.2739 94.035 36.8518 93.6148 35.5023 93.6676C34.0801 93.7228 32.6556 93.6916 31.2334 93.6676C31.042 93.6676 30.853 93.4563 30.6641 93.3434C30.7852 93.1657 30.9063 92.988 31.0299 92.8127C31.2022 92.6135 31.3578 92.4007 31.4951 92.1763C32.7501 89.6379 33.9735 87.0875 35.2431 84.5587C36.1371 82.7816 37.0916 81.0357 38.0147 79.2754C38.1174 79.056 38.2088 78.8316 38.2885 78.603C38.4338 78.2307 39.1146 77.9426 39.4029 78.1899C39.4689 78.2791 39.5108 78.3834 39.5248 78.4931C39.5388 78.6027 39.5244 78.7141 39.4829 78.8167C39.0444 79.357 39.0201 79.3402 39.0516 79.9886L39.2745 79.9742Z" fill="#EDA481"/>
</svg>
