<svg width="227" height="226" viewBox="0 0 227 226" fill="none" xmlns="http://www.w3.org/2000/svg">
<path d="M226.036 181.91C225.959 185.895 224.653 189.759 222.297 192.974C218.508 198.322 214.268 203.309 209.869 208.163C206.09 212.326 202.185 216.341 197.812 219.871C195.34 221.862 192.862 223.852 189.876 225.086C188.376 225.711 186.763 226.022 185.138 225.999C178.689 225.906 172.401 224.768 166.227 223.013C155.756 220.027 146.012 215.405 136.626 209.974C124.616 203.037 113.432 194.892 102.696 186.116C88.5923 174.62 75.4507 162.113 62.8201 149.037C55.8927 141.869 49.2219 134.467 42.8076 126.832C33.1099 115.246 24.1089 103.173 16.4814 90.1113C11.684 81.8966 7.48705 73.3998 4.44469 64.3557C1.96303 56.9804 0.340661 49.4259 0.00888779 41.6293C-0.113868 38.2153 1.04402 35.2526 2.92185 32.5055C6.31257 27.5289 10.4067 23.1794 14.7462 19.0455C20.3376 13.6657 26.2758 8.65847 32.5226 4.05599C36.4143 1.22265 40.7042 -0.373178 45.5812 0.0747156C49.5625 0.43303 52.9167 2.0919 55.1661 5.47598C65.2565 20.6491 75.3202 35.8398 85.3575 51.0483C87.859 54.8338 87.9553 58.9246 86.7841 63.1547C85.8485 66.5322 84.1299 69.5579 82.4445 72.5804C79.4563 77.9064 76.4405 83.2148 73.3971 88.5055C73.2352 88.7255 73.1517 88.9935 73.1602 89.2666C73.1686 89.5397 73.2684 89.802 73.4435 90.0117C76.9105 95.1608 80.8951 99.9052 84.9859 104.56C92.1588 112.722 99.7664 120.485 107.546 128.063C114.799 135.139 122.201 142.057 130.19 148.301C132.141 149.827 134.198 151.214 136.185 152.687C136.626 153.019 136.955 152.952 137.406 152.687C143.65 149.148 149.902 145.616 156.161 142.09C159.014 140.491 162.007 139.227 165.272 138.739C168.589 138.242 171.808 138.623 174.671 140.478C182.047 145.266 189.407 150.089 196.75 154.946C204.62 160.16 212.472 165.405 220.306 170.682C224.055 173.207 225.979 177.016 226.036 181.91ZM183.652 215.687C184.647 215.966 185.696 215.465 186.777 214.938C189.076 213.816 191.064 212.253 192.948 210.558C200.808 203.481 207.659 195.496 213.946 187.002C215.044 185.519 215.698 183.834 215.568 181.956C215.495 180.871 215.396 179.74 214.331 179.033C199.779 169.381 185.231 159.722 170.686 150.056C169.656 149.321 168.392 148.988 167.133 149.12C165.091 149.314 163.113 149.939 161.33 150.952C153.699 155.235 146.069 159.495 138.514 163.891C137.001 164.77 135.777 165.142 134.403 163.871C134.209 163.728 134.002 163.601 133.786 163.493C128.405 160.059 123.428 156.051 118.541 151.944C109.799 144.575 101.525 136.682 93.4859 128.57C85.6362 120.628 78.0485 112.463 71.0083 103.78C67.6043 99.5734 64.2799 95.3035 61.5196 90.6222C61.0418 89.8093 61.1414 89.2785 61.5627 88.5387C65.8736 80.9654 70.1656 73.3811 74.4388 65.7857C75.474 63.951 76.3731 62.0665 76.7612 59.963C77.0598 58.2644 76.9603 56.7614 75.8887 55.2286C73.3606 51.6156 71.0348 47.86 68.5897 44.1806C61.4543 33.4135 54.3135 22.6508 47.1671 11.8925C46.5334 10.937 45.6177 10.7114 44.6357 10.5654C42.2635 10.2037 40.2397 11.0829 38.4016 12.4664C30.3329 18.5346 22.6723 25.0738 15.8909 32.5686C13.9931 34.6687 12.175 36.8451 11.0005 39.4562C10.6265 40.1884 10.4095 40.9908 10.3635 41.8118C10.4407 46.3908 11.1098 50.9407 12.3542 55.3481C15.0083 65.1022 19.2318 74.1696 24.1819 82.9284C31.0628 95.1077 39.2775 106.365 48.1126 117.177C56.0122 126.848 64.4193 136.062 73.1582 144.973C83.8645 155.885 94.959 166.383 106.724 176.16C117.732 185.31 129.201 193.81 141.606 201C149.436 205.538 157.551 209.473 166.157 212.326C171.771 214.174 177.478 215.452 183.652 215.687Z" fill="#C2ADCE"/>
<path d="M132.688 92.5232C132.25 92.5232 131.932 92.5232 131.613 92.5232C128.329 92.4868 125.031 92.6062 121.756 92.3806C115.25 91.936 109.447 86.684 108.21 80.2841C107.995 79.1755 107.884 78.0492 107.878 76.92C107.858 60.0217 107.858 43.1234 107.878 26.2251C107.897 22.1289 109.493 18.1974 112.335 15.2477C115.178 12.298 119.047 10.5569 123.14 10.3862C123.472 10.3862 123.787 10.3862 124.109 10.3862H199.467C206.992 10.3862 213.239 15.104 215.12 22.2936C215.486 23.7503 215.668 25.2473 215.661 26.7493C215.697 43.3799 215.703 60.0095 215.681 76.638C215.681 84.2687 210.854 90.4397 203.558 92.1152C202.323 92.3848 201.061 92.5161 199.796 92.5067C187.534 92.5354 175.27 92.5354 163.006 92.5067C162.722 92.4726 162.435 92.534 162.19 92.6812C161.944 92.8284 161.755 93.0529 161.652 93.3195C158.739 98.9829 154.96 103.936 149.509 107.393C145.324 110.021 140.633 111.737 135.74 112.43C133.421 112.753 131.087 112.956 128.747 113.037C126.192 113.146 124.125 111.64 123.458 109.387C122.791 107.135 123.674 104.839 125.884 103.432C127.639 102.317 129.354 101.159 130.654 99.4971C131.544 98.3525 132.23 97.1316 132.343 95.6386C132.426 94.6367 132.562 93.648 132.688 92.5232ZM141.702 99.7095C142.498 99.438 143.273 99.1132 144.025 98.7374C148.932 95.8244 152.11 91.4914 154.144 86.2428C155.279 83.3166 156.825 82.2317 159.937 82.2317H199.554C200.038 82.2317 200.526 82.2317 201.01 82.2084C203.163 82.089 204.69 80.9444 205.174 79.0135C205.328 78.3613 205.401 77.6928 205.393 77.0228C205.393 60.2329 205.393 43.4419 205.393 26.6497C205.393 23.0002 203.051 20.6214 199.394 20.6214C174.304 20.6214 149.212 20.6214 124.118 20.6214C123.473 20.6146 122.829 20.6939 122.204 20.857C119.593 21.5935 118.12 23.7335 118.12 26.7294C118.12 43.3578 118.12 59.9874 118.12 76.6181C118.12 77.0757 118.143 77.533 118.19 77.9883C118.439 80.4832 119.739 81.8501 122.204 82.1786C122.741 82.2317 123.281 82.2483 123.82 82.2283C128.723 82.2283 133.63 82.2283 138.537 82.2283C141.374 82.2283 143.789 84.3716 143.743 87.0158C143.699 89.3272 143.498 91.6329 143.139 93.9167C142.844 95.7979 142.233 97.6226 141.702 99.7095Z" fill="#C2ADCE"/>
</svg>
