<svg width="268" height="226" viewBox="0 0 268 226" fill="none" xmlns="http://www.w3.org/2000/svg">
<path d="M133.977 225.996H18.6902C9.46709 225.996 0.887263 217.979 0.33716 208.787C0.146398 205.589 0 202.377 0 199.182C0 139.68 0 80.1784 0 20.6786C0 16.1313 0.887263 11.7704 3.73094 8.03507C7.57279 3.03978 12.5858 0.0452706 18.9031 0.0363979C95.7016 -0.0197954 172.499 -0.0109227 249.294 0.0630158C256.224 0.0630158 261.614 3.53221 265.265 9.53454C267.226 12.7997 267.953 16.3354 267.953 20.1329C267.927 82.4572 267.927 144.781 267.953 207.106C267.953 216.001 261.152 224.128 252.391 225.641C251.032 225.872 249.656 225.986 248.278 225.982C210.164 226 172.064 226.004 133.977 225.996ZM8.06522 49.5102V51.2226C8.06522 103.065 8.06522 154.907 8.06522 206.746C8.05819 207.353 8.1207 207.959 8.25154 208.552C9.71109 214.692 14.2406 218.179 20.8019 218.179C96.373 218.179 171.946 218.179 247.52 218.179C248.789 218.189 250.053 218.023 251.277 217.686C256.996 216.04 260.101 211.604 260.101 205.167C260.101 153.877 260.101 102.589 260.101 51.3024C260.101 50.7168 260.048 50.1268 260.017 49.5279L8.06522 49.5102ZM259.932 41.5248C260.003 41.3155 260.053 41.1002 260.083 40.8815C260.083 33.8943 260.168 26.9116 260.083 19.9244C260.102 18.2577 259.763 16.6065 259.091 15.0814C258.418 13.5564 257.427 12.193 256.184 11.0828C253.473 8.62066 250.27 7.80882 246.721 7.80882C171.987 7.80882 97.2543 7.80882 22.5232 7.80882C21.0307 7.81172 19.5394 7.89465 18.0558 8.05725C12.6923 8.65615 8.07409 13.8156 8.06522 19.219C8.06522 26.1485 8.06522 33.0781 8.06522 40.0076C8.06522 40.4911 8.11845 40.9703 8.15394 41.5204L259.932 41.5248Z" fill="#A4C3B1"/>
<path d="M225.678 163.776C227.417 166.908 228.974 169.694 230.518 172.489C233.317 177.573 236.148 182.644 238.885 187.763C239.145 188.226 239.312 188.735 239.375 189.262C239.437 189.789 239.395 190.324 239.251 190.834C239.107 191.345 238.863 191.822 238.534 192.239C238.204 192.655 237.796 193.002 237.332 193.26C231.033 197.046 224.727 200.821 218.416 204.586C216.042 206.001 213.695 205.367 212.36 202.949C207.442 194.041 202.537 185.125 197.645 176.202C197.325 175.621 196.944 175.08 196.496 174.366C194.841 176.189 193.253 177.937 191.669 179.689C189.007 182.644 186.381 185.656 183.631 188.535C183.214 188.983 182.697 189.325 182.122 189.534C181.547 189.743 180.931 189.811 180.324 189.735C179.717 189.658 179.137 189.438 178.632 189.093C178.127 188.748 177.712 188.287 177.42 187.75C177.003 186.978 176.976 185.944 176.976 185.026C176.945 175.16 176.976 165.289 176.976 155.418V153.2H26.1282C25.5736 153.2 25.0191 153.222 24.4646 153.2C22.2908 153.067 20.9688 151.732 20.9688 149.571C20.9688 121.738 20.9688 93.9042 20.9688 66.0708C20.9688 63.9413 22.3839 62.464 24.5533 62.2334C25.0513 62.2067 25.5503 62.2067 26.0483 62.2334H189.872C190.205 62.2334 190.538 62.2334 190.871 62.2334C193.586 62.3043 195.036 63.7861 195.036 66.5144C195.036 78.9361 195.063 91.3578 195.01 103.779C194.975 104.458 195.089 105.137 195.344 105.767C195.599 106.397 195.989 106.963 196.487 107.426C212.83 123.693 229.149 139.992 245.442 156.323C246.586 157.468 247.505 158.701 247.159 160.405C246.715 162.592 245.153 163.789 242.882 163.798C237.891 163.798 232.9 163.798 227.909 163.798L225.678 163.776ZM187.264 70.4139H28.8876V145.334H176.923V143.156C176.923 128.019 176.923 112.884 176.923 97.7505C176.923 95.976 177.442 94.583 179.141 93.8332C180.84 93.0835 182.526 93.4428 183.986 94.8846C185.015 95.905 186.057 96.912 187.291 98.1143L187.264 70.4139ZM184.851 107.754V175.226C187.903 171.846 190.848 168.767 193.572 165.506C196.039 162.552 199.371 162.667 201.252 166.056C205.009 172.826 208.7 179.632 212.436 186.415C214.108 189.449 215.825 192.457 217.622 195.651L229.972 188.247C227.115 183.052 224.347 178.017 221.574 172.981C219.494 169.206 217.329 165.471 215.364 161.638C213.904 158.816 215.732 155.871 218.913 155.733C219.742 155.693 220.572 155.733 221.406 155.733H232.816L184.851 107.754Z" fill="#A4C3B1"/>
<path d="M87.1662 174.091H25.2885C22.8574 174.091 21.1317 172.724 20.9498 170.675C20.7058 167.92 22.0633 166.389 24.8582 166.283C25.3019 166.283 25.7455 166.283 26.1891 166.283H148.259C148.866 166.283 149.479 166.283 150.086 166.323C152.305 166.527 153.569 167.969 153.538 170.209C153.507 172.449 152.047 173.98 149.856 174.091C149.412 174.113 148.969 174.091 148.525 174.091H87.1662Z" fill="#A4C3B1"/>
<path d="M76.8145 186.992H128.537C131.545 186.992 132.921 188.225 132.916 190.905C132.912 193.584 131.368 195.053 128.48 195.053H25.198C22.9 195.053 21.7332 194.281 21.0988 192.391C20.4068 190.315 20.8238 188.474 22.4297 187.511C23.1553 187.142 23.9632 186.965 24.7765 186.996C42.1166 186.981 59.4626 186.98 76.8145 186.992Z" fill="#A4C3B1"/>
<path d="M212.057 101.584C211.241 101.564 210.45 101.3 209.786 100.826C209.123 100.351 208.617 99.6876 208.335 98.9218C207.994 98.189 207.895 97.3661 208.055 96.5734C208.215 95.7808 208.624 95.0601 209.222 94.5166C214.268 89.4473 219.327 84.3914 224.399 79.3488C226.874 76.8955 230.1 77.5033 231.386 80.5777C232.056 82.1792 231.55 83.5589 230.441 84.6813C225.26 89.925 220.056 95.151 214.781 100.302C214.102 100.954 212.971 101.162 212.057 101.584Z" fill="#A4C3B1"/>
<path d="M232.703 116.862C229.273 116.862 225.84 116.862 222.41 116.862C219.882 116.862 218.502 115.46 218.52 112.963C218.537 110.465 219.913 109.139 222.486 109.139C229.344 109.139 236.203 109.139 243.061 109.139C245.546 109.139 247.307 110.785 247.271 113.034C247.236 115.283 245.497 116.858 242.99 116.862H232.703Z" fill="#A4C3B1"/>
<path d="M216.65 24.6536C216.635 23.9066 216.769 23.1641 217.047 22.4702C217.324 21.7764 217.738 21.1454 218.264 20.6148C218.79 20.0842 219.417 19.6649 220.109 19.3816C220.8 19.0984 221.542 18.9571 222.289 18.9662C225.705 18.9662 228.295 21.4683 228.247 24.7334C228.193 27.8832 225.501 30.6027 222.453 30.6027C221.679 30.6017 220.912 30.4461 220.199 30.1449C219.486 29.8438 218.84 29.4032 218.3 28.849C217.759 28.2948 217.335 27.6382 217.052 26.9178C216.768 26.1973 216.632 25.4275 216.65 24.6536V24.6536Z" fill="#A4C3B1"/>
<path d="M201.669 18.9659C202.429 18.9577 203.183 19.1035 203.886 19.3945C204.588 19.6855 205.224 20.1156 205.756 20.659C206.288 21.2024 206.704 21.8478 206.98 22.5564C207.256 23.2649 207.385 24.022 207.361 24.7819C207.361 27.9494 205.178 30.4426 201.593 30.5713C198.532 30.6822 195.675 27.7321 195.715 24.773C195.709 23.9964 195.861 23.2266 196.16 22.5098C196.459 21.793 196.899 21.1439 197.455 20.6016C198.011 20.0593 198.671 19.6349 199.395 19.3538C200.119 19.0727 200.893 18.9408 201.669 18.9659V18.9659Z" fill="#A4C3B1"/>
<path d="M248.909 24.6888C248.909 28.0382 246.5 30.5714 243.289 30.6024C241.726 30.5692 240.236 29.9386 239.125 28.8403C238.013 27.742 237.365 26.2595 237.313 24.6977C237.277 21.5657 239.917 18.9882 243.178 18.966C246.438 18.9438 248.909 21.3438 248.909 24.6888Z" fill="#A4C3B1"/>
<path d="M43.1774 115.98C44.9974 116.08 46.3574 116.12 47.8174 116.12C52.4574 116.12 53.9774 114.44 53.9774 111.42C53.9774 108.14 52.3374 107.24 48.7774 107.24C48.0574 107.24 47.4174 107.26 46.4574 107.32V104.84H53.0374V102H43.1774V115.98ZM46.3774 113.16V109.68C47.0974 109.62 47.6174 109.6 48.2774 109.6C50.1174 109.6 50.6174 110 50.6174 111.32C50.6174 112.7 50.0574 113.24 48.0374 113.24C47.3974 113.24 46.9774 113.24 46.3774 113.16ZM56.9079 116H66.6679V113.16H60.1879V110.24H65.8879V107.6H60.1879V104.84H66.6679V102H56.9079V116ZM79.7027 102.36C79.0427 102.14 77.7827 101.74 75.9027 101.74C70.9027 101.74 68.8027 104.08 68.8027 109.12C68.8027 114.02 70.8627 116.26 75.8827 116.26C77.7627 116.26 79.1427 115.84 79.8627 115.5V112.24C79.1627 112.74 77.8827 113.3 76.1427 113.3C73.5427 113.3 72.2827 112.26 72.2827 108.94C72.2827 105.78 73.4627 104.7 75.9827 104.7C77.8027 104.7 78.8827 105.22 79.7027 105.7V102.36ZM82.7477 116H86.0277V104.92H91.4077V116H94.6677V102H82.7477V116ZM96.9941 116.06C97.3141 116.16 97.6141 116.2 97.9741 116.2C101.034 116.2 102.054 114.6 102.554 106.22L102.654 104.84H106.454V116H109.734V102H99.7341L99.5941 105.16C99.2941 111.82 98.7741 112.86 97.4541 112.86C97.3141 112.86 97.1541 112.84 96.9941 112.8V116.06ZM122.113 116H125.473L120.573 102H116.693L111.773 116H115.033L115.993 113.06H121.113L122.113 116ZM118.553 105.38L120.213 110.36H116.893L118.553 105.38ZM128.868 116H132.128V104.82H136.168V102H124.828V104.82H128.868V116ZM138.549 116H141.829V110.28H147.689V116H150.969V102H147.689V107.44H141.829V102H138.549V116ZM153.783 109C153.783 114.1 156.223 116.28 160.743 116.28C165.243 116.28 167.623 114.26 167.623 109C167.623 103.94 165.743 101.72 160.743 101.72C156.023 101.72 153.783 103.92 153.783 109ZM157.263 109.02C157.263 105.76 158.363 104.56 160.663 104.56C162.983 104.56 164.163 105.58 164.163 109.02C164.163 112.44 162.983 113.44 160.803 113.44C158.623 113.44 157.263 112.5 157.263 109.02Z" fill="#82AD94"/>
</svg>
