<svg width="295" height="226" viewBox="0 0 295 226" fill="none" xmlns="http://www.w3.org/2000/svg">
<path d="M128.582 225.948C86.6598 225.948 44.7377 225.965 2.81566 226C0.502126 226 0 225.315 0 223.109C0.0656987 182.126 0.0813413 141.142 0.0469277 100.159C0.0469277 95.3063 0.0469279 95.3063 4.97433 95.3063C87.6327 95.3063 170.294 95.2672 252.959 95.189C256.685 95.189 258.398 96.3903 260.125 99.4125C270.965 118.46 282.012 137.391 292.974 156.359C293.481 157.241 294.115 158.105 294.359 159.058C294.603 160.01 294.828 161.273 294.359 162.023C285.236 177.922 276.06 193.79 266.831 209.627C264.095 214.352 261.293 219.045 258.679 223.837C257.802 225.451 256.76 225.953 254.982 225.953C212.847 225.928 170.714 225.926 128.582 225.948ZM13.0318 214.216H16.1478H245.371C246.23 214.216 247.149 214.395 247.938 214.155C248.801 213.893 249.852 213.428 250.284 212.724C252.241 209.627 254.005 206.408 255.845 203.235C263.673 189.744 271.43 176.21 279.398 162.798C280.632 160.719 280.013 159.372 279.046 157.729C275.849 152.276 272.665 146.819 269.496 141.356C263.269 130.633 257.018 119.92 250.861 109.155C249.852 107.385 248.689 106.771 246.638 106.775C169.608 106.835 92.5742 106.852 15.5378 106.827C14.7212 106.827 13.9 106.902 13.0365 106.944L13.0318 214.216Z" fill="#98B9C8"/>
<path d="M62.4862 41.6775C59.6002 40.7952 58.1595 41.7197 56.9769 44.2116C53.8938 50.7017 50.4446 57.0135 47.2582 63.4519C46.4792 65.024 45.5031 65.6716 43.8043 65.498C42.7203 65.39 41.6175 65.498 40.5194 65.4604C37.882 65.4182 37.6286 65.0662 38.8441 62.8043C41.1013 58.609 43.4289 54.4559 45.7237 50.284C47.5632 46.9428 49.3981 43.6015 51.2283 40.2603C49.6562 39.1387 48.117 38.2095 46.7654 37.0504C43.3585 34.209 41.1963 30.149 40.7399 25.7362C39.8389 17.6693 40.8291 10.0905 47.1878 4.17289C49.8165 1.65833 53.2802 0.201368 56.9159 0.0807952C60.5059 -0.0552951 64.1099 0.0807952 67.7093 0.00101812C69.1453 -0.0271385 69.5864 0.526608 69.5864 1.92505C69.5582 22.4825 69.5582 43.0415 69.5864 63.6021C69.5864 65.0615 68.981 65.5027 67.6248 65.4792C61.3271 65.4182 62.5613 66.0752 62.4956 60.7207C62.4158 54.3996 62.4862 48.0737 62.4862 41.6775ZM62.3407 35.0654V6.20486C54.6446 5.05982 50.1395 7.90833 48.7317 15.2854C48.1127 18.656 48.0461 22.1048 48.5346 25.4968C49.614 32.7847 54.7948 36.2151 62.3407 35.0654Z" fill="#98B9C8"/>
<path d="M130.929 73.7243V65.4462H112.397C112.397 67.4407 112.322 69.3741 112.397 71.2981C112.486 73.1001 111.829 73.79 109.962 73.7618C106.292 73.7055 106.292 73.7994 106.292 70.139C106.292 67.2483 106.25 64.3575 106.334 61.4715C106.334 60.8896 106.883 59.8149 107.113 59.829C109.431 60.0073 109.689 58.1443 110.299 56.7224C113.622 48.984 114.57 40.767 114.898 32.4702C115.016 29.5043 115.03 26.5338 114.973 23.5539C114.941 22.0991 115.499 21.6768 116.893 21.6768C121.736 21.7331 126.579 21.7753 131.44 21.6768C133.238 21.6346 133.674 22.2634 133.665 23.9716C133.599 34.8306 133.665 45.685 133.622 56.544C133.622 58.2663 133.449 59.9275 136.006 59.829C136.307 59.829 136.922 60.8051 136.945 61.3447C137.029 64.8549 136.945 68.3839 136.992 71.8894C136.992 73.1424 136.523 73.79 135.218 73.7665C133.913 73.743 132.571 73.7243 130.929 73.7243ZM121.468 27.3034C120.999 38.5191 120.234 49.4861 114.584 59.5005H126.649V27.3034H121.468Z" fill="#98B9C8"/>
<path d="M101.558 65.0472C94.871 65.7183 94.871 65.7183 94.871 59.5426V44.629H84.9411V57.7688C84.9411 59.0968 84.9411 60.4249 84.9411 61.7529C84.8988 65.5963 85.4479 65.2209 81.4074 65.2349C78.2773 65.2349 78.2773 65.2349 78.2773 62.0673C78.2773 49.5533 78.2773 37.0392 78.2773 24.5252V21.8926H84.9739V38.7865H94.871V33.0097C94.871 29.8796 94.9179 26.7543 94.871 23.6242C94.8381 22.2164 95.2839 21.6579 96.7481 21.6861C102.623 21.8034 101.539 21.0666 101.563 26.2709C101.619 38.3125 101.563 50.3589 101.563 62.4052L101.558 65.0472Z" fill="#98B9C8"/>
<path d="M165.922 44.8826H147.723C147.512 48.9653 147.784 52.94 150.215 56.4643C150.921 57.5526 151.887 58.4478 153.026 59.0689C154.165 59.69 155.441 60.0174 156.738 60.0214C158.441 60.0496 160.149 59.7164 161.858 59.5897C162.862 59.5146 164.143 58.332 164.673 60.3311C165.1 61.9689 165.532 63.2688 163.373 64.3059C153.589 69.0221 144.757 65.4416 141.787 55.0518C139.248 46.2153 140.008 37.4023 143.406 28.8849C144.153 27.0826 145.216 25.4282 146.545 23.9997C151.106 19.016 158.352 19.5838 161.9 25.3419C163.311 27.6748 164.287 30.2442 164.781 32.9254C165.476 36.7781 165.555 40.7576 165.922 44.8826ZM159.3 39.5093C158.361 35.4219 157.892 31.7663 156.635 28.4109C155.48 25.3184 152.195 25.2996 150.487 28.1575C148.389 31.6677 148.169 35.6237 147.925 39.5093H159.3Z" fill="#98B9C8"/>
<path d="M179.892 40.8797C180.877 38.8759 181.872 36.8862 182.839 34.8777C184.5 31.4285 186.246 28.0168 187.752 24.4973C188.653 22.3902 189.948 21.4329 192.243 21.6816C193.615 21.7513 194.991 21.7513 196.363 21.6816C195.988 22.5873 195.786 23.2067 195.481 23.7652C192.665 28.9835 189.85 34.216 186.912 39.3827C186.138 40.753 186.077 41.8183 186.842 43.2402C190.248 49.5707 193.519 55.967 196.837 62.3444C197.259 63.1516 197.649 63.9775 198.245 65.1601C195.791 65.1601 193.688 65.39 191.675 65.0568C190.769 64.9114 189.76 63.7945 189.291 62.8653C186.396 57.1542 183.66 51.368 180.844 45.61C180.517 44.8337 180 44.1514 179.342 43.625V65.2117H173.922C172.256 65.2117 172.637 63.9634 172.632 63.0296C172.632 56.3048 172.632 49.5848 172.632 42.8507V21.8834H179.23V40.6873L179.892 40.8797Z" fill="#98B9C8"/>
<path d="M219.553 29.1805C218.343 28.3123 217.437 27.5709 216.447 26.9749C214.03 25.5295 211.97 25.919 210.238 28.0683C205.574 33.8498 205.142 50.542 209.473 56.5675C211.768 59.768 214.959 60.4578 218.596 59.9322C219.891 59.7445 221.172 59.4348 222.425 59.1861C224.082 62.9074 223.889 63.4095 220.379 64.8831C211.932 68.3839 204.058 65.1318 201.139 56.4736C199.53 51.884 198.874 47.0144 199.211 42.1626C199.548 37.3108 200.872 32.5788 203.101 28.256C206.916 20.6491 213.828 18.6734 221.243 22.5262C222.561 23.2113 223.017 23.8871 222.083 25.2198C221.201 26.4634 220.431 27.7914 219.553 29.1805Z" fill="#98B9C8"/>
<path d="M68.8419 136.218V174.881L72.5304 175.172V189.927H67.8376C67.6781 186.571 67.5185 183.253 67.3683 179.785H38.1277C37.9728 183.211 37.8227 186.534 37.6584 189.945H32.9375V175.041C36.0488 175.933 36.9076 173.568 38.0667 171.404C41.3986 165.177 42.5201 158.447 42.6797 151.512C42.7923 146.457 42.6797 141.399 42.6797 136.218H68.8419ZM42.3559 174.769H62.699V140.901H48.3345C48.4893 152.577 48.8554 164.187 42.3559 174.769Z" fill="#98B9C8"/>
<path d="M118.258 148.326H123.232C123.373 149.865 123.509 151.357 123.598 152.314C126.358 150.817 128.939 148.757 131.867 147.95C140.234 145.651 147.869 150.63 149.404 159.274C149.884 162.197 149.862 165.181 149.338 168.096C148.367 173.728 145.115 177.871 139.483 179.551C133.993 181.203 128.812 180.532 124.157 175.647V192.24H118.258V148.326ZM124.082 164.441H124.204C124.204 164.99 124.204 165.534 124.204 166.083C124.265 171.391 127.216 174.999 132.148 175.769C136.963 176.534 141.534 174.014 142.839 169.129C143.626 166.132 143.773 163.002 143.27 159.945C142.402 154.905 138.606 152.038 133.95 151.995C131.784 151.96 129.671 152.669 127.963 154.003C126.255 155.336 125.056 157.215 124.565 159.325C124.143 160.963 124.208 162.737 124.063 164.441H124.082Z" fill="#98B9C8"/>
<path d="M108.207 148.232V179.415H102.722V153.924C102.205 154.633 101.891 155.008 101.638 155.416C96.9823 163.009 92.3647 170.621 87.625 178.162C87.1557 178.894 85.9778 179.429 85.058 179.57C83.4625 179.795 81.8059 179.631 80.0039 179.631V148.429H85.3443V173.577C85.6331 173.29 85.9028 172.985 86.1514 172.662C90.6706 165.266 95.2272 157.894 99.6666 150.447C100.661 148.785 101.75 147.931 103.754 148.199C105.12 148.382 106.551 148.232 108.207 148.232Z" fill="#98B9C8"/>
<path d="M161.087 165.069C161.143 171.555 164.902 175.52 171.097 175.886C172.82 175.98 174.547 175.916 176.259 175.694C177.948 175.478 179.605 174.985 181.496 174.563C181.834 175.684 182.186 176.853 182.575 178.162C182.115 178.449 181.631 178.697 181.13 178.903C176.343 180.41 171.449 180.846 166.549 179.72C160.449 178.312 156.694 174.422 155.545 168.293C154.697 164.194 155.191 159.931 156.953 156.134C158.5 152.755 161.243 150.068 164.653 148.59C168.063 147.112 171.899 146.947 175.423 148.128C181.81 150.179 185.63 157.462 184.119 165.069H161.087ZM161.256 160.818H178.619C178.281 154.787 175.381 151.573 170.411 151.54C165.442 151.507 161.645 155.332 161.256 160.818Z" fill="#98B9C8"/>
<path d="M218.87 148.232C214.177 153.126 209.761 157.72 205.303 162.357C214.506 164.093 215.655 172.573 219.212 179.119C215.228 180.635 213.112 179.823 211.404 176.266C210.432 174.225 209.583 172.099 208.363 170.217C205.988 166.571 202.365 165.571 198.001 165.886V179.453H192.121V148.438H197.95V162.432C199.141 161.55 199.916 161.141 200.484 160.555C203.637 157.195 206.838 153.868 209.813 150.357C211.221 148.691 212.722 147.973 214.848 148.227C216.188 148.3 217.53 148.302 218.87 148.232Z" fill="#98B9C8"/>
<path d="M248.204 152.741H237.992V179.443H232.103V152.807H221.887V148.358H248.204V152.741Z" fill="#98B9C8"/>
</svg>
