<svg width="470" height="152" viewBox="0 0 470 152" fill="none" xmlns="http://www.w3.org/2000/svg">
<path d="M122.263 61.77C117.004 61.77 112.251 60.6361 108.005 58.3684C103.808 56.1006 100.502 52.9884 98.0899 49.0319C95.7256 45.0271 94.5435 40.5399 94.5435 35.5701C94.5435 30.6003 95.7256 26.1371 98.0899 22.1806C100.502 18.1758 103.808 15.0395 108.005 12.7718C112.251 10.504 117.004 9.37012 122.263 9.37012C127.523 9.37012 132.251 10.504 136.449 12.7718C140.647 15.0395 143.952 18.1758 146.364 22.1806C148.777 26.1371 149.983 30.6003 149.983 35.5701C149.983 40.5399 148.777 45.0271 146.364 49.0319C143.952 52.9884 140.647 56.1006 136.449 58.3684C132.251 60.6361 127.523 61.77 122.263 61.77ZM122.263 51.7822C125.255 51.7822 127.957 51.1067 130.369 49.7557C132.782 48.3564 134.664 46.4264 136.015 43.9656C137.414 41.5049 138.114 38.7063 138.114 35.5701C138.114 32.4338 137.414 29.6353 136.015 27.1745C134.664 24.7137 132.782 22.8078 130.369 21.4568C127.957 20.0576 125.255 19.3579 122.263 19.3579C119.272 19.3579 116.57 20.0576 114.157 21.4568C111.745 22.8078 109.839 24.7137 108.44 27.1745C107.089 29.6353 106.413 32.4338 106.413 35.5701C106.413 38.7063 107.089 41.5049 108.44 43.9656C109.839 46.4264 111.745 48.3564 114.157 49.7557C116.57 51.1067 119.272 51.7822 122.263 51.7822Z" fill="#F6F6F6"/>
<path d="M197.029 19.7922H180.817V60.9015H169.237V19.7922H153.098V10.2386H197.029V19.7922Z" fill="#F6F6F6"/>
<path d="M253.89 51.3479V71.396H243.034V60.9015H207.28V71.396H196.424L196.496 51.3479H198.523C201.563 51.2514 203.71 49.0319 204.964 44.6894C206.219 40.3468 206.991 34.1467 207.28 26.0889L207.859 10.2386H246.797V51.3479H253.89ZM217.63 27.1745C217.389 33.2058 216.882 38.2721 216.11 42.3734C215.338 46.4264 214.156 49.4179 212.564 51.3479H235.217V19.7922H217.847L217.63 27.1745Z" fill="#F6F6F6"/>
<path d="M301.011 51.4927V60.9015H261.783V10.2386H300.07V19.6474H273.435V30.6485H296.957V39.7678H273.435V51.4927H301.011Z" fill="#F6F6F6"/>
<path d="M355.643 10.2386V60.9015H344.063V19.7922H326.693L326.331 30.359C326.09 37.5483 325.511 43.3866 324.594 47.8739C323.677 52.3129 322.133 55.7387 319.962 58.1512C317.839 60.5155 314.848 61.6976 310.988 61.6976C309.395 61.6976 307.465 61.4323 305.198 60.9015L305.921 50.9861C306.549 51.1791 307.248 51.2756 308.02 51.2756C310.819 51.2756 312.773 49.635 313.883 46.354C314.992 43.0247 315.692 37.8378 315.982 30.7933L316.705 10.2386H355.643Z" fill="#F6F6F6"/>
<path d="M387.91 40.4916H379.804V60.9015H368.152V10.2386H379.804V30.7209H388.2L401.517 10.2386H413.893L397.319 34.7016L414.4 60.9015H401.083L387.91 40.4916Z" fill="#F6F6F6"/>
<path d="M453.209 50.0452H429.687L425.2 60.9015H413.185L435.766 10.2386H447.346L470 60.9015H457.696L453.209 50.0452ZM449.518 41.143L441.484 21.7463L433.45 41.143H449.518Z" fill="#F6F6F6"/>
<path d="M144.193 141.221L144.12 110.895L129.211 135.865H124L109.091 111.474V141.221H98.0896V90.558H107.788L126.75 122.041L145.423 90.558H155.122L155.194 141.221H144.193Z" fill="#F6F6F6"/>
<path d="M202.085 130.365H178.563L174.076 141.221H162.062L184.643 90.558H196.223L218.876 141.221H206.573L202.085 130.365ZM198.394 121.462L190.36 102.066L182.327 121.462H198.394Z" fill="#F6F6F6"/>
<path d="M248.844 142.089C243.682 142.089 239.001 140.98 234.804 138.76C230.654 136.492 227.373 133.38 224.961 129.424C222.596 125.419 221.414 120.907 221.414 115.889C221.414 110.871 222.596 106.384 224.961 102.428C227.373 98.4228 230.654 95.3106 234.804 93.0911C239.001 90.8233 243.706 89.6895 248.917 89.6895C253.308 89.6895 257.264 90.4615 260.786 92.0055C264.357 93.5495 267.348 95.769 269.761 98.664L262.234 105.612C258.808 101.656 254.562 99.6773 249.496 99.6773C246.36 99.6773 243.561 100.377 241.1 101.776C238.64 103.127 236.709 105.033 235.31 107.494C233.959 109.955 233.284 112.753 233.284 115.889C233.284 119.026 233.959 121.824 235.31 124.285C236.709 126.746 238.64 128.676 241.1 130.075C243.561 131.426 246.36 132.102 249.496 132.102C254.562 132.102 258.808 130.099 262.234 126.094L269.761 133.042C267.348 135.986 264.357 138.229 260.786 139.773C257.216 141.317 253.235 142.089 248.844 142.089Z" fill="#F6F6F6"/>
<path d="M315.629 100.112H299.417V141.221H287.837V100.112H271.697V90.558H315.629V100.112Z" fill="#F6F6F6"/>
<path d="M362.218 131.812V141.221H322.991V90.558H361.278V99.9668H334.643V110.968H358.165V120.087H334.643V131.812H362.218Z" fill="#F6F6F6"/>
<path d="M393.619 90.558C398.106 90.558 401.99 91.3058 405.271 92.8016C408.6 94.2974 411.158 96.4204 412.943 99.1706C414.728 101.921 415.621 105.178 415.621 108.941C415.621 112.657 414.728 115.914 412.943 118.712C411.158 121.462 408.6 123.585 405.271 125.081C401.99 126.529 398.106 127.252 393.619 127.252H383.414V141.221H371.689V90.558H393.619ZM392.967 117.699C396.49 117.699 399.168 116.951 401.001 115.455C402.835 113.911 403.751 111.74 403.751 108.941C403.751 106.095 402.835 103.923 401.001 102.428C399.168 100.884 396.49 100.112 392.967 100.112H383.414V117.699H392.967Z" fill="#F6F6F6"/>
<path d="M40.3322 33.0814L72.5073 0L78.3985 6.34439L20.8458 66.1629H40.3322V151.812H32.1751V73.8668H0L32.1751 40.7853V11.7824H40.3322V33.0814Z" fill="#F6F6F6"/>
<path d="M55.2871 67.0693H74.3203V87.9152H55.2871V67.0693Z" fill="#F6F6F6"/>
<path d="M55.2871 96.9785H74.3203V117.824H55.2871V96.9785Z" fill="#F6F6F6"/>
</svg>
