<svg width="144" height="53" viewBox="0 0 144 53" fill="none" xmlns="http://www.w3.org/2000/svg">
<path d="M11.1899 4.67864C11.1899 4.00477 11.7397 3.4585 12.4178 3.4585H41.2716C41.9497 3.4585 42.4994 4.00477 42.4994 4.67864V33.3521C42.4994 34.026 41.9497 34.5722 41.2716 34.5722H12.4178C11.7397 34.5722 11.1899 34.026 11.1899 33.3521V4.67864Z" fill="#ED6D2C"/>
<path d="M56.2204 19.0364C54.6608 19.0364 53.2513 18.7105 51.9922 18.0587C50.7473 17.4069 49.7671 16.5123 49.0517 15.3751C48.3506 14.224 48 12.9342 48 11.5057C48 10.0772 48.3506 8.79437 49.0517 7.65713C49.7671 6.50602 50.7473 5.60455 51.9922 4.95272C53.2513 4.30089 54.6608 3.97498 56.2204 3.97498C57.7801 3.97498 59.1823 4.30089 60.4272 4.95272C61.6721 5.60455 62.6522 6.50602 63.3677 7.65713C64.0831 8.79437 64.4408 10.0772 64.4408 11.5057C64.4408 12.9342 64.0831 14.224 63.3677 15.3751C62.6522 16.5123 61.6721 17.4069 60.4272 18.0587C59.1823 18.7105 57.7801 19.0364 56.2204 19.0364ZM56.2204 16.1656C57.1076 16.1656 57.9088 15.9715 58.6243 15.5831C59.3397 15.1809 59.8978 14.6262 60.2984 13.9189C60.7134 13.2116 60.9209 12.4072 60.9209 11.5057C60.9209 10.6042 60.7134 9.79986 60.2984 9.09255C59.8978 8.38524 59.3397 7.83742 58.6243 7.4491C57.9088 7.04691 57.1076 6.84581 56.2204 6.84581C55.3333 6.84581 54.532 7.04691 53.8165 7.4491C53.1011 7.83742 52.5359 8.38524 52.1209 9.09255C51.7203 9.79986 51.52 10.6042 51.52 11.5057C51.52 12.4072 51.7203 13.2116 52.1209 13.9189C52.5359 14.6262 53.1011 15.1809 53.8165 15.5831C54.532 15.9715 55.3333 16.1656 56.2204 16.1656Z" fill="#F26422"/>
<path d="M76.4165 10.2575H72.5101V18.7868H69.1833V10.2575H65.277V7.59472H76.4165V10.2575Z" fill="#F26422"/>
<path d="M90.3052 16.124V21.2H87.193V18.7868H79.0799V21.2H75.9677V16.124H76.4399C77.1554 16.1101 77.649 15.701 77.9209 14.8966C78.1928 14.0922 78.3645 12.9481 78.436 11.4641L78.5862 7.59472H88.6525V16.124H90.3052ZM81.4623 11.6929C81.4194 12.8302 81.3264 13.7594 81.1833 14.4806C81.0545 15.2017 80.8041 15.7496 80.4321 16.124H85.3042V10.2575H81.5267L81.4623 11.6929Z" fill="#F26422"/>
<path d="M103.638 13.2324C103.638 13.274 103.616 13.5652 103.573 14.1061H94.8376C94.995 14.7995 95.367 15.3474 95.9537 15.7496C96.5403 16.1517 97.2701 16.3528 98.1429 16.3528C98.7439 16.3528 99.2733 16.2696 99.7312 16.1032C100.203 15.9229 100.64 15.6455 101.04 15.2711L102.822 17.1434C101.734 18.3499 100.146 18.9532 98.0571 18.9532C96.755 18.9532 95.6031 18.7105 94.6015 18.2251C93.5999 17.7259 92.8272 17.0393 92.2835 16.1656C91.7397 15.2919 91.4679 14.3003 91.4679 13.1908C91.4679 12.0951 91.7326 11.1105 92.262 10.2367C92.8057 9.34912 93.5426 8.66262 94.4727 8.17721C95.4171 7.67793 96.4688 7.4283 97.6278 7.4283C98.7582 7.4283 99.7813 7.66407 100.697 8.1356C101.613 8.60714 102.328 9.28671 102.843 10.1743C103.373 11.048 103.638 12.0674 103.638 13.2324ZM97.6493 9.88307C96.8909 9.88307 96.2542 10.0911 95.739 10.5072C95.2239 10.9232 94.9091 11.4918 94.7947 12.213H100.482C100.368 11.5057 100.053 10.944 99.538 10.528C99.0229 10.098 98.3933 9.88307 97.6493 9.88307Z" fill="#F26422"/>
<path d="M117.174 7.59472V18.7868H113.826V10.2575H110.177L110.07 12.2338C110.013 13.7039 109.87 14.9244 109.641 15.8952C109.412 16.866 109.04 17.6288 108.525 18.1835C108.009 18.7383 107.294 19.0156 106.378 19.0156C105.892 19.0156 105.312 18.9324 104.64 18.766L104.811 16.1032C105.04 16.1309 105.205 16.1448 105.305 16.1448C105.806 16.1448 106.178 15.9715 106.421 15.6247C106.679 15.2641 106.85 14.8134 106.936 14.2725C107.022 13.7178 107.087 12.9897 107.129 12.0882L107.301 7.59472H117.174Z" fill="#F26422"/>
<path d="M125.481 14.543H123.742V18.7868H120.394V7.59472H123.742V11.9426H125.545L128.679 7.59472H132.242L128.207 12.9619L132.521 18.7868H128.572L125.481 14.543Z" fill="#F26422"/>
<path d="M138.441 7.4283C140.23 7.4283 141.603 7.84436 142.562 8.67649C143.521 9.49474 144 10.736 144 12.4002V18.7868H140.866V17.393C140.237 18.4332 139.064 18.9532 137.346 18.9532C136.459 18.9532 135.687 18.8076 135.028 18.5164C134.385 18.2251 133.891 17.8229 133.547 17.3098C133.204 16.7966 133.032 16.2142 133.032 15.5623C133.032 14.5222 133.433 13.7039 134.234 13.1076C135.05 12.5112 136.302 12.213 137.99 12.213H140.652C140.652 11.5057 140.43 10.9648 139.986 10.5904C139.543 10.202 138.878 10.0079 137.99 10.0079C137.375 10.0079 136.767 10.105 136.166 10.2991C135.579 10.4794 135.079 10.7291 134.664 11.048L133.462 8.7805C134.091 8.35057 134.842 8.01772 135.715 7.78195C136.602 7.54618 137.511 7.4283 138.441 7.4283ZM138.184 16.7689C138.756 16.7689 139.264 16.6441 139.707 16.3945C140.151 16.1309 140.466 15.7496 140.652 15.2503V14.1061H138.355C136.982 14.1061 136.295 14.543 136.295 15.4167C136.295 15.8328 136.459 16.1656 136.788 16.4153C137.132 16.651 137.597 16.7689 138.184 16.7689Z" fill="#F26422"/>
<path d="M56.0782 34.7998L56.0657 29.2982L53.1716 33.8512H52.4418L49.5477 29.3694V34.7998H48V26.5H49.3464L52.8318 31.9897L56.2796 26.5H57.6134L57.6385 34.7998H56.0782Z" fill="#3A3A3A"/>
<path d="M62.4312 28.3971C63.4211 28.3971 64.1761 28.6224 64.6962 29.0729C65.2247 29.5156 65.4889 30.1875 65.4889 31.0886V34.7998H64.0041V34.0291C63.8112 34.3057 63.5343 34.5192 63.1736 34.6694C62.8213 34.8116 62.3935 34.8828 61.8902 34.8828C61.3869 34.8828 60.9465 34.8037 60.569 34.6456C60.1915 34.4796 59.8979 34.2544 59.6882 33.9698C59.4868 33.6773 59.3862 33.3493 59.3862 32.9857C59.3862 32.4166 59.6085 31.962 60.0531 31.6221C60.5061 31.2743 61.2149 31.1004 62.1796 31.1004H63.916V31.0056C63.916 30.5629 63.7734 30.223 63.4882 29.9859C63.2114 29.7488 62.7961 29.6302 62.2425 29.6302C61.865 29.6302 61.4917 29.6855 61.1226 29.7962C60.7619 29.9069 60.4557 30.061 60.2041 30.2586L59.5875 29.1796C59.9398 28.9267 60.3634 28.733 60.8584 28.5987C61.3533 28.4643 61.8776 28.3971 62.4312 28.3971ZM62.2173 33.8038C62.6116 33.8038 62.9597 33.7208 63.2617 33.5548C63.5721 33.3809 63.7902 33.1359 63.916 32.8197V32.0846H62.2928C61.3869 32.0846 60.9339 32.3652 60.9339 32.9264C60.9339 33.1952 61.0471 33.4086 61.2736 33.5667C61.5001 33.7248 61.8147 33.8038 62.2173 33.8038Z" fill="#3A3A3A"/>
<path d="M70.4929 34.8828C69.7966 34.8828 69.1717 34.7444 68.618 34.4678C68.0644 34.1911 67.6323 33.8078 67.322 33.3177C67.0116 32.8197 66.8564 32.2585 66.8564 31.634C66.8564 31.0095 67.0116 30.4523 67.322 29.9622C67.6323 29.4721 68.0602 29.0887 68.6054 28.8121C69.1591 28.5354 69.7882 28.3971 70.4929 28.3971C71.1556 28.3971 71.7344 28.5236 72.2293 28.7765C72.7326 29.0295 73.1101 29.3931 73.3618 29.8673L72.1538 30.5313C71.9609 30.2389 71.7176 30.0215 71.424 29.8792C71.1388 29.729 70.8242 29.6539 70.4803 29.6539C69.8931 29.6539 69.4065 29.8357 69.0207 30.1993C68.6348 30.555 68.4419 31.0333 68.4419 31.634C68.4419 32.2348 68.6306 32.7169 69.0081 33.0805C69.394 33.4362 69.8847 33.6141 70.4803 33.6141C70.8242 33.6141 71.1388 33.543 71.424 33.4007C71.7176 33.2505 71.9609 33.0292 72.1538 32.7367L73.3618 33.4007C73.1017 33.8749 72.72 34.2425 72.2167 34.5034C71.7218 34.7563 71.1472 34.8828 70.4929 34.8828Z" fill="#3A3A3A"/>
<path d="M80.0077 29.7251H77.6547V34.7998H76.0819V29.7251H73.7163V28.4682H80.0077V29.7251Z" fill="#3A3A3A"/>
<path d="M87.1452 31.6696C87.1452 31.7723 87.1368 31.9186 87.12 32.1083H81.8478C81.9401 32.5746 82.1791 32.9462 82.565 33.2228C82.9593 33.4916 83.4458 33.626 84.0246 33.626C84.7628 33.626 85.371 33.3967 85.8492 32.9383L86.6922 33.8512C86.3902 34.1911 86.0085 34.448 85.5472 34.6219C85.0858 34.7958 84.5657 34.8828 83.9869 34.8828C83.2487 34.8828 82.5986 34.7444 82.0365 34.4678C81.4745 34.1911 81.0383 33.8078 80.7279 33.3177C80.4259 32.8197 80.2749 32.2585 80.2749 31.634C80.2749 31.0174 80.4217 30.4641 80.7153 29.974C81.0173 29.4761 81.4325 29.0887 81.961 28.8121C82.4895 28.5354 83.0851 28.3971 83.7478 28.3971C84.4021 28.3971 84.9851 28.5354 85.4968 28.8121C86.0169 29.0808 86.4196 29.4642 86.7048 29.9622C86.9984 30.4523 87.1452 31.0214 87.1452 31.6696ZM83.7478 29.5828C83.2445 29.5828 82.8167 29.7251 82.4643 30.0096C82.1204 30.2863 81.9107 30.6578 81.8352 31.1242H85.6478C85.5807 30.6657 85.3752 30.2942 85.0313 30.0096C84.6873 29.7251 84.2595 29.5828 83.7478 29.5828Z" fill="#3A3A3A"/>
<path d="M92.5901 28.3971C93.2444 28.3971 93.8274 28.5315 94.3391 28.8002C94.8592 29.069 95.266 29.4484 95.5596 29.9385C95.8532 30.4286 96 30.9937 96 31.634C96 32.2743 95.8532 32.8434 95.5596 33.3414C95.266 33.8315 94.8592 34.2109 94.3391 34.4796C93.8274 34.7484 93.2444 34.8828 92.5901 34.8828C91.6841 34.8828 90.9669 34.5982 90.4384 34.0291V37.1H88.8655V28.4682H90.3629V29.2982C90.6229 28.9978 90.9417 28.7726 91.3192 28.6224C91.7051 28.4722 92.1287 28.3971 92.5901 28.3971ZM92.4139 33.6141C92.9927 33.6141 93.4667 33.4323 93.8358 33.0687C94.2133 32.7051 94.402 32.2268 94.402 31.634C94.402 31.0412 94.2133 30.5629 93.8358 30.1993C93.4667 29.8357 92.9927 29.6539 92.4139 29.6539C92.0364 29.6539 91.6967 29.7369 91.3947 29.9029C91.0927 30.061 90.8536 30.2902 90.6775 30.5906C90.5013 30.891 90.4132 31.2388 90.4132 31.634C90.4132 32.0292 90.5013 32.377 90.6775 32.6774C90.8536 32.9778 91.0927 33.211 91.3947 33.377C91.6967 33.535 92.0364 33.6141 92.4139 33.6141Z" fill="#3A3A3A"/>
<path d="M19.8952 50.1722V53H19.0462V50.9911H11.5279L11.5155 53H10.6665L10.6788 50.1722H11.1095C11.6755 50.1381 12.0693 49.6732 12.2908 48.7776C12.5122 47.8734 12.6476 46.5939 12.6968 44.9391L12.7953 42.0346H18.6032V50.1722H19.8952ZM13.5089 45.0286C13.4679 46.3934 13.3654 47.5194 13.2013 48.4065C13.0455 49.2851 12.7789 49.8737 12.4015 50.1722H17.7049V42.8535H13.5828L13.5089 45.0286Z" fill="#969693"/>
<path d="M27.0234 47.9075H21.6093C21.6585 48.607 21.9169 49.1742 22.3845 49.6093C22.8521 50.0358 23.4427 50.249 24.1564 50.249C24.5583 50.249 24.9275 50.1765 25.2638 50.0315C25.6002 49.878 25.8914 49.6562 26.1375 49.3662L26.6297 49.9547C26.3426 50.313 25.9816 50.5859 25.5468 50.7736C25.1203 50.9613 24.6486 51.0551 24.1318 51.0551C23.4673 51.0551 22.8767 50.9101 22.3599 50.6201C21.8513 50.3215 21.4534 49.9121 21.1663 49.3917C20.8792 48.8714 20.7356 48.2828 20.7356 47.626C20.7356 46.9692 20.871 46.3806 21.1417 45.8603C21.4206 45.34 21.7979 44.9348 22.2737 44.6448C22.7577 44.3548 23.2991 44.2097 23.898 44.2097C24.4968 44.2097 25.0341 44.3548 25.5099 44.6448C25.9857 44.9348 26.359 45.34 26.6297 45.8603C26.9004 46.3721 27.0357 46.9607 27.0357 47.626L27.0234 47.9075ZM23.898 44.9902C23.2745 44.9902 22.7495 45.1992 22.3229 45.6172C21.9046 46.0266 21.6667 46.564 21.6093 47.2294H26.199C26.1416 46.564 25.8996 46.0266 25.473 45.6172C25.0546 45.1992 24.5296 44.9902 23.898 44.9902Z" fill="#969693"/>
<path d="M34.1286 44.2609V50.9911H33.2549V45.067H30.1541L30.0679 46.7304C30.0023 48.1293 29.8465 49.2041 29.6004 49.9547C29.3543 50.7054 28.9154 51.0807 28.2837 51.0807C28.1115 51.0807 27.9023 51.0466 27.6562 50.9783L27.7177 50.1978C27.8654 50.232 27.9679 50.249 28.0253 50.249C28.3617 50.249 28.616 50.0869 28.7882 49.7628C28.9605 49.4387 29.0753 49.0377 29.1328 48.5601C29.1902 48.0824 29.2394 47.4512 29.2804 46.6664L29.3912 44.2609H34.1286Z" fill="#969693"/>
<path d="M38.8394 44.2097C39.6843 44.2097 40.3324 44.4315 40.7835 44.8751C41.2347 45.3101 41.4603 45.9584 41.4603 46.8199V50.9911H40.6236V49.9419C40.4267 50.2917 40.1355 50.5646 39.7499 50.7608C39.3726 50.957 38.9214 51.0551 38.3964 51.0551C37.6745 51.0551 37.1003 50.876 36.6737 50.5177C36.2471 50.1594 36.0338 49.686 36.0338 49.0975C36.0338 48.5259 36.2307 48.0653 36.6245 47.7156C37.0264 47.3659 37.6622 47.191 38.5317 47.191H40.5867V46.7815C40.5867 46.2015 40.4308 45.7622 40.1191 45.4637C39.8073 45.1566 39.3521 45.003 38.7532 45.003C38.3431 45.003 37.9493 45.0755 37.5719 45.2206C37.1946 45.357 36.8706 45.549 36.5999 45.7963L36.2061 45.1182C36.5342 44.8282 36.928 44.6064 37.3874 44.4528C37.8468 44.2908 38.3308 44.2097 38.8394 44.2097ZM38.5317 50.3386C39.0239 50.3386 39.4464 50.2234 39.7991 49.9931C40.1519 49.7543 40.4144 49.4131 40.5867 48.9695V47.8691H38.5563C37.4489 47.8691 36.8952 48.27 36.8952 49.0719C36.8952 49.4642 37.0387 49.7756 37.3258 50.0059C37.613 50.2277 38.0149 50.3386 38.5317 50.3386Z" fill="#969693"/>
<path d="M49.4463 47.9075H44.0321C44.0814 48.607 44.3398 49.1742 44.8074 49.6093C45.2749 50.0358 45.8656 50.249 46.5793 50.249C46.9812 50.249 47.3504 50.1765 47.6867 50.0315C48.023 49.878 48.3143 49.6562 48.5604 49.3662L49.0526 49.9547C48.7654 50.313 48.4045 50.5859 47.9697 50.7736C47.5432 50.9613 47.0715 51.0551 46.5547 51.0551C45.8902 51.0551 45.2996 50.9101 44.7827 50.6201C44.2741 50.3215 43.8763 49.9121 43.5892 49.3917C43.3021 48.8714 43.1585 48.2828 43.1585 47.626C43.1585 46.9692 43.2938 46.3806 43.5646 45.8603C43.8435 45.34 44.2208 44.9348 44.6966 44.6448C45.1806 44.3548 45.722 44.2097 46.3209 44.2097C46.9197 44.2097 47.457 44.3548 47.9328 44.6448C48.4086 44.9348 48.7819 45.34 49.0526 45.8603C49.3233 46.3721 49.4586 46.9607 49.4586 47.626L49.4463 47.9075ZM46.3209 44.9902C45.6974 44.9902 45.1724 45.1992 44.7458 45.6172C44.3275 46.0266 44.0896 46.564 44.0321 47.2294H48.6219C48.5645 46.564 48.3225 46.0266 47.8959 45.6172C47.4775 45.1992 46.9525 44.9902 46.3209 44.9902Z" fill="#969693"/>
<path d="M58.6278 44.2609V50.9911H57.828V45.6684L55.2071 50.1722H54.8133L52.1923 45.6556V50.9911H51.3925V44.2609H52.2785L55.0225 49.1103L57.8157 44.2609H58.6278Z" fill="#969693"/>
<path d="M66.6846 47.9971H65.208V50.9911H64.3343V44.2609H65.208V47.2166H66.6969L68.9733 44.2609H69.9208L67.3737 47.5237L70.1054 50.9911H69.0718L66.6846 47.9971Z" fill="#969693"/>
<path d="M73.5912 44.2097C74.4362 44.2097 75.0842 44.4315 75.5354 44.8751C75.9866 45.3101 76.2122 45.9584 76.2122 46.8199V50.9911H75.3755V49.9419C75.1786 50.2917 74.8874 50.5646 74.5018 50.7608C74.1244 50.957 73.6733 51.0551 73.1483 51.0551C72.4264 51.0551 71.8521 50.876 71.4256 50.5177C70.999 50.1594 70.7857 49.686 70.7857 49.0975C70.7857 48.5259 70.9826 48.0653 71.3763 47.7156C71.7783 47.3659 72.4141 47.191 73.2836 47.191H75.3385V46.7815C75.3385 46.2015 75.1827 45.7622 74.8709 45.4637C74.5592 45.1566 74.1039 45.003 73.5051 45.003C73.0949 45.003 72.7012 45.0755 72.3238 45.2206C71.9465 45.357 71.6224 45.549 71.3517 45.7963L70.958 45.1182C71.2861 44.8282 71.6799 44.6064 72.1392 44.4528C72.5986 44.2908 73.0826 44.2097 73.5912 44.2097ZM73.2836 50.3386C73.7758 50.3386 74.1983 50.2234 74.551 49.9931C74.9038 49.7543 75.1663 49.4131 75.3385 48.9695V47.8691H73.3082C72.2008 47.8691 71.647 48.27 71.647 49.0719C71.647 49.4642 71.7906 49.7756 72.0777 50.0059C72.3648 50.2277 72.7668 50.3386 73.2836 50.3386Z" fill="#969693"/>
<path d="M80.8882 47.9971H79.4116V50.9911H78.5379V44.2609H79.4116V47.2166H80.9005L83.1769 44.2609H84.1244L81.5772 47.5237L84.3089 50.9911H83.2753L80.8882 47.9971Z" fill="#969693"/>
<path d="M95.2206 50.1978V52.6161H94.3962V50.9911H88.6006V52.6161H87.7761V50.1978H88.1453C88.5801 50.1722 88.8754 49.8396 89.0312 49.1998C89.1871 48.5601 89.2938 47.6644 89.3512 46.5129L89.4373 44.2609H94.2116V50.1978H95.2206ZM90.151 46.564C90.11 47.5194 90.0321 48.3084 89.9172 48.9311C89.8024 49.5453 89.5973 49.9675 89.302 50.1978H93.338V45.067H90.2248L90.151 46.564Z" fill="#969693"/>
<path d="M102.214 44.2609V50.9911H101.341V45.067H98.2399L98.1537 46.7304C98.0881 48.1293 97.9322 49.2041 97.6861 49.9547C97.44 50.7054 97.0012 51.0807 96.3695 51.0807C96.1972 51.0807 95.9881 51.0466 95.742 50.9783L95.8035 50.1978C95.9511 50.232 96.0537 50.249 96.1111 50.249C96.4474 50.249 96.7018 50.0869 96.874 49.7628C97.0463 49.4387 97.1611 49.0377 97.2186 48.5601C97.276 48.0824 97.3252 47.4512 97.3662 46.6664L97.477 44.2609H102.214Z" fill="#969693"/>
<path d="M109.669 44.2609V50.9911H108.869V48.7648H106.839H106.593L105.092 50.9911H104.144L105.756 48.6368C105.256 48.4918 104.87 48.2445 104.6 47.8947C104.329 47.545 104.193 47.1014 104.193 46.564C104.193 45.8134 104.44 45.2419 104.932 44.8495C105.424 44.4571 106.097 44.2609 106.95 44.2609H109.669ZM105.079 46.5896C105.079 47.5876 105.691 48.0866 106.913 48.0866H108.869V45.067H106.974C105.711 45.067 105.079 45.5745 105.079 46.5896Z" fill="#969693"/>
<path d="M118.088 51.0551C117.448 51.0551 116.874 50.9101 116.365 50.6201C115.865 50.33 115.471 49.9249 115.184 49.4045C114.897 48.8757 114.753 48.2828 114.753 47.626C114.753 46.9692 114.897 46.3806 115.184 45.8603C115.471 45.34 115.865 44.9348 116.365 44.6448C116.874 44.3548 117.448 44.2097 118.088 44.2097C118.646 44.2097 119.142 44.3249 119.577 44.5552C120.02 44.777 120.368 45.1054 120.623 45.5404L119.97 46.0011C119.757 45.6684 119.486 45.421 119.158 45.2589C118.83 45.0883 118.473 45.003 118.088 45.003C117.62 45.003 117.198 45.1139 116.82 45.3357C116.451 45.549 116.16 45.856 115.947 46.257C115.742 46.6579 115.639 47.1142 115.639 47.626C115.639 48.1464 115.742 48.607 115.947 49.0079C116.16 49.4003 116.451 49.7074 116.82 49.9291C117.198 50.1424 117.62 50.249 118.088 50.249C118.473 50.249 118.83 50.168 119.158 50.0059C119.486 49.8438 119.757 49.5965 119.97 49.2638L120.623 49.7244C120.368 50.1594 120.02 50.4921 119.577 50.7224C119.134 50.9442 118.637 51.0551 118.088 51.0551Z" fill="#969693"/>
<path d="M127.866 47.9075H122.452C122.501 48.607 122.76 49.1742 123.227 49.6093C123.695 50.0358 124.286 50.249 124.999 50.249C125.401 50.249 125.77 50.1765 126.107 50.0315C126.443 49.878 126.734 49.6562 126.98 49.3662L127.473 49.9547C127.185 50.313 126.825 50.5859 126.39 50.7736C125.963 50.9613 125.491 51.0551 124.975 51.0551C124.31 51.0551 123.72 50.9101 123.203 50.6201C122.694 50.3215 122.296 49.9121 122.009 49.3917C121.722 48.8714 121.579 48.2828 121.579 47.626C121.579 46.9692 121.714 46.3806 121.985 45.8603C122.263 45.34 122.641 44.9348 123.117 44.6448C123.601 44.3548 124.142 44.2097 124.741 44.2097C125.34 44.2097 125.877 44.3548 126.353 44.6448C126.829 44.9348 127.202 45.34 127.473 45.8603C127.743 46.3721 127.879 46.9607 127.879 47.626L127.866 47.9075ZM124.741 44.9902C124.117 44.9902 123.592 45.1992 123.166 45.6172C122.747 46.0266 122.51 46.564 122.452 47.2294H127.042C126.984 46.564 126.742 46.0266 126.316 45.6172C125.898 45.1992 125.373 44.9902 124.741 44.9902Z" fill="#969693"/>
<path d="M132.95 44.4273C133.549 44.4273 134.082 44.568 134.55 44.8495C135.026 45.1225 135.395 45.5106 135.657 46.0138C135.92 46.5086 136.051 47.0758 136.051 47.7156C136.051 48.3724 135.912 48.9567 135.633 49.4685C135.362 49.9718 134.981 50.3642 134.488 50.6457C133.996 50.9272 133.43 51.0679 132.79 51.0679C131.716 51.0679 130.883 50.6755 130.292 49.8908C129.702 49.106 129.406 48.0227 129.406 46.6408C129.406 45.1992 129.669 44.0946 130.194 43.3269C130.727 42.5592 131.556 42.0388 132.68 41.7659L135.584 41.075L135.731 41.9066L133 42.5592C132.073 42.7724 131.392 43.152 130.957 43.6979C130.522 44.2353 130.284 45.0329 130.243 46.0906C130.506 45.5703 130.871 45.1651 131.338 44.8751C131.806 44.5765 132.343 44.4273 132.95 44.4273ZM132.815 50.313C133.266 50.313 133.668 50.2064 134.021 49.9931C134.382 49.7713 134.661 49.4642 134.858 49.0719C135.063 48.6795 135.165 48.2359 135.165 47.7412C135.165 47.2464 135.067 46.8114 134.87 46.4361C134.673 46.0608 134.394 45.7707 134.033 45.566C133.68 45.3528 133.274 45.2461 132.815 45.2461C132.356 45.2461 131.945 45.3528 131.584 45.566C131.232 45.7707 130.953 46.0608 130.748 46.4361C130.551 46.8114 130.452 47.2464 130.452 47.7412C130.452 48.2359 130.551 48.6795 130.748 49.0719C130.953 49.4642 131.236 49.7713 131.597 49.9931C131.958 50.2064 132.364 50.313 132.815 50.313Z" fill="#969693"/>
<path d="M142.667 44.2609V50.9911H141.867V48.7648H139.836H139.59L138.089 50.9911H137.142L138.754 48.6368C138.253 48.4918 137.868 48.2445 137.597 47.8947C137.326 47.545 137.191 47.1014 137.191 46.564C137.191 45.8134 137.437 45.2419 137.929 44.8495C138.421 44.4571 139.094 44.2609 139.947 44.2609H142.667ZM138.077 46.5896C138.077 47.5876 138.688 48.0866 139.91 48.0866H141.867V45.067H139.972C138.709 45.067 138.077 45.5745 138.077 46.5896Z" fill="#969693"/>
<path d="M21.7355 24.9686C22.1265 23.9557 22.52 23.0076 22.8595 22.0375C23.1916 21.0885 23.6438 21.1338 24.3112 21.2574C26.0109 21.5727 27.7097 21.894 29.4087 22.2112C31.1972 22.5452 32.9855 22.878 34.7736 23.2094L36.8375 23.593L38.1347 20.2319L37.1398 19.8527C36.9527 20.3377 36.7403 20.8108 36.5885 21.302C36.4072 21.8865 35.7265 22.2807 35.0095 22.0074C28.2887 19.427 21.5618 16.8631 14.8287 14.3158C13.9183 13.9717 13.7522 13.3187 14.0523 12.5616C14.6025 11.1736 15.1274 9.77599 15.67 8.38511C15.7922 8.06856 15.9432 7.76953 16.2652 7.59525C16.6606 7.3741 17.0475 7.46636 17.4335 7.6135L27.1794 11.328C30.5967 12.6305 34.01 13.9437 37.4342 15.2285C38.3459 15.5709 38.607 16.2506 38.2409 17.0261C38.049 17.433 37.911 17.8641 37.7353 18.3193C38.2485 18.5149 38.7419 18.6942 39.2267 18.8921C39.4218 18.9715 39.6291 19.0607 39.7782 19.201C40.0498 19.4585 40.0648 19.7997 39.9352 20.1374C39.3495 21.6687 38.7591 23.1985 38.1639 24.7267C37.9782 25.2079 37.5918 25.4041 37.0454 25.3019C34.5064 24.8251 31.9714 24.3419 29.4299 23.8678C27.7201 23.5487 26.0079 23.2433 24.2836 22.9296L23.2703 25.555C23.5083 25.6457 23.7396 25.7273 23.9664 25.8204C24.6408 26.1006 24.8699 26.6433 24.6079 27.3219C23.1749 31.0351 22.8803 30.8341 21.4734 34.5564C20.6144 34.5584 21.1871 34.5571 20.3281 34.559C19.4692 34.5609 18.1232 34.5639 17.1786 34.566C16.3196 34.5679 16.3196 34.5679 15.9288 34.5688C17.0164 31.7395 17.3634 31.0109 18.4607 28.1853C18.815 27.2673 19.1731 26.3508 19.5233 25.432C19.8064 24.6873 20.3254 24.4428 21.0744 24.7159C21.2796 24.7919 21.4874 24.8741 21.7355 24.9686ZM23.2632 13.0671C23.256 13.2626 23.2514 13.4061 23.246 13.55C23.2264 14.0748 23.1943 14.6 23.19 15.1264C23.1879 15.4967 23.3063 15.8127 23.706 15.9432C24.0572 16.0582 24.4553 15.971 24.688 15.6145C24.9618 15.1967 25.1723 14.7359 25.3844 14.2822C25.5748 13.8755 25.7342 13.4548 25.9036 13.0386C25.9774 12.8568 26.089 12.8667 26.2559 12.9158C26.9496 13.1177 27.5958 13.3771 28.1673 13.8542C28.8359 14.4111 29.6501 14.7316 30.4676 15.0417C31.2851 15.3518 32.0064 15.817 32.2656 16.7255C32.3688 17.1277 32.4395 17.5376 32.477 17.9514C32.5341 18.4299 32.6918 18.6607 33.0698 18.7328C33.2627 18.778 33.4656 18.7558 33.6447 18.6699C33.8238 18.5839 33.9683 18.4395 34.0542 18.2605C34.2961 17.8032 34.543 17.3483 34.7951 16.8958C35.1875 16.195 35.1866 16.2143 35.957 16.3888C36.2041 16.4445 36.5379 16.4693 36.7283 16.3465C36.9789 16.1842 37.1461 16.2232 37.36 16.3309C37.4154 16.3586 37.4759 16.3751 37.5613 16.4076C37.5376 16.0929 37.2994 16.0667 37.1127 15.9956C30.4692 13.4606 23.8243 10.928 17.178 8.39775C17.0831 8.36157 16.9857 8.29977 16.8913 8.30372C16.7798 8.30845 16.6032 8.34281 16.5717 8.41504C16.3554 8.91356 16.1694 9.42365 15.9839 9.90417L17.707 9.96901C17.6288 10.1716 17.5848 10.2856 17.5413 10.3983C17.3747 10.8431 17.1796 11.2771 17.0567 11.7386C17.0038 11.9635 17.0357 12.1996 17.1463 12.4017C17.5135 12.9926 18.2688 12.8789 18.5785 12.193C18.7728 11.763 18.9231 11.3134 19.1076 10.8354C19.9731 11.5233 20.8981 11.9725 21.9814 12.0564C21.7149 12.7152 21.7564 13.0702 22.097 13.2937C22.4811 13.5381 22.8202 13.4851 23.2632 13.0671ZM27.2464 15.9563C27.0771 16.3951 27.2519 16.8393 27.6567 16.9922C27.8602 17.0637 28.0841 17.0523 28.28 16.9606C28.4759 16.8688 28.6282 16.7041 28.7041 16.5017C28.8604 16.0704 28.668 15.6398 28.2487 15.4829C27.8171 15.322 27.421 15.5095 27.2464 15.9563Z" fill="white"/>
</svg>
