<?xml version="1.0" standalone="no"?>
<!DOCTYPE svg PUBLIC "-//W3C//DTD SVG 20010904//EN"
 "http://www.w3.org/TR/2001/REC-SVG-20010904/DTD/svg10.dtd">
<svg version="1.0" xmlns="http://www.w3.org/2000/svg"
 width="4640.000000pt" height="4640.000000pt" viewBox="0 0 4640.000000 4640.000000"
 preserveAspectRatio="xMidYMid meet">
<metadata>
Created by potrace 1.11, written by Peter Selinger 2001-2013
</metadata>
<g transform="translate(0.000000,4640.000000) scale(0.100000,-0.100000)"
fill="#000000" stroke="none">
<path d="M4078 27995 c-2 -1 -46 -6 -98 -9 -52 -4 -108 -9 -125 -11 -63 -7
-121 -15 -155 -20 -19 -3 -51 -8 -70 -11 -65 -9 -85 -12 -85 -14 0 -1 -13 -3
-30 -5 -16 -1 -30 -3 -30 -4 0 -3 -13 -6 -55 -14 -56 -11 -250 -59 -315 -79
-38 -11 -74 -21 -80 -23 -5 -1 -17 -5 -25 -8 -8 -3 -37 -13 -65 -22 -27 -8
-57 -18 -65 -22 -8 -3 -17 -7 -20 -8 -26 -7 -59 -18 -75 -25 -18 -9 -72 -31
-85 -35 -3 -1 -18 -8 -35 -15 -16 -7 -33 -14 -37 -14 -3 -1 -10 -4 -14 -8 -4
-5 -16 -8 -26 -8 -10 0 -18 -4 -18 -9 0 -5 -15 -13 -32 -16 -18 -4 -38 -12
-45 -17 -15 -12 -145 -75 -157 -76 -5 0 -12 -4 -15 -9 -3 -5 -17 -14 -31 -20
-76 -37 -273 -153 -278 -165 -2 -4 -8 -8 -13 -8 -12 0 -125 -74 -156 -103 -13
-11 -23 -16 -23 -11 0 5 -4 4 -8 -1 -4 -6 -54 -47 -112 -90 -57 -44 -112 -87
-121 -95 -9 -8 -30 -26 -45 -39 -157 -130 -395 -368 -516 -515 -10 -12 -23
-28 -30 -36 -54 -62 -233 -304 -273 -368 -5 -9 -22 -35 -37 -58 -44 -67 -158
-264 -158 -273 0 -5 -7 -14 -15 -21 -9 -7 -13 -15 -11 -18 3 -3 -3 -17 -14
-32 -11 -16 -20 -32 -20 -37 0 -5 -16 -38 -35 -73 -19 -36 -35 -72 -35 -82 0
-9 -4 -18 -8 -20 -6 -2 -30 -59 -92 -213 -4 -11 -13 -33 -20 -50 -22 -56 -108
-323 -116 -361 -1 -6 -9 -36 -17 -65 -9 -30 -18 -67 -21 -84 -3 -16 -12 -53
-19 -81 -7 -29 -13 -61 -12 -73 1 -11 -2 -21 -7 -21 -5 0 -7 -4 -4 -9 3 -4 1
-23 -4 -42 -5 -18 -12 -53 -16 -78 -3 -26 -7 -57 -9 -71 -3 -14 -7 -52 -10
-85 -3 -33 -8 -65 -10 -72 -26 -77 -26 -789 0 -924 3 -13 7 -52 10 -87 3 -35
7 -67 9 -70 2 -4 7 -32 11 -62 4 -30 9 -65 11 -77 3 -13 6 -33 9 -45 2 -13 7
-36 10 -53 3 -16 8 -41 12 -55 10 -39 11 -43 16 -70 11 -55 70 -271 84 -310 8
-21 14 -43 15 -57 1 -7 4 -13 8 -13 4 0 7 -6 7 -14 0 -17 123 -338 134 -350 5
-6 9 -18 9 -28 0 -10 5 -18 10 -18 6 0 10 -7 10 -14 0 -23 114 -245 199 -389
42 -70 83 -141 93 -158 9 -17 23 -38 32 -48 9 -10 16 -22 16 -28 0 -6 3 -13 8
-15 4 -1 40 -49 79 -105 40 -55 79 -107 86 -115 7 -7 18 -20 23 -29 12 -20 76
-98 135 -163 25 -28 55 -62 65 -74 19 -24 234 -242 239 -242 1 0 25 -21 53
-47 85 -80 121 -110 252 -213 108 -85 114 -89 275 -197 183 -122 459 -272 640
-348 17 -7 51 -23 76 -35 25 -12 52 -23 60 -24 8 -2 28 -9 44 -15 28 -12 236
-87 253 -92 4 -1 12 -3 17 -5 30 -9 132 -38 145 -40 23 -4 103 -25 120 -32 8
-3 22 -7 30 -8 32 -4 86 -15 102 -20 20 -6 54 -13 88 -19 14 -2 50 -9 80 -15
31 -5 73 -12 95 -15 22 -2 54 -7 70 -9 17 -3 59 -8 95 -11 36 -4 85 -9 110
-11 25 -3 84 -6 131 -8 47 -1 91 -6 97 -10 7 -4 12 -3 12 2 0 10 30 9 47 -1 6
-4 14 -3 18 3 4 6 12 7 23 1 9 -5 26 -5 40 0 15 6 21 5 17 -1 -4 -7 3 -7 19 0
18 6 26 6 26 -1 0 -6 5 -7 12 -3 7 4 53 9 103 11 96 3 220 11 220 13 0 1 23 4
50 5 28 2 50 4 50 5 0 2 9 3 95 14 69 8 103 14 160 26 25 5 59 12 75 14 143
23 453 110 640 180 35 14 66 22 69 19 3 -4 6 -2 6 4 0 10 21 20 63 29 10 2 28
10 40 16 12 7 24 13 27 13 3 0 34 14 70 30 36 17 65 28 65 25 0 -3 14 5 32 18
17 12 38 22 47 22 9 0 16 5 16 10 0 6 9 10 19 10 11 0 21 3 23 8 2 4 23 17 48
30 25 12 72 38 105 57 33 19 71 40 85 47 14 7 30 16 35 20 6 4 80 53 165 110
85 56 157 104 160 107 8 10 75 58 82 60 4 1 20 14 36 29 34 31 75 66 140 120
124 101 432 409 432 431 0 5 4 11 9 13 9 3 100 109 151 176 14 18 33 43 43 54
9 12 17 24 17 27 0 3 10 17 23 31 34 38 263 394 264 410 0 3 11 23 24 45 14
22 43 76 65 120 21 44 43 83 47 86 5 3 8 9 8 13 -1 3 9 30 22 59 57 123 67
149 115 277 81 217 158 476 188 634 2 11 6 32 9 46 4 14 8 34 9 45 4 23 14 78
21 115 11 60 31 219 40 325 2 25 6 49 9 54 4 5 2 12 -4 16 -6 4 -7 11 -3 18 3
6 7 50 8 98 1 47 5 92 9 98 4 6 4 11 -1 11 -4 0 -8 11 -8 25 0 14 2 25 5 25 7
0 3 77 -5 90 -3 6 -1 10 5 10 6 0 8 5 4 12 -4 6 -8 57 -10 112 -2 56 -5 124
-8 151 -3 28 -8 73 -11 100 -3 28 -7 68 -9 90 -2 22 -7 59 -11 82 l-7 43 203
2 204 3 0 225 c1 124 -1 232 -3 240 -3 13 -38 15 -253 14 -238 -2 -260 1 -265
26 -6 36 -61 205 -99 305 -15 39 -28 75 -29 80 -2 6 -8 21 -13 35 -6 14 -20
48 -31 75 -11 28 -41 95 -67 150 -25 55 -47 102 -47 105 -1 3 -14 27 -30 53
-15 26 -28 50 -28 52 0 18 -232 396 -282 460 -5 6 -32 42 -60 80 -68 92 -62
84 -100 130 -18 22 -37 46 -43 53 -5 7 -25 29 -42 48 -18 20 -33 38 -33 41 0
12 -281 295 -381 383 -34 30 -73 65 -85 78 -13 12 -26 22 -30 22 -4 0 -25 16
-48 36 -22 19 -45 38 -51 42 -5 4 -46 35 -90 68 -44 32 -100 73 -125 89 -25
17 -47 32 -50 35 -3 3 -14 10 -25 17 -11 7 -74 45 -140 84 -129 78 -393 217
-473 248 -27 11 -69 29 -93 40 -24 11 -80 33 -124 49 -44 16 -89 33 -100 38
-11 4 -23 8 -27 9 -5 2 -10 4 -13 5 -3 1 -9 4 -15 5 -5 1 -11 3 -12 5 -2 1
-10 3 -18 5 -8 1 -51 14 -95 28 -65 21 -157 47 -220 62 -5 1 -21 5 -35 8 -14
4 -36 9 -50 11 -14 2 -32 7 -40 10 -15 5 -63 14 -110 21 -14 1 -26 4 -27 5 -2
1 -11 3 -20 5 -10 1 -34 4 -53 8 -44 8 -81 13 -195 26 -49 6 -110 13 -135 17
-46 6 -606 15 -612 9z"/>
<path d="M16058 25717 c-2 -18 3 -63 10 -102 16 -90 18 -97 26 -117 4 -9 9
-23 10 -32 1 -8 5 -19 10 -23 4 -4 15 -25 25 -48 22 -47 126 -165 147 -165 8
0 14 -4 14 -10 0 -5 30 -25 68 -43 131 -66 236 -89 416 -92 71 -1 152 2 180 6
28 5 67 11 86 14 111 17 248 86 328 164 53 53 121 151 126 184 1 7 4 17 8 22
5 9 20 63 24 90 1 6 3 12 4 15 5 14 13 126 11 157 -1 8 -57 11 -206 11 -203 0
-205 0 -206 -22 -2 -58 -25 -161 -41 -181 -73 -91 -122 -114 -265 -120 -217
-8 -322 72 -340 260 l-6 63 -213 0 -213 0 -3 -31z"/>
<path d="M13480 24880 c0 -3 -35 -5 -78 -5 -146 -1 -301 -24 -457 -68 -87 -25
-199 -74 -285 -126 -41 -24 -79 -50 -83 -58 -4 -7 -12 -13 -18 -13 -10 0 -113
-101 -159 -155 -35 -42 -91 -131 -121 -190 -13 -27 -26 -52 -29 -55 -3 -3 -6
-9 -7 -15 -1 -5 -14 -41 -29 -80 -14 -38 -27 -77 -29 -85 -2 -8 -11 -46 -20
-85 -25 -104 -34 -153 -40 -230 -2 -22 -5 -40 -5 -40 -5 0 -11 -141 -12 -275
-1 -199 8 -331 28 -430 3 -14 7 -38 9 -55 27 -199 156 -498 264 -612 12 -12
21 -25 21 -27 0 -22 223 -206 248 -206 6 0 12 -4 14 -9 4 -11 172 -91 191 -91
9 0 18 -4 21 -9 3 -5 18 -11 33 -14 16 -3 46 -10 68 -17 22 -6 56 -13 75 -16
19 -3 42 -8 50 -11 18 -7 82 -15 132 -17 21 0 38 -4 38 -7 0 -8 453 -3 500 6
32 5 93 17 160 29 14 3 35 7 48 10 12 4 30 8 40 10 37 9 119 38 167 60 28 13
65 29 83 37 17 8 32 17 32 21 0 5 4 8 9 8 9 0 95 56 125 81 124 104 214 222
283 369 33 68 73 172 78 200 1 3 11 46 23 95 12 50 24 108 27 130 4 22 9 54
11 70 3 17 7 58 9 92 2 34 6 66 8 70 7 12 0 458 -8 533 -4 36 -12 71 -17 78
-7 8 -7 12 0 12 7 0 7 14 0 43 -10 43 -12 51 -23 122 -4 22 -10 49 -14 60 -5
11 -18 54 -31 95 -32 106 -111 263 -170 341 -110 146 -279 271 -445 327 -16 6
-39 14 -50 18 -24 9 -20 7 -75 23 -60 17 -83 22 -200 40 -110 17 -390 32 -390
21z m228 -494 c5 -3 27 -8 48 -12 57 -8 152 -42 212 -76 50 -28 163 -131 190
-173 55 -86 123 -265 136 -360 3 -22 8 -53 11 -70 4 -16 8 -55 9 -86 2 -31 5
-60 8 -65 6 -10 1 -337 -5 -404 -9 -87 -18 -154 -22 -160 -2 -4 -7 -22 -10
-41 -6 -36 -31 -121 -45 -154 -33 -77 -48 -106 -77 -150 -63 -99 -134 -158
-245 -209 -40 -18 -91 -37 -113 -41 -45 -9 -54 -12 -57 -14 -17 -13 -322 -18
-403 -7 -42 6 -80 13 -80 16 0 1 -11 3 -25 6 -14 2 -32 7 -40 11 -8 3 -23 8
-33 9 -9 2 -49 21 -89 41 -82 43 -179 133 -230 213 -51 82 -108 229 -122 320
-3 19 -8 46 -11 59 -19 96 -27 459 -11 576 4 33 9 77 12 99 16 138 89 328 164
427 71 95 203 187 305 214 17 5 37 10 45 12 21 6 46 11 105 21 54 10 357 8
373 -2z"/>
<path d="M10137 24854 c-1 -1 -65 -5 -142 -8 -143 -7 -166 -8 -340 -21 -117
-8 -119 -8 -125 -17 -3 -3 -5 -653 -5 -1445 0 -1131 3 -1438 13 -1439 6 -1 13
-2 15 -3 8 -7 147 -5 147 2 0 4 9 3 19 -3 13 -7 22 -7 26 0 4 7 12 7 25 0 13
-7 21 -7 25 0 4 6 11 7 17 4 16 -10 68 -11 68 -1 0 5 5 5 11 1 16 -9 129 -11
129 -1 0 4 8 3 18 -2 10 -5 23 -7 29 -3 7 5 11 136 11 422 1 228 1 423 1 433
1 16 10 17 114 11 201 -11 386 -7 542 12 22 3 54 7 70 9 17 2 31 4 33 5 2 3 5
4 52 13 19 4 44 9 55 11 87 19 255 90 312 132 17 13 35 24 40 24 9 0 138 124
163 157 63 83 137 246 155 343 3 14 8 39 11 55 4 17 8 44 10 60 1 17 3 30 4
30 6 0 12 118 12 235 0 122 -3 177 -16 250 -3 14 -8 43 -11 65 -12 71 -54 181
-97 255 -37 65 -167 210 -188 210 -5 0 -15 6 -22 13 -31 31 -226 116 -301 131
-12 3 -33 8 -47 11 -36 9 -58 12 -115 19 -27 4 -61 9 -75 12 -51 12 -132 15
-383 18 -142 1 -259 1 -260 0z m508 -482 c137 -25 149 -29 223 -66 83 -41 163
-139 187 -231 40 -150 39 -363 -4 -502 -5 -18 -8 -33 -5 -33 2 0 -10 -24 -28
-52 -64 -108 -182 -191 -303 -214 -5 -1 -12 -3 -15 -4 -7 -3 -46 -9 -115 -17
-114 -13 -486 -6 -501 10 -5 4 -8 771 -5 1058 l1 56 62 2 c35 1 64 4 65 5 8 8
385 -3 438 -12z"/>
<path d="M27397 24854 c-1 -1 -65 -5 -142 -8 -147 -7 -208 -10 -340 -21 -44
-4 -91 -8 -105 -8 -23 -2 -25 -6 -25 -50 0 -26 -4 -47 -10 -47 -7 0 -7 -3 0
-8 6 -4 10 -69 10 -157 0 -88 -4 -153 -10 -157 -7 -5 -7 -8 0 -8 6 0 9 -17 7
-37 -2 -21 -2 -47 -2 -58 1 -11 1 -28 1 -37 -1 -35 -1 -45 1 -191 2 -91 -1
-149 -7 -151 -7 -3 -6 -5 0 -5 6 -1 9 -18 7 -38 -2 -21 -2 -47 -2 -58 1 -11 1
-28 1 -37 -1 -35 -1 -45 1 -191 2 -93 -1 -147 -7 -147 -7 0 -7 -3 0 -8 6 -4
10 -69 10 -157 0 -88 -4 -153 -10 -157 -7 -5 -7 -8 0 -8 6 0 9 -17 7 -37 -2
-21 -2 -47 -2 -58 1 -11 1 -28 1 -37 -1 -35 -1 -45 1 -191 2 -91 -1 -149 -7
-151 -7 -3 -6 -5 0 -5 6 -1 9 -18 7 -38 -2 -21 -2 -47 -2 -58 1 -11 1 -28 1
-37 -1 -35 -1 -45 1 -191 2 -91 -1 -149 -7 -151 -7 -3 -7 -5 0 -5 6 -1 10 -45
9 -113 -1 -112 6 -138 32 -117 8 7 14 6 19 -1 4 -7 12 -7 24 0 10 5 21 7 23 5
9 -9 98 -11 98 -2 0 4 8 3 18 -2 13 -7 23 -6 30 1 9 9 12 9 12 0 0 -8 7 -9 25
-2 14 5 25 6 25 2 0 -7 45 -8 60 -2 3 1 10 1 15 0 21 -5 104 -2 114 5 6 3 11
2 11 -4 0 -7 8 -7 23 -2 l22 8 1 424 c1 233 2 427 3 432 1 4 45 5 99 1 200
-12 493 -4 561 16 20 5 31 5 31 -1 0 -6 6 -7 13 -2 6 4 17 8 22 9 47 7 138 28
175 40 25 7 48 14 53 14 4 0 21 7 37 15 16 8 31 14 32 13 6 -5 158 76 158 84
0 4 6 8 13 8 24 0 137 106 193 182 66 90 132 241 149 339 3 19 8 41 10 49 22
83 35 394 20 490 -3 19 -8 57 -10 84 -3 27 -11 56 -18 65 -10 12 -9 13 2 6 11
-6 12 -5 5 6 -4 8 -10 21 -12 29 -16 77 -77 210 -127 275 -27 35 -97 104 -140
139 -43 34 -161 96 -169 89 -3 -4 -6 -1 -6 5 0 7 -3 11 -7 11 -5 -1 -11 0 -15
1 -5 1 -11 3 -15 5 -5 1 -20 7 -36 13 -15 7 -39 14 -52 16 -14 3 -30 8 -35 11
-6 4 -21 8 -33 10 -49 6 -135 21 -139 24 -2 1 -21 4 -43 6 -22 1 -62 6 -90 10
-43 6 -562 14 -568 9z m483 -478 c79 -12 94 -15 128 -25 17 -5 32 -8 32 -6 0
2 31 -12 68 -30 114 -55 206 -181 219 -299 1 -17 5 -44 8 -61 7 -44 7 -214 0
-260 -13 -86 -21 -120 -35 -144 -6 -12 -8 -21 -5 -21 4 0 -3 -13 -14 -29 -11
-15 -18 -30 -16 -33 3 -3 -20 -31 -50 -62 -51 -53 -142 -107 -201 -121 -11 -2
-37 -9 -59 -14 -111 -28 -385 -33 -615 -11 -4 0 -5 1068 -1 1105 1 6 27 12 58
13 32 2 59 4 60 6 6 5 382 -2 423 -8z"/>
<path d="M15580 24832 c-7 -3 -10 -496 -10 -1452 0 -1511 -1 -1485 40 -1460 8
5 18 6 23 3 14 -9 147 -9 147 0 0 4 9 3 19 -3 13 -6 22 -7 26 0 4 6 15 6 30 0
16 -6 25 -6 25 0 0 6 9 6 25 0 15 -6 26 -6 30 1 4 5 11 6 17 3 13 -9 146 -9
155 -1 3 4 12 2 18 -3 16 -13 17 -12 120 151 46 74 93 145 105 159 11 14 20
31 20 38 0 6 5 12 10 12 6 0 10 4 10 10 0 9 78 133 117 188 9 13 22 32 27 43
27 48 231 364 238 367 4 2 8 7 8 12 0 7 57 100 77 125 4 6 25 39 47 73 51 85
103 164 116 179 5 7 10 17 10 22 0 6 7 14 16 19 9 5 15 12 13 16 -1 5 3 15 9
25 7 9 25 36 41 61 16 25 58 90 93 145 79 123 118 193 258 460 29 55 54 102
56 104 2 2 1 -27 -2 -65 -3 -38 -7 -103 -9 -144 -3 -41 -6 -87 -8 -102 -3 -16
0 -28 4 -28 5 0 5 -10 0 -22 -4 -13 -8 -432 -7 -932 l1 -909 23 -8 c15 -6 21
-5 17 1 -4 6 2 7 17 2 26 -9 60 -8 77 2 6 4 11 2 11 -4 0 -8 6 -8 20 0 14 8
20 8 20 0 0 -7 6 -8 19 0 14 7 22 7 26 0 4 -7 11 -7 18 -2 12 9 44 8 54 -2 3
-3 14 -1 24 4 12 7 20 7 24 0 4 -7 13 -7 26 0 12 7 19 7 19 1 0 -6 11 -6 30
-1 19 5 30 5 30 -1 0 -6 7 -6 19 1 13 7 22 7 26 0 4 -7 12 -7 24 0 10 5 20 7
23 5 2 -3 4 650 4 1450 -1 1452 -1 1455 -21 1455 -11 1 -139 1 -285 2 l-265 1
-63 -91 c-34 -51 -59 -92 -55 -92 5 0 4 -4 -2 -8 -11 -7 -31 -37 -169 -250
-47 -73 -86 -137 -86 -143 0 -5 -4 -9 -10 -9 -5 0 -10 -7 -10 -15 0 -8 -3 -15
-8 -15 -4 0 -18 -20 -32 -45 -14 -25 -29 -45 -34 -45 -5 0 -7 -3 -4 -6 4 -3
-14 -34 -38 -70 -24 -35 -44 -68 -44 -73 0 -5 -3 -11 -8 -13 -4 -1 -54 -77
-112 -168 -58 -91 -108 -169 -113 -175 -4 -5 -28 -41 -52 -80 -24 -38 -49 -75
-54 -82 -6 -7 -11 -17 -11 -22 0 -5 -6 -16 -13 -23 -7 -7 -37 -51 -66 -98 -30
-47 -78 -121 -106 -165 -29 -44 -71 -114 -95 -155 -23 -41 -54 -95 -68 -120
-14 -25 -47 -88 -74 -140 -40 -80 -53 -96 -50 -59 6 62 15 197 17 279 2 58 5
105 5 105 1 0 3 398 4 884 1 717 -1 884 -12 889 -14 5 -516 9 -532 4z"/>
<path d="M20058 24832 l-28 -3 0 -1455 c0 -968 3 -1453 10 -1449 6 3 10 2 10
-2 0 -7 44 -9 60 -3 3 1 10 1 15 0 29 -6 135 -4 135 3 0 4 9 3 19 -3 13 -6 22
-7 26 0 4 6 15 6 30 0 16 -6 25 -6 25 0 0 6 9 6 25 0 15 -6 26 -6 30 1 4 5 11
6 17 3 16 -10 69 -11 75 -1 3 4 11 3 18 -3 9 -8 15 -8 20 0 3 6 11 8 16 5 5
-4 9 34 9 92 2 381 -2 1765 -5 1838 -1 50 -6 146 -9 215 -6 137 -9 137 51 0
19 -41 41 -88 50 -105 10 -16 16 -31 15 -32 -2 -4 25 -67 65 -153 35 -74 55
-120 58 -130 0 -3 9 -23 19 -45 26 -55 78 -168 111 -240 15 -33 40 -87 55
-120 37 -80 83 -179 135 -295 24 -52 62 -135 85 -185 22 -49 57 -126 77 -170
38 -83 58 -109 76 -98 16 10 117 9 117 0 0 -5 6 -5 13 0 17 10 147 10 147 -1
0 -5 6 -4 13 1 6 6 40 8 75 7 l63 -3 27 57 c14 31 27 59 27 62 1 3 18 41 39
85 21 44 51 107 66 140 15 33 46 100 69 148 22 49 41 90 41 92 0 2 22 50 49
107 27 56 59 126 71 153 25 57 80 176 115 250 13 28 36 79 50 115 29 70 60
143 75 175 6 11 37 83 70 160 l60 140 -5 -115 c-3 -63 -8 -167 -11 -230 -3
-63 -6 -519 -6 -1013 -1 -664 2 -901 11 -910 7 -7 11 -7 11 0 0 10 47 10 57
-1 3 -3 14 -1 24 4 12 7 20 7 24 0 4 -7 13 -7 26 0 13 8 19 7 19 0 0 -7 6 -8
18 -1 11 6 24 6 35 0 11 -7 17 -7 17 0 0 7 8 7 25 1 16 -6 25 -6 25 1 0 6 7 6
18 2 20 -10 64 -9 81 1 6 4 11 2 11 -4 0 -8 6 -8 20 0 14 8 20 8 20 0 0 -8 6
-8 20 0 14 8 20 8 20 0 0 -7 6 -8 18 -2 9 5 25 8 35 7 9 -2 14 1 11 7 -6 9 -9
198 -4 223 1 6 1 15 0 20 -2 13 -2 87 0 100 1 6 1 15 0 20 -2 13 -2 87 0 100
1 6 1 15 0 20 -5 25 -2 124 4 134 4 6 4 11 -1 11 -7 0 -9 64 -3 80 2 3 1 10 0
15 -2 13 -2 87 0 100 1 6 1 15 0 20 -2 13 -2 87 0 100 1 6 1 15 0 20 -2 12 -2
206 0 220 1 6 1 15 0 20 -2 13 -2 87 0 100 1 6 1 14 0 20 -2 12 -2 127 0 140
2 6 1 15 0 20 -2 13 -2 87 0 100 1 6 1 15 0 20 -2 12 -2 206 0 220 1 6 1 15 0
20 -2 13 -2 87 0 100 1 6 1 15 0 20 -2 13 -2 87 0 100 1 6 1 15 0 20 -5 25 -2
124 4 134 4 6 4 11 -1 11 -7 0 -9 64 -3 80 2 3 1 10 0 15 -2 13 -2 87 0 100 1
6 1 15 0 20 -2 13 -2 87 0 100 1 6 1 15 0 20 -2 12 -2 206 0 220 1 6 1 15 0
20 -1 6 -2 29 -1 53 1 38 -1 42 -24 43 -14 0 -153 0 -310 0 -157 0 -305 0
-331 0 -42 -1 -46 -3 -61 -38 -8 -21 -30 -69 -48 -108 -71 -150 -124 -266
-126 -273 -1 -6 -18 -42 -99 -217 -15 -33 -34 -76 -43 -95 -16 -37 -57 -125
-126 -273 -23 -49 -41 -90 -41 -92 0 -2 -18 -41 -39 -87 -82 -176 -121 -260
-121 -264 0 -2 -25 -56 -55 -119 -30 -64 -55 -120 -55 -125 0 -5 -7 -7 -15 -4
-8 3 -14 9 -13 12 2 11 -10 38 -106 245 -20 42 -36 81 -36 86 0 5 -5 11 -10
13 -6 2 -12 13 -13 26 0 12 -5 22 -9 22 -4 0 -8 4 -8 9 0 5 -15 42 -34 83 -19
40 -48 105 -66 143 -18 39 -59 129 -92 200 -73 157 -82 178 -80 187 1 3 -5 12
-13 18 -8 7 -15 16 -15 21 0 5 -14 39 -31 76 -17 38 -43 93 -56 123 -14 30
-56 120 -93 200 -36 80 -75 164 -85 188 -10 23 -24 42 -29 43 -40 2 -696 3
-718 1z"/>
<path d="M24634 24832 c-29 -3 -32 -7 -74 -125 -24 -67 -47 -124 -52 -125 -4
-2 -5 -8 -2 -13 3 -6 0 -16 -6 -24 -7 -8 -9 -15 -5 -15 4 0 3 -6 -3 -12 -5 -7
-15 -29 -20 -48 -6 -19 -20 -60 -32 -90 -12 -30 -26 -71 -32 -90 -5 -19 -16
-48 -23 -65 -23 -54 -88 -240 -88 -252 0 -7 -4 -13 -7 -13 -4 0 -12 -17 -18
-37 -5 -21 -31 -94 -57 -163 -25 -69 -60 -163 -76 -210 -16 -47 -34 -93 -39
-102 -6 -10 -10 -22 -10 -27 0 -5 -5 -22 -11 -38 -6 -15 -11 -30 -11 -33 -1
-3 -14 -36 -30 -75 -16 -38 -28 -71 -27 -73 0 -2 -8 -26 -19 -55 -30 -77 -162
-440 -167 -457 -3 -14 -47 -135 -62 -170 -3 -8 -7 -19 -8 -25 -4 -16 -46 -127
-60 -160 -7 -16 -22 -57 -33 -90 -11 -33 -41 -116 -66 -185 -44 -117 -45 -126
-29 -138 11 -8 19 -9 21 -2 2 6 10 7 22 0 13 -7 21 -7 25 0 4 6 11 7 17 4 15
-9 128 -10 128 -1 0 4 8 3 18 -2 13 -7 23 -6 30 1 9 9 12 9 12 0 0 -8 7 -9 26
-2 14 6 23 7 21 2 -4 -6 48 -8 63 -2 3 1 10 1 15 0 10 -2 57 -3 106 -1 25 1
30 9 64 109 20 59 43 123 52 142 8 20 15 42 17 50 2 8 6 22 9 30 3 8 24 69 47
135 61 176 73 209 81 215 4 3 260 5 570 4 l562 -1 29 -79 c15 -43 37 -106 49
-139 11 -33 24 -69 29 -80 11 -26 55 -149 55 -155 2 -13 38 -116 45 -125 4 -5
13 -32 20 -58 7 -26 15 -45 18 -43 2 3 13 1 23 -5 13 -6 25 -6 39 1 14 8 20 8
20 0 0 -8 6 -8 20 0 14 8 20 8 20 0 0 -8 6 -8 20 0 14 8 20 8 20 0 0 -7 6 -8
18 -2 17 9 49 8 59 -2 3 -3 14 -1 24 5 13 6 19 6 19 0 0 -7 9 -7 25 -1 14 5
25 6 25 2 0 -9 42 -8 57 1 7 4 14 3 18 -3 4 -7 12 -7 25 0 13 7 21 7 25 0 5
-8 11 -8 20 0 9 7 15 7 19 1 6 -10 37 -8 55 3 5 4 12 0 14 -6 3 -7 6 -4 6 7 1
11 -19 73 -43 137 -24 65 -41 120 -38 123 3 3 1 5 -5 5 -5 0 -10 6 -10 13 0
10 -18 61 -68 192 -5 11 -9 27 -11 35 -2 8 -7 23 -12 35 -6 11 -15 34 -21 50
-6 17 -16 44 -22 60 -7 17 -14 38 -16 48 -1 10 -10 31 -18 47 -8 16 -16 37
-18 47 -2 10 -10 34 -19 53 -8 19 -23 60 -33 90 -10 30 -21 60 -25 65 -5 6 -9
15 -10 20 -3 14 -9 32 -17 53 -3 9 -8 23 -10 30 -1 6 -5 18 -7 25 -1 6 -10 29
-20 49 -9 21 -16 42 -16 47 0 6 -6 25 -14 43 -8 18 -30 76 -49 128 -19 52 -38
104 -42 115 -5 11 -7 23 -7 28 1 4 -2 7 -6 7 -4 0 -8 8 -9 18 -1 14 -72 212
-103 287 -10 25 -54 148 -55 155 -1 3 -9 22 -18 44 -9 21 -17 46 -17 55 0 9
-7 25 -15 35 -8 11 -15 29 -15 41 0 12 -4 25 -9 31 -7 8 -79 202 -84 229 -1 6
-4 12 -7 15 -4 3 -13 28 -22 55 -9 28 -25 74 -37 103 -11 28 -18 52 -15 52 3
0 -2 10 -10 22 -9 12 -16 29 -16 38 0 8 -6 26 -13 40 -7 14 -21 51 -31 83 -12
39 -23 57 -34 57 -91 3 -564 4 -588 2z m314 -720 c18 -53 35 -104 37 -112 2
-8 4 -16 4 -17 1 -2 0 -5 -1 -6 -2 -2 3 -11 11 -20 7 -10 10 -17 6 -17 -4 0 0
-11 9 -25 9 -14 14 -25 12 -25 -3 0 3 -20 14 -45 11 -25 20 -49 21 -53 2 -9 5
-17 29 -87 12 -33 23 -64 24 -70 2 -5 6 -19 10 -30 32 -85 38 -100 37 -103 -1
-1 6 -18 14 -38 8 -20 15 -43 15 -50 0 -8 4 -22 9 -32 9 -17 22 -48 27 -67 1
-5 21 -61 43 -124 23 -62 41 -115 41 -117 0 -2 -182 -4 -405 -4 -223 0 -405 2
-405 4 0 2 7 20 15 40 8 20 16 39 16 43 1 5 5 18 10 31 5 13 9 26 9 30 0 4 21
63 46 132 25 69 47 130 48 135 2 6 6 17 9 25 31 80 67 190 67 202 0 9 7 21 15
28 8 7 14 18 14 24 -1 6 0 18 4 26 3 8 7 24 10 35 6 25 55 160 72 200 7 17 23
65 36 108 13 42 28 77 34 77 5 0 25 -44 43 -98z"/>
<path d="M29590 24832 l-55 -3 0 -1450 c0 -1440 0 -1449 20 -1456 28 -10 47
-10 68 0 10 5 17 4 17 -3 0 -8 6 -8 20 0 14 8 20 8 20 0 0 -8 6 -8 20 0 14 8
20 8 20 0 0 -7 6 -8 18 -2 17 9 49 8 59 -2 3 -3 14 -1 24 5 13 6 19 6 19 0 0
-7 9 -7 25 -1 14 5 25 6 25 2 0 -9 42 -8 57 1 7 4 14 3 18 -3 4 -7 12 -7 25 0
13 7 21 7 25 0 5 -8 11 -8 20 0 9 7 15 8 19 1 4 -6 13 -8 21 -4 13 4 15 90 15
634 l0 629 120 0 c102 0 122 -3 135 -17 8 -10 58 -72 110 -138 53 -66 107
-133 121 -149 13 -16 34 -43 46 -59 13 -17 33 -41 46 -53 12 -13 22 -26 22
-29 0 -5 57 -78 95 -121 6 -6 22 -26 37 -45 14 -19 36 -45 47 -59 26 -31 29
-35 71 -90 19 -24 40 -49 45 -55 6 -7 22 -27 37 -46 58 -74 84 -106 95 -119 7
-8 36 -44 65 -80 29 -36 58 -71 65 -78 7 -7 13 -16 13 -20 0 -13 100 -116 100
-104 0 10 5 10 20 2 13 -7 20 -7 20 -1 0 7 9 7 25 1 16 -6 25 -6 25 1 0 6 7 6
18 2 20 -10 64 -9 81 1 6 4 11 2 11 -4 0 -8 6 -8 20 0 14 8 20 8 20 0 0 -8 6
-8 20 0 14 8 20 8 20 0 0 -7 6 -8 18 -2 17 9 49 8 59 -2 3 -3 14 -1 24 5 13 6
19 6 19 0 0 -7 9 -7 25 -1 14 5 25 6 25 2 0 -9 42 -8 57 1 7 4 14 3 18 -3 4
-7 12 -7 25 0 13 7 21 7 25 0 5 -8 11 -8 19 -1 8 7 16 7 22 1 5 -5 15 -5 23
-1 14 9 0 33 -41 70 -10 8 -18 20 -18 25 0 5 -8 16 -18 25 -10 9 -31 34 -47
56 -17 22 -33 42 -36 45 -3 3 -93 113 -199 245 -107 132 -197 242 -200 245 -3
3 -50 61 -105 130 -55 69 -112 138 -127 155 -16 16 -28 33 -28 37 0 4 -10 17
-23 30 -13 13 -79 93 -148 178 -68 85 -131 163 -139 174 -8 10 -32 39 -53 63
-36 43 -37 45 -20 67 23 28 43 52 64 76 9 10 21 24 25 33 5 8 25 34 45 58 20
24 83 103 140 174 57 72 108 135 114 141 5 7 21 26 35 44 21 28 103 129 135
167 21 26 34 42 130 163 54 69 102 127 105 130 3 3 19 23 35 45 17 22 32 42
35 45 3 3 23 28 45 55 21 28 42 52 45 55 3 3 19 23 36 44 16 22 42 54 57 70
16 17 33 39 38 49 12 20 48 18 -349 19 -295 0 -304 0 -318 -20 -8 -12 -21 -28
-29 -36 -8 -8 -15 -17 -15 -20 0 -3 -164 -225 -213 -286 -7 -9 -59 -78 -117
-155 -57 -77 -110 -146 -117 -153 -7 -7 -13 -16 -13 -20 0 -4 -13 -21 -28 -39
-15 -17 -61 -78 -102 -134 -41 -56 -80 -107 -85 -113 -6 -6 -22 -27 -35 -46
-29 -42 -40 -56 -61 -79 -8 -10 -18 -25 -22 -34 -3 -9 -11 -17 -17 -17 -5 0
-10 -6 -10 -13 0 -34 -33 -44 -147 -46 l-113 -2 0 606 0 605 -27 1 c-145 2
-429 3 -473 1z"/>
<path d="M32497 24832 c-18 -2 -25 -7 -20 -15 10 -17 11 -67 0 -67 -4 0 -5 -6
-1 -12 11 -17 11 -128 0 -128 -5 0 -4 -6 0 -12 11 -16 11 -68 1 -85 -5 -7 -5
-13 0 -13 4 0 8 -16 8 -35 0 -19 -4 -35 -8 -35 -5 0 -5 -5 -1 -12 12 -19 11
-168 -1 -168 -7 0 -7 -3 0 -8 12 -8 15 -72 3 -72 -4 0 -4 -10 1 -22 4 -13 6
-32 4 -43 -2 -11 -4 -24 -4 -30 6 -88 5 -122 -2 -132 -5 -7 -6 -13 -1 -13 11
0 11 -91 0 -108 -4 -7 -3 -12 2 -12 4 0 7 -17 5 -37 -4 -50 -4 -53 0 -90 2
-18 -1 -33 -6 -33 -6 0 -6 -5 -1 -12 11 -16 11 -68 1 -85 -5 -7 -5 -13 0 -13
4 0 8 -16 8 -35 0 -19 -4 -35 -8 -35 -5 0 -5 -5 -1 -12 12 -19 11 -168 -1
-168 -7 0 -7 -3 0 -8 12 -8 15 -72 3 -72 -4 0 -4 -10 1 -22 4 -13 6 -32 4 -43
-2 -11 -4 -24 -4 -30 6 -88 5 -122 -2 -132 -5 -7 -6 -13 -1 -13 11 0 11 -91 0
-108 -4 -7 -3 -12 2 -12 4 0 7 -17 5 -37 -4 -44 -4 -42 0 -110 1 -32 -2 -53
-8 -53 -7 0 -7 -3 0 -8 12 -8 15 -72 3 -72 -4 0 -4 -10 1 -22 4 -13 6 -32 4
-43 -2 -11 -4 -24 -4 -30 6 -88 5 -122 -2 -132 -5 -7 -6 -13 -1 -13 11 0 11
-91 0 -108 -4 -7 -3 -12 2 -12 4 0 7 -17 5 -37 -4 -48 -4 -48 -1 -111 2 -30 0
-56 -4 -58 -5 -3 -4 -13 1 -22 4 -9 6 -23 4 -29 -9 -25 21 -38 85 -37 35 1 66
4 69 7 3 4 14 2 24 -4 13 -6 19 -6 19 0 0 7 9 7 25 1 16 -6 25 -6 25 1 0 6 7
6 18 2 20 -10 64 -9 81 1 6 4 11 2 11 -4 0 -8 6 -8 20 0 14 8 20 8 20 0 0 -8
6 -8 20 0 14 8 20 8 20 0 0 -7 6 -8 18 -2 17 9 49 8 59 -2 3 -3 14 -1 24 5 13
6 19 6 19 0 0 -7 9 -7 25 -1 14 5 25 6 25 2 0 -9 42 -8 57 1 7 4 14 3 18 -3 4
-7 12 -7 25 0 13 7 21 7 25 0 5 -8 11 -8 20 0 9 8 15 8 20 0 4 -6 12 -7 24 -1
10 6 23 6 31 1 8 -5 22 -4 32 1 12 6 18 6 18 0 0 -7 9 -7 25 -1 14 5 25 6 25
2 0 -9 42 -8 57 1 7 4 14 3 18 -3 4 -7 12 -7 25 0 13 7 21 7 25 0 5 -8 11 -8
20 0 9 7 15 7 19 1 6 -10 37 -8 56 4 6 3 10 1 10 -5 0 -8 6 -8 20 0 14 8 20 8
20 0 0 -7 6 -8 19 0 14 7 22 7 26 0 4 -7 11 -7 18 -2 12 9 44 8 54 -2 3 -3 14
-1 24 4 12 7 20 7 24 0 4 -7 13 -7 26 0 13 8 19 7 19 0 0 -7 6 -8 18 -1 11 6
24 6 35 0 11 -7 17 -7 17 0 0 7 8 7 25 1 16 -6 25 -6 25 1 0 6 7 6 18 2 20
-10 64 -9 81 1 6 4 11 2 11 -4 0 -8 6 -8 20 0 14 8 20 8 20 0 0 -8 6 -8 20 0
14 8 20 8 20 0 0 -7 6 -7 21 0 15 8 24 8 34 0 9 -8 15 -8 20 0 4 7 12 7 26 0
13 -8 19 -7 19 0 0 7 6 8 19 0 12 -6 22 -6 25 -1 3 5 14 7 24 5 16 -5 17 10
17 230 0 129 -4 238 -8 242 -4 4 -310 9 -680 9 -369 1 -674 3 -677 3 -4 2 -5
734 -1 752 0 3 275 5 611 5 539 0 610 1 611 15 7 99 2 440 -6 443 -5 2 -279 3
-608 3 -389 -1 -601 3 -606 9 -4 6 -7 168 -6 360 l0 350 674 2 c371 2 680 4
685 6 7 2 11 82 11 240 0 230 -1 237 -20 238 -83 2 -1866 3 -1888 1z"/>
<path d="M34813 24832 l-23 -3 0 -240 0 -239 434 0 434 0 4 -45 c2 -25 0 -45
-5 -45 -4 0 -3 -9 3 -19 5 -11 6 -22 2 -25 -5 -3 -5 -30 -2 -60 3 -31 2 -56
-2 -56 -5 0 -4 -9 2 -19 5 -11 7 -22 3 -24 -5 -3 -6 -57 -3 -121 3 -64 1 -116
-3 -116 -4 0 -3 -9 3 -19 6 -12 6 -22 1 -25 -5 -3 -5 -21 -1 -41 5 -21 4 -35
-1 -35 -6 0 -5 -8 1 -19 6 -12 6 -22 1 -25 -5 -3 -5 -21 -1 -41 5 -21 4 -35
-1 -35 -6 0 -5 -8 1 -19 5 -11 7 -22 3 -24 -5 -3 -6 -57 -3 -121 3 -64 1 -116
-3 -116 -4 0 -3 -9 3 -19 5 -11 6 -22 2 -25 -5 -3 -5 -30 -2 -60 3 -31 2 -56
-2 -56 -5 0 -4 -9 2 -19 5 -11 7 -22 3 -24 -5 -3 -6 -57 -3 -121 3 -64 1 -116
-3 -116 -4 0 -3 -9 3 -19 6 -12 6 -22 1 -25 -5 -3 -5 -21 -1 -41 5 -21 4 -35
-1 -35 -6 0 -5 -8 1 -19 6 -12 6 -22 1 -25 -5 -3 -5 -21 -1 -41 5 -21 4 -35
-1 -35 -6 0 -5 -8 1 -19 5 -11 7 -22 3 -24 -5 -3 -6 -57 -3 -121 3 -64 1 -116
-3 -116 -4 0 -3 -9 3 -19 5 -11 6 -22 2 -25 -5 -3 -5 -30 -2 -60 3 -31 2 -56
-2 -56 -5 0 -4 -8 1 -19 6 -10 8 -21 4 -24 -9 -10 -3 -201 7 -211 11 -11 110
-14 103 -4 -2 5 6 4 19 0 26 -9 60 -8 77 2 6 4 11 2 11 -4 0 -8 6 -8 20 0 14
8 20 8 20 0 0 -7 6 -8 19 0 14 7 22 7 26 0 4 -7 11 -7 18 -2 12 9 44 8 54 -2
3 -3 14 -1 24 4 12 7 20 7 24 0 4 -7 13 -7 26 0 10 6 19 7 19 3 0 -10 68 -9
77 1 4 3 8 550 8 1214 1 664 3 1209 4 1212 0 3 196 4 435 2 l434 -2 0 240 -1
240 -26 1 c-108 2 -2231 3 -2248 1z"/>
<path d="M37645 24830 l-29 -5 -1 -1440 c0 -792 1 -1446 3 -1452 2 -7 8 -11
12 -8 5 3 11 1 15 -5 4 -7 12 -7 25 0 13 7 21 7 25 0 5 -8 11 -8 20 0 9 7 15
7 19 1 6 -10 37 -8 56 4 6 3 10 1 10 -5 0 -8 6 -8 20 0 14 8 20 8 20 0 0 -7 6
-8 19 0 14 7 22 7 26 0 4 -7 11 -7 18 -2 12 9 44 8 54 -2 3 -3 14 -1 24 4 12
7 20 7 24 0 4 -7 13 -7 26 0 10 6 19 7 19 3 0 -4 16 -8 35 -8 19 0 35 3 35 7
0 4 11 3 25 -2 16 -6 25 -6 25 0 0 5 6 7 13 4 11 -4 78 87 96 130 2 6 8 15 13
21 13 14 118 176 118 181 0 2 16 27 35 54 19 27 35 54 35 59 0 6 6 14 13 18 6
4 21 24 31 43 11 19 43 71 71 115 29 44 130 202 225 350 95 149 178 273 184
277 6 4 8 8 4 8 -4 0 46 82 111 183 152 236 242 382 266 432 11 22 22 42 25
45 3 3 14 24 24 48 11 23 22 42 27 42 4 0 10 13 14 30 4 16 10 32 15 35 4 3
22 34 39 70 17 36 33 65 35 65 3 0 0 -47 -9 -180 -3 -41 -7 -126 -9 -188 -2
-63 -7 -116 -10 -119 -3 -3 -1 -13 4 -23 5 -10 7 -20 4 -22 -7 -8 -6 -437 1
-448 3 -6 3 -10 -2 -10 -9 0 -9 -200 0 -224 4 -9 3 -16 -1 -16 -8 0 -6 -204 2
-226 3 -8 2 -14 -2 -14 -8 0 -7 -201 1 -224 4 -9 3 -16 -1 -16 -8 0 -6 -204 2
-226 3 -8 2 -14 -2 -14 -4 0 -6 -55 -5 -122 1 -106 4 -124 19 -135 12 -9 20
-10 22 -3 2 6 10 7 22 0 13 -7 21 -7 25 0 4 6 13 7 23 1 9 -5 19 -10 22 -12 3
-1 15 3 28 10 15 8 22 8 22 1 0 -8 6 -8 20 0 14 8 20 8 20 0 0 -7 6 -8 19 0
14 7 22 7 26 0 4 -7 11 -7 18 -2 12 9 44 8 54 -2 3 -3 14 -1 24 4 12 7 20 7
24 0 4 -7 13 -7 26 0 10 6 19 7 19 3 0 -4 16 -8 35 -8 19 0 35 3 35 7 0 4 11
3 25 -2 14 -5 25 -8 26 -7 0 3 0 2899 0 2912 -1 9 -568 13 -575 4 -18 -24
-106 -162 -106 -166 0 -4 -11 -21 -25 -39 -14 -18 -25 -37 -25 -42 0 -5 -9
-17 -20 -27 -11 -10 -20 -24 -20 -32 0 -7 -4 -13 -10 -13 -5 0 -10 -4 -10 -9
0 -8 -72 -124 -97 -157 -15 -19 -33 -49 -50 -81 -9 -18 -20 -33 -25 -33 -4 0
-8 -5 -8 -11 0 -6 -11 -25 -25 -43 -14 -18 -25 -36 -25 -39 0 -4 -16 -29 -35
-56 -19 -26 -35 -53 -35 -59 0 -6 -4 -12 -8 -14 -4 -1 -35 -46 -67 -98 -33
-52 -64 -99 -68 -105 -5 -5 -30 -44 -56 -85 -26 -41 -70 -109 -96 -150 -26
-41 -47 -77 -46 -79 2 -2 -1 -7 -6 -10 -11 -7 -130 -190 -163 -248 -13 -24
-27 -43 -32 -43 -4 0 -8 -5 -8 -11 0 -6 -15 -32 -34 -58 -19 -25 -35 -50 -36
-56 -2 -5 -8 -19 -15 -30 -42 -67 -116 -198 -118 -208 -1 -7 -4 -14 -7 -17
-10 -10 -41 -67 -61 -112 -24 -53 -42 -63 -35 -20 6 33 17 191 21 292 5 120 6
1852 1 1857 -6 7 -486 9 -521 3z"/>
<path d="M40955 24832 l-30 -3 0 -1449 c0 -1422 2 -1506 29 -1461 5 8 13 8 27
1 12 -7 19 -7 19 -1 0 7 9 7 25 1 17 -6 25 -6 25 1 0 6 5 7 11 3 17 -10 61
-11 82 -1 10 5 17 4 17 -3 0 -8 6 -8 20 0 14 8 20 8 20 0 0 -8 6 -8 20 0 14 8
20 8 20 0 0 -7 6 -8 18 -2 17 9 49 8 59 -2 3 -3 14 -1 24 5 13 6 19 6 19 0 0
-7 9 -7 25 -1 14 5 25 6 25 2 0 -6 26 -7 61 -3 3 1 6 270 7 599 0 328 1 609 1
623 l1 27 689 0 688 0 1 -244 c0 -133 3 -248 7 -253 3 -6 3 -11 -2 -11 -10 0
-8 -93 1 -109 4 -6 3 -11 -1 -11 -10 0 -8 -94 2 -110 3 -6 2 -10 -2 -10 -10 0
-8 -94 2 -110 3 -6 2 -10 -2 -10 -10 0 -8 -94 2 -110 3 -6 3 -10 -2 -10 -10 0
-8 -153 1 -169 4 -6 3 -11 -2 -11 -8 0 -6 -69 2 -77 6 -7 116 -7 116 0 0 4 9
3 19 -3 13 -7 22 -7 26 0 4 7 12 7 25 0 13 -7 21 -7 25 0 4 6 11 7 17 4 16
-10 68 -11 68 -1 0 5 5 5 11 1 16 -9 129 -11 129 -1 0 4 9 3 19 -3 13 -6 22
-7 26 0 3 6 15 6 30 0 16 -6 27 -6 31 1 4 8 9 2665 5 2884 l-1 30 -272 0 -273
0 -6 -25 c-3 -14 -2 -35 3 -47 4 -13 4 -23 0 -23 -9 0 -7 -94 2 -109 4 -6 3
-11 -1 -11 -10 0 -8 -94 2 -110 3 -6 2 -10 -2 -10 -10 0 -8 -94 2 -110 3 -6 2
-10 -2 -10 -10 0 -8 -94 2 -110 3 -6 3 -10 -2 -10 -9 0 -8 -154 2 -169 3 -6 3
-11 -2 -11 -4 0 -7 -97 -7 -215 l2 -215 -689 0 -689 0 -1 28 c0 15 -1 278 -1
585 0 454 -3 560 -14 564 -14 5 -460 10 -509 5z"/>
<path d="M44316 24830 l-79 -5 -1 -48 c-1 -27 2 -51 7 -54 4 -2 5 -9 1 -14 -9
-15 -10 -139 -1 -139 5 0 5 -6 1 -12 -11 -17 -12 -48 -3 -48 5 0 6 -6 3 -13
-9 -24 -10 -87 -2 -87 5 0 6 -6 2 -12 -11 -17 -12 -48 -3 -48 5 0 6 -6 3 -13
-9 -24 -10 -87 -2 -87 5 0 6 -6 2 -12 -11 -17 -12 -48 -3 -48 5 0 6 -6 3 -13
-9 -24 -10 -87 -2 -87 5 0 6 -6 2 -12 -11 -17 -12 -48 -3 -48 4 0 4 -14 -1
-30 -5 -19 -5 -28 1 -25 5 4 6 -3 1 -17 -9 -29 -9 -89 1 -105 5 -7 5 -13 0
-13 -4 0 -8 -11 -8 -25 0 -14 3 -25 7 -25 4 0 3 -14 -2 -30 -5 -19 -5 -28 1
-25 5 4 6 -3 1 -17 -4 -13 -6 -42 -5 -65 4 -61 4 -63 1 -115 -2 -25 0 -44 4
-41 5 2 5 -6 0 -19 -9 -29 -9 -89 1 -105 5 -7 5 -13 0 -13 -4 0 -8 -11 -8 -25
0 -14 3 -25 7 -25 4 0 3 -14 -2 -30 -5 -19 -5 -28 1 -25 5 4 6 -3 1 -17 -4
-13 -6 -42 -5 -65 4 -61 4 -63 1 -115 -2 -25 0 -44 4 -41 5 2 5 -6 0 -19 -9
-29 -9 -89 1 -105 5 -7 5 -13 0 -13 -4 0 -8 -11 -8 -25 0 -14 3 -25 7 -25 4 0
3 -14 -2 -30 -6 -21 -5 -28 2 -24 7 4 8 2 4 -5 -11 -17 -13 -121 -3 -121 4 0
5 -6 1 -12 -11 -17 -12 -48 -3 -48 5 0 6 -6 3 -13 -9 -24 -10 -87 -2 -87 5 0
6 -6 2 -12 -11 -17 -12 -48 -3 -48 5 0 6 -6 3 -13 -9 -24 -10 -87 -2 -87 5 0
6 -6 2 -12 -11 -17 -12 -48 -3 -48 5 0 6 -6 3 -13 -9 -24 -10 -87 -2 -87 5 0
6 -6 2 -12 -11 -17 -12 -48 -3 -48 4 0 4 -12 0 -27 -8 -31 -7 -70 2 -80 4 -3
2 -14 -3 -24 -7 -11 -7 -20 0 -24 5 -3 7 -12 4 -19 -6 -15 33 -29 42 -15 3 5
10 6 16 3 15 -9 117 -11 111 -2 -2 5 6 4 19 0 26 -9 60 -8 77 2 6 4 11 2 11
-4 0 -8 6 -8 20 0 14 8 20 8 20 0 0 -8 6 -8 20 0 14 8 20 8 20 0 0 -6 5 -8 11
-5 16 11 59 13 65 4 2 -5 16 -4 29 1 14 5 25 6 25 2 0 -6 31 -8 60 -3 3 1 5
544 5 1209 l0 1207 648 0 c424 0 647 3 648 10 1 6 2 117 3 248 l2 237 -26 1
c-140 3 -1694 3 -1754 -1z"/>
<path d="M13596 21301 c-6 -15 14 -113 26 -128 6 -7 8 -13 4 -13 -8 0 42 -87
67 -116 38 -44 121 -94 188 -113 49 -14 92 -18 165 -16 113 3 151 11 221 50
116 62 181 163 200 305 l5 36 -81 0 -81 -1 -6 -34 c-28 -148 -138 -230 -291
-217 -38 3 -80 8 -94 11 -40 10 -105 74 -128 125 -17 38 -22 58 -30 110 -1 7
-161 8 -165 1z"/>
<path d="M10748 20645 c-1 -2 -23 -5 -48 -8 -138 -15 -289 -80 -372 -160 -51
-49 -147 -177 -132 -177 3 0 1 -6 -5 -14 -9 -11 -53 -124 -51 -133 0 -2 0 -4
-1 -5 -5 -17 -10 -50 -12 -80 -1 -21 -4 -38 -7 -38 -16 0 -12 -327 5 -410 4
-19 8 -44 9 -55 4 -39 18 -90 28 -102 6 -7 7 -13 3 -13 -4 0 -3 -6 3 -12 6 -7
11 -17 11 -23 2 -20 36 -95 44 -95 4 0 7 -5 7 -11 0 -16 57 -88 104 -132 46
-42 146 -102 189 -112 15 -4 27 -10 27 -14 0 -3 10 -7 23 -8 12 -1 56 -9 97
-17 76 -15 313 -16 390 -1 109 21 239 69 241 89 3 31 4 186 1 186 -2 0 -24
-11 -49 -25 -60 -34 -176 -73 -244 -82 -105 -14 -246 -7 -329 16 -76 21 -86
25 -111 42 -14 10 -29 16 -31 13 -3 -2 -33 23 -67 56 -65 63 -137 192 -144
255 -2 17 -6 35 -9 41 -14 22 -30 324 -18 324 3 0 6 15 7 33 4 196 105 372
253 445 30 15 57 27 60 27 3 1 30 7 60 15 93 23 348 15 376 -12 3 -4 12 -4 19
-2 7 3 16 1 20 -5 3 -6 15 -11 25 -11 10 0 45 -13 76 -30 32 -16 59 -28 61
-26 8 7 8 167 1 186 -7 19 -40 37 -83 46 -11 2 -40 8 -65 14 -25 5 -58 12 -75
16 -32 6 -281 14 -287 9z"/>
<path d="M12065 20630 c-55 -9 -120 -23 -145 -30 -25 -8 -47 -14 -50 -14 -3
-1 -30 -12 -61 -24 l-56 -23 0 -109 c0 -75 4 -107 11 -102 6 3 27 17 46 30 48
32 141 74 210 93 51 14 54 15 112 24 89 14 270 5 309 -16 9 -4 19 -5 23 -2 3
3 6 0 6 -7 0 -7 3 -10 7 -7 3 4 15 -1 26 -10 10 -10 21 -16 23 -13 2 3 19 -9
37 -27 36 -33 67 -89 70 -123 1 -11 4 -20 7 -20 9 0 12 -51 14 -185 l1 -120
-240 -1 c-297 -2 -376 -9 -500 -47 -72 -22 -148 -66 -175 -100 -8 -11 -22 -27
-30 -36 -29 -31 -64 -133 -69 -201 -6 -75 -5 -110 2 -110 4 0 3 -8 -2 -19 -6
-10 -7 -21 -4 -25 4 -4 8 -17 10 -29 1 -12 4 -29 6 -37 2 -8 8 -28 12 -45 33
-120 134 -213 285 -260 99 -31 327 -28 405 5 74 31 105 47 140 73 46 35 112
114 140 170 31 59 29 66 39 -148 5 -99 5 -98 20 -92 7 3 19 0 25 -6 8 -8 11
-8 11 2 0 7 4 9 10 6 18 -11 80 -12 88 -1 5 6 8 20 7 31 0 11 3 32 7 47 3 15
3 30 -1 32 -9 6 -6 79 3 95 4 6 3 11 -2 11 -10 0 -9 50 2 68 4 7 2 12 -4 12
-8 0 -8 6 0 20 6 11 7 20 2 20 -10 0 -9 81 2 98 4 7 4 12 -1 12 -4 0 -7 42 -6
92 2 51 3 109 2 128 -4 189 -3 233 4 237 4 2 4 9 1 15 -4 6 -8 69 -9 142 -2
72 -4 131 -5 131 -1 0 -3 14 -5 30 -6 65 -52 183 -81 212 -7 8 -19 22 -26 31
-16 21 -74 62 -88 62 -5 0 -10 5 -10 10 0 6 -9 10 -19 10 -11 0 -22 4 -25 8
-5 8 -30 15 -141 38 -71 15 -271 12 -370 -6z m586 -832 c7 -11 3 -243 -5 -256
-3 -5 -8 -23 -11 -39 -10 -61 -52 -139 -100 -188 -32 -33 -125 -100 -125 -90
0 3 -10 0 -22 -6 -40 -21 -130 -35 -213 -33 -88 2 -115 6 -160 24 -16 6 -32
11 -35 11 -14 -2 -91 55 -96 71 -3 10 -10 18 -15 18 -5 0 -8 3 -7 8 1 4 -6 25
-16 47 -24 55 -28 181 -9 250 31 109 129 170 286 180 27 2 50 5 52 7 8 8 470
4 476 -4z"/>
<path d="M22700 20628 c-47 -11 -89 -20 -95 -22 -31 -8 -117 -54 -162 -88 -73
-53 -126 -111 -159 -171 -15 -29 -32 -55 -37 -58 -5 -3 -8 -9 -7 -13 1 -3 -8
-31 -19 -61 -11 -30 -23 -69 -26 -87 -3 -17 -7 -34 -9 -37 -7 -11 -19 -115
-21 -177 -1 -33 -5 -65 -9 -72 -4 -7 -4 -12 1 -12 4 0 8 -28 9 -63 2 -243 75
-448 206 -577 42 -43 122 -101 141 -104 7 -1 21 -7 32 -13 77 -41 183 -58 350
-57 126 0 236 18 290 47 11 6 26 12 33 13 40 7 163 107 229 187 44 54 117 246
129 340 2 18 6 45 10 60 7 34 7 313 0 347 -3 13 -8 42 -11 65 -16 111 -87 302
-116 313 -5 2 -9 9 -9 16 0 17 -139 148 -150 141 -6 -3 -10 -2 -10 3 0 19
-121 66 -225 88 -75 15 -280 11 -365 -8z m310 -152 c14 -3 39 -8 55 -12 99
-20 218 -115 264 -209 65 -132 76 -201 75 -435 0 -153 -5 -196 -26 -275 -6
-22 -13 -46 -14 -54 -6 -31 -65 -138 -92 -166 -53 -55 -91 -84 -117 -91 -14
-3 -25 -10 -25 -14 0 -4 -34 -15 -75 -25 -76 -18 -203 -23 -284 -12 -53 7
-171 48 -171 59 0 4 -6 8 -14 8 -22 0 -101 76 -136 130 -33 52 -76 162 -85
221 -3 19 -9 57 -13 84 -9 59 -7 277 3 320 3 17 7 37 7 45 0 30 51 180 61 180
6 0 7 3 4 6 -4 4 2 19 13 34 11 16 20 31 20 34 0 3 21 26 48 52 67 66 161 111
252 121 25 3 46 6 48 7 4 5 176 -2 202 -8z"/>
<path d="M25958 20645 c-2 -2 -19 -5 -38 -8 -133 -19 -272 -83 -357 -165 -64
-62 -139 -169 -147 -212 -1 -3 -4 -9 -7 -15 -11 -17 -38 -108 -44 -145 -3 -19
-8 -42 -10 -50 -19 -64 -20 -354 -1 -445 42 -201 94 -312 193 -412 67 -67 171
-130 248 -149 17 -4 37 -9 45 -11 70 -18 300 -23 385 -9 161 27 341 138 403
250 9 17 19 33 22 36 20 19 96 210 84 210 -3 0 -1 8 5 18 16 31 26 143 25 302
0 148 -3 184 -19 275 -7 38 -28 113 -42 145 -3 8 -7 17 -8 20 -4 17 -41 87
-52 98 -7 7 -13 18 -13 24 0 8 -96 107 -131 133 -48 37 -163 81 -264 101 -30
6 -272 14 -277 9z m227 -169 c60 -10 165 -46 165 -57 0 -5 6 -9 13 -9 21 0
127 -109 127 -130 0 -6 5 -10 11 -10 5 0 7 -4 4 -10 -3 -5 -1 -10 6 -10 7 0 9
-3 6 -7 -4 -3 -2 -12 4 -19 15 -18 48 -141 56 -209 19 -157 -2 -454 -36 -523
-5 -10 -20 -42 -34 -73 -14 -31 -40 -73 -58 -94 -31 -35 -133 -111 -154 -114
-5 -1 -28 -6 -50 -12 -118 -32 -287 -31 -380 2 -122 44 -216 126 -268 232 -55
113 -71 203 -70 402 1 152 4 193 22 260 12 44 22 86 23 93 1 6 5 12 10 12 4 0
7 3 6 8 -8 31 133 202 167 202 8 0 15 4 15 9 0 9 22 20 45 22 6 0 15 4 20 9 9
7 74 22 140 33 30 5 165 0 210 -7z"/>
<path d="M27878 20644 c-2 -1 -39 -10 -82 -19 -43 -9 -88 -23 -100 -30 -12 -8
-25 -15 -31 -16 -5 -1 -34 -17 -63 -36 -63 -42 -110 -97 -152 -178 -22 -43
-30 -53 -29 -35 1 14 0 27 -1 30 -1 3 -4 48 -6 100 -8 170 -3 154 -54 160 -25
3 -61 4 -80 2 l-35 -4 1 -1061 0 -1062 90 0 89 0 0 408 c0 224 3 407 7 407 4
0 14 -15 23 -34 24 -50 119 -151 168 -178 63 -35 145 -66 207 -77 58 -10 264
-8 315 4 17 4 37 8 45 10 8 2 15 4 15 5 0 1 8 3 17 5 9 2 45 17 80 34 178 89
285 279 315 561 10 85 9 370 0 440 -4 30 -9 64 -10 75 -2 11 -6 26 -11 33 -4
7 -5 16 -2 19 3 3 1 12 -4 19 -6 6 -10 16 -9 20 3 13 -8 41 -47 121 -33 66
-128 183 -150 183 -5 0 -20 9 -34 20 -14 11 -33 20 -42 20 -10 0 -18 4 -18 8
0 8 -59 24 -135 39 -26 5 -273 11 -277 7z m177 -168 c80 -12 101 -18 153 -43
59 -29 122 -90 159 -154 27 -48 59 -158 69 -234 11 -90 12 -310 1 -322 -6 -9
-6 -13 2 -13 7 0 10 -3 7 -8 -4 -7 -12 -50 -21 -125 -9 -73 -63 -201 -102
-247 -61 -70 -145 -124 -213 -137 -175 -33 -305 -21 -428 40 -49 23 -152 115
-152 135 0 6 -4 12 -9 12 -13 0 -72 138 -76 179 -2 20 -4 36 -5 36 -7 0 -11
67 -13 210 -4 257 12 348 77 459 33 57 111 134 142 142 13 3 24 10 24 14 0 10
138 54 173 55 15 0 27 2 27 5 0 7 135 4 185 -4z"/>
<path d="M31705 20642 c-93 -16 -236 -67 -273 -97 -105 -86 -146 -133 -201
-234 -13 -25 -40 -95 -46 -121 -2 -8 -11 -49 -21 -90 -18 -79 -25 -343 -11
-445 15 -117 20 -141 28 -157 5 -9 9 -25 9 -35 0 -10 20 -59 45 -109 70 -141
168 -233 300 -283 33 -13 71 -27 84 -32 13 -5 26 -8 28 -5 2 2 19 0 36 -6 45
-14 302 -19 362 -7 28 6 61 12 75 15 14 3 34 8 45 11 11 4 22 8 25 8 18 5 54
21 115 51 l71 35 0 94 c1 70 -2 95 -12 95 -7 0 -14 -3 -16 -7 -10 -24 -176
-107 -230 -117 -15 -2 -32 -7 -37 -10 -14 -9 -118 -20 -191 -20 -107 0 -184
12 -260 42 -8 3 -17 6 -20 6 -3 1 -25 13 -50 28 -88 51 -152 134 -192 248 -22
64 -28 96 -35 202 l-5 77 539 0 c296 0 556 0 579 0 l41 1 -3 123 c-3 138 -9
200 -25 272 -17 77 -50 168 -68 189 -9 10 -15 21 -13 25 1 3 -5 14 -13 24 -8
9 -15 19 -15 22 0 12 -49 61 -96 96 -63 46 -149 83 -234 100 -60 12 -270 19
-315 11z m177 -166 c5 -8 8 -7 8 1 0 12 14 11 99 -8 199 -44 301 -204 315
-495 1 -24 -3 -34 -14 -35 -22 -1 -910 -1 -942 0 -17 1 -26 6 -23 14 2 6 6 35
9 62 13 124 37 204 81 270 14 20 25 41 25 47 0 6 3 8 6 5 4 -3 15 5 26 18 19
24 108 90 118 88 3 0 16 4 30 9 77 30 248 46 262 24z"/>
<path d="M36290 20639 c-207 -37 -321 -111 -404 -261 -21 -38 -38 -68 -39 -68
-1 0 -3 46 -5 103 -4 142 -7 196 -14 202 -5 6 -67 8 -128 6 l-26 -1 1 -1062 0
-1063 90 0 89 0 0 413 c0 226 2 412 5 412 4 -1 17 -23 30 -50 28 -57 123 -158
157 -166 13 -3 24 -10 24 -14 0 -7 64 -37 80 -38 3 0 17 -5 33 -11 50 -19 81
-23 202 -26 124 -4 231 11 288 40 16 8 33 12 38 9 5 -3 9 -1 9 5 0 5 10 13 23
17 21 7 115 79 129 99 3 5 16 21 28 35 29 33 78 131 100 200 24 75 41 160 34
171 -3 5 -2 9 3 9 9 0 10 11 16 156 2 55 6 105 10 111 4 6 3 13 0 17 -4 4 -8
39 -9 79 -3 77 -9 132 -20 182 -3 17 -7 37 -8 45 -6 44 -44 153 -67 190 -5 8
-12 22 -16 30 -9 19 -40 56 -81 97 -31 32 -134 96 -159 99 -6 1 -27 7 -45 13
-18 6 -46 13 -63 17 -47 10 -255 12 -305 3z m200 -164 c79 -10 200 -56 200
-76 0 -5 6 -9 13 -9 7 0 29 -21 48 -47 43 -58 71 -103 65 -103 -3 0 1 -15 9
-34 19 -46 35 -118 42 -191 7 -77 10 -307 4 -320 -3 -5 -7 -28 -8 -50 -5 -68
-43 -197 -75 -258 -36 -67 -114 -141 -173 -165 -22 -9 -43 -16 -47 -14 -5 1
-8 -2 -8 -6 0 -5 -6 -9 -12 -9 -7 0 -35 -4 -63 -8 -107 -16 -243 -9 -300 15
-24 10 -58 21 -65 21 -3 0 -9 7 -13 15 -4 8 -15 14 -23 14 -22 0 -103 79 -140
137 -34 51 -67 138 -79 203 -9 45 -11 412 -3 465 9 65 30 138 49 171 9 17 23
42 31 55 44 78 183 169 283 186 111 19 171 21 265 8z"/>
<path d="M38057 20644 c-2 -2 -19 -6 -38 -9 -35 -5 -41 -6 -99 -19 -46 -11
-170 -67 -170 -77 0 -4 -9 -10 -20 -14 -30 -10 -113 -93 -158 -162 -23 -34
-42 -64 -42 -66 0 -3 -7 -21 -15 -41 -8 -20 -15 -38 -15 -41 0 -3 -6 -20 -13
-38 -12 -28 -20 -58 -33 -132 -15 -87 -21 -235 -11 -252 4 -7 3 -14 -3 -18 -6
-4 -7 -12 -3 -18 4 -6 8 -32 9 -58 2 -54 24 -190 32 -204 4 -5 8 -19 9 -30 7
-48 94 -203 145 -257 45 -48 173 -144 188 -141 6 1 6 0 75 -21 117 -36 305
-45 433 -21 73 14 205 62 210 77 2 4 8 8 14 8 29 0 124 89 176 166 33 49 94
168 90 177 -1 1 4 18 11 38 26 81 39 215 36 379 -2 91 -7 181 -11 200 -3 19
-7 43 -7 53 -1 9 -4 17 -7 17 -6 0 -10 17 -11 52 0 10 -4 20 -10 23 -5 4 -9
17 -9 31 0 13 -5 24 -12 24 -6 0 -9 3 -5 6 7 7 -34 86 -78 148 -19 26 -35 46
-35 44 0 -3 -19 13 -42 34 -39 36 -152 99 -185 104 -8 2 -22 6 -31 10 -9 4
-24 8 -32 10 -8 2 -31 6 -50 10 -36 7 -277 14 -283 8z m233 -169 c165 -30 283
-123 338 -265 27 -71 42 -127 34 -134 -3 -3 -1 -6 4 -6 25 0 24 -373 -2 -490
-28 -127 -76 -220 -147 -287 -25 -24 -50 -43 -55 -43 -5 0 -21 -9 -36 -21 -14
-11 -26 -18 -26 -15 0 3 -15 -1 -34 -9 -77 -32 -246 -38 -366 -12 -44 9 -120
40 -120 48 0 6 -4 8 -9 5 -5 -3 -21 6 -35 19 -15 14 -31 25 -37 25 -5 0 -9 3
-9 8 0 4 -14 23 -30 42 -16 19 -34 40 -39 46 -21 26 -73 165 -75 204 -1 8 -4
20 -7 25 -9 18 -13 77 -12 220 0 152 8 242 23 260 5 7 8 14 5 17 -7 6 39 121
66 165 27 44 92 113 106 113 6 0 14 7 17 16 4 9 9 14 13 10 3 -3 13 0 22 8 56
48 277 76 411 51z"/>
<path d="M41508 20644 c-2 -2 -28 -6 -58 -9 -59 -7 -202 -39 -235 -54 -11 -5
-39 -17 -62 -26 l-43 -18 0 -109 c0 -73 3 -107 10 -103 6 4 34 22 63 41 29 19
69 40 90 46 20 6 37 14 37 18 0 4 6 7 13 7 6 0 37 7 67 16 121 35 256 39 387
13 38 -8 117 -46 141 -69 48 -44 77 -109 88 -192 3 -28 7 -211 5 -246 -1 -13
-30 -15 -228 -15 -253 -1 -356 -8 -455 -30 -37 -9 -71 -15 -74 -14 -4 1 -10
-2 -13 -7 -3 -4 -26 -18 -51 -31 -65 -32 -115 -80 -144 -137 -24 -50 -28 -61
-44 -140 -15 -78 -4 -226 21 -288 9 -19 14 -37 12 -39 -2 -2 16 -30 39 -63 84
-120 216 -177 417 -181 127 -2 204 12 294 56 56 28 185 149 185 174 0 9 4 16
9 16 7 0 20 27 25 53 0 4 5 7 10 7 4 0 10 -44 13 -97 2 -54 6 -114 8 -133 2
-19 4 -39 4 -44 1 -5 4 -6 8 -3 3 4 12 2 19 -4 8 -7 14 -7 19 1 4 6 12 7 24 1
10 -6 23 -6 31 -1 8 5 21 5 31 -1 10 -5 20 -6 22 -2 2 5 3 274 2 598 -1 601
-5 658 -41 742 -8 17 -14 35 -14 40 0 24 -123 153 -146 153 -7 0 -14 3 -16 8
-4 10 -92 40 -158 53 -50 10 -305 21 -312 13z m503 -853 c9 -140 -9 -300 -41
-356 -10 -18 -16 -36 -13 -39 4 -3 1 -6 -5 -6 -7 0 -12 -6 -12 -13 0 -22 -97
-114 -144 -137 -25 -12 -47 -20 -49 -18 -2 2 -11 -3 -19 -10 -41 -33 -282 -34
-363 -1 -16 7 -37 13 -45 15 -8 2 -16 8 -18 13 -2 6 -9 11 -15 12 -21 1 -68
66 -86 120 -25 70 -20 254 7 281 7 7 12 16 12 20 0 29 89 90 150 104 19 4 42
9 50 12 8 2 37 5 64 7 26 2 50 5 51 7 2 2 109 3 239 4 210 1 236 -1 237 -15z"/>
<path d="M43820 20635 c-36 -6 -75 -15 -87 -19 -12 -4 -30 -8 -40 -10 -60 -12
-186 -102 -250 -179 -28 -34 -91 -157 -97 -191 -3 -14 -7 -29 -10 -34 -10 -17
-28 -117 -41 -237 -1 -11 -3 -23 -4 -27 0 -3 -81 -6 -178 -5 l-178 2 0 344 0
345 -32 -1 c-18 -1 -59 -2 -91 -2 l-57 -1 0 -789 c0 -434 3 -787 7 -785 5 3 8
2 8 -3 0 -9 149 -8 158 2 4 3 7 167 7 363 l0 357 178 1 c173 1 177 0 178 -20
4 -92 20 -217 32 -246 3 -8 11 -35 17 -60 12 -46 49 -131 61 -140 3 -3 9 -14
13 -25 6 -20 117 -145 129 -145 3 0 22 -11 42 -25 44 -29 138 -66 184 -72 19
-2 41 -8 50 -12 9 -5 84 -8 166 -6 140 2 167 5 215 20 10 3 29 8 42 11 13 3
28 6 33 8 42 10 144 74 188 118 62 62 97 114 130 194 21 50 42 119 37 119 -1
0 3 12 9 26 18 48 25 142 25 324 0 201 -6 266 -41 384 -14 50 -48 129 -77 178
-35 61 -139 155 -201 182 -46 20 -144 51 -184 57 -69 11 -277 10 -341 -1z
m265 -159 c77 -11 79 -11 93 -19 6 -5 16 -6 21 -3 5 3 14 -1 21 -9 7 -8 19
-15 28 -15 17 0 70 -39 108 -78 59 -63 120 -244 119 -354 0 -27 2 -48 5 -48 3
0 5 -47 5 -105 0 -58 -4 -105 -8 -105 -5 0 -4 -6 2 -13 6 -8 9 -16 6 -18 -2
-3 -7 -27 -10 -55 -3 -28 -8 -60 -10 -72 -3 -12 -7 -32 -10 -43 -16 -75 -86
-219 -105 -219 -6 0 -10 -6 -10 -12 0 -14 -71 -68 -89 -68 -6 0 -11 -4 -11 -8
0 -8 -91 -37 -150 -47 -29 -5 -135 -7 -190 -4 -53 3 -155 35 -194 60 -26 16
-50 29 -54 29 -14 1 -83 96 -109 150 -29 61 -42 100 -48 145 -3 17 -8 41 -11
55 -9 32 -13 402 -5 415 3 6 6 19 7 30 8 103 55 219 119 292 35 41 147 106
190 110 43 4 97 12 100 15 6 5 137 1 190 -6z"/>
<path d="M13402 20616 c-3 -5 -6 -361 -6 -792 l-1 -782 32 -4 c18 -2 41 0 52
4 11 4 23 3 26 -2 14 -22 79 21 105 70 7 13 17 29 22 34 5 6 43 58 84 116 41
58 80 112 87 120 7 9 32 45 57 80 24 36 48 70 53 75 5 6 40 55 78 110 39 55
74 102 78 105 4 3 10 12 14 20 4 8 24 38 44 66 21 29 76 105 123 170 46 66 87
121 90 124 4 3 15 20 25 38 11 17 23 32 27 32 4 0 8 6 8 14 0 8 6 21 13 28 7
7 26 34 41 60 15 27 31 50 36 53 4 2 6 -32 4 -78 -3 -69 -7 -1083 -5 -1201 1
-30 4 -37 16 -32 8 3 15 2 15 -2 0 -8 63 -8 76 1 6 3 16 2 23 -2 7 -5 21 -6
31 -4 16 4 17 48 17 794 l0 789 -81 0 c-66 0 -84 -3 -94 -17 -46 -67 -183
-260 -190 -268 -5 -6 -17 -24 -28 -40 -10 -17 -21 -32 -25 -35 -3 -3 -25 -34
-49 -70 -24 -36 -50 -71 -57 -78 -7 -7 -13 -17 -13 -21 0 -4 -8 -16 -18 -27
-10 -11 -27 -33 -38 -49 -10 -17 -22 -34 -27 -40 -4 -5 -73 -102 -153 -215
-79 -113 -150 -212 -157 -221 -25 -32 -63 -87 -114 -164 -47 -70 -62 -84 -53
-50 2 6 4 299 5 653 1 452 -2 642 -9 643 -76 5 -159 2 -164 -5z"/>
<path d="M15160 20620 l-125 -5 0 -80 0 -80 267 0 267 0 -2 -178 c-1 -97 1
-177 5 -177 4 0 5 -6 2 -14 -8 -21 -10 -306 -2 -306 4 0 5 -6 2 -14 -8 -21
-10 -306 -2 -306 4 0 5 -6 2 -14 -8 -20 -10 -306 -3 -306 4 0 4 -15 0 -32 -12
-59 -5 -73 37 -71 20 1 37 2 37 3 0 1 19 2 43 3 23 1 42 -2 42 -6 0 -5 4 -6
10 -2 5 3 9 271 9 705 0 385 2 703 4 707 3 5 115 7 249 6 133 0 250 1 259 3
18 5 32 71 17 80 -4 3 -4 15 1 27 9 28 3 57 -12 57 -185 4 -1017 4 -1107 0z"/>
<path d="M16706 20620 l-59 -5 0 -783 c0 -431 3 -785 6 -788 20 -21 652 -24
652 -4 0 1 13 4 29 6 16 3 47 12 70 20 23 8 46 16 51 18 73 18 174 100 223
181 28 47 54 120 67 190 7 38 7 192 0 225 -2 14 -7 39 -10 55 -4 17 -10 39
-15 50 -4 11 -13 34 -20 52 -13 34 -106 136 -130 141 -8 2 -22 9 -30 16 -16
13 -99 39 -162 52 -13 2 -34 6 -48 10 -38 8 -377 12 -442 5 -49 -6 -58 -4 -59
8 0 9 -1 136 -1 283 l0 266 -31 4 c-18 1 -58 1 -91 -2z m539 -713 c191 -28
279 -91 311 -223 10 -38 9 -211 0 -249 -10 -41 -37 -96 -58 -119 -10 -11 -18
-23 -18 -27 0 -12 -142 -79 -172 -81 -16 -1 -28 -5 -28 -8 0 -7 -50 -9 -220
-9 -159 -1 -217 3 -227 12 -7 8 -7 686 0 693 3 3 29 7 58 10 29 2 54 6 56 7 4
4 263 -1 298 -6z"/>
<path d="M18094 20622 l-72 -3 2 -787 c1 -624 4 -786 14 -785 6 2 12 -1 12 -6
0 -5 15 -5 35 -1 19 4 35 5 35 1 0 -8 64 -6 79 3 7 5 8 13 1 25 -5 10 -7 21
-3 24 4 5 8 1448 4 1513 -1 16 -25 19 -107 16z"/>
<path d="M20643 20616 c-10 -15 -9 -116 0 -116 4 0 5 -5 1 -12 -11 -18 -11
-108 0 -108 6 0 5 -5 -1 -11 -7 -7 -8 -21 -3 -40 5 -16 6 -29 2 -29 -4 0 -6
-73 -5 -162 2 -90 3 -167 3 -173 0 -5 -1 -28 -3 -50 -1 -22 0 -52 4 -67 4 -16
5 -28 1 -28 -6 0 -8 -251 -2 -275 1 -5 1 -12 0 -15 -7 -17 -3 -110 4 -110 6 0
5 -5 -1 -11 -7 -7 -8 -21 -3 -40 5 -16 6 -29 2 -29 -4 0 -7 -66 -6 -147 l0
-148 25 -3 c30 -3 84 -4 125 -3 l31 1 -1 103 c-1 56 2 108 7 115 6 7 6 12 0
12 -5 0 -8 21 -6 48 2 26 3 56 3 67 -1 16 -1 191 0 230 0 6 -1 45 -2 88 l-3
77 30 1 c17 0 65 1 108 2 42 1 77 -2 77 -7 0 -5 3 -6 6 -3 4 4 16 -3 26 -16
30 -35 140 -157 176 -195 18 -20 55 -61 81 -91 27 -31 62 -70 78 -86 15 -17
57 -64 93 -104 36 -40 82 -92 104 -115 21 -22 57 -62 79 -88 22 -26 44 -45 50
-41 14 8 97 9 97 1 0 -4 11 -3 25 2 13 5 27 6 29 1 5 -8 56 -3 56 5 0 2 -17
22 -37 44 -21 22 -51 55 -68 73 -16 19 -61 69 -100 112 -38 44 -81 91 -95 106
-14 15 -50 55 -80 90 -30 34 -66 74 -80 89 -14 15 -54 60 -90 100 -65 73 -87
97 -147 164 -33 37 -41 56 -23 56 6 0 10 4 10 9 0 5 19 29 43 53 23 24 78 84
122 133 44 49 93 102 110 119 16 17 29 34 27 39 -1 4 5 7 13 7 8 0 15 4 15 9
0 5 21 32 48 59 42 46 146 158 244 266 20 22 36 42 34 43 -1 2 -49 3 -106 4
-101 1 -103 0 -127 -28 -14 -15 -41 -46 -61 -68 -20 -23 -80 -88 -132 -145
-52 -58 -111 -123 -131 -145 -53 -58 -76 -84 -149 -166 -36 -40 -81 -89 -100
-108 l-35 -36 -100 1 c-55 1 -104 2 -110 3 -6 1 -9 46 -7 118 1 65 2 127 2
138 -2 21 -1 213 1 230 0 6 -2 24 -4 40 -3 17 0 36 5 43 7 7 7 12 1 12 -6 0
-9 24 -7 55 3 51 1 55 -19 56 -12 0 -51 1 -85 2 -35 1 -66 -2 -69 -7z"/>
<path d="M23919 20622 l-77 -3 0 -83 1 -83 259 1 c143 1 263 -1 267 -4 4 -3 8
-320 7 -705 l0 -699 32 -7 c18 -4 34 -3 37 0 2 4 27 5 55 1 28 -4 52 -4 54 -1
2 3 2 78 2 166 -1 99 2 163 9 167 6 5 6 8 0 8 -12 0 -13 318 -2 338 5 6 5 12
0 12 -12 0 -10 593 2 602 7 5 6 8 0 8 -11 0 -13 89 -2 106 3 5 123 9 266 8
l261 -1 0 84 c0 59 -4 83 -12 83 -67 3 -1101 4 -1159 2z"/>
<path d="M29138 20622 l-28 -3 0 -790 c0 -434 1 -789 3 -789 62 -13 512 -19
587 -8 25 4 63 9 85 12 50 8 195 58 195 68 0 5 6 8 13 8 28 0 135 115 166 177
48 96 66 247 48 388 -11 80 -56 192 -83 208 -8 4 -14 14 -14 22 0 7 -9 16 -19
20 -11 3 -22 12 -25 20 -3 8 -12 15 -21 15 -8 0 -15 3 -15 8 0 8 -94 45 -155
61 -90 23 -387 35 -535 21 l-45 -5 -3 283 -2 282 -28 1 c-15 0 -43 1 -62 2
-19 1 -47 1 -62 -1z m572 -716 c158 -19 246 -71 292 -172 20 -43 23 -66 23
-174 0 -116 -2 -129 -28 -184 -35 -75 -103 -135 -174 -152 -15 -4 -32 -9 -38
-13 -5 -3 -19 -6 -30 -8 -11 -1 -36 -4 -55 -8 -54 -9 -333 -7 -402 4 -5 0 -8
158 -8 350 l0 349 23 5 c12 2 47 5 77 6 30 1 56 3 57 5 5 4 215 -2 263 -8z"/>
<path d="M30503 20620 c-17 -5 -18 -42 -18 -788 l0 -783 25 -6 c31 -8 97 -8
130 0 l25 6 0 780 c0 429 -3 782 -7 786 -8 8 -130 12 -155 5z"/>
<path d="M33911 20622 c-37 -3 -42 -6 -38 -23 3 -10 1 -22 -4 -25 -5 -3 -7 -9
-4 -14 3 -4 5 -347 5 -763 l0 -755 24 -4 c12 -3 32 -1 44 3 12 5 24 4 27 -1 3
-6 15 -6 30 0 15 6 27 6 30 -1 4 -5 10 -7 16 -4 5 4 9 296 9 707 0 385 2 703
4 707 3 4 814 7 860 2 4 -1 6 -8 2 -16 -3 -8 -1 -15 5 -15 6 0 7 -5 3 -12 -10
-16 -11 -148 -1 -148 5 0 5 -5 1 -12 -10 -16 -11 -278 -1 -278 5 0 5 -5 1 -12
-11 -18 -13 -88 -2 -88 5 0 6 -5 2 -11 -9 -16 -11 -209 -1 -209 5 0 5 -5 1
-12 -11 -17 -13 -88 -3 -88 5 0 6 -6 3 -14 -9 -24 -10 -126 -1 -126 4 0 5 -5
1 -12 -11 -17 -13 -88 -3 -88 5 0 6 -6 3 -14 -10 -25 -10 -126 0 -126 5 0 5
-5 0 -12 -11 -16 -11 -68 -1 -85 5 -8 3 -13 -4 -13 -7 0 -4 -6 6 -14 13 -10
25 -11 37 -5 10 6 19 5 23 -1 3 -5 15 -6 28 -1 12 5 34 5 49 0 16 -4 30 -3 33
2 7 11 8 1569 1 1576 -5 5 -1113 10 -1185 5z"/>
<path d="M39539 20622 l-56 -3 -1 -112 c0 -125 -10 -368 -17 -437 -3 -25 -7
-74 -10 -110 -10 -108 -28 -241 -42 -305 -2 -11 -6 -30 -8 -43 -9 -45 -14 -67
-19 -89 -3 -13 -8 -31 -10 -40 -15 -65 -43 -148 -72 -208 l-33 -70 -71 5 c-39
3 -76 2 -83 -2 -9 -5 -12 -72 -11 -275 1 -147 2 -273 3 -278 1 -7 34 -11 86
-10 l84 0 -3 30 c-1 17 2 36 7 43 5 6 6 12 1 12 -5 0 -9 40 -9 90 0 49 4 90 9
90 5 0 4 6 -1 13 -10 13 -10 63 0 73 4 4 2 15 -3 24 -8 14 -5 19 15 22 13 3
29 1 36 -3 7 -4 20 -4 30 1 9 5 19 6 23 3 8 -8 170 -8 184 1 6 3 13 2 16 -3 4
-6 18 -6 36 -1 17 5 30 5 30 1 0 -4 20 -5 45 -1 25 4 45 3 45 -1 0 -4 14 -4
30 1 17 5 30 5 30 0 0 -5 13 -5 30 0 17 5 30 6 30 2 0 -8 167 -5 188 3 6 2 12
0 12 -5 0 -5 13 -5 30 0 17 5 30 5 30 0 0 -5 13 -5 30 0 17 5 30 6 30 2 0 -8
146 -6 167 2 7 3 15 1 18 -4 3 -6 15 -6 30 0 15 6 27 6 30 0 3 -5 16 -6 28 -1
12 4 33 5 47 1 l25 -6 5 -194 5 -195 82 -1 c75 -1 82 1 85 20 6 36 2 535 -4
542 -4 3 -55 6 -115 7 l-108 2 0 697 c0 383 -3 699 -6 703 -7 6 -827 12 -930
7z m747 -175 c13 -12 10 -1215 -2 -1232 -6 -8 -13 -12 -16 -9 -3 3 -186 5
-407 5 -221 1 -401 2 -401 4 0 1 8 20 17 41 9 22 17 41 18 44 0 3 3 10 6 15 8
13 23 78 21 88 -1 4 2 7 7 7 5 0 11 12 14 28 3 15 8 38 11 52 3 14 9 39 12 55
9 44 12 60 14 60 1 0 3 11 4 25 2 14 6 43 10 65 12 69 14 82 21 141 3 33 8 73
10 89 4 33 16 174 20 245 2 25 4 98 6 162 l2 117 31 3 c62 6 596 2 602 -5z"/>
<path d="M45052 20622 c-92 -2 -141 -6 -137 -13 4 -5 6 -42 6 -83 l0 -73 257
2 c141 0 262 -1 267 -2 7 -2 10 -242 10 -707 0 -387 3 -702 7 -700 5 3 8 2 8
-3 0 -11 152 -6 159 6 3 5 6 322 6 705 0 613 2 696 15 697 8 1 123 2 255 3
132 2 245 3 251 4 7 1 11 32 11 82 l0 80 -151 0 c-83 1 -302 2 -486 3 -184 1
-399 1 -478 -1z"/>
<path d="M18945 19315 c-5 -2 -23 -6 -39 -10 -16 -3 -43 -21 -61 -39 -28 -30
-32 -40 -34 -99 -1 -38 2 -68 9 -72 6 -3 8 -10 5 -14 -4 -8 43 -56 58 -58 30
-4 83 -16 89 -19 4 -3 4 -13 -1 -22 -5 -9 -17 -37 -27 -61 -32 -77 -119 -149
-231 -192 -13 -5 -23 -13 -23 -19 0 -5 24 -33 53 -62 l53 -53 59 30 c78 40
205 165 220 218 4 12 13 32 21 44 12 19 22 53 28 93 1 9 5 20 8 25 7 12 3 150
-6 184 -12 52 -62 106 -106 116 -44 10 -65 12 -75 10z"/>
</g>
</svg>
