<svg width="58" height="8" viewBox="0 0 58 8" fill="none" xmlns="http://www.w3.org/2000/svg">
<path d="M0 4.13776L6.38748 0.449675C6.39804 0.602136 6.41058 0.704436 6.41058 0.807396C6.41058 1.5664 6.41058 2.3254 6.41058 3.0844C6.41058 3.5233 6.41916 3.5299 6.8508 3.5299C10.5798 3.5299 14.3088 3.5299 18.0378 3.5299H50.6761C50.7969 3.5299 50.919 3.52066 51.0391 3.5299C51.2741 3.55168 51.3401 3.44344 51.3374 3.22102C51.3282 2.4178 51.3341 1.61458 51.3341 0.812016V0.416016L57.7777 4.13446C55.6235 5.37724 53.5154 6.59363 51.3553 7.84103C51.346 7.67207 51.3348 7.56779 51.3348 7.46285C51.3348 6.66029 51.3269 5.85707 51.3381 5.0545C51.3381 4.81162 51.2589 4.70602 51.016 4.7245C50.9177 4.73308 50.818 4.7245 50.719 4.7245H7.02702C6.41058 4.7245 6.41124 4.7245 6.40992 5.32973C6.40992 6.11073 6.40794 6.89173 6.40398 7.67273C6.39312 7.71786 6.37855 7.76201 6.36042 7.80473L0 4.13776Z" fill="#2579BF"/>
</svg>
