<svg width="206" height="68" viewBox="0 0 206 68" fill="none" xmlns="http://www.w3.org/2000/svg">
<path d="M7.52412 57.8271V66.1169H6.30129V58.8574H1.2353V66.1169H0V57.8271H7.52412Z" fill="#969693"/>
<path d="M14.1784 66.2116C13.2966 66.2116 12.5022 66.0301 11.7951 65.6669C11.0881 65.2958 10.5307 64.7866 10.1231 64.1392C9.72382 63.4918 9.52417 62.7694 9.52417 61.972C9.52417 61.1746 9.72382 60.4522 10.1231 59.8048C10.5307 59.1575 11.0881 58.6522 11.7951 58.289C12.5022 57.9179 13.2966 57.7324 14.1784 57.7324C15.0518 57.7324 15.8421 57.9179 16.5492 58.289C17.2563 58.6522 17.8094 59.1575 18.2087 59.8048C18.608 60.4443 18.8077 61.1667 18.8077 61.972C18.8077 62.7773 18.608 63.5037 18.2087 64.151C17.8094 64.7905 17.2563 65.2958 16.5492 65.6669C15.8421 66.0301 15.0518 66.2116 14.1784 66.2116ZM14.1784 65.1577C14.8189 65.1577 15.3929 65.0195 15.9003 64.7432C16.4161 64.4668 16.8195 64.0879 17.1107 63.6063C17.4102 63.1168 17.5599 62.572 17.5599 61.972C17.5599 61.372 17.4102 60.8312 17.1107 60.3496C16.8195 59.8601 16.4161 59.4772 15.9003 59.2009C15.3929 58.9245 14.8189 58.7864 14.1784 58.7864C13.5379 58.7864 12.9556 58.9245 12.4315 59.2009C11.9158 59.4772 11.5081 59.8601 11.2087 60.3496C10.9175 60.8312 10.772 61.372 10.772 61.972C10.772 62.572 10.9175 63.1168 11.2087 63.6063C11.5081 64.0879 11.9158 64.4668 12.4315 64.7432C12.9556 65.0195 13.5379 65.1577 14.1784 65.1577Z" fill="#969693"/>
<path d="M26.7048 58.8574H23.7101V66.1169H22.4873V58.8574H19.5051V57.8271H26.7048V58.8574Z" fill="#969693"/>
<path d="M32.03 66.2116C31.1482 66.2116 30.3538 66.0301 29.6467 65.6669C28.9396 65.2958 28.3823 64.7866 27.9747 64.1392C27.5754 63.4918 27.3757 62.7694 27.3757 61.972C27.3757 61.1746 27.5754 60.4522 27.9747 59.8048C28.3823 59.1575 28.9396 58.6522 29.6467 58.289C30.3538 57.9179 31.1482 57.7324 32.03 57.7324C32.9034 57.7324 33.6937 57.9179 34.4007 58.289C35.1078 58.6522 35.661 59.1575 36.0603 59.8048C36.4596 60.4443 36.6592 61.1667 36.6592 61.972C36.6592 62.7773 36.4596 63.5037 36.0603 64.151C35.661 64.7905 35.1078 65.2958 34.4007 65.6669C33.6937 66.0301 32.9034 66.2116 32.03 66.2116ZM32.03 65.1577C32.6705 65.1577 33.2445 65.0195 33.7519 64.7432C34.2676 64.4668 34.6711 64.0879 34.9622 63.6063C35.2617 63.1168 35.4114 62.572 35.4114 61.972C35.4114 61.372 35.2617 60.8312 34.9622 60.3496C34.6711 59.8601 34.2676 59.4772 33.7519 59.2009C33.2445 58.9245 32.6705 58.7864 32.03 58.7864C31.3894 58.7864 30.8071 58.9245 30.2831 59.2009C29.7673 59.4772 29.3597 59.8601 29.0602 60.3496C28.7691 60.8312 28.6235 61.372 28.6235 61.972C28.6235 62.572 28.7691 63.1168 29.0602 63.6063C29.3597 64.0879 29.7673 64.4668 30.2831 64.7432C30.8071 65.0195 31.3894 65.1577 32.03 65.1577Z" fill="#969693"/>
<path d="M45.5699 57.8271V66.1169H44.3471V58.8574H40.479L40.3916 61.2852C40.3501 62.4299 40.2502 63.3576 40.0922 64.0681C39.9424 64.7787 39.7012 65.3156 39.3685 65.6787C39.0357 66.034 38.5865 66.2116 38.0209 66.2116C37.763 66.2116 37.5009 66.1801 37.2348 66.1169L37.3221 65.0629C37.4552 65.0945 37.5883 65.1103 37.7214 65.1103C38.0791 65.1103 38.3661 64.9761 38.5824 64.7076C38.7986 64.4313 38.9609 64.0208 39.069 63.476C39.1771 62.9313 39.2478 62.2128 39.2811 61.3207L39.4184 57.8271H45.5699Z" fill="#969693"/>
<path d="M51.3352 62.4694H49.5134V66.1169H48.2906V57.8271H49.5134V61.4273H51.3601L54.1052 57.8271H55.4404L52.3209 61.8418L55.5901 66.1169H54.1676L51.3352 62.4694Z" fill="#969693"/>
<path d="M56.8691 57.8271H58.1044V64.2221L63.2702 57.8271H64.4182V66.1169H63.1953V59.7338L58.017 66.1169H56.8691V57.8271Z" fill="#969693"/>
<path d="M78.0164 57.8271V66.1169H76.7936V58.8574H71.7276V66.1169H70.4923V57.8271H78.0164Z" fill="#969693"/>
<path d="M84.6707 66.2116C83.7889 66.2116 82.9945 66.0301 82.2875 65.6669C81.5804 65.2958 81.023 64.7866 80.6154 64.1392C80.2161 63.4918 80.0165 62.7694 80.0165 61.972C80.0165 61.1746 80.2161 60.4522 80.6154 59.8048C81.023 59.1575 81.5804 58.6522 82.2875 58.289C82.9945 57.9179 83.7889 57.7324 84.6707 57.7324C85.5442 57.7324 86.3344 57.9179 87.0415 58.289C87.7486 58.6522 88.3018 59.1575 88.701 59.8048C89.1003 60.4443 89.3 61.1667 89.3 61.972C89.3 62.7773 89.1003 63.5037 88.701 64.151C88.3018 64.7905 87.7486 65.2958 87.0415 65.6669C86.3344 66.0301 85.5442 66.2116 84.6707 66.2116ZM84.6707 65.1577C85.3112 65.1577 85.8852 65.0195 86.3927 64.7432C86.9084 64.4668 87.3119 64.0879 87.603 63.6063C87.9025 63.1168 88.0522 62.572 88.0522 61.972C88.0522 61.372 87.9025 60.8312 87.603 60.3496C87.3119 59.8601 86.9084 59.4772 86.3927 59.2009C85.8852 58.9245 85.3112 58.7864 84.6707 58.7864C84.0302 58.7864 83.4479 58.9245 82.9238 59.2009C82.4081 59.4772 82.0005 59.8601 81.701 60.3496C81.4098 60.8312 81.2643 61.372 81.2643 61.972C81.2643 62.572 81.4098 63.1168 81.701 63.6063C82.0005 64.0879 82.4081 64.4668 82.9238 64.7432C83.4479 65.0195 84.0302 65.1577 84.6707 65.1577Z" fill="#969693"/>
<path d="M102.18 57.8271V66.1169H100.932V62.422H95.9159V66.1169H94.6681V57.8271H95.9159V61.3917H100.932V57.8271H102.18Z" fill="#969693"/>
<path d="M104.904 57.8271H106.139V64.2221L111.305 57.8271H112.453V66.1169H111.23V59.7338L106.052 66.1169H104.904V57.8271Z" fill="#969693"/>
<path d="M119.356 61.7944C119.905 61.9365 120.334 62.1852 120.641 62.5405C120.949 62.8878 121.103 63.3063 121.103 63.7958C121.103 64.2853 120.937 64.7155 120.604 65.0866C120.279 65.4498 119.843 65.73 119.294 65.9274C118.753 66.1169 118.162 66.2116 117.522 66.2116C116.94 66.2116 116.361 66.1287 115.787 65.9629C115.213 65.7972 114.689 65.5485 114.215 65.2169L114.652 64.3405C115.035 64.6247 115.463 64.8379 115.937 64.98C116.411 65.1221 116.89 65.1932 117.372 65.1932C118.071 65.1932 118.657 65.055 119.132 64.7787C119.606 64.4945 119.843 64.1076 119.843 63.6181C119.843 63.1997 119.664 62.8799 119.306 62.6589C118.948 62.4299 118.445 62.3155 117.796 62.3155H115.85V61.3562H117.709C118.266 61.3562 118.699 61.2496 119.007 61.0365C119.323 60.8154 119.481 60.5114 119.481 60.1246C119.481 59.6904 119.277 59.3469 118.869 59.0943C118.462 58.8417 117.946 58.7153 117.322 58.7153C116.915 58.7153 116.499 58.7706 116.074 58.8811C115.659 58.9917 115.263 59.1575 114.889 59.3785L114.49 58.4074C114.931 58.1706 115.396 57.9929 115.887 57.8745C116.378 57.7561 116.869 57.6969 117.36 57.6969C117.975 57.6969 118.541 57.7877 119.057 57.9693C119.572 58.1508 119.98 58.4153 120.279 58.7627C120.587 59.1101 120.741 59.5167 120.741 59.9825C120.741 60.4009 120.616 60.768 120.367 61.0838C120.126 61.3996 119.789 61.6365 119.356 61.7944Z" fill="#969693"/>
<path d="M126.226 62.4694H124.405V66.1169H123.182V57.8271H124.405V61.4273H126.251L128.996 57.8271H130.332L127.212 61.8418L130.481 66.1169H129.059L126.226 62.4694Z" fill="#969693"/>
<path d="M131.76 57.8271H132.996V64.2221L138.161 57.8271H139.309V66.1169H138.087V59.7338L132.908 66.1169H131.76V57.8271Z" fill="#969693"/>
<path d="M150.131 66.1169L150.118 60.0772L146.961 65.1103H146.387L143.23 60.1127V66.1169H142.033V57.8271H143.056L146.699 63.6537L150.293 57.8271H151.316L151.329 66.1169H150.131Z" fill="#969693"/>
<path d="M166.083 65.0866V67.9999H164.922V66.1169H157.398V57.8271H158.634V65.0866H163.5V57.8271H164.735V65.0866H166.083Z" fill="#969693"/>
<path d="M174.082 65.0866V66.1169H167.744V57.8271H173.908V58.8574H168.991V61.4036H173.371V62.4102H168.991V65.0866H174.082Z" fill="#969693"/>
<path d="M183.554 57.8271V66.1169H182.306V62.422H177.29V66.1169H176.042V57.8271H177.29V61.3917H182.306V57.8271H183.554Z" fill="#969693"/>
<path d="M191.955 64.0445H187.313L186.352 66.1169H185.067L189.023 57.8271H190.258L194.226 66.1169H192.916L191.955 64.0445ZM191.518 63.0971L189.634 59.0351L187.75 63.0971H191.518Z" fill="#969693"/>
<path d="M203.832 66.1169L203.819 60.0772L200.662 65.1103H200.088L196.931 60.1127V66.1169H195.733V57.8271H196.757L200.4 63.6537L203.994 57.8271H205.017L205.029 66.1169H203.832Z" fill="#969693"/>
<path d="M40.3482 8.24276C20.5073 17.9455 5.18234 12.2856 0 8.24276C9.08143 25.0741 3.78393 42.2354 0 48.7121C16.8796 37.9203 34.5078 44.7106 41.2119 49.4547C30.255 33.2174 36.0707 15.2145 40.3482 8.24276Z" fill="#969693"/>
<path d="M50.6304 0C30.2934 9.70275 14.5853 4.04281 9.27344 0C18.5819 16.8313 13.152 33.9926 9.27344 40.4694C26.5751 29.6775 44.6439 36.4678 51.5157 41.2119C40.2848 24.9747 46.2459 6.97179 50.6304 0Z" fill="#F26422"/>
<path d="M9.27344 41.2123C15.2252 30.7025 14.7463 18.3905 13.7629 13.5482C23.8193 15.7714 36.2529 10.9376 41.2127 8.24276C34.9531 17.1357 35.0985 30.3909 35.9536 35.9069C23.9475 33.8857 13.1643 38.6017 9.27344 41.2123Z" fill="#F6F8F6"/>
<path d="M75.2106 11.2906C75.2106 13.2562 74.5715 14.82 73.2931 15.9821C72.0284 17.1299 70.1925 17.7755 67.7854 17.919V19.576H64.0932V17.919C61.6861 17.7324 59.8434 17.0725 58.5651 15.9391C57.3003 14.8056 56.668 13.2562 56.668 11.2906C56.668 9.32506 57.3003 7.77558 58.5651 6.64216C59.8298 5.4944 61.6725 4.82726 64.0932 4.64075V3.09126H67.7854V4.64075C70.1925 4.81291 72.0284 5.47288 73.2931 6.62064C74.5715 7.75406 75.2106 9.31072 75.2106 11.2906ZM67.7854 14.6048C68.9957 14.4613 69.8797 14.117 70.4373 13.5718C71.0084 13.0266 71.294 12.259 71.294 11.2691C71.294 10.2791 71.0016 9.51875 70.4169 8.98791C69.8457 8.45707 68.9685 8.11991 67.7854 7.97644V14.6048ZM60.5846 11.2906C60.5846 12.2662 60.877 13.0194 61.4617 13.5503C62.0465 14.0811 62.9237 14.4254 64.0932 14.5833V7.97644C62.8693 8.11991 61.9785 8.45707 61.4209 8.98791C60.8634 9.51875 60.5846 10.2863 60.5846 11.2906Z" fill="#969693"/>
<path d="M86.962 15.9391H80.9239L79.802 18.8659H75.6814L81.9847 3.80144H85.9625L92.2862 18.8659H88.084L86.962 15.9391ZM85.7789 12.7971L83.943 7.97644L82.1071 12.7971H85.7789Z" fill="#969693"/>
<path d="M93.9225 3.80144H105.856V7.09409H97.9003V9.52592H101.593C103.32 9.52592 104.646 9.91329 105.57 10.688C106.495 11.4628 106.957 12.5747 106.957 14.0237C106.957 15.5445 106.441 16.7353 105.407 17.5961C104.374 18.4426 102.925 18.8659 101.062 18.8659H93.9225V3.80144ZM100.797 15.8099C101.477 15.8099 101.994 15.6665 102.347 15.3795C102.701 15.0926 102.878 14.6837 102.878 14.1529C102.878 13.0912 102.184 12.5603 100.797 12.5603H97.9003V15.8099H100.797Z" fill="#969693"/>
<path d="M115.57 3.80144C116.862 3.80144 117.984 4.031 118.936 4.4901C119.888 4.93486 120.622 5.58048 121.139 6.42696C121.656 7.25909 121.914 8.24186 121.914 9.37528C121.914 10.5087 121.656 11.4915 121.139 12.3236C120.622 13.1557 119.888 13.8013 118.936 14.2605C117.984 14.7052 116.862 14.9276 115.57 14.9276H113.081V18.8659H109.042V3.80144H115.57ZM115.325 11.5704C116.155 11.5704 116.78 11.3839 117.202 11.0108C117.624 10.6235 117.834 10.0783 117.834 9.37528C117.834 8.67227 117.624 8.12708 117.202 7.73971C116.78 7.35234 116.155 7.15866 115.325 7.15866H113.081V11.5704H115.325Z" fill="#969693"/>
<path d="M123.744 3.80144H127.722V12.6464L133.617 3.80144H137.411V18.8659H133.434V10.0424L127.559 18.8659H123.744V3.80144Z" fill="#969693"/>
<path d="M152.461 3.80144V18.8659H148.484V13.744C147.382 14.1313 146.369 14.325 145.444 14.325C143.445 14.325 141.915 13.8229 140.854 12.8186C139.807 11.7999 139.284 10.3365 139.284 8.42837V3.80144H143.261V7.95492C143.261 9.89177 144.159 10.8602 145.954 10.8602C146.933 10.8602 147.776 10.688 148.484 10.3437V3.80144H152.461Z" fill="#969693"/>
<path d="M169.104 3.80144V18.8659H165.065V12.9907H159.557V18.8659H155.518V3.80144H159.557V9.46136H165.065V3.80144H169.104Z" fill="#969693"/>
<path d="M179.454 8.60054C181.208 8.60054 182.562 9.0166 183.514 9.84873C184.466 10.6665 184.941 11.886 184.941 13.5072C184.941 15.2432 184.411 16.5703 183.35 17.4885C182.29 18.4068 180.814 18.8659 178.924 18.8659H172.172V3.80144H176.15V8.60054H179.454ZM178.659 15.8099C179.339 15.8099 179.876 15.6163 180.27 15.2289C180.678 14.8415 180.882 14.2963 180.882 13.5933C180.882 12.2877 180.141 11.6349 178.659 11.6349H176.15V15.8099H178.659ZM186.512 3.80144H190.49V18.8659H186.512V3.80144Z" fill="#969693"/>
<path d="M205.031 15.5732V18.8659H193.567V3.80144H204.766V7.09409H197.565V9.63352H203.909V12.8186H197.565V15.5732H205.031Z" fill="#969693"/>
<path d="M76.7325 25.1233V44.9367H71.362V29.5672H64.0735V44.9367H58.7305V25.1233H76.7325Z" fill="#F26422"/>
<path d="M90.2584 45.333C88.2308 45.333 86.4041 44.8895 84.7783 44.0027C83.1709 43.1158 81.9013 41.8892 80.9697 40.323C80.0564 38.7568 79.5997 36.9925 79.5997 35.03C79.5997 33.0675 80.0564 31.3032 80.9697 29.737C81.9013 28.1708 83.1709 26.9442 84.7783 26.0573C86.4041 25.1705 88.2308 24.727 90.2584 24.727C92.286 24.727 94.1036 25.1705 95.7111 26.0573C97.3368 26.9442 98.6064 28.1708 99.5197 29.737C100.451 31.3032 100.917 33.0675 100.917 35.03C100.917 36.9925 100.451 38.7568 99.5197 40.323C98.6064 41.8892 97.3368 43.1158 95.7111 44.0027C94.1036 44.8895 92.286 45.333 90.2584 45.333ZM90.2584 40.691C91.2266 40.691 92.1034 40.4551 92.8888 39.9834C93.6743 39.5116 94.2954 38.8512 94.7521 38.002C95.2087 37.134 95.4371 36.1433 95.4371 35.03C95.4371 33.9167 95.2087 32.9354 94.7521 32.0863C94.2954 31.2183 93.6743 30.5484 92.8888 30.0766C92.1034 29.6049 91.2266 29.369 90.2584 29.369C89.2903 29.369 88.4135 29.6049 87.628 30.0766C86.8425 30.5484 86.2214 31.2183 85.7648 32.0863C85.3081 32.9354 85.0798 33.9167 85.0798 35.03C85.0798 36.1433 85.3081 37.134 85.7648 38.002C86.2214 38.8512 86.8425 39.5116 87.628 39.9834C88.4135 40.4551 89.2903 40.691 90.2584 40.691Z" fill="#F26422"/>
<path d="M119.004 29.5672H113.14V44.9367H107.797V29.5672H101.906V25.1233H119.004V29.5672Z" fill="#F26422"/>
<path d="M130.663 45.333C128.636 45.333 126.809 44.8895 125.183 44.0027C123.576 43.1158 122.306 41.8892 121.375 40.323C120.461 38.7568 120.004 36.9925 120.004 35.03C120.004 33.0675 120.461 31.3032 121.375 29.737C122.306 28.1708 123.576 26.9442 125.183 26.0573C126.809 25.1705 128.636 24.727 130.663 24.727C132.691 24.727 134.508 25.1705 136.116 26.0573C137.742 26.9442 139.011 28.1708 139.925 29.737C140.856 31.3032 141.322 33.0675 141.322 35.03C141.322 36.9925 140.856 38.7568 139.925 40.323C139.011 41.8892 137.742 43.1158 136.116 44.0027C134.508 44.8895 132.691 45.333 130.663 45.333ZM130.663 40.691C131.631 40.691 132.508 40.4551 133.294 39.9834C134.079 39.5116 134.7 38.8512 135.157 38.002C135.614 37.134 135.842 36.1433 135.842 35.03C135.842 33.9167 135.614 32.9354 135.157 32.0863C134.7 31.2183 134.079 30.5484 133.294 30.0766C132.508 29.6049 131.631 29.369 130.663 29.369C129.695 29.369 128.818 29.6049 128.033 30.0766C127.247 30.5484 126.626 31.2183 126.17 32.0863C125.713 32.9354 125.485 33.9167 125.485 35.03C125.485 36.1433 125.713 37.134 126.17 38.002C126.626 38.8512 127.247 39.5116 128.033 39.9834C128.818 40.4551 129.695 40.691 130.663 40.691Z" fill="#F26422"/>
<path d="M161.58 25.1233V44.9367H156.237V29.5672H150.729L150.62 32.7939C150.529 35.6244 150.3 37.9265 149.935 39.7003C149.588 41.4741 148.985 42.8516 148.126 43.8328C147.268 44.7952 146.053 45.2764 144.482 45.2764C143.752 45.2764 142.929 45.1632 142.016 44.9367L142.318 40.3513C142.555 40.4079 142.802 40.4362 143.057 40.4362C143.77 40.4362 144.318 40.1438 144.701 39.5588C145.085 38.9738 145.359 38.1624 145.523 37.1246C145.688 36.0678 145.797 34.6998 145.852 33.0204L146.126 25.1233H161.58Z" fill="#F26422"/>
<path d="M173.437 37.351H170.971V44.9367H165.573V25.1233H170.971V32.8222H173.574L178.15 25.1233H183.849L177.849 34.6903L183.904 44.9367H177.794L173.437 37.351Z" fill="#F26422"/>
<path d="M185.644 25.1233H190.987V36.7566L198.906 25.1233H204.003V44.9367H198.66V33.3317L190.768 44.9367H185.644V25.1233Z" fill="#F26422"/>
</svg>
