<svg xmlns="http://www.w3.org/2000/svg" viewBox="0 0 911.85 312.88"><defs><style>.cls-1{fill:#d6623d;}.cls-2{fill:#f1f2f3;}.cls-3{fill:#e6e9ef;}.cls-4{fill:#f3f3f4;}.cls-5{fill:#d7633d;}.cls-6{fill:#878783;}</style></defs><g id="Слой_2" data-name="Слой 2"><g id="Слой_1-2" data-name="Слой 1"><path class="cls-1" d="M847,116.67c.82,1.46,2.32,2.91,2.36,4.38.34,13.89.42,27.77.6,41.66,0,1.64.22,3.29.34,4.93.07.33.15.66.22,1l.32-.67q9.51-14.52,19-29.05c4.32-6.62,8.48-13.36,13-19.84.81-1.15,3-1.69,4.61-1.76a157.2,157.2,0,0,1,16.39,0c1.26.08,3.47,2.08,3.48,3.2.44,28.78.65,57.56.88,86.33,0,.31-.24.61-.53,1.32-6.52-.14-13.21-.32-19.9-.41-2.87,0-3.7-1.11-3.67-4.23.1-15.26-.14-30.52-.27-45.78-.1-.44-.2-.87-.31-1.3l-.87.74c-8.86,13.3-18.06,26.38-26.44,40-4.21,6.83-8.42,12.15-17.22,10.51L826.61,207c-.3-30.31-.59-60.09-.88-90.11Z"/><path class="cls-1" d="M535.64,176.06c-2.14-8.95-3-17.9-1.11-27,2.38-11.55,9.1-20,17.53-27.43,16.81-9.58,34.13-10.66,52-2.45l13,10.37a55,55,0,0,1,11.41,26.84c.45,13.66-2.62,26.14-11.26,36.76l-4.76,4.49c-6,3.11-11.76,7.57-18.17,9-12.05,2.75-24.4,2.71-35.88-3.89A50.72,50.72,0,0,1,535.64,176.06Zm67.21-23.44c-3.68-13.14-15.88-20.38-28.45-16.88-12.75,3.55-19.58,18.44-15.37,33.5,3.51,12.55,16,19.94,28.29,16.7C600.14,182.56,607.07,167.69,602.85,152.62Z"/><path class="cls-1" d="M424.72,201.69c-14.22,6.36-28.75,7.41-43.41,1.21-20.26-8.57-31.11-29.68-27.34-52.57.26-1.63.53-3.26.8-4.88a53.63,53.63,0,0,1,13.63-21.73c1.19-.81,2.41-1.59,3.59-2.42,17.23-12.24,42.77-11.23,59.42,2.23,6.72,5.43,10.93,12.63,14.52,20.33q1.23,11.08,2.45,22.16C446.05,181.83,438.33,193.83,424.72,201.69Zm-45.9-34.12c3.62,13.51,15.64,20.81,28.59,17.36,12.44-3.33,19.42-18.2,15.5-33.05-3.41-12.94-15.93-20.47-28.4-17.08C381.72,138.27,374.83,152.67,378.82,167.57Z"/><path class="cls-1" d="M649.6,116q30.92.2,61.83.39a10.86,10.86,0,0,0,1.85-.32l4.88.47c.05,2,.12,3.74.15,5.53q.51,34.62,1,69.24c-.07,4.92-.13,9.83-.2,15l-6.77.67-16.78-.64c-.16-5.72-.32-10.94-.47-16.17-.1-17.73-.2-35.45-.31-53.72l-24.39-.16c-.46,10.64-.25,20.8-1.51,30.75s-4,19.61-6.07,29.4c-3.86,6.3-8.9,11-16.59,11.14-4.64.06-9.31-.81-14-1.26,0-6.14,0-12.29.23-18.42,0-.79,1.82-2,2.9-2.1,6.69-.82,8.75-2.13,10-9,1.38-7.58,2-15.32,2.87-23Z"/><path class="cls-1" d="M761.31,193.89q.08,6,.16,12l-24.32,1.47c-.11-9.25-.21-17.5-.3-25.75-.14-12.69-.18-25.37-.45-38.05-.1-4.65-.72-9.29-1.11-13.94q.74-6.39,1.45-12.79a2.7,2.7,0,0,1,.86-.38c2.37-.07,4.74-.1,7.11-.15l15.32.37c.18,2.72.33,5.15.49,7.57l.15,11.55c0,4.08.14,8.17-.11,12.22-.24,3.82,1.59,4.11,4.4,3.32,5.07,1.57,8.5-.12,10.43-5.17A48.22,48.22,0,0,1,778,141c4.05-6.92,8.25-13.76,12.08-20.82,1.56-2.87,3.42-3.79,6.57-3.67,6.3.23,12.62,0,18.93-.06a1,1,0,0,0,.94-.06,25,25,0,0,1-1.68,4.83c-7.12,12-14.26,23.9-21.59,35.72-1.54,2.48-1.45,4.33,0,6.76,5.55,9.24,10.93,18.58,16.37,27.89,2.87,4.91,5.73,9.82,9,15.42l-26.21.35a.51.51,0,0,0-.67-.23c-6-10.47-12.07-20.9-18-31.43-1.37-2.44-2.94-3.72-5.74-3.45-2.2.22-4.44.13-7.3.2C761,179.8,761.13,186.85,761.31,193.89Z"/><path class="cls-1" d="M528.88,118.73c-.11,5.43-.21,10.86-.33,16.79H502.67c.21,23.32.42,46.41.63,70.07l-23.64-.07c-.23-8.21-.45-16.23-.67-24.26q-.15-6.27-.32-12.55c0-3.79.05-7.59.07-11.38q-.06-6.27-.13-12.55c-.15-3-.3-6-.45-8.84l-25.61-.13c-.07-7.16-.13-14-.19-20.81l39.92-.27c10.69.14,21.38.36,32.07.37C527,115.12,528.75,115.68,528.88,118.73Z"/><path class="cls-2" d="M555.19,17.87l11.23.38c.16,13,.31,25.6.47,38.23l1,.28c7.3-11.35,14.7-22.62,21.82-34.09,2-3.23,4.23-5.12,8.07-4.57a30.14,30.14,0,0,0,5.76.17c5.36-.87,6.39,1.85,6.31,6.65-.14,8.46.23,16.94.39,25.41q.07,8.82.16,17.65.12,8,.23,16c-.9,1-1.75,2.87-2.71,2.91-4.93.24-9.89,0-15.27,0-.12-11.58-.18-22.74-.41-33.9,0-1.76-.82-3.52-1.25-5.26.26.34.51.66.77,1l.19-.39-1-.52c-8,12.67-15.89,25.36-23.94,38-.47.74-1.9.81-2.88,1.2l-14.61-.07c-.17-3.37-.29-5.82-.41-8.26l-.45-46.72c0-4.52.11-9,.16-13.65Z"/><path class="cls-2" d="M733.22,72c.06-3.59.12-7.18.18-11.12l-24.48-.09c0,9,.06,17.68.08,26.72-5.26,0-10.23.18-15.17-.16-1.07-.08-2.05-2-3.07-3.15q-.18-30.22-.32-60.47a44.56,44.56,0,0,1,.57-5.25l17.33.48c.13,8.47.25,16.81.38,25.58l24.38.16c0-8.66-.05-17-.07-25.76l17.77.12c.21,4.58.4,8.83.58,13.09,0,3.15,0,6.29.08,9.44q.1,6,.23,12.1c0,3.69,0,7.38,0,11.07l-.15,22.74-2.88.6-14.91-.65C733.59,82.1,733.41,77.06,733.22,72Z"/><path class="cls-2" d="M878.08,34.8c0,4.06.07,7.52.1,11.39l28.14.31c.06,5,.12,9.52.18,14.43l-28,0c0,4-.05,7.93-.08,12.42l31.19.3c.07,4.91.15,9.64.23,15l-49.12-.22c-.24-22.92-.47-45.53-.72-68.75l49.09.22c.06,4.93.11,9.64.17,15Z"/><path class="cls-2" d="M764.57,38.82c0-6.43.1-12.86.16-19.71l17.56.15c.1,7.39.2,14.3.3,21.58,11.72,1,24-2,34.11,6.85,1.67,4.07,4.3,8,4.84,12.22C823.75,77,814.73,87.44,798,88c-5.94.19-11.88.21-17.83.31l-8-.21-6.65-.34c-.28-9.76-.55-19.4-.83-29Q764.63,48.75,764.57,38.82ZM782.85,74c4.79,0,9.14.18,13.44-.19,4.72-.4,7.6-4.39,7.61-9.77,0-5.09-2.4-8.22-7.43-8.75-4.42-.46-8.9-.28-13.72-.4C782.79,61.44,782.82,67.36,782.85,74Z"/><path class="cls-2" d="M659.59,18.31,677,19.47c0,1.67-.07,3.35-.11,5,.14,20.74.28,41.47.42,62.83l-17.39,0c-.28-6.47-.54-12.69-.81-18.9,0-1.31,0-2.62,0-3.83-4.34.7-8,1.69-11.67,1.81-9.74.3-18.89-1.47-25-10.55a73.37,73.37,0,0,1-4.07-8c-.26-7.61-.7-15.23-.72-22.84,0-6.89.18-6.85,7-6.7,3.5.07,7,0,10.49-.06l1.32,23.2c.47,4.45,2.9,7.5,7,8.46,5.34,1.24,10.75,1.4,15.48-2.16.13-.1,0-.62-.07-.94,0-6-.17-11.95-.08-17.91C658.92,25.42,659.33,21.87,659.59,18.31Z"/><path class="cls-2" d="M828.63,44.37c0-8,0-16.09,0-24.47,5.15-.43,10.09-2.18,15.28-.67.81.92,2.31,1.85,2.33,2.78.33,21.87.51,43.74.72,66.24l-17.62,0C829.11,73.41,828.87,58.89,828.63,44.37Z"/><path class="cls-3" d="M674.75,289.84l.06,10.1c.16,3.74-2.24,3.58-5.56,3.16-.41-7.7-.83-15.54-1.25-23.39l-1.32-.49-7.57,12.91c-6.28,10.2-5.77,7.42-11.12-.66-1.09-1.65-2-3.39-3.12-5.05-1.79-2.77-3.62-5.51-5.44-8.25a9.22,9.22,0,0,0-1.12,4.78c0,5.77.18,11.55,0,17.31,0,1.26-1.27,2.47-1.95,3.71-1.27-1-2.61-1.83-3.78-2.9-.4-.37-.35-1.24-.5-1.88q.15-13.35.32-26.7a17.88,17.88,0,0,1,.11-3.74c.27-1.21,1.06-3.33,1.48-3.28,1.56.15,3.69.58,4.48,1.72,3.75,5.44,7.14,11.14,10.65,16.75l4.71,8c2.14-3.87,3.84-7,5.55-10q4.39-7.41,8.81-14.81l5.4-1.75Q674.18,277.58,674.75,289.84Z"/><path class="cls-3" d="M878.14,301.84l-4.28,3.32L872.64,304l-.51-26.48c0-3.46.08-6.92.13-10.48,3-1.46,4.73-.51,6.38,2.27,4.55,7.68,9.36,15.19,14.57,23.59l16.32-27,1.46.69a15.73,15.73,0,0,1,.66,3.13c.12,10.42.23,20.85.19,31.28,0,1.19-.89,2.37-1.38,3.56-.63-1.25-1.69-2.46-1.82-3.75-.34-3.29-.26-6.62-.35-9.93,0-3.86,0-7.71,0-11.57l-1.2-.4-7.65,13.19c-.64.91-1.31,1.79-1.9,2.72-4.13,6.57-4.12,6.57-8.76.55q-5-8.37-10.06-16.73l-1.11.39c.17,3.7.33,7.4.5,11.11Q878.13,296,878.14,301.84Z"/><path class="cls-3" d="M474.32,291.47c6.39-8.05,12.67-16.2,19.27-24.07,1.46-1.74,4.08-2.47,7.27-4.31.15,14.1.28,26.32.41,39.2l-5.47,0c-.14-9.21-.27-17.94-.42-28.1-2,2.14-3.2,3.26-4.22,4.54-5.38,6.78-10.58,13.72-16.15,20.33-1.52,1.81-4.1,2.68-7.45,4.76-.16-14.25-.3-26.61-.44-39.37l5.4-.18c.26,9,.52,17.74.77,26.47,0,.4,0,.8,0,1.2Zm20.6-16.13.25-.41-.41-.26-.21.58Z"/><path class="cls-3" d="M708.19,303.71l-6.47-.44c-.16-7.21-.32-14.56-.48-21.92-.08-5.19-.15-10.39-.23-16l5.71.54c.16,3.79.33,7.57.49,11.35-.05,7-.09,14.08-.14,21.44l21.24.11a9.78,9.78,0,0,0,.4-1.8q-.16-11.86-.36-23.74c.1-2.38.2-4.77.3-7.43,2.84-.14,5.66-.9,5.45,3.54,0,9.78,0,19.56.07,29.45l6.16.4c-.06,4.64-.11,9-.17,13.7l-5.43-.81c0-2.38.08-4.71.13-7.62Z"/><path class="cls-3" d="M586.69,268.08c1-3.39,1-3.39,5.7-2.63.14,8.84.27,17.74.43,28.22l23-28.67,4.71.31c.08,12.88.17,25.54.25,38.7l-5.78-1.21c0-8.28-.1-16.24-.15-24.2-.32-.87-.65-1.73-1-2.6-5.8,7.26-11.69,14.44-17.35,21.81-3.67,4.77-3.51,4.89-9.12,4.94Q587.07,285.41,586.69,268.08Z"/><path class="cls-3" d="M356.71,277.64q3.54-5.16,7.06-10.33c12.17-6.8,22.38-4.94,31.71,5.76,6.29,13.21.11,28.62-18.68,29.43-3-.76-6.09-1.15-8.89-2.35C359.16,296.41,355.78,289.35,356.71,277.64Zm25.48,19a14,14,0,0,0,9.24-18c-2.54-8-10.95-12.12-19.42-9.56a14.07,14.07,0,0,0-9.3,18C365.25,294.94,373.87,299.17,382.19,296.62Z"/><path class="cls-3" d="M784.13,272.09c.16-1.91.31-3.83.52-6.38l5.6,1c-.07,5-.15,9.9-.23,15.42l22.33.25c0-5.39,0-10.46,0-16.15l5.6-.07c.12,12.72.25,25.07.37,37.73l-5.54.09c-.12-5.6-.24-10.86-.36-16.78L790.32,287c0,5.59-.05,10.83-.07,16.68l-6.15.29C784.11,293.15,784.12,282.62,784.13,272.09Z"/><path class="cls-3" d="M449.5,297.49c.09-3.79.18-7.57.3-12.11l-22.29-.21c0,5.64-.06,11-.08,16.69l-5.37.19c-.26-8.23-.51-16.11-.76-24,.13-4.45.25-8.9.39-13.85l5.39,0c.11,5.48.22,10.59.33,16.15l22.06.18c0-5.32,0-10.53.06-16.12l5.5-.08c.13,12.63.26,25,.39,37.7l-5.25.16C449.91,300.38,449.7,298.94,449.5,297.49Z"/><path class="cls-3" d="M773.79,265.59l1.37,4.44-21,.87-.85,1.35c-.08,3.1-.17,6.2-.27,9.76l19.5.29-.08,4.47-19.26.05c0,4,.08,7.78.12,11.95l22.47.57c-.06,1.84-.12,3.38-.18,5.27-8.65-.21-17-.28-25.35-.75-1.17-.07-3.21-2.08-3.24-3.21-.2-7.28.14-14.57.1-21.86,0-3.58-.48-7.17-.73-10.76l6.1-2.59Z"/><path class="cls-3" d="M855.66,282.07c1.62,3.63,3.23,7.27,4.88,10.89s3.31,7.13,5.05,10.85c-3.36.9-6.2,1-7-2.64-1.4-6.06-5.25-7.22-10.47-6.52a51.05,51.05,0,0,1-5.81.16c-5.12-1.13-8.78.15-10,5.94-.77,3.64-3.4,3.86-7,2.91.66-1.59,1.27-3.17,2-4.7,4.5-9.86,9-19.75,13.64-29.52.67-1.39,2.65-3.06,3.9-2.94,1.58.14,3.33,1.74,4.47,3.16a39.92,39.92,0,0,1,3.4,6l.74,1.86C854.15,279,854.91,280.56,855.66,282.07Zm-18.75,8.21,16.55-.08c-3-6.41-5.49-11.83-8.45-18.2Z"/><path class="cls-3" d="M534.26,267.23c3.65,3.44,4.62,7.42,2.52,12l-3,2.81-.62.47.82.75c3.8,2.3,6.27,5.45,5.6,10.18s-4.14,6.92-8.09,8.24a24,24,0,0,1-19.75-1.83c-1.13-.62-1.52-2.71-2.3-4.2,6.36.86,11.51,1.74,16.68,2.14a6.7,6.7,0,0,0,4.86-1.75c1.41-1.48,2.87-3.84,2.71-5.71-.12-1.56-2.33-3.81-4-4.26a35,35,0,0,0-10.07-.9c-3.19.09-4.25-.93-3.08-4.38,3-.05,6.26.05,9.43-.2s5.81-1.35,6.11-5.09a5.35,5.35,0,0,0-5.24-6c-4.85-.36-9.76.26-15.57.52l-1-2.14C511.9,263.45,526.63,263.35,534.26,267.23Z"/><path class="cls-3" d="M548.53,280.68c.1-5.11.2-10.21.32-15.93l5.28,0c.11,5.46.21,10.55.31,15.83,4.88,1.37,8.83,1,11.53-4,1.46-2.71,3.83-4.89,5.4-7.55,1.82-3.09,4.21-4.73,7.77-4.52a22.29,22.29,0,0,1-1.74,4.52c-3.22,4.84-9.17,9.48-9.23,14.33,0,4.56,6.05,9.29,9.44,13.95,1.14,1.57,2.27,3.15,3.53,4.91L576,303.78c-3.14-4.12-6.59-8.09-9.42-12.49s-6.35-6.3-11.35-5l-.55.91c-.08,5.09-.15,10.17-.22,15.29-4.92,1.85-5.41,1.51-5.52-3.83Q548.76,289.67,548.53,280.68Z"/><path class="cls-2" d="M451.81,17.19l17,.4c0,4.84.05,9.68.08,15.36l-35.5,0c.1,2.19.51,4.21.2,6.08-.66,4,1.1,4.93,4.56,4.77,4.15-.2,8.33-.22,12.49,0,9,.36,17.45,2.15,21.82,11.66,2.93,6.37,1.89,12.85,0,19.24-1.23,1.75-2.45,3.5-3.68,5.24-4.7,2-9.28,5.42-14.13,5.78-12.51.92-25.14.5-38.05.62-.27-5.41-.58-10.27-.72-15.13s-.1-9.53-.14-14.3q-.11-10.89-.23-21.8c-.17-5.71-.35-11.42-.54-17.5ZM433.9,57.34c0,5.21.08,9.77.12,14.87,5.26,0,10.22.21,15.15-.11,4.18-.28,6.95-2.72,7-7.28s-2.9-6.89-7.13-7.14C444.2,57.39,439.39,57.45,433.9,57.34Z"/><path class="cls-4" d="M18.43,101.57,14,78.76,0,37.88A137.91,137.91,0,0,0,59,58.69L59.31,60A6.64,6.64,0,0,0,59.09,62c4.8,28.36,2.53,56.24-4.17,83.82l-.29,2.42,0-.11-1.06,3.52,0-.09L52.55,155l0-.09c-.35,1.17-.71,2.34-1.07,3.51l0-.09q-.87,2.37-1.72,4.74l0-.09-2,3.79,0-.07-6.45,15.5,0,1.71c0,.34,0,.68-.05,1l1-.42c23.61-13.66,49-22,76.22-23.46,12.77-.69,25.72,1.16,38.59,1.86l.4,1.11L169,199.45l12.3,24.16-13.62-8a157.68,157.68,0,0,0-53.17-18.29,151.53,151.53,0,0,0-87.72,8.51c-8.35,3.38-16.31,7.74-25.21,12C5.4,206.7,9,196,12.63,185.35a177.48,177.48,0,0,0,7.37-49l-.39-23.74Q19,107.1,18.43,101.57Z"/><path class="cls-3" d="M144.32,262.08l8.84,2.56c7.44,4.85,10.68,11.77,10,20.64-2.61,9.8-9.1,15.06-18.81,15.67-8.66.54-16.09-2.45-20.51-10.81-3.62-6.83-2.49-13.48,1.06-19.88l8.88-6.75Zm-6.83,5.72c-7.8,2.32-11.85,9.92-9.53,17.86s10.85,12.19,19.34,9.73a14.12,14.12,0,0,0,9.59-17.88C154.58,269.7,145.82,265.31,137.49,267.8Z"/><path class="cls-3" d="M42.17,284.21c-1-9.4,2.9-16.07,10.62-20.64,6-2,12-2.6,18.07-.25a19.15,19.15,0,0,1,12.65,19.34,18.59,18.59,0,0,1-14.27,17.25c-8.85,2.15-16.85-.06-23.22-6.73C43.93,291,43.41,287.24,42.17,284.21Zm15.45-16.89a14.53,14.53,0,0,0-9.35,18.09c2.4,7.71,11.18,12.11,19.43,9.73a14.16,14.16,0,0,0,9.53-17.86C74.87,269.21,66,264.72,57.62,267.32Z"/><path class="cls-3" d="M174.29,283.29c.34-6.6.68-13.2,1.05-20.46l27.12.13c.21,3.17.39,6,.57,8.72Q203,286,202.91,300.3c-5.28,2.32-5.45,2.21-5.56-3.54q-.21-10.92-.4-21.85c.08-2.23.17-4.46.27-7.15l-17.16-.07c-.12,4-.22,7.36-.32,10.76-.53,4.54-.8,9.13-1.63,13.61-1.35,7.25-3.63,9-10.93,9.08l-1.56-4.51C172.58,295.17,174,292.74,174.29,283.29Z"/><path class="cls-3" d="M27.88,299.65c-.11-10.76-.23-21.51-.35-32.75l-22.4-.14c.09,9.88.21,19.45.21,29,0,1.73.93,4.3-2.36,4.17l-.86-1.15c0-12.06,0-24.12-.05-36.86l30.83.11c.24,12.21.47,24.07.71,35.93C32.59,301.62,30,299.65,27.88,299.65Z"/><path class="cls-3" d="M118.35,262.54c.09,1.63.17,2.9.27,4.65l-13.26.17c.06,11,.11,21.8.17,33l-5.4-.17c-.15-11-.29-21.69-.44-32.86l-13.07-.28-.2-4.7Z"/><path class="cls-3" d="M328,263.35c4.71.11,9.43.37,14.14.28,3.79-.07,5.95.84,5.32,5.42-.38,2.71.08,5.55.16,8.33,0,7.9,0,15.81,0,24.1l-5.35.1c-.17-11.08-.33-21.88-.5-33.09l-22.45-.14c.15,4.39.28,8.49.41,12.58q0,9.09,0,18.18L318.13,302l-4.28-3.18c-.29-10.76-.69-21.51-.73-32.27,0-1,2.06-2.74,3.32-2.89C320.25,263.24,324.14,263.42,328,263.35Z"/><path class="cls-3" d="M282.43,301.59c-.41-1.57-.82-3.13-1.22-4.7l.12-22.9-1.28-.36-13.81,18.14a84.34,84.34,0,0,1-6.73,7.6c-1.28,1.15-3.4,1.33-5.13,1.95a27.57,27.57,0,0,1-1-4.66c-.25-4.63-.29-9.27-.42-13.91.08-6.4.16-12.81.24-19.42l5.26.23c.14,9.26.28,18.28.44,28.64,2.57-3.21,4.27-5.36,6-7.49q8.75-10.81,17.51-21.61l4.1.77c.25,10.54.49,21,.73,31.45-.1,1.77-.2,3.53-.31,5.62Z"/><path class="cls-3" d="M220.87,300.09l-5.28,1.05q-.41-13.61-.79-27.21c-.06-1.82-.17-3.63-.25-5.45q.48-2.85.94-5.7l4.64.55c.16,5.24.31,10.44.5,16.84,3.56-1,7.26-1.08,9.38-3,3.31-2.95,5.79-7,8.18-10.87,2-3.16,4.35-3.33,7.87-2.5-1.33,1.83-2.4,3.23-3.39,4.69-3.06,4.51-8.64,9.12-8.43,13.54.2,4.58,6,9,9.4,13.44a1.91,1.91,0,0,0,.4.28l3,4.67c-3.9,1.77-6.49.24-8.6-2.85a91.27,91.27,0,0,1-5.82-8c-2.8-4.79-6.55-6.4-12.13-4.63C220.61,289.92,220.74,295,220.87,300.09Z"/><path class="cls-5" d="M224.69,185.06l-11.49-6.73-5.66-2.78a152.41,152.41,0,0,0-45-14.89l-4.18-.94c-4.87-42.39-.65-83.09,20.58-121.44a29.12,29.12,0,0,0-3.59,1.06C153.7,49.92,131.11,57.55,107.2,61c-16,2.32-31.94,2.79-47.89-1L59,58.69C55.79,39,50.25,20.18,40.09,2.89a15.54,15.54,0,0,1-.9-2.27L41.33,0C61.92,14.12,84.9,20.09,109.1,21.94l18.48.74a186.36,186.36,0,0,0,61.65-10.57L221.55.26c-.53,1.06-.86,1.77-1.23,2.46a184.27,184.27,0,0,0-20.23,65.36c-2.05,17-2.26,34.06,1.14,51.05.32,2.3.5,4.63,1,6.9a176,176,0,0,0,22.15,55.27,28,28,0,0,1,1.87,4.88l.08,0a.67.67,0,0,0-.72-.52C225.29,185.48,225,185.27,224.69,185.06Z"/><path class="cls-1" d="M269.7,205.32l-9-1.45c-.31-29.74-.61-59.6-.93-89.82l11.91-.34,48.35.14,20,.66c.08,4.11.11,7.73.22,11.34.27,9.57.58,19.13.87,28.69q-.12,18.39-.21,36.77c0,2,.23,3.92.35,5.89-.21,2.27-.42,4.54-.72,7.81l-23.3-.38c-.31-16.58-.62-32.82-.93-49,0-6.87.09-13.75.13-21.05l-32.76-.19c.32,18.7.63,37,.94,55.35,0,1.71-.05,3.42-.07,5.13-.08,3.18-.15,6.35-.22,9.39l-5.61.74Z"/><path class="cls-2" d="M254,66.82c-1.36-5.77-3.66-11.52-3.86-17.31-.44-12.52,6.4-21.7,17.89-25.95,1.05-.39,2.08-.85,3.12-1.28l11.28-2.05c.13-2,.27-4.07.46-6.8h15.95c.22,2.39.4,4.48.62,6.91,10.8,1.47,21.2,3.89,28.21,13.65,4.19,5.84,5.29,12.48,5,19.41-.81,16.41-10.41,24.69-32.55,28-.12,2.18-.25,4.43-.4,7.25-2.77,0-5.46,0-8.14,0s-5.14-.07-7.95-.12c-.13-2.52-.25-4.79-.38-7.28C272.12,79.32,260.61,78.23,254,66.82Zm29.2-1.34c-.12-10-.24-19.65-.35-29.31-10,.3-15.33,5.33-15.43,13.93C267.3,59.14,272.46,64.4,283.18,65.48Zm16.45.28c10.86-.92,15.94-6.33,15.54-15.73-.36-8.32-6.19-13.54-15.8-13.72C299.46,46,299.54,55.69,299.63,65.76Z"/><path class="cls-2" d="M397.67,58l11.16,28c-5.62,0-10.88.14-16.13-.09-1.11,0-2.44-1.25-3.18-2.28a17.32,17.32,0,0,1-1.62-4.14c-2.66-7.32-2.66-7.32-10.35-6.73a54.27,54.27,0,0,1-6.76-.3c-8.67-1.45-15,.4-16.51,10.65-.15,1.09-2.33,2.26-3.76,2.62-2,.49-4.14.24-6.23.31l-8.62-.56a34.35,34.35,0,0,1,1-3.67C344.81,61.33,353,40.9,361.09,20.41c1-2.51,2.09-3.65,4.88-3.41,3.53.31,7.13-.19,10.64.24,1.78.22,3.43,1.7,5.13,2.61l4.14,10.26ZM371.41,36.15c-2.92,8.1-5.34,14.8-7.91,22l16.31.09Z"/><path class="cls-2" d="M494.39,86.66,484,86.27c-.27-12.63-.55-25.09-.82-37.56-.27-9.35-.58-18.7-.78-28.06-.05-2.52,1.6-3,3.76-2.95,10.55.17,21.09.25,31.64.36,9.7,2,17.72,6.45,21.92,16.31.37,2.62.94,5.23,1.08,7.86.76,14.27-8.21,24.69-22.65,26.06-5.26.5-10.59.34-16.32.49,0,5.84,0,11.52-.05,17.51Zm7.14-33.39c4.54-.06,8.73.19,12.84-.25,5.54-.6,8.15-4,8.18-9.68,0-5.53-2.82-9.24-8.25-9.88-4.23-.49-8.52-.28-13-.38C501.39,40.11,501.46,46.5,501.53,53.27Z"/><path class="cls-6" d="M59.31,60c16,3.76,31.92,3.29,47.89,1,23.91-3.46,46.5-11.09,68.17-21.67A29.12,29.12,0,0,1,179,38.28c-21.23,38.35-25.45,79.05-20.58,121.44l-.24,3.18a4.32,4.32,0,0,0-.88,0c-12.87-.7-25.82-2.55-38.59-1.86-27.21,1.48-52.61,9.8-76.22,23.46l-1-.6,0-1.71,6.45-15.5,0,.07,2-3.79,0,.09q.86-2.37,1.72-4.74l0,.09c.36-1.17.72-2.34,1.07-3.51l0,.09c.36-1.17.71-2.34,1.07-3.51l0,.09,1.06-3.52,0,.11c.1-.8.19-1.61.29-2.42,6.7-27.58,9-55.46,4.17-83.82A6.64,6.64,0,0,1,59.31,60Z"/></g></g></svg>