<svg width="134" height="60" viewBox="0 0 134 60" fill="none" xmlns="http://www.w3.org/2000/svg">
<path d="M55.4899 11.9035H52.4059V19.6685H47.9727V0.393555H52.4059V8.18614H55.6L60.6666 0.393555H65.3752L59.0695 9.7006L65.5679 19.6685H60.5014L55.4899 11.9035Z" fill="#F26422"/>
<path d="M81.8731 4.85433L75.182 20.5772C74.5028 22.2844 73.6583 23.4868 72.6487 24.1844C71.6574 24.8819 70.455 25.2307 69.0415 25.2307C68.2705 25.2307 67.5087 25.1114 66.7561 24.8727C66.0034 24.6341 65.3885 24.3037 64.9112 23.8815L66.4807 20.825C66.8111 21.1187 67.1874 21.3482 67.6097 21.5134C68.0502 21.6786 68.4816 21.7612 68.9038 21.7612C69.4913 21.7612 69.9685 21.6144 70.3357 21.3206C70.7028 21.0453 71.0333 20.5772 71.327 19.9163L71.382 19.7787L64.9662 4.85433H69.3995L73.5574 14.9048L77.7428 4.85433H81.8731Z" fill="#F26422"/>
<path d="M92.4188 19.6685L89.1696 15.1251L85.8103 19.6685H81.1292L86.8291 12.2063L81.322 4.85433H86.1407L89.2798 9.17743L92.5015 4.85433H97.0724L91.5652 12.0962L97.2927 19.6685H92.4188Z" fill="#F26422"/>
<path d="M99.4073 4.85433H103.675V10.6368H110.119V4.85433H114.414V19.6685H110.119V14.1338H103.675V19.6685H99.4073V4.85433Z" fill="#F26422"/>
<path d="M118.526 4.85433H122.794V13.6657L130.009 4.85433H133.946V19.6685H129.678V10.8571L122.491 19.6685H118.526V4.85433Z" fill="#F26422"/>
<path d="M51.2314 35.4814H49.1859V40.1231H47.1719V29.1089H49.1859V33.7191H51.2944L54.457 29.1089H56.6284L52.8678 34.4429L56.77 40.1231H54.457L51.2314 35.4814Z" fill="#3A3A3A"/>
<path d="M65.7609 31.7208L61.8272 40.7997C61.4601 41.7123 61.0143 42.3522 60.4898 42.7194C59.9653 43.097 59.3307 43.2858 58.5859 43.2858C58.1663 43.2858 57.752 43.2176 57.3429 43.0813C56.9338 42.9449 56.5981 42.7561 56.3358 42.5148L57.1226 41.0672C57.3114 41.2456 57.5317 41.3872 57.7834 41.4921C58.0457 41.597 58.3079 41.6494 58.5702 41.6494C58.9163 41.6494 59.1995 41.5602 59.4198 41.3819C59.6506 41.2036 59.8604 40.9046 60.0492 40.485L60.1908 40.1546L56.5247 31.7208H58.5702L61.2136 37.936L63.8727 31.7208H65.7609Z" fill="#3A3A3A"/>
<path d="M75.1831 31.7208V40.1231H73.232V33.3887H69.0938V40.1231H67.127V31.7208H75.1831Z" fill="#3A3A3A"/>
<path d="M77.837 31.7208H79.8038V37.2594L84.4456 31.7208H86.2393V40.1231H84.2725V34.5845L79.6465 40.1231H77.837V31.7208Z" fill="#3A3A3A"/>
<path d="M95.5408 33.3887H92.5984V40.1231H90.6316V33.3887H87.6735V31.7208H95.5408V33.3887Z" fill="#3A3A3A"/>
<path d="M101.184 34.4901C102.254 34.4901 103.073 34.7314 103.639 35.2139C104.216 35.6965 104.504 36.3783 104.504 37.2594C104.504 38.1825 104.19 38.8958 103.56 39.3994C102.931 39.9029 102.045 40.1494 100.901 40.1389L96.9675 40.1231V31.7208H98.9343V34.4744L101.184 34.4901ZM100.728 38.6913C101.305 38.7018 101.746 38.5811 102.05 38.3294C102.354 38.0776 102.506 37.7105 102.506 37.228C102.506 36.7559 102.359 36.4098 102.066 36.1895C101.772 35.9692 101.326 35.8538 100.728 35.8433L98.9343 35.8276V38.6756L100.728 38.6913Z" fill="#3A3A3A"/>
<path d="M0 1.57347C0 0.704464 0.704465 0 1.57347 0H38.5499C39.4189 0 40.1234 0.704465 40.1234 1.57347V38.5499C40.1234 39.4189 39.4189 40.1234 38.5499 40.1234H1.57347C0.704464 40.1234 0 39.4189 0 38.5499V1.57347Z" fill="#ED6D2C"/>
<path d="M9.46765 56.903V60.0002H8.03265V58.2184H1.61102V60.0002H0.164062L0.176021 56.903H0.534771C1.06094 56.879 1.42766 56.4924 1.63494 55.743C1.85019 54.9856 1.98173 53.9054 2.02956 52.5023L2.12523 49.8475H8.25986V56.903H9.46765ZM3.39281 52.6458C3.35295 53.73 3.26526 54.6349 3.12973 55.3603C2.9942 56.0778 2.77895 56.592 2.48398 56.903H6.72919V51.163H3.45261L3.39281 52.6458Z" fill="#969693"/>
<path d="M16.6264 55.0614C16.6264 55.165 16.6184 55.3125 16.6025 55.5038H11.5919C11.6796 55.9742 11.9068 56.3489 12.2736 56.6279C12.6483 56.899 13.1106 57.0345 13.6607 57.0345C14.3623 57.0345 14.9403 56.8033 15.3947 56.3409L16.1959 57.2617C15.9089 57.6045 15.5462 57.8636 15.1077 58.039C14.6692 58.2144 14.1749 58.3021 13.6249 58.3021C12.9233 58.3021 12.3054 58.1626 11.7713 57.8835C11.2372 57.6045 10.8226 57.2179 10.5276 56.7236C10.2406 56.2213 10.0971 55.6553 10.0971 55.0255C10.0971 54.4037 10.2367 53.8456 10.5157 53.3513C10.8027 52.8491 11.1973 52.4584 11.6996 52.1794C12.2018 51.9004 12.7678 51.7609 13.3976 51.7609C14.0195 51.7609 14.5735 51.9004 15.0599 52.1794C15.5541 52.4505 15.9368 52.8371 16.2079 53.3394C16.4869 53.8337 16.6264 54.4077 16.6264 55.0614ZM13.3976 52.9567C12.9193 52.9567 12.5127 53.1002 12.1779 53.3872C11.851 53.6662 11.6517 54.0409 11.58 54.5113H15.2034C15.1396 54.0489 14.9443 53.6742 14.6174 53.3872C14.2905 53.1002 13.884 52.9567 13.3976 52.9567Z" fill="#969693"/>
<path d="M23.9674 51.8326V58.2184H22.4726V53.1002H20.081L20.0212 54.3678C19.9813 55.2128 19.9016 55.9224 19.782 56.4964C19.6704 57.0624 19.4751 57.5128 19.196 57.8477C18.925 58.1745 18.5503 58.338 18.072 58.338C17.8487 58.338 17.5737 58.2941 17.2468 58.2064L17.3186 56.9508C17.4302 56.9747 17.5259 56.9867 17.6056 56.9867C17.9085 56.9867 18.1357 56.8671 18.2872 56.6279C18.4387 56.3808 18.5343 56.0898 18.5742 55.755C18.622 55.4122 18.6619 54.9258 18.6938 54.296L18.8014 51.8326H23.9674Z" fill="#969693"/>
<path d="M28.3602 51.7609C29.301 51.7609 30.0185 51.9881 30.5127 52.4425C31.015 52.8889 31.2661 53.5666 31.2661 54.4754V58.2184H29.855V57.4411C29.6717 57.7201 29.4086 57.9354 29.0658 58.0868C28.7309 58.2303 28.3244 58.3021 27.846 58.3021C27.3677 58.3021 26.9492 58.2224 26.5904 58.0629C26.2317 57.8955 25.9526 57.6683 25.7533 57.3813C25.562 57.0863 25.4663 56.7555 25.4663 56.3888C25.4663 55.8148 25.6776 55.3563 26.1001 55.0135C26.5306 54.6628 27.2043 54.4874 28.1211 54.4874H29.7713V54.3917C29.7713 53.9453 29.6358 53.6025 29.3647 53.3633C29.1017 53.1241 28.707 53.0045 28.1809 53.0045C27.8221 53.0045 27.4673 53.0603 27.1166 53.172C26.7738 53.2836 26.4828 53.439 26.2436 53.6383L25.6577 52.5501C25.9925 52.295 26.3951 52.0997 26.8654 51.9642C27.3358 51.8286 27.8341 51.7609 28.3602 51.7609ZM28.1569 57.2139C28.5316 57.2139 28.8625 57.1302 29.1495 56.9628C29.4445 56.7874 29.6517 56.5402 29.7713 56.2213V55.4799H28.2287C27.3677 55.4799 26.9372 55.7629 26.9372 56.329C26.9372 56.6 27.0448 56.8153 27.2601 56.9747C27.4753 57.1342 27.7743 57.2139 28.1569 57.2139Z" fill="#969693"/>
<path d="M39.095 55.0614C39.095 55.165 39.087 55.3125 39.0711 55.5038H34.0605C34.1482 55.9742 34.3754 56.3489 34.7422 56.6279C35.1169 56.899 35.5792 57.0345 36.1293 57.0345C36.8309 57.0345 37.4089 56.8033 37.8633 56.3409L38.6645 57.2617C38.3775 57.6045 38.0148 57.8636 37.5763 58.039C37.1378 58.2144 36.6435 58.3021 36.0934 58.3021C35.3919 58.3021 34.774 58.1626 34.2399 57.8835C33.7058 57.6045 33.2912 57.2179 32.9962 56.7236C32.7092 56.2213 32.5657 55.6553 32.5657 55.0255C32.5657 54.4037 32.7053 53.8456 32.9843 53.3513C33.2713 52.8491 33.6659 52.4584 34.1682 52.1794C34.6704 51.9004 35.2364 51.7609 35.8662 51.7609C36.4881 51.7609 37.0421 51.9004 37.5285 52.1794C38.0227 52.4505 38.4054 52.8371 38.6764 53.3394C38.9555 53.8337 39.095 54.4077 39.095 55.0614ZM35.8662 52.9567C35.3879 52.9567 34.9813 53.1002 34.6465 53.3872C34.3196 53.6662 34.1203 54.0409 34.0486 54.5113H37.672C37.6082 54.0489 37.4129 53.6742 37.086 53.3872C36.7591 53.1002 36.3525 52.9567 35.8662 52.9567Z" fill="#969693"/>
<path d="M47.008 58.2184V53.9851L44.8555 57.5487H44.2098L42.0932 53.9732V58.2184H40.7299V51.8326H42.2965L44.5685 55.8267L46.9483 51.8326H48.3474L48.3593 58.2184H47.008Z" fill="#969693"/>
<path d="M56.324 55.6593H55.164V58.2184H53.6692V51.8326H55.164V54.4156H56.3598L58.2493 51.8326H59.8517L57.5318 54.9059L60.0071 58.2184H58.2493L56.324 55.6593Z" fill="#969693"/>
<path d="M63.3244 51.7609C64.2651 51.7609 64.9826 51.9881 65.4769 52.4425C65.9791 52.8889 66.2302 53.5666 66.2302 54.4754V58.2184H64.8192V57.4411C64.6358 57.7201 64.3727 57.9354 64.0299 58.0868C63.6951 58.2303 63.2885 58.3021 62.8102 58.3021C62.3318 58.3021 61.9133 58.2224 61.5545 58.0629C61.1958 57.8955 60.9167 57.6683 60.7174 57.3813C60.5261 57.0863 60.4304 56.7555 60.4304 56.3888C60.4304 55.8148 60.6417 55.3563 61.0642 55.0135C61.4947 54.6628 62.1684 54.4874 63.0852 54.4874H64.7354V54.3917C64.7354 53.9453 64.5999 53.6025 64.3289 53.3633C64.0658 53.1241 63.6712 53.0045 63.145 53.0045C62.7862 53.0045 62.4315 53.0603 62.0807 53.172C61.7379 53.2836 61.4469 53.439 61.2077 53.6383L60.6218 52.5501C60.9566 52.295 61.3592 52.0997 61.8296 51.9642C62.2999 51.8286 62.7982 51.7609 63.3244 51.7609ZM63.1211 57.2139C63.4958 57.2139 63.8266 57.1302 64.1136 56.9628C64.4086 56.7874 64.6159 56.5402 64.7354 56.2213V55.4799H63.1928C62.3318 55.4799 61.9013 55.7629 61.9013 56.329C61.9013 56.6 62.0089 56.8153 62.2242 56.9747C62.4394 57.1342 62.7384 57.2139 63.1211 57.2139Z" fill="#969693"/>
<path d="M70.7347 55.6593H69.5747V58.2184H68.0799V51.8326H69.5747V54.4156H70.7706L72.66 51.8326H74.2624L71.9425 54.9059L74.4179 58.2184H72.66L70.7347 55.6593Z" fill="#969693"/>
<path d="M85.5933 56.9508V59.6414H84.1942V58.2184H79.2673V59.6414H77.8802V56.9508H78.1791C78.5857 56.9348 78.8608 56.6758 79.0043 56.1735C79.1557 55.6633 79.2554 54.9458 79.3032 54.021L79.3869 51.8326H84.6486V56.9508H85.5933ZM80.6665 54.1286C80.6346 54.8621 80.5748 55.46 80.4871 55.9224C80.3994 56.3848 80.24 56.7276 80.0088 56.9508H83.1538V53.1002H80.7023L80.6665 54.1286Z" fill="#969693"/>
<path d="M92.7162 51.8326V58.2184H91.2214V53.1002H88.8297L88.7699 54.3678C88.7301 55.2128 88.6503 55.9224 88.5308 56.4964C88.4192 57.0624 88.2238 57.5128 87.9448 57.8477C87.6737 58.1745 87.299 58.338 86.8207 58.338C86.5975 58.338 86.3225 58.2941 85.9956 58.2064L86.0673 56.9508C86.179 56.9747 86.2746 56.9867 86.3543 56.9867C86.6573 56.9867 86.8845 56.8671 87.036 56.6279C87.1874 56.3808 87.2831 56.0898 87.323 55.755C87.3708 55.4122 87.4107 54.9258 87.4426 54.296L87.5502 51.8326H92.7162Z" fill="#969693"/>
<path d="M100.122 51.8326V58.2184H98.7832V56.2931H97.097L95.7936 58.2184H94.1912L95.6979 56.0898C95.2355 55.9303 94.8808 55.6872 94.6336 55.3603C94.3944 55.0255 94.2749 54.6149 94.2749 54.1286C94.2749 53.3952 94.534 52.8292 95.0522 52.4305C95.5704 52.0319 96.2839 51.8326 97.1927 51.8326H100.122ZM97.2405 53.0883C96.2759 53.0883 95.7936 53.451 95.7936 54.1765C95.7936 54.894 96.2599 55.2527 97.1927 55.2527H98.7832V53.0883H97.2405Z" fill="#969693"/>
<path d="M108.344 58.3021C107.682 58.3021 107.088 58.1626 106.562 57.8835C106.036 57.6045 105.625 57.2179 105.33 56.7236C105.035 56.2213 104.888 55.6553 104.888 55.0255C104.888 54.3957 105.035 53.8337 105.33 53.3394C105.625 52.8451 106.032 52.4584 106.55 52.1794C107.076 51.9004 107.674 51.7609 108.344 51.7609C108.974 51.7609 109.524 51.8884 109.994 52.1435C110.473 52.3987 110.831 52.7654 111.07 53.2437L109.922 53.9134C109.739 53.6184 109.508 53.3992 109.229 53.2557C108.958 53.1042 108.659 53.0285 108.332 53.0285C107.774 53.0285 107.312 53.2118 106.945 53.5785C106.578 53.9373 106.395 54.4196 106.395 55.0255C106.395 55.6314 106.574 56.1177 106.933 56.4844C107.3 56.8432 107.766 57.0225 108.332 57.0225C108.659 57.0225 108.958 56.9508 109.229 56.8073C109.508 56.6558 109.739 56.4326 109.922 56.1376L111.07 56.8073C110.823 57.2856 110.461 57.6563 109.982 57.9194C109.512 58.1745 108.966 58.3021 108.344 58.3021Z" fill="#969693"/>
<path d="M118.272 55.0614C118.272 55.165 118.264 55.3125 118.248 55.5038H113.238C113.326 55.9742 113.553 56.3489 113.919 56.6279C114.294 56.899 114.757 57.0345 115.307 57.0345C116.008 57.0345 116.586 56.8033 117.041 56.3409L117.842 57.2617C117.555 57.6045 117.192 57.8636 116.754 58.039C116.315 58.2144 115.821 58.3021 115.271 58.3021C114.569 58.3021 113.951 58.1626 113.417 57.8835C112.883 57.6045 112.468 57.2179 112.174 56.7236C111.887 56.2213 111.743 55.6553 111.743 55.0255C111.743 54.4037 111.883 53.8456 112.162 53.3513C112.449 52.8491 112.843 52.4584 113.345 52.1794C113.848 51.9004 114.414 51.7609 115.044 51.7609C115.665 51.7609 116.219 51.9004 116.706 52.1794C117.2 52.4505 117.583 52.8371 117.854 53.3394C118.133 53.8337 118.272 54.4077 118.272 55.0614ZM115.044 52.9567C114.565 52.9567 114.159 53.1002 113.824 53.3872C113.497 53.6662 113.298 54.0409 113.226 54.5113H116.849C116.785 54.0489 116.59 53.6742 116.263 53.3872C115.936 53.1002 115.53 52.9567 115.044 52.9567Z" fill="#969693"/>
<path d="M123.363 52.1435C123.969 52.1435 124.503 52.2751 124.966 52.5382C125.428 52.7933 125.787 53.152 126.042 53.6144C126.305 54.0768 126.436 54.607 126.436 55.2049C126.436 55.8187 126.293 56.3648 126.006 56.8432C125.719 57.3135 125.316 57.6803 124.798 57.9433C124.28 58.2064 123.69 58.338 123.028 58.338C121.92 58.338 121.063 57.9712 120.457 57.2378C119.851 56.5043 119.548 55.448 119.548 54.0688C119.548 52.7853 119.823 51.7688 120.374 51.0195C120.924 50.2701 121.765 49.7758 122.897 49.5366L125.862 48.9028L126.078 50.2422L123.387 50.7922C122.614 50.9517 122.036 51.2227 121.653 51.6054C121.27 51.9881 121.047 52.5262 120.983 53.2198C121.27 52.877 121.617 52.6139 122.024 52.4305C122.43 52.2392 122.877 52.1435 123.363 52.1435ZM123.064 57.1302C123.614 57.1302 124.057 56.9548 124.392 56.604C124.734 56.2453 124.906 55.7908 124.906 55.2408C124.906 54.6907 124.734 54.2482 124.392 53.9134C124.057 53.5785 123.614 53.4111 123.064 53.4111C122.506 53.4111 122.056 53.5785 121.713 53.9134C121.37 54.2482 121.199 54.6907 121.199 55.2408C121.199 55.7988 121.37 56.2532 121.713 56.604C122.064 56.9548 122.514 57.1302 123.064 57.1302Z" fill="#969693"/>
<path d="M133.066 51.8326V58.2184H131.727V56.2931H130.041L128.737 58.2184H127.135L128.642 56.0898C128.179 55.9303 127.825 55.6872 127.577 55.3603C127.338 55.0255 127.219 54.6149 127.219 54.1286C127.219 53.3952 127.478 52.8292 127.996 52.4305C128.514 52.0319 129.228 51.8326 130.137 51.8326H133.066ZM130.184 53.0883C129.22 53.0883 128.737 53.451 128.737 54.1765C128.737 54.894 129.204 55.2527 130.137 55.2527H131.727V53.0883H130.184Z" fill="#969693"/>
<path d="M12.779 32.258C12.6459 31.5769 12.5137 30.9029 12.3831 30.2298C12.0265 28.3867 11.6715 26.5432 11.3183 24.6995C11.2891 24.5461 11.2033 24.5352 11.085 24.525C9.61922 24.4025 8.28356 23.9195 7.11311 23.0288C5.21165 21.5816 4.15529 19.656 3.95965 17.2716C3.69387 14.0235 5.48081 10.9245 8.4268 9.53902C10.1795 8.71463 11.9969 8.5921 13.8561 9.13169C14.0095 9.17394 14.0902 9.14817 14.1941 9.02985C15.8522 7.1284 17.9438 6.18232 20.4643 6.30444C22.67 6.41092 24.4894 7.36418 25.9324 9.03366C26.0169 9.13084 26.0782 9.18577 26.2282 9.14183C30.2246 7.97603 34.3149 10.0714 35.722 13.9973C37.208 18.1442 35.0319 22.7271 30.9028 24.1384C30.5697 24.2506 30.2297 24.341 29.8849 24.4092C29.5414 24.4785 29.1903 24.5098 28.8209 24.5605C28.5716 25.8391 28.3198 27.1275 28.0697 28.4167C27.8195 29.7058 27.5711 30.9976 27.3184 32.3041C25.0535 31.0647 22.6087 30.6608 20.0764 30.6654C17.5441 30.6701 15.0933 31.0905 12.779 32.258ZM13.7868 29.9623C15.815 29.2862 17.8779 29.026 19.9796 29.0293C22.0813 29.0327 24.1404 29.3027 26.1589 29.9615L27.4189 22.8555C30.4794 23.3203 32.6374 22.0345 33.9591 19.3978C35.1583 17.0105 34.8625 14.6345 33.1225 12.6168C31.0173 10.175 28.3857 9.81663 25.4866 11.1122C24.2566 9.06366 22.4722 7.88011 20.0459 7.88349C17.6197 7.88687 15.848 9.08309 14.6175 11.1316C11.7019 9.61043 8.82864 10.6554 7.37297 12.1757C5.52222 14.1088 4.95982 16.3986 5.91477 18.8912C7.03282 21.8068 9.30569 23.0846 12.4266 22.9599C12.8765 25.2724 13.3299 27.6065 13.7868 29.9623Z" fill="white"/>
<path d="M30.1776 13.7214C30.1388 14.8251 29.7914 15.8168 29.0744 16.664C28.7063 17.0992 28.2339 17.3354 27.6491 17.324C27.5678 17.3253 27.4903 17.3587 27.4336 17.417C27.3229 17.5509 27.2021 17.6925 27.1446 17.8522C26.4639 19.7503 25.7523 21.6386 25.1358 23.5566C24.7517 24.7511 24.5252 25.9959 24.2062 27.2129C24.1034 27.5921 23.9671 27.9615 23.7989 28.3165C23.6404 28.658 23.4642 28.7087 23.1093 28.6005C22.505 28.4163 22.3753 28.2236 22.576 27.6244C22.7554 27.0764 22.9791 26.544 23.2449 26.0323C24.6528 23.3702 25.577 20.5231 26.5277 17.684C26.5621 17.5696 26.5852 17.4519 26.5966 17.3329C26.6215 17.1288 26.5809 16.9666 26.3963 16.8216C25.9695 16.4865 25.7815 16.007 25.7882 15.4826C25.806 14.0975 26.2627 12.8894 27.344 11.9755C27.5509 11.8064 27.783 11.671 28.0319 11.574C28.7803 11.2732 29.4732 11.5402 29.8489 12.2539C30.0902 12.7107 30.1852 13.2038 30.1776 13.7214ZM29.6165 13.7007C29.6165 13.5811 29.6401 13.4556 29.6114 13.3437C29.5561 13.1074 29.4766 12.8775 29.3744 12.6574C29.3342 12.5767 29.1749 12.5066 29.0786 12.5167C28.9996 12.5252 28.9218 12.6515 28.8673 12.7398C28.8289 12.8015 28.8251 12.8869 28.812 12.9629C28.7131 13.5651 28.6172 14.168 28.5162 14.7702C28.4739 15.0398 28.4097 15.3076 28.3843 15.5785C28.3755 15.6744 28.4291 15.8358 28.4967 15.8637C28.5536 15.8826 28.614 15.8888 28.6735 15.8819C28.7331 15.875 28.7904 15.8553 28.8415 15.824C28.9808 15.7184 29.0977 15.5863 29.1855 15.4353C29.5041 14.9029 29.6123 14.3126 29.6165 13.7007Z" fill="white"/>
<path d="M20.8669 16.5438C20.8669 17.6563 20.8483 18.7693 20.8716 19.8819C20.9011 21.2894 20.989 22.6956 21.0059 24.1035C21.0207 25.3484 20.9814 26.594 20.9459 27.8388C20.9387 28.1012 20.8614 28.3657 20.7849 28.6201C20.7215 28.8314 20.61 28.8631 20.4089 28.7731C20.2984 28.7239 20.2015 28.6485 20.1267 28.5535C20.0519 28.4584 20.0014 28.3465 19.9796 28.2276C19.8879 27.775 19.7738 27.3128 19.7827 26.8568C19.8025 25.8588 19.8891 24.862 19.9576 23.8656C19.9939 23.3391 20.0543 22.8143 20.0953 22.2883C20.1114 22.0829 20.0594 21.9147 19.9081 21.739C19.7472 21.5445 19.6437 21.3088 19.6094 21.0587C19.5425 20.5217 19.5099 19.981 19.5118 19.4399C19.5164 17.5245 19.5164 15.6087 19.5676 13.6933C19.5912 12.7958 19.718 11.9004 19.8211 11.0067C19.838 10.8559 19.9411 10.6911 20.0518 10.5804C20.1095 10.5211 20.1858 10.4835 20.268 10.4737C20.3501 10.464 20.4331 10.4827 20.5031 10.5267C20.719 10.6586 20.8137 10.869 20.8187 11.1136C20.8276 11.5569 20.8263 12.001 20.8263 12.4442C20.8263 13.8102 20.8263 15.1764 20.8263 16.5429L20.8669 16.5438Z" fill="white"/>
<path d="M10.5154 11.8092C10.5599 11.8726 10.5997 11.9391 10.6346 12.0082C11.1039 13.1068 11.5718 14.2064 12.0383 15.307C12.0548 15.3459 12.059 15.4004 12.0877 15.4215C12.1587 15.4727 12.2449 15.5483 12.3172 15.5424C12.4461 15.5284 12.4693 15.4156 12.43 15.2973C12.2934 14.8908 12.1565 14.4846 12.0193 14.0787C11.7565 13.3001 11.4927 12.5212 11.2279 11.742C11.2121 11.6772 11.2019 11.6112 11.1974 11.5447L11.2625 11.5257C11.2946 11.5895 11.3301 11.6524 11.358 11.7179C11.8253 12.8165 12.2924 13.9166 12.7592 15.018C12.7837 15.0763 12.7968 15.1507 12.8407 15.187C12.8973 15.2331 13.0025 15.2893 13.0452 15.2656C13.1065 15.2314 13.172 15.1211 13.161 15.0581C13.1268 14.8803 13.0541 14.7095 12.9954 14.5367C12.6489 13.5184 12.3027 12.5002 11.9567 11.4821C11.9348 11.4171 11.9242 11.3482 11.9082 11.281L11.9741 11.2544C12.0097 11.3045 12.0413 11.3574 12.0687 11.4124C12.6645 12.8474 13.2588 14.2829 13.8514 15.719C13.9981 16.0752 14.0129 16.4175 13.7669 16.7572C13.5104 17.1126 13.4319 17.522 13.5903 17.9403C14.2938 19.7995 14.9678 21.6731 15.7292 23.5095C16.1835 24.6043 16.7932 25.634 17.3062 26.7056C17.5229 27.159 17.6898 27.6394 17.8432 28.119C17.9345 28.4042 17.8272 28.5635 17.5572 28.6971C16.9457 28.9988 16.6795 28.9337 16.4459 28.2969C16.1698 27.5455 15.9374 26.7787 15.7499 26.0004C15.2344 23.8526 14.4616 21.7956 13.625 19.7594C13.4185 19.2597 13.2183 18.757 13.0245 18.2513C12.8475 17.7967 12.5234 17.4979 12.0527 17.3957C11.6673 17.3112 11.4484 17.0724 11.3276 16.7323C10.799 15.242 10.2801 13.7483 9.75951 12.2533C9.74791 12.2041 9.7421 12.1538 9.74219 12.1033L9.80853 12.0855C9.8398 12.1502 9.8736 12.2123 9.90191 12.2799C10.3746 13.3861 10.8459 14.4926 11.3157 15.5994C11.3322 15.6383 11.3377 15.6937 11.3669 15.7131C11.4428 15.7572 11.5216 15.7961 11.6027 15.8297C11.6373 15.7482 11.6918 15.6683 11.6994 15.5842C11.7058 15.5136 11.6572 15.4376 11.6331 15.3645C11.255 14.2538 10.877 13.1426 10.499 12.031C10.4791 11.9731 10.4656 11.9127 10.4491 11.8536L10.5154 11.8092Z" fill="white"/>
</svg>
