<svg display="none" xmlns="http://www.w3.org/2000/svg">
    <symbol id="sofa" viewBox="0 0 53 37">
        <path d="M8.2541 36.2022H6.6612C5.83869 35.7931 5.29638 35.169 5.25873 34.2212C5.2428 33.8302 5.33548 33.4334 5.39413 33.041C5.47739 32.4886 5.57514 31.9376 5.67288 31.3511C5.12551 31.3511 4.63243 31.3511 4.14008 31.3511C3.26497 31.3503 2.41314 31.0691 1.7095 30.5488C1.00587 30.0285 0.48744 29.2964 0.230246 28.46C0.104986 28.0393 0.0724044 27.5861 0 27.1516V12.3811C0.0181011 12.2508 0.0412705 12.1212 0.0528552 11.9902C0.201284 10.2525 1.3641 8.8203 3.04967 8.34895C3.29295 8.28089 3.33929 8.17662 3.33929 7.95289C3.3306 6.64962 3.30816 5.34634 3.33929 4.04306C3.38708 2.35676 4.17918 1.10779 5.68374 0.330164C5.94802 0.194044 6.23836 0.108607 6.51639 0H46.4836C46.5118 0.0221105 46.5427 0.0405969 46.5756 0.0550273C48.5457 0.651639 49.6694 2.1591 49.6694 4.21176C49.6694 5.46508 49.6737 6.7184 49.6694 7.97244C49.6694 8.18314 49.7165 8.27872 49.9424 8.34243C51.1421 8.68201 52.0421 9.40822 52.5656 10.5457C52.7676 10.9874 52.861 11.4783 53 11.9467V27.5861C52.9749 27.6396 52.9547 27.6953 52.9399 27.7526C52.5815 29.9479 50.9336 31.3482 48.7006 31.3511H47.3372C47.4531 32.0498 47.5704 32.7108 47.6689 33.3748C47.7159 33.6941 47.7746 34.0264 47.7413 34.3399C47.6566 35.237 47.1258 35.8235 46.3359 36.2022H44.7459C44.1457 35.8966 43.7272 35.4332 43.4376 34.8207C42.9365 33.7651 42.3877 32.7318 41.8845 31.6776C41.7599 31.4155 41.6144 31.3446 41.3364 31.3446C35.6319 31.3533 29.9271 31.3554 24.2222 31.3511C20.0367 31.3511 15.8515 31.3487 11.6665 31.3438C11.382 31.3438 11.2487 31.4293 11.1264 31.6863C10.655 32.6761 10.133 33.6412 9.66743 34.6339C9.35102 35.3087 8.94556 35.8778 8.2541 36.2022ZM43.0589 18.0946V17.629C43.0589 15.3251 43.0524 13.0212 43.0589 10.7166C43.0647 9.25255 44.1377 8.19762 45.6053 8.18749C46.0151 8.18749 46.4257 8.18749 46.8362 8.18749H47.9947C47.9947 6.67206 47.9947 5.20225 47.9947 3.73317C47.9906 3.673 47.9796 3.61348 47.9621 3.55578C47.6848 2.33576 46.7167 1.58204 45.4156 1.58204H13.0617C11.1923 1.58204 9.32206 1.57552 7.45258 1.58204C6.80492 1.58221 6.1836 1.83843 5.72408 2.29483C5.26456 2.75123 5.00411 3.3708 4.99952 4.01844C4.98504 5.33331 4.99952 6.64817 4.99952 7.96376C5.00457 8.03866 5.01449 8.11315 5.02921 8.18676H7.25057C8.9376 8.18676 9.97081 9.22576 9.97153 10.9229C9.97153 13.1665 9.97153 15.411 9.97153 17.6565V18.0967L43.0589 18.0946ZM1.82893 28.0422C1.91872 28.2283 1.96433 28.3499 2.03167 28.4578C2.56891 29.3223 3.35015 29.7032 4.36671 29.7024C19.1227 29.6957 33.8792 29.694 48.6362 29.6974C50.295 29.6974 51.3275 28.6678 51.3289 27.0184C51.3289 24.9674 51.3289 22.916 51.3289 20.864C51.3289 20.0575 51.0472 19.7736 50.2465 19.7736H2.75643C1.97664 19.7736 1.67833 20.0669 1.67761 20.8365C1.67761 22.5496 1.67761 24.2632 1.67761 25.9772V26.3943H41.7969C41.9903 26.388 42.184 26.3967 42.3761 26.4204C42.5689 26.4508 42.7441 26.5503 42.869 26.7003C42.9939 26.8503 43.0601 27.0405 43.0553 27.2356C43.0519 27.4313 42.9785 27.6194 42.8483 27.7655C42.7181 27.9117 42.5397 28.0063 42.3457 28.0321C42.1772 28.0478 42.0079 28.0526 41.8389 28.0466H1.82893V28.0422ZM8.27654 18.1134C8.29234 18.0643 8.30397 18.0139 8.3113 17.9628C8.3113 15.551 8.31781 13.1392 8.3113 10.7282C8.3113 10.1714 7.95362 9.84989 7.38525 9.84772C6.37158 9.84482 5.35792 9.84482 4.34426 9.84772C2.73109 9.84772 1.67906 10.9034 1.67689 12.5267C1.67689 14.3127 1.67689 16.0972 1.67689 17.8803C1.67689 17.9947 1.68847 18.1098 1.68992 18.1474C2.80495 18.1366 3.88594 18.1221 4.96694 18.117C6.06459 18.1091 7.16079 18.1134 8.27654 18.1134ZM51.318 18.1554C51.318 18.1749 51.3282 18.1286 51.3282 18.083C51.3282 16.152 51.3448 14.2209 51.3224 12.2906C51.3065 10.9193 50.2008 9.85785 48.8281 9.84844C47.8028 9.84193 46.7768 9.84844 45.7509 9.84844C44.9856 9.84844 44.7104 10.1236 44.7104 10.8983C44.7104 13.167 44.7104 15.4356 44.7104 17.7043C44.7104 17.8317 44.7227 17.9592 44.7336 18.1568L51.318 18.1554ZM45.6611 31.3721H43.5701C44.0885 32.4031 44.5837 33.4045 45.0963 34.3942C45.2259 34.644 45.4728 34.7266 45.748 34.6201C46.0376 34.5079 46.144 34.2784 46.0962 33.9837C45.9565 33.1185 45.8088 32.254 45.6611 31.3721ZM7.34832 31.3634C7.20785 32.2265 7.07101 33.0548 6.93851 33.8838C6.86611 34.3132 6.98195 34.5354 7.30053 34.6361C7.59739 34.7259 7.82329 34.6006 8.00792 34.2342C8.44525 33.3654 8.87967 32.4951 9.3112 31.6233C9.34769 31.5385 9.37959 31.4517 9.40678 31.3634H7.34832Z"/>
        <path d="M14.917 14.8278C14.917 15.1044 14.9271 15.3817 14.917 15.6583C14.915 15.8592 14.8378 16.052 14.7005 16.1987C14.5632 16.3453 14.3759 16.4352 14.1756 16.4504C13.7346 16.4866 13.3291 16.2238 13.2973 15.7785C13.2499 15.1311 13.2499 14.4811 13.2973 13.8337C13.3306 13.3899 13.7426 13.1227 14.1777 13.1632C14.3776 13.181 14.5638 13.2722 14.7002 13.4194C14.8366 13.5665 14.9136 13.759 14.9162 13.9597C14.9271 14.2493 14.917 14.5382 14.917 14.8278Z"/>
        <path d="M39.7443 14.8062C39.7443 15.0828 39.7537 15.3608 39.7443 15.6374C39.724 16.1181 39.3706 16.4577 38.9102 16.4534C38.4497 16.449 38.1021 16.108 38.0913 15.6215C38.079 15.0799 38.079 14.5354 38.0913 13.9953C38.1021 13.5101 38.4533 13.164 38.908 13.1583C39.3801 13.1532 39.7305 13.5065 39.7457 14.0112C39.75 14.2762 39.7443 14.5412 39.7443 14.8062Z"/>
        <path d="M19.0533 14.8313C19.0533 15.1079 19.0627 15.3852 19.0533 15.6618C19.0509 15.8624 18.9733 16.0548 18.8359 16.2009C18.6985 16.3471 18.5112 16.4363 18.3111 16.451C17.8673 16.4858 17.4698 16.2237 17.4379 15.7755C17.3905 15.1283 17.3905 14.4786 17.4379 13.8314C17.4727 13.3832 17.8789 13.1226 18.3176 13.1646C18.5174 13.1828 18.7031 13.2749 18.8385 13.4229C18.9739 13.5709 19.0492 13.7641 19.0496 13.9646C19.0627 14.2535 19.0533 14.5424 19.0533 14.8313Z"/>
        <path d="M33.958 14.7836C33.958 14.5063 33.9471 14.229 33.958 13.9524C33.9625 13.7517 34.0414 13.5598 34.1793 13.4139C34.3172 13.268 34.5043 13.1784 34.7044 13.1625C35.1439 13.1263 35.5451 13.3913 35.5776 13.8416C35.6254 14.489 35.6254 15.139 35.5776 15.7864C35.5436 16.2324 35.1374 16.4916 34.695 16.4496C34.283 16.4113 33.984 16.0876 33.9572 15.6532C33.9572 15.6293 33.9572 15.6047 33.9572 15.5808V14.7843L33.958 14.7836Z"/>
        <path d="M29.8207 14.807C29.8207 14.5304 29.812 14.2531 29.8207 13.9765C29.838 13.5233 30.1537 13.1909 30.5787 13.1605C31.0175 13.1301 31.4099 13.4023 31.4404 13.8527C31.4834 14.4884 31.4834 15.1263 31.4404 15.762C31.4107 16.2124 31.0219 16.4803 30.5773 16.4513C30.3766 16.4407 30.1874 16.3547 30.0475 16.2105C29.9075 16.0663 29.8273 15.8745 29.8228 15.6737C29.8084 15.384 29.8228 15.0944 29.8228 14.8048L29.8207 14.807Z"/>
        <path d="M25.6842 14.8061C25.6842 14.5295 25.6741 14.2522 25.6842 13.9763C25.7059 13.5035 26.0354 13.1719 26.4806 13.1596C26.5864 13.1533 26.6923 13.1682 26.7921 13.2036C26.8919 13.2389 26.9837 13.2939 27.0619 13.3653C27.14 13.4368 27.2031 13.5232 27.2473 13.6194C27.2915 13.7157 27.3159 13.8198 27.3191 13.9257C27.3451 14.5136 27.3451 15.1051 27.3191 15.6931C27.2981 16.1608 26.931 16.4671 26.4792 16.4533C26.272 16.4513 26.0737 16.3685 25.9264 16.2227C25.7792 16.0768 25.6947 15.8793 25.6907 15.6721C25.6748 15.3824 25.6907 15.0928 25.6907 14.8032L25.6842 14.8061Z"/>
        <path d="M23.1864 14.8218C23.1864 15.1114 23.2001 15.4011 23.1864 15.6907C23.18 15.8913 23.0975 16.082 22.9557 16.2241C22.8138 16.3661 22.6231 16.4487 22.4225 16.4553C21.9794 16.477 21.5949 16.1953 21.5696 15.7515C21.5341 15.1274 21.5341 14.5018 21.5696 13.8777C21.5942 13.4317 21.9779 13.1435 22.4153 13.163C22.8526 13.1826 23.1675 13.5062 23.19 13.9595C23.2037 14.2491 23.19 14.5387 23.19 14.8283L23.1864 14.8218Z"/>
        <path d="M47.1701 28.0416C46.6517 28.0416 46.1332 28.0466 45.6148 28.0416C45.0653 28.0343 44.7148 27.7085 44.7148 27.219C44.7148 26.7296 45.0588 26.4016 45.6148 26.3965C46.6642 26.3874 47.7131 26.3874 48.7615 26.3965C49.3103 26.4016 49.6659 26.7383 49.6666 27.219C49.6673 27.6998 49.3046 28.035 48.7615 28.0416C48.2185 28.0481 47.7008 28.0416 47.1701 28.0416Z"/>
    </symbol>

    <symbol id="car" viewBox="0 0 52 33">
        <path d="M0 23.2215C0.039886 23.1551 0.0830958 23.0952 0.118993 23.0294C0.187531 22.8922 0.292933 22.7768 0.423383 22.6961C0.553832 22.6155 0.704173 22.5727 0.857548 22.5727C0.891451 22.5727 0.924025 22.5727 0.959258 22.5727C3.48891 22.5727 6.01857 22.5727 8.54823 22.5727C8.67493 22.57 8.80138 22.5852 8.92382 22.6179C9.10095 22.6746 9.25321 22.7905 9.35509 22.9461C9.45697 23.1017 9.50229 23.2875 9.48343 23.4726C9.46458 23.6576 9.38271 23.8305 9.25154 23.9623C9.12037 24.0942 8.94787 24.1769 8.76295 24.1967C8.67848 24.2035 8.59372 24.206 8.50901 24.2041H5.15061V26.0275C5.22284 26.0389 5.29562 26.0465 5.36865 26.0501C6.79856 26.0501 8.22715 26.0468 9.65839 26.0561C9.84585 26.0561 9.89504 25.9657 9.9562 25.8221C10.6549 24.1781 11.8647 23.1165 13.6078 22.7063C16.0268 22.1366 18.5184 23.4236 19.4916 25.7184C19.5342 25.8194 19.5754 25.9212 19.6246 26.0355H36.503V25.733C36.503 23.838 36.503 21.9427 36.503 20.0473C36.4987 19.921 36.5123 19.7948 36.5435 19.6723C36.6006 19.4894 36.7207 19.3325 36.8824 19.2296C37.0441 19.1267 37.237 19.0845 37.4269 19.1103C37.6169 19.1361 37.7915 19.2283 37.9199 19.3706C38.0483 19.513 38.1221 19.6962 38.1283 19.8877C38.1323 19.9974 38.1283 20.1071 38.1283 20.2201V26.0302H38.5006C39.3954 23.9122 40.9516 22.6399 43.2823 22.5947C45.7166 22.5495 47.3466 23.8305 48.2926 26.0388H50.3773V22.4684C50.2716 22.4684 50.1739 22.4684 50.0755 22.4684C49.6966 22.4511 49.309 22.475 48.9394 22.4052C47.7827 22.1885 46.9318 21.1468 46.9165 19.9675C46.9092 19.3838 46.9119 18.8002 46.9165 18.2165C46.9212 17.7073 47.2522 17.3736 47.7608 17.3703C48.4967 17.3649 49.2326 17.3703 49.9691 17.3703H50.2563C50.2091 17.2453 50.1825 17.1496 50.1387 17.0631C49.6255 16.0593 48.8025 15.5422 47.679 15.5255C46.9006 15.5142 46.1221 15.5255 45.3437 15.5255H38.1503C38.1416 15.6146 38.131 15.6791 38.1303 15.7436C38.1303 15.9889 38.135 16.2342 38.1303 16.4795C38.1249 16.6886 38.0388 16.8875 37.8902 17.0347C37.7415 17.1818 37.5418 17.2659 37.3326 17.2692C37.1228 17.2706 36.9205 17.1916 36.7672 17.0485C36.6138 16.9053 36.5212 16.7088 36.5083 16.4994C36.5036 16.415 36.5083 16.3306 36.5083 16.2455V1.6871C36.3089 1.63193 5.481 1.62063 5.1433 1.67248V16.2242C5.1433 16.3086 5.1433 16.3931 5.1433 16.4775C5.13735 16.6864 5.05115 16.8851 4.9026 17.0321C4.75406 17.1792 4.55457 17.2634 4.34558 17.2672C4.14029 17.2672 3.94235 17.1909 3.79024 17.053C3.63813 16.9152 3.54273 16.7257 3.5226 16.5214C3.51849 16.4623 3.51738 16.403 3.51927 16.3439C3.51927 11.4689 3.51927 6.59551 3.51927 1.72366C3.51927 0.904008 4.02848 0.239242 4.80759 0.0537722C4.9861 0.0177398 5.16794 0.00080377 5.35004 0.00324997C5.81537 -0.00406246 6.28071 0.00324997 6.74605 0.00324997C16.5522 0.000590903 26.358 0.000369314 36.1633 0.0025852C36.3829 -0.00557344 36.6028 0.0091305 36.8194 0.0464598C37.191 0.126376 37.5238 0.331637 37.762 0.627813C38.0002 0.92399 38.1293 1.29307 38.1277 1.67314C38.1277 2.21426 38.1277 2.75605 38.1277 3.29717C38.1277 3.34636 38.1336 3.39622 38.1383 3.47466H44.2076C45.9486 3.47466 47.3566 4.64332 47.6298 6.36639C47.7103 6.87095 47.6744 7.39611 47.6604 7.91064C47.6538 8.15927 47.4869 8.3454 47.2702 8.47171C47.2037 8.5096 47.1372 8.53818 47.0448 8.58206L48.379 13.9195C48.4455 13.9401 48.512 13.9633 48.5784 13.976C49.4262 14.1456 50.2029 14.5676 50.8066 15.1865C51.4103 15.8054 51.8129 16.5923 51.9614 17.4441C51.9905 17.6535 52.0023 17.8649 51.9967 18.0762C51.9967 20.9875 51.9978 23.898 52 26.808C52 27.0639 51.9628 27.2946 51.7567 27.4727C51.5801 27.6211 51.3542 27.6977 51.1238 27.6874C50.3707 27.6874 49.6175 27.6874 48.8636 27.6874H48.5632C48.5166 29.4783 47.8 30.9189 46.3462 31.9586C45.2978 32.7084 44.1132 32.9936 42.8375 32.8613C40.3513 32.6034 38.256 30.512 38.2194 27.7047H19.9131C19.8699 29.3919 19.2144 30.7859 17.8749 31.8263C16.889 32.5921 15.7583 32.9378 14.5105 32.8813C13.1278 32.8181 11.9538 32.277 11.0025 31.2778C10.0513 30.2787 9.59856 29.0841 9.58127 27.6881H9.29875C7.96213 27.6881 6.62528 27.6881 5.28821 27.6881C4.896 27.6881 4.53238 27.6017 4.21329 27.3677C3.99635 27.2174 3.81905 27.0168 3.69657 26.7831C3.57408 26.5494 3.51005 26.2894 3.50997 26.0255C3.49866 25.5183 3.50997 25.0104 3.50997 24.5032V24.2213C3.40759 24.2154 3.31918 24.2054 3.23076 24.2054C2.4942 24.2054 1.75831 24.1934 1.02241 24.2094C0.577682 24.2187 0.246628 24.0764 0.0704652 23.649C0.0591642 23.6204 0.0259259 23.6005 0.0039886 23.5772L0 23.2215ZM38.1416 13.8776H46.6839C46.2418 12.1073 45.8044 10.3543 45.367 8.60599H38.1416V13.8776ZM14.7485 31.2532C15.6829 31.2532 16.5791 30.882 17.2398 30.2213C17.9006 29.5606 18.2718 28.6644 18.2718 27.73C18.2718 26.7956 17.9006 25.8994 17.2398 25.2387C16.5791 24.5779 15.6829 24.2067 14.7485 24.2067C12.8154 24.1928 11.2113 25.8022 11.2166 27.7459C11.2208 28.6791 11.5951 29.5725 12.2572 30.23C12.9194 30.8875 13.8153 31.2555 14.7485 31.2532ZM43.4258 24.2067C41.498 24.2067 39.8933 25.7111 39.8727 27.6967C39.8507 29.7575 41.5213 31.22 43.3002 31.2552C45.248 31.2945 46.8667 29.7688 46.9145 27.835C46.9637 25.8587 45.4235 24.2552 43.4258 24.2061V24.2067ZM46.0736 6.93144C46.0467 6.73883 46.0097 6.54778 45.9626 6.35908C45.7233 5.58994 45.0399 5.10666 44.189 5.10533C42.2528 5.10178 40.3163 5.10178 38.3796 5.10533C38.3058 5.10533 38.2314 5.11331 38.1456 5.11863V6.93211L46.0736 6.93144ZM50.38 20.8251V19.0149H48.5472C48.5598 19.3971 48.5027 19.7687 48.5844 20.133C48.6709 20.5153 48.9294 20.7679 49.3157 20.8164C49.658 20.8603 50.0157 20.8257 50.38 20.8257V20.8251Z"/>
        <path d="M20.0026 15.2885C20.061 15.2051 20.1242 15.1251 20.1921 15.0492C22.4691 12.7713 24.7473 10.4925 27.0265 8.21276C27.0962 8.13869 27.1698 8.06856 27.2472 8.00269C27.4053 7.86899 27.6082 7.80032 27.8149 7.81057C28.0217 7.82082 28.2168 7.90923 28.3608 8.0579C28.5049 8.20658 28.587 8.40441 28.5907 8.61138C28.5944 8.81834 28.5193 9.01897 28.3807 9.17268C28.3428 9.21722 28.2989 9.25843 28.257 9.30031C25.7096 11.8477 23.1627 14.396 20.6162 16.9451C20.3629 17.1991 20.0804 17.34 19.7287 17.2263C19.5786 17.1742 19.4422 17.0888 19.3299 16.9764C17.9073 15.564 16.4891 14.1473 15.0754 12.7265C15.0214 12.6731 14.9731 12.6143 14.9311 12.551C14.8646 12.4479 14.8222 12.3312 14.8071 12.2095C14.7919 12.0878 14.8043 11.9642 14.8435 11.8479C14.8826 11.7317 14.9475 11.6258 15.0332 11.538C15.1189 11.4503 15.2233 11.383 15.3386 11.3411C15.4736 11.2887 15.6205 11.2745 15.763 11.3002C15.9055 11.3259 16.0381 11.3904 16.1463 11.4867C16.2036 11.5368 16.2582 11.5898 16.3099 11.6456C17.4528 12.7877 18.5949 13.9304 19.7361 15.0738C19.7958 15.1454 19.8494 15.2219 19.8963 15.3025L20.0026 15.2885Z"/>
        <path d="M27.7744 24.2046C25.7961 24.2046 23.8177 24.2046 21.8394 24.2046C21.7042 24.2104 21.569 24.1979 21.4372 24.1674C21.2729 24.1151 21.1295 24.012 21.0277 23.8728C20.9259 23.7336 20.8711 23.5657 20.8711 23.3933C20.8711 23.2209 20.9259 23.0529 21.0277 22.9138C21.1295 22.7746 21.2729 22.6714 21.4372 22.6192C21.5514 22.5886 21.6693 22.5738 21.7875 22.5753C25.7761 22.5753 29.7667 22.5753 33.7593 22.5753C34.2392 22.5753 34.557 22.8179 34.6461 23.2434C34.6673 23.3512 34.6662 23.4622 34.6429 23.5696C34.6195 23.677 34.5745 23.7784 34.5105 23.8677C34.4464 23.9571 34.3648 24.0323 34.2706 24.0889C34.1764 24.1454 34.0716 24.1821 33.9627 24.1967C33.8617 24.2054 33.7603 24.2085 33.6589 24.206L27.7744 24.2046Z"/>
        <path d="M7.78208 20.7349C6.07451 20.7349 4.36673 20.7349 2.65872 20.7349C2.37886 20.7349 2.14087 20.6578 1.96205 20.4398C1.85983 20.3249 1.79401 20.1823 1.77295 20.03C1.75188 19.8777 1.77651 19.7225 1.84372 19.5842C1.90002 19.446 1.9954 19.3271 2.11819 19.2422C2.24098 19.1574 2.38585 19.1101 2.53508 19.1063C2.59424 19.1023 2.65341 19.1063 2.71257 19.1063H12.8835C12.993 19.1008 13.1028 19.1082 13.2106 19.1282C13.6134 19.2259 13.858 19.6015 13.8088 20.0336C13.7841 20.2195 13.6952 20.3909 13.5576 20.5184C13.42 20.6458 13.2423 20.7212 13.055 20.7316C12.9792 20.7363 12.9028 20.7316 12.827 20.7316L7.78208 20.7349Z"/>
        <path d="M14.7339 26.0518C15.067 26.0511 15.3929 26.1494 15.6701 26.3341C15.9474 26.5188 16.1635 26.7816 16.2912 27.0893C16.4189 27.397 16.4524 27.7357 16.3874 28.0624C16.3224 28.3892 16.1619 28.6893 15.9262 28.9247C15.6905 29.1601 15.3902 29.3203 15.0634 29.3849C14.7366 29.4495 14.398 29.4156 14.0904 29.2875C13.7829 29.1595 13.5203 28.943 13.3359 28.6655C13.1515 28.3881 13.0536 28.0621 13.0547 27.729C13.0564 27.2843 13.234 26.8585 13.5486 26.5442C13.8632 26.23 14.2893 26.053 14.7339 26.0518Z"/>
        <path d="M41.7149 27.7422C41.7133 27.4098 41.8102 27.0845 41.9933 26.8072C42.1764 26.5299 42.4375 26.313 42.7437 26.1839C43.05 26.0548 43.3875 26.0193 43.7139 26.0818C44.0403 26.1443 44.3409 26.3021 44.5777 26.5352C44.8145 26.7683 44.977 27.0664 45.0446 27.3917C45.1123 27.7171 45.0821 28.0552 44.9578 28.3634C44.8336 28.6716 44.6208 28.9361 44.3464 29.1236C44.0721 29.311 43.7483 29.413 43.416 29.4167C43.1936 29.4212 42.9725 29.3812 42.7659 29.299C42.5592 29.2168 42.371 29.094 42.2125 28.938C42.054 28.7819 41.9283 28.5957 41.8428 28.3904C41.7573 28.185 41.7138 27.9646 41.7149 27.7422Z"/>
    </symbol>

    <symbol id="box" viewBox="0 0 46 45">
        <path d="M0 30.9143V12.2262C0.0097624 12.1114 0.0264979 11.9966 0.0278926 11.8818C0.0381198 11.0682 0.0385847 10.2547 0.0567149 9.4421C0.0683368 8.90842 0.108781 8.37288 0.128306 7.84153C0.133884 7.68487 0.20501 7.60909 0.348192 7.5626C0.808419 7.40362 1.2626 7.2265 1.72376 7.0703C5.05475 5.94065 8.38636 4.81348 11.7186 3.68879C14.8249 2.64437 17.9332 1.60615 21.0435 0.574122C21.6353 0.374225 22.2313 0.190134 22.8254 0H22.9649C23.2113 0.0869318 23.4572 0.176188 23.705 0.259866C28.8521 1.99726 34.0004 3.73435 39.15 5.47113C41.1271 6.13915 43.1014 6.82252 45.0776 7.48636C45.3073 7.56353 45.403 7.68858 45.4114 7.91358C45.4268 8.27712 45.4579 8.64019 45.463 9.00372C45.4891 11.6135 45.5123 14.2232 45.5327 16.8327C45.5327 16.9722 45.549 17.1088 45.5578 17.2469V34.1684C45.5481 34.2832 45.5318 34.398 45.53 34.5133C45.5197 35.3036 45.5021 36.0939 45.51 36.8842C45.5128 37.1631 45.4063 37.311 45.1516 37.3956C44.7857 37.5197 44.4296 37.6745 44.0637 37.7967C37.9354 39.8732 31.8064 41.9496 25.6765 44.0261C24.7254 44.3487 23.775 44.6733 22.8254 45H22.7324C22.6738 44.9667 22.6131 44.9371 22.5507 44.9117C16.2522 42.7859 9.95393 40.6599 3.65579 38.5336C2.58657 38.1719 1.53363 37.7651 0.468595 37.3918C0.189669 37.2938 0.0818182 37.145 0.0813533 36.834C0.0767045 34.9838 0.0464876 33.1331 0.0264979 31.2824C0.0246384 31.1597 0.00929752 31.037 0 30.9143ZM22.2615 43.7518V43.5194C22.2367 34.3768 22.2135 25.2356 22.1918 16.0959C22.1918 15.9225 22.1453 15.8458 21.97 15.7877C18.9638 14.7817 15.9593 13.7702 12.9566 12.7534C9.24127 11.5032 5.52552 10.2547 1.8093 9.0079C1.60661 8.93957 1.40114 8.87867 1.15103 8.8001C1.01901 18.0976 1.09339 27.3519 1.06689 36.6141L22.2615 43.7518ZM44.3896 8.81219C44.2502 8.85217 44.1497 8.87913 44.0498 8.91214C42.5892 9.397 41.1267 9.87629 39.6688 10.3691C34.3193 12.1762 28.9708 13.9838 23.6231 15.7918C23.4242 15.8588 23.3907 15.9573 23.3907 16.1391C23.374 25.2507 23.3549 34.3622 23.3335 43.4738V43.7402C23.4353 43.7081 23.5083 43.6863 23.5804 43.6621C30.486 41.342 37.3918 39.0237 44.298 36.7071C44.484 36.6452 44.5244 36.5588 44.524 36.3784C44.5175 30.9003 44.524 25.4227 44.5119 19.945C44.5035 16.5133 44.4654 13.0811 44.4384 9.64897C44.4366 9.3812 44.4064 9.11157 44.3873 8.81219H44.3896ZM13.408 4.2406C13.5367 4.29406 13.619 4.33357 13.7036 4.3624C14.3874 4.60878 15.069 4.86121 15.756 5.0983C21.66 7.13879 27.565 9.17557 33.4711 11.2086C33.5996 11.2493 33.7376 11.2493 33.8662 11.2086C36.3505 10.3746 38.8331 9.53476 41.314 8.689C41.9314 8.47934 42.5431 8.25387 43.22 8.0126C43.0763 7.95589 43.0001 7.92242 42.922 7.89545C39.296 6.64029 35.6778 5.37536 32.0476 4.13972C29.1012 3.13652 26.14 2.17004 23.1838 1.18543C22.9691 1.11384 22.7654 1.06829 22.533 1.14731C19.6105 2.13409 16.6863 3.11637 13.7603 4.09416C13.6539 4.12996 13.5521 4.18063 13.408 4.2406ZM31.7241 11.8148C31.7213 11.792 31.719 11.7683 31.7166 11.746C31.6469 11.7186 31.5772 11.6888 31.507 11.6642C27.4694 10.2566 23.4316 8.84984 19.3937 7.44406C16.8801 6.57474 14.3572 5.73192 11.8409 4.87144C11.6599 4.80517 11.4612 4.80517 11.2802 4.87144C10.0525 5.29401 8.81637 5.69845 7.59421 6.13404C5.97691 6.70909 4.36798 7.30692 2.75578 7.89685C2.65537 7.93357 2.56054 7.98518 2.42107 8.04933L2.67629 8.13812C4.41741 8.73099 6.15961 9.32324 7.90289 9.91488C12.8157 11.5798 17.7296 13.2423 22.6446 14.9025C22.745 14.9343 22.8528 14.9343 22.9533 14.9025C25.3669 14.0751 27.7788 13.2429 30.1891 12.4061C30.706 12.2262 31.2113 12.0124 31.7222 11.8148H31.7241Z"/>
        <path d="M25.1875 36.3729C25.2214 35.3283 25.2591 34.2837 25.2865 33.2387C25.2921 33.0337 25.3604 32.9133 25.5627 32.8435C27.0828 32.3205 28.5955 31.7743 30.1184 31.2629C31.6284 30.7567 33.148 30.2802 34.6631 29.7911C34.9662 29.6931 35.2139 29.8204 35.2832 30.1398C35.3369 30.3738 35.3651 30.6129 35.3674 30.8529C35.3599 32.8431 35.3357 34.8327 35.3353 36.8229C35.3353 37.1697 35.154 37.2808 34.8751 37.3747C32.0759 38.3156 29.2784 39.2608 26.4826 40.2104C26.3 40.2722 26.1145 40.3271 25.929 40.3815C25.6291 40.4689 25.4046 40.3513 25.3274 40.0361C25.2757 39.8256 25.2486 39.6099 25.2465 39.3932C25.2382 38.3867 25.2428 37.3798 25.2428 36.3715L25.1875 36.3729ZM34.3088 30.9519C34.2233 30.9738 34.1643 30.9849 34.1071 31.0035C31.5633 31.8289 29.0189 32.6525 26.4738 33.4744C26.2986 33.5306 26.2744 33.6199 26.2748 33.7747C26.2779 35.5018 26.2789 37.2289 26.2776 38.9557C26.2776 39.0296 26.2846 39.104 26.2902 39.2067C26.4087 39.1696 26.5026 39.1407 26.5961 39.111C29.1129 38.3052 31.6305 37.5003 34.1489 36.6964C34.326 36.6402 34.3246 36.5407 34.3242 36.4045C34.318 34.6773 34.3129 32.9504 34.3088 31.2239V30.9519Z"/>
    </symbol>

    <symbol id="salon" viewBox="0 0 60 36">
        <path d="M1.79555 32.9884V7.7338C1.5815 7.7338 1.36992 7.7338 1.15752 7.7338C0.393523 7.72228 0.00576289 7.32875 0 6.55488C0 5.92371 0 5.29253 0 4.66136C0 3.8455 0.396816 3.44703 1.21103 3.44621C3.99588 3.44621 6.781 3.44621 9.5664 3.44621H20.2261C20.2261 2.618 20.2261 1.83919 20.2261 1.05873C20.2261 0.235455 20.45 0 21.2659 0H38.0186C38.8337 0 39.0732 0.239572 39.0741 1.05626C39.0741 1.83507 39.0741 2.61306 39.0741 3.44374H57.9171C58.9314 3.44374 59.2664 3.78128 59.2689 4.80214C59.2689 5.35098 59.2689 5.89983 59.2689 6.44868C59.2689 7.37403 58.9281 7.72145 58.0151 7.73216C57.8413 7.73216 57.6685 7.73216 57.4783 7.73216V32.9893C57.8076 32.9893 58.1204 32.9893 58.4316 32.9893C58.7609 32.9893 58.9429 33.1646 58.9453 33.4972C58.9453 34.169 58.9453 34.8416 58.9453 35.5142C58.9453 35.8131 58.7733 35.9637 58.4884 35.9926C58.3654 36.0004 58.242 36.002 58.1188 35.9975H1.15258C0.423984 35.9975 0.340011 35.9152 0.339187 35.2047C0.339187 34.6696 0.334248 34.1344 0.339187 33.5993C0.343304 33.1325 0.48573 32.9959 0.960757 32.9884C1.22997 32.9843 1.5 32.9884 1.79555 32.9884ZM22.6548 32.972V32.4887C22.6548 30.5129 22.6548 28.537 22.6548 26.5612C22.6548 25.9956 22.7708 25.8721 23.3134 25.8713C27.5247 25.8713 31.7354 25.8713 35.9456 25.8713C36.517 25.8713 36.6166 25.9742 36.6166 26.5464C36.6166 28.5222 36.6166 30.4981 36.6166 32.4739V32.9679H38.129V2.93002H21.1506V32.972H22.6548ZM23.5974 26.7975V32.9638H35.6921V26.7975H23.5974ZM1.26454 35.0573H58.0151V33.9204H1.26454V35.0573ZM56.52 19.891V14.1701H48.2766V19.891H56.52ZM11.0145 14.1619H2.76043V19.8845H11.0145V14.1619ZM20.2261 14.1693H11.9638V19.8853C12.0938 19.896 12.2009 19.9133 12.3071 19.9133C14.8287 19.9133 17.3504 19.9133 19.8713 19.9256C20.1792 19.9256 20.2319 19.798 20.2302 19.5329C20.222 18.177 20.2302 16.8161 20.2302 15.4643L20.2261 14.1693ZM2.75713 20.8378V26.5579H10.9981V20.8427L2.75713 20.8378ZM56.5266 26.5579V20.8534H48.2782V26.5628L56.5266 26.5579ZM20.1817 26.5579C20.2016 26.4879 20.2153 26.4162 20.2228 26.3438C20.2228 24.6034 20.2228 22.863 20.2302 21.1227C20.2302 20.809 20.0557 20.8106 19.8342 20.8115C17.3266 20.8147 14.8191 20.8169 12.312 20.818C12.1951 20.818 12.079 20.8378 11.9704 20.8477V26.5579H20.1817ZM20.2261 6.8208C20.2261 6.13419 20.1981 5.49121 20.236 4.85236C20.2615 4.42426 20.1141 4.33205 19.7058 4.33287C14.5066 4.34605 9.30735 4.34879 4.10812 4.34111C3.20252 4.34111 2.29692 4.3551 1.39133 4.33534C1.02662 4.32711 0.867727 4.41767 0.893249 4.81696C0.927077 5.31034 0.927077 5.80546 0.893249 6.29884C0.863611 6.71048 0.991218 6.83315 1.41438 6.83232C7.50658 6.81805 13.5988 6.81476 19.691 6.82244L20.2261 6.8208ZM39.0971 6.8208H57.3359C57.5697 6.8208 57.8026 6.81256 58.0356 6.8208C58.2686 6.82903 58.3789 6.73847 58.3724 6.48655C58.3592 5.95142 58.3724 5.4163 58.3724 4.88117C58.3724 4.34605 58.3723 4.33864 57.8323 4.33864H39.0971V6.8208ZM39.0971 14.1479V19.8754H47.3232V14.1619L39.0971 14.1479ZM39.1062 20.8329V26.5373H47.3142V20.8436L39.1062 20.8329ZM11.0096 32.9638V27.54C10.9664 27.5192 10.9208 27.504 10.8738 27.4948C8.25466 27.4915 5.63638 27.4882 3.01893 27.4849C2.77195 27.4849 2.72585 27.5993 2.72667 27.8142C2.73079 29.4607 2.72667 31.1073 2.72667 32.7489C2.73223 32.8218 2.74324 32.8941 2.7596 32.9654L11.0096 32.9638ZM11.9638 32.9563H20.2031C20.2121 32.7917 20.2261 32.655 20.2261 32.5208C20.2261 30.9854 20.2162 29.45 20.2335 27.9155C20.2335 27.5664 20.124 27.4816 19.789 27.4832C17.3084 27.4956 14.8271 27.4882 12.3466 27.489C12.2272 27.489 12.107 27.5046 11.9638 27.5145V32.9563ZM48.2774 32.9514H56.5192V27.526H48.2774V32.9514ZM2.76043 7.75768V13.2053H10.9997V7.75768H2.76043ZM20.2047 13.2127C20.2138 13.025 20.2269 12.876 20.2269 12.7278C20.2269 11.2204 20.2129 9.71212 20.236 8.20554C20.2418 7.81448 20.115 7.72722 19.7478 7.72969C17.278 7.74451 14.8139 7.7371 12.3466 7.73874C12.2272 7.73874 12.107 7.75274 11.9646 7.76179V13.2127H20.2047ZM48.2782 13.2003H56.5373V7.77332H48.2766L48.2782 13.2003ZM39.0757 13.2003H47.3282V7.77661C47.2311 7.75779 47.1329 7.74515 47.0343 7.73874C44.4961 7.73874 41.9588 7.73874 39.4207 7.73216C39.1045 7.73216 39.0691 7.87211 39.07 8.1298C39.0782 9.54253 39.0741 10.9553 39.0741 12.368L39.0757 13.2003ZM39.1136 27.5071V32.953H47.3134V27.5104L39.1136 27.5071ZM38.1421 0.953347H21.1581V1.9775H38.1421V0.953347Z"/>
        <path d="M29.6395 5.47611C31.4573 5.49257 33.2331 5.74943 34.8458 6.62869C35.4944 6.98127 36.083 7.43448 36.5895 7.97144C37.6919 9.16271 37.6688 10.7269 36.6159 11.966C35.7506 12.9893 34.6038 13.5738 33.3442 13.9311C30.4422 14.7544 27.5731 14.6893 24.7715 13.4915C23.9553 13.1564 23.2292 12.6345 22.6516 11.9676C21.6159 10.7467 21.6085 9.20717 22.6442 7.99038C23.6222 6.84438 24.9246 6.23352 26.3464 5.90503C27.4216 5.65805 28.5297 5.54609 29.623 5.37402L29.6395 5.47611ZM29.488 13.5639C31.1271 13.5532 32.5819 13.3252 33.9633 12.7308C34.6861 12.4204 35.3579 12.0244 35.8856 11.4234C36.7007 10.4939 36.7089 9.40064 35.8576 8.50492C35.5036 8.13363 35.0862 7.77962 34.6301 7.55651C31.3601 5.96101 28.0539 5.96019 24.7641 7.49312C24.2569 7.7294 23.7918 8.12045 23.4016 8.52962C22.5561 9.41463 22.5544 10.5055 23.3933 11.4028C23.7702 11.7994 24.2045 12.1372 24.6817 12.4048C26.2139 13.2708 27.8991 13.5335 29.4896 13.5639H29.488Z"/>
        <path d="M28.2002 22.005C28.2002 22.7171 28.2043 23.4293 28.2002 24.1455C28.196 24.6493 28.0684 24.7761 27.5613 24.7778C26.1343 24.7811 24.7095 24.7811 23.2869 24.7778C22.7979 24.7778 22.6604 24.6329 22.6587 24.1307C22.6554 22.6922 22.6554 21.2539 22.6587 19.8159C22.6587 19.3285 22.811 19.1795 23.3017 19.1787C24.7111 19.1787 26.1203 19.1787 27.5292 19.1787C28.0725 19.1787 28.2018 19.317 28.2034 19.867C28.2034 20.5791 28.2034 21.2912 28.2034 22.0075L28.2002 22.005ZM27.2624 20.0818C26.0753 20.0818 24.9137 20.0769 23.7528 20.0942C23.6878 20.0942 23.575 20.277 23.5709 20.3782C23.5511 20.8574 23.561 21.3373 23.561 21.8173V23.8401H27.2657L27.2624 20.0818Z"/>
        <path d="M36.6249 18.8468C36.6249 19.5877 36.6299 20.3287 36.6249 21.0696C36.6208 21.5208 36.4858 21.6583 36.0297 21.6599C34.5774 21.6649 33.1252 21.6649 31.6729 21.6599C31.2177 21.6599 31.0794 21.5216 31.0769 21.0696C31.0703 19.6048 31.0687 18.1399 31.072 16.675C31.072 16.2057 31.2193 16.0658 31.696 16.065C33.1323 16.0617 34.5689 16.0617 36.0058 16.065C36.4998 16.065 36.6241 16.2025 36.6257 16.7121C36.6266 17.4225 36.6249 18.1347 36.6249 18.8468ZM32.0064 20.7156H35.6996V16.9854H32.0064V20.7156Z"/>
    </symbol>

    <symbol id="people" viewBox="0 0 59 36">
        <path d="M29.62 0C30.3125 0.0653856 31.0088 0.102002 31.6973 0.196157C35.2066 0.683933 38.1613 3.50924 38.7407 6.95899C38.8629 7.68542 38.8479 8.43409 38.9028 9.17229C38.978 10.1805 39.0754 11.1875 39.1349 12.1964C39.2036 13.3478 39.1114 14.4849 38.638 15.5559C38.5299 15.8063 38.38 16.0364 38.1947 16.2365C37.703 16.7524 37.378 17.3638 37.1008 18.0059C36.5835 19.2074 35.9525 20.3566 35.2164 21.438C34.7822 22.0748 34.843 22.3122 35.5878 22.5548C37.1923 23.0778 38.8052 23.5774 40.4263 24.0534C42.6801 24.7171 44.284 26.0967 45.1994 28.2681C45.2392 28.3572 45.2614 28.4531 45.2648 28.5506C45.2648 29.6406 45.2393 30.7299 45.2491 31.8199C45.257 32.6889 44.8777 33.2224 44.0611 33.5624C41.9347 34.4477 39.7254 35.0101 37.4611 35.3684C32.5234 36.1453 27.4996 36.2058 22.5446 35.5482C19.8808 35.2003 17.2739 34.6191 14.7906 33.5448C13.9661 33.1878 13.5417 32.6464 13.5633 31.7493C13.5855 30.8339 13.5679 29.9185 13.6176 29.0064C13.698 27.543 14.4813 26.4563 15.5719 25.5586C16.4438 24.8468 17.4523 24.3214 18.5352 24.0148C20.2352 23.5172 21.9353 22.9922 23.6353 22.49C23.8595 22.4246 23.9622 22.3076 23.8968 22.0977C23.8219 21.805 23.7186 21.5203 23.5882 21.2477C22.9448 20.0211 22.2968 18.799 21.6332 17.5887C21.3906 17.1265 21.1042 16.6885 20.7779 16.281C20.1358 15.5127 19.9063 14.6117 19.8207 13.6551C19.7553 12.8921 19.8527 12.146 19.9841 11.3869C20.0986 10.7265 20.007 10.0249 19.9658 9.34425C19.8717 7.80115 19.8867 6.27113 20.4013 4.78884C20.9702 3.1542 22.0497 2.04984 23.7549 1.60391C23.932 1.54971 24.1029 1.47718 24.2649 1.38748C25.8322 0.610701 27.4623 0.0608086 29.2342 0.0385775C29.2986 0.0320298 29.3621 0.0191072 29.4239 0L29.62 0ZM20.9159 12.0963C20.9473 12.6802 20.9486 13.2465 21.0179 13.8042C21.0772 14.2683 21.1815 14.7255 21.3291 15.1695C21.3945 15.3656 21.5782 15.6154 21.7568 15.6651C22.187 15.7841 22.3289 16.0927 22.4596 16.4464C22.9298 17.7156 23.4404 18.9788 24.2499 20.0662C24.9038 20.9437 25.2183 21.863 25.0705 22.9431C25.0675 22.9648 25.0675 22.9868 25.0705 23.0085C25.0947 23.2001 25.0195 23.2988 24.8246 23.3564C22.7977 23.9566 20.7799 24.5712 18.7549 25.1702C17.7035 25.4814 16.7548 25.9712 15.9492 26.7192C15.1803 27.4325 14.72 28.2747 14.7723 29.3692C14.8128 30.2611 14.7847 31.1556 14.7723 32.05C14.7723 32.2286 14.8161 32.3253 14.9933 32.3874C15.3202 32.5025 15.6373 32.6529 15.9636 32.7752C19.3859 34.0574 22.9598 34.589 26.5809 34.7609C29.9228 34.9198 33.2672 34.8263 36.5888 34.3405C39.0885 33.9757 41.5248 33.3846 43.8551 32.3914C44.0238 32.3194 44.0807 32.2351 44.0781 32.0553C44.0683 31.2491 44.0317 30.4403 44.082 29.636C44.1611 28.3597 43.6243 27.3933 42.7233 26.5564C41.9478 25.8338 41.0036 25.4696 40.0163 25.1715C38.026 24.5704 36.0376 23.9627 34.0512 23.3485C33.9531 23.3185 33.7988 23.2217 33.7995 23.1576C33.8073 22.3952 33.7079 21.6439 34.1578 20.9142C34.877 19.7497 35.4897 18.5198 36.1278 17.3076C36.309 16.9623 36.4038 16.5733 36.5712 16.2195C36.645 16.0639 36.7817 15.8599 36.9223 15.8272C37.3963 15.7259 37.6291 15.3918 37.6958 14.9923C37.8409 14.1259 37.9161 13.2478 38.0057 12.3729C38.0136 12.2938 37.9161 12.1316 37.8625 12.1297C37.5107 12.1153 37.582 11.8936 37.5912 11.672C37.6428 10.4767 37.7566 9.27821 37.7128 8.08558C37.601 5.01246 35.6858 2.41404 32.752 1.49929C30.3857 0.761088 28.0194 0.938937 25.7459 1.99688C25.1836 2.25842 24.6252 2.55069 24.0341 2.72266C22.2687 3.23659 21.386 4.30826 21.1349 6.36856C20.9434 7.94369 21.0924 9.5221 21.3605 11.0855C21.42 11.4327 21.4697 11.7818 21.5292 12.1598L20.9159 12.0963Z"/>
        <path d="M0 25.8268C0.0738857 25.4659 0.102002 25.0873 0.230157 24.7467C0.719241 23.4429 1.67779 22.5831 2.96066 22.1064C3.94144 21.7428 4.94707 21.4571 5.94224 21.1367C6.12859 21.0766 6.3169 21.0203 6.50194 20.9576C7.40688 20.6489 7.4108 20.5921 6.93806 19.7747C6.47317 18.9744 6.06582 18.1427 5.62316 17.3313C5.47033 17.0683 5.30403 16.8134 5.12492 16.5676C4.77969 16.0667 4.49591 15.543 4.50311 14.9133C4.52207 13.3016 4.53711 11.6898 4.57307 10.0748C4.58992 9.29963 4.76947 8.53666 5.10008 7.83534C5.4427 7.10171 5.98278 6.56228 6.72425 6.25235C7.63965 5.87115 8.55505 5.48734 9.49595 5.18264C10.004 5.01853 10.563 4.97864 11.1025 4.95249C12.6063 4.87795 14.0684 5.06429 15.3682 5.90188C17.0565 6.98925 18.0588 8.51339 18.1883 10.5443C18.2727 11.8703 18.3269 13.1983 18.3727 14.5262C18.4133 15.3075 18.1631 16.0762 17.6705 16.684C17.4545 16.9722 17.2637 17.2784 17.1003 17.5994C16.6132 18.4873 16.1502 19.3877 15.6527 20.2691C15.4964 20.5456 15.5487 20.6836 15.8298 20.7732C17.0225 21.1529 18.2149 21.5321 19.4071 21.9109C19.7876 22.0312 20.1721 22.1365 20.5625 22.328C20.4023 22.3732 20.2427 22.4196 20.0819 22.4621C18.7127 22.8217 17.3403 23.1656 16.0692 23.8201C13.8415 24.9683 12.6116 26.7749 12.4174 29.2792C12.3842 29.7116 12.3507 30.1447 12.3167 30.5784C12.2681 30.5935 12.2182 30.6036 12.1676 30.6085C9.95757 30.5431 7.74492 30.5287 5.55516 30.1508C4.11606 29.9064 2.70347 29.5257 1.33648 29.0137C0.644702 28.7555 0.0856551 28.405 0 27.5922V25.8268ZM16.4576 22.2731C16.3268 22.2221 16.2496 22.1862 16.1699 22.1633C15.6468 22.009 15.1237 21.8704 14.6058 21.6977C14.4751 21.6533 14.292 21.5153 14.2789 21.4022C14.2102 20.849 14.1985 20.2959 14.5404 19.7976C15.2826 18.7148 15.9005 17.5686 16.3163 16.3172C16.3444 16.2448 16.3877 16.1792 16.4432 16.1249C16.4986 16.0705 16.5651 16.0286 16.638 16.002C16.8891 15.9405 17.0303 15.7973 17.0748 15.5731C17.1578 15.1696 17.2245 14.761 17.2709 14.3517C17.2978 14.111 17.4096 13.8188 17.0447 13.6945C17.0074 13.6821 16.9931 13.5566 16.995 13.4847C17.0016 13.2885 17.0166 13.0923 17.0382 12.8962C17.1395 11.9605 17.1513 11.0288 16.9983 10.0957C16.6772 8.13415 15.1511 6.45047 13.2465 6.11896C11.7354 5.85742 10.2289 5.91888 8.81071 6.63159C8.43278 6.82186 8.047 7.01932 7.64227 7.12983C6.74125 7.37633 6.16194 7.92557 5.89124 8.80958C5.66607 9.56336 5.59294 10.3544 5.67612 11.1367C5.75262 11.9272 5.87228 12.7131 5.97297 13.501C5.99455 13.671 6.05732 13.8632 5.75916 13.8619C5.71274 13.8619 5.61989 14.0038 5.62839 14.0738C5.66697 14.5714 5.7062 15.0709 5.78989 15.5619C5.81474 15.7078 5.96578 15.9209 6.08805 15.9431C6.42021 16.004 6.53267 16.2197 6.62487 16.4865C7.00606 17.5948 7.5468 18.6213 8.18758 19.6021C8.33074 19.8318 8.42284 20.0896 8.45763 20.358C8.49742 20.7054 8.50071 21.056 8.46743 21.4042C8.45408 21.4648 8.42673 21.5214 8.38756 21.5695C8.34838 21.6177 8.29848 21.656 8.24185 21.6814C6.84696 22.1116 5.45032 22.5314 4.05194 22.9407C3.32355 23.1552 2.63112 23.4357 2.06553 23.9601C1.57775 24.4119 1.25606 24.9494 1.2384 25.6392C1.22271 26.2494 1.19786 26.8597 1.16386 27.47C1.1534 27.6661 1.21159 27.7675 1.40187 27.8289C1.82622 27.9649 2.24207 28.1291 2.66642 28.267C5.35704 29.1425 8.13789 29.3877 10.9455 29.4551C11.2653 29.4629 11.3065 29.2942 11.3039 29.053C11.2941 28.3535 11.4306 27.6598 11.7047 27.0162C12.4775 25.1919 13.7872 23.8489 15.4624 22.8367C15.7697 22.6452 16.0947 22.4758 16.4576 22.2731Z"/>
        <path d="M58.8477 28.2462C58.7065 28.9066 58.2298 29.227 57.6479 29.4584C55.7746 30.2077 53.8189 30.6426 51.8201 30.8426C50.1959 31.0054 48.5619 31.0663 46.9318 31.1696C46.8142 31.1774 46.6952 31.1696 46.5395 31.1696C46.499 30.5491 46.4467 29.9547 46.4231 29.3597C46.3525 27.5943 45.6961 26.1041 44.3864 24.9135C43.5272 24.1288 42.5124 23.611 41.431 23.2134C40.8588 23.0036 40.2756 22.8244 39.6982 22.6302C39.6015 22.5975 39.5067 22.5589 39.3203 22.489C39.9134 22.2974 40.4149 22.1326 40.919 21.9737C41.6245 21.7514 42.3346 21.5415 43.0381 21.3107C43.4082 21.1891 43.4305 21.1342 43.2546 20.8007C42.7079 19.7493 42.1607 18.6999 41.599 17.6537C41.4672 17.4282 41.312 17.2171 41.1361 17.024C40.8091 16.6363 40.5979 16.195 40.6006 15.6869C40.6104 13.8561 40.6215 12.0253 40.6659 10.1991C40.6904 9.48721 40.8867 8.79179 41.2381 8.17215C41.6023 7.51045 42.1077 7.00633 42.8145 6.71863C43.49 6.44401 44.1588 6.15108 44.8415 5.90066C46.4064 5.31762 48.1139 5.23514 49.7277 5.66461C50.9403 5.97761 52.0269 6.6566 52.8398 7.60917C53.6527 8.56175 54.1523 9.74165 54.2707 10.9883C54.3675 11.9508 54.3701 12.9231 54.4015 13.8914C54.4192 14.4766 54.4669 15.0684 54.3865 15.6464C54.3296 16.0622 54.1249 16.4709 53.9288 16.8521C53.6319 17.4196 53.2749 17.9558 52.9565 18.5129C52.5347 19.2498 52.1241 19.9926 51.7109 20.736C51.5101 21.0956 51.5232 21.1767 51.9136 21.3075C52.863 21.6252 53.8307 21.89 54.7722 22.2274C55.4967 22.489 56.2362 22.7505 56.8907 23.1461C58.0428 23.8392 58.7549 24.8618 58.8026 26.263C58.8107 26.3584 58.8257 26.453 58.8477 26.5462V28.2462ZM43.1231 22.5021L43.1153 22.6099C43.3827 22.7937 43.6469 22.9826 43.9182 23.1618C45.4875 24.1975 46.65 25.568 47.2294 27.3641C47.4392 28.018 47.4713 28.7274 47.551 29.4159C47.6099 29.9292 47.6249 29.988 48.1323 29.958C49.219 29.8926 50.3064 29.8233 51.3898 29.7219C53.4531 29.5368 55.4806 29.0652 57.4138 28.3207C57.5629 28.2625 57.6865 28.2194 57.6799 28.0141C57.6603 27.4158 57.6747 26.8155 57.6466 26.2179C57.634 25.9013 57.5592 25.5903 57.4264 25.3026C57.2935 25.0149 57.1053 24.7563 56.8724 24.5414C56.3238 24.0125 55.6817 23.6823 54.956 23.4724C53.5654 23.0692 52.1795 22.6516 50.7981 22.2196C50.6516 22.1738 50.4398 22.0359 50.4261 21.9208C50.3607 21.3395 50.2953 20.7438 50.6497 20.2129C51.3323 19.1837 51.9168 18.1036 52.3229 16.9345C52.3706 16.7985 52.519 16.6945 52.6282 16.584C52.7806 16.4303 53.0402 16.3068 53.0801 16.1309C53.2036 15.5843 53.2501 15.0193 53.3122 14.4603C53.3194 14.3949 53.252 14.2641 53.201 14.2537C52.9395 14.1987 53.0049 14.0242 53.0166 13.8489C53.0683 12.9708 53.2049 12.0835 53.1363 11.2152C52.9918 9.37394 52.164 7.88838 50.462 7.0436C48.8208 6.22889 47.1162 6.28185 45.4195 6.90171C44.7656 7.14102 44.1255 7.41499 43.486 7.68634C43.2297 7.79618 42.9629 7.91584 42.7531 8.09173C42.46 8.32939 42.2217 8.62737 42.0541 8.9654C41.8866 9.30343 41.7938 9.67358 41.7821 10.0507C41.7167 11.329 41.7507 12.5968 42.0116 13.8542C42.056 14.068 42.1522 14.3119 41.7958 14.3864C41.7415 14.3975 41.6748 14.5525 41.6833 14.6336C41.733 15.1168 41.7834 15.6013 41.8795 16.0766C41.9089 16.227 42.0528 16.4284 42.1862 16.4689C42.5131 16.569 42.6144 16.8174 42.7092 17.0849C43.0306 18.0356 43.4811 18.9377 44.0483 19.7657C44.4799 20.3842 44.6741 21.0413 44.6192 21.7926C44.6022 22.0274 44.5492 22.1385 44.3092 22.1889C43.9078 22.2732 43.5174 22.3961 43.1231 22.5021Z"/>
    </symbol>

    <symbol id="ruble" viewBox="0 0 33 45">
        <path d="M10.2394 27.6985V32.2245H21.1839V36.071H10.1804V45H4.66195V36.1608H0V32.2681H4.57733V27.6318H0V23.7597H4.59271C4.62348 23.2981 4.66708 22.9237 4.66964 22.5493C4.66964 15.6735 4.66964 8.79938 4.66964 1.92698C4.66964 1.36282 4.66964 0.924324 5.41073 0.814058C11.0702 -0.0167845 16.7374 -0.468106 22.3968 0.739692C28.1845 1.96801 31.6541 5.83758 32.1849 11.7253C32.5541 15.7974 31.9285 19.6362 28.9974 22.7852C26.4869 25.4932 23.2533 26.7804 19.7043 27.201C16.8835 27.5344 14.0269 27.5164 11.1856 27.6549L10.2394 27.6985ZM10.1599 23.5186C13.3345 23.3186 16.3425 23.3391 19.2991 22.8878C22.7379 22.3749 25.1638 20.3465 26.0664 16.8898C26.3998 15.6077 26.4126 14.2358 26.4049 12.9074C26.3792 8.63269 24.0047 5.75808 19.8223 4.84005C16.9374 4.20666 14.0371 4.45284 11.1317 4.68619C10.3317 4.7503 10.1291 5.07084 10.1342 5.8504C10.1701 11.2124 10.1573 16.577 10.1599 21.939V23.5186Z"/>
    </symbol>

    <symbol id="walletAndСreditСard" viewBox="0 0 46 45">
        <path d="M42.0831 45H2.1618C1.60334 44.8168 1.04337 44.5977 0.699583 44.0992C0.412844 43.6894 0.229691 43.209 0 42.7601V29.8749C0.0244321 29.8338 0.045036 29.7906 0.0615513 29.7458C0.436864 28.3451 1.41268 27.593 2.86289 27.593H14.5381V27.0946C14.5381 24.7646 14.5156 22.4407 14.5651 20.1078C14.5912 19.2953 14.8987 18.5171 15.4352 17.9064C15.9717 17.2957 16.7037 16.8904 17.5061 16.76C17.9565 16.6834 18.4068 16.6879 18.8902 16.6519V0H40.7244V16.6894C41.0592 16.6894 41.358 16.6789 41.6552 16.6894C42.5566 16.7387 43.4058 17.1277 44.0318 17.7782C44.6578 18.4287 45.0139 19.2922 45.0285 20.1948C45.0285 27.2672 45.015 34.3396 45.042 41.412C45.042 42.58 44.3395 44.1143 42.8247 44.7418C42.583 44.8424 42.3353 44.9144 42.0831 45ZM20.3645 1.42018V19.5853H20.7803C21.9813 19.5733 23.1823 19.5538 24.3833 19.5538C24.6445 19.5538 24.7466 19.4817 24.8082 19.21C25.0559 18.0674 25.6878 17.0441 26.5986 16.311C27.5093 15.5779 28.6439 15.1791 29.8131 15.1812C30.9823 15.1833 32.1154 15.5862 33.0236 16.3226C33.9317 17.059 34.5599 18.0845 34.8035 19.228C34.8605 19.4862 34.9536 19.5538 35.2058 19.5538C36.1651 19.5538 37.1244 19.5748 38.0837 19.5853C38.4636 19.5853 38.8344 19.5853 39.2307 19.5853V1.42018H20.3645ZM43.5948 37.7399H43.0859C39.8672 37.7399 36.649 37.7399 33.4314 37.7399C32.816 37.7469 32.2096 37.5915 31.6734 37.2896C30.9681 36.9015 30.4121 36.2897 30.0931 35.5507C29.7741 34.8116 29.7102 33.9874 29.9115 33.208C30.1129 32.4286 30.568 31.7384 31.205 31.2463C31.8421 30.7543 32.6249 30.4883 33.4299 30.4904C36.6605 30.4904 39.8907 30.4904 43.1204 30.4904H43.6053V26.2719C43.6053 24.8622 42.6956 23.9495 41.2904 23.9495C33.7842 23.9495 26.2779 23.952 18.7716 23.957C17.7988 23.957 16.8831 23.8399 16.0694 23.2784C16.0589 23.2709 16.0289 23.2904 16.0183 23.2949V27.5855H21.9183C23.5411 27.5855 24.7106 28.755 24.7106 30.3778C24.7106 33.3908 24.7361 36.4053 24.7001 39.4184C24.6821 40.795 24.9253 42.1927 24.4494 43.5543C24.5304 43.5543 24.5905 43.5663 24.649 43.5663C30.2687 43.5663 35.8884 43.5663 41.5081 43.5663C42.5455 43.5663 43.5243 42.7241 43.5813 41.6792C43.6474 40.3837 43.5948 39.0881 43.5948 37.7399ZM1.45922 37.7114H23.2694C23.2694 35.1953 23.2694 32.7123 23.2694 30.2292C23.2753 30.0157 23.2175 29.8053 23.1033 29.6248C22.9891 29.4443 22.8238 29.302 22.6284 29.2158C22.3331 29.0904 22.0154 29.0266 21.6946 29.0282C15.4764 29.0172 9.25821 29.0147 3.04003 29.0207C2.93194 29.0207 2.82385 29.0207 2.71726 29.0207C1.95013 29.0897 1.46072 29.6002 1.45922 30.3718C1.45922 32.7483 1.45922 35.1248 1.45922 37.5028C1.4427 37.5673 1.45171 37.6244 1.45922 37.7114ZM41.406 21.0175H18.1982V19.6063L18.8632 19.5778V18.1291C18.6005 18.1291 18.3633 18.1291 18.1261 18.1291C17.7954 18.1386 17.4711 18.2226 17.1774 18.375C16.8837 18.5273 16.6282 18.7439 16.4299 19.0087C16.2316 19.2735 16.0957 19.5797 16.0322 19.9044C15.9688 20.2291 15.9794 20.5639 16.0634 20.8839C16.3216 21.8612 17.2028 22.4992 18.3078 22.4992C25.9571 22.4992 33.606 22.4992 41.2544 22.4992C42.0021 22.4782 42.7393 22.6793 43.3726 23.0772C43.4297 23.1133 43.4912 23.1403 43.6038 23.2003C43.6038 22.2155 43.6038 21.2847 43.6038 20.348C43.6031 19.9991 43.5215 19.6551 43.3657 19.343C43.2098 19.0308 42.9838 18.759 42.7054 18.5488C42.4269 18.3385 42.1036 18.1956 41.7607 18.1311C41.4179 18.0666 41.0647 18.0824 40.7289 18.1771V19.5688L41.4045 19.6018L41.406 21.0175ZM43.5843 31.9766C43.4957 31.9766 43.4342 31.9616 43.3771 31.9616C40.0274 31.9616 36.6776 31.9616 33.3278 31.9616C32.2979 31.9616 31.3761 32.8399 31.2681 33.8712C31.1299 35.2133 32.1073 36.3063 33.4884 36.3108C36.7671 36.3213 40.0444 36.3108 43.3231 36.3108C43.4042 36.3108 43.4852 36.2987 43.5843 36.2912V31.9766ZM23.2694 39.2457H1.4412V40.6419H23.2694V39.2457ZM1.46972 42.1236C1.34962 42.9238 2.04921 43.5798 2.81184 43.5783C9.17414 43.5603 15.5349 43.5678 21.8957 43.5678C21.9678 43.5678 22.0459 43.5678 22.1119 43.5678C22.2823 43.5528 22.4478 43.5027 22.5979 43.4206C22.748 43.3385 22.8795 43.2263 22.9842 43.0909C23.0888 42.9555 23.1643 42.8 23.2059 42.634C23.2475 42.4681 23.2543 42.2953 23.2259 42.1266L1.46972 42.1236ZM26.2794 19.5658H33.3173C33.1761 18.039 31.5023 16.6714 29.8028 16.6714C28.1034 16.6714 26.4325 18.0255 26.2794 19.5658Z"/>
        <path d="M7.97029 31.9336H2.93359V30.5254H7.97029V31.9336Z"/>
        <path d="M4.39844 34.8171V33.4209H7.9564V34.8171H4.39844Z"/>
        <path d="M33.436 34.8384C33.3404 34.8424 33.2451 34.8266 33.1559 34.7919C33.0668 34.7572 32.9858 34.7044 32.9181 34.6368C32.8503 34.5692 32.7974 34.4883 32.7625 34.3993C32.7276 34.3102 32.7116 34.2149 32.7154 34.1193C32.7132 34.0265 32.7294 33.9342 32.7631 33.8478C32.7968 33.7613 32.8472 33.6823 32.9116 33.6155C32.9759 33.5486 33.0529 33.4952 33.138 33.4582C33.2231 33.4213 33.3147 33.4015 33.4075 33.4002C33.5036 33.3957 33.5996 33.4107 33.6898 33.4441C33.78 33.4775 33.8626 33.5287 33.9326 33.5947C34.0026 33.6606 34.0587 33.74 34.0974 33.8281C34.1362 33.9161 34.1568 34.0111 34.1581 34.1073C34.1614 34.2034 34.145 34.2992 34.11 34.3888C34.075 34.4784 34.0221 34.5599 33.9545 34.6283C33.8869 34.6968 33.8061 34.7507 33.7169 34.7868C33.6277 34.8229 33.5322 34.8405 33.436 34.8384Z"/>
    </symbol>

    <symbol id="bulb" viewBox="0 0 49 45">
        <path d="M0 14.2968C0.21437 13.831 0.577726 13.6842 1.07882 13.689C3.07728 13.7072 5.07627 13.696 7.07473 13.6987C7.64228 13.6987 7.99974 14.0202 7.99652 14.5138C7.99331 15.0074 7.6337 15.3477 7.08545 15.3488C5.02429 15.3515 2.96312 15.3488 0.90196 15.352C0.448033 15.352 0.171496 15.121 0.00107185 14.7255L0 14.2968Z"/>
        <path d="M48.2327 14.7255C48.0371 15.204 47.6754 15.3573 47.17 15.353C45.1629 15.337 43.1559 15.3487 41.1489 15.3471C40.6665 15.3471 40.3225 15.084 40.2496 14.6729C40.1531 14.1327 40.5245 13.7024 41.1071 13.6997C42.4094 13.6943 43.7117 13.697 45.0145 13.6965C45.7278 13.6965 46.4422 13.7152 47.155 13.6901C47.6555 13.6718 48.0232 13.8294 48.2338 14.2967L48.2327 14.7255Z"/>
        <path d="M24.1088 0.995644C30.2414 0.987069 35.6247 5.1303 37.2009 11.0576C38.1269 14.5411 37.5953 17.8103 35.7587 20.872C34.7994 22.4712 33.735 24.0077 32.7516 25.5924C32.3312 26.2555 31.9671 26.9527 31.6632 27.6766C31.4547 28.1863 31.3829 28.7597 31.3089 29.3128C31.2408 29.816 30.9289 30.1703 30.4563 30.1649C29.9836 30.1596 29.6422 29.786 29.6481 29.279C29.6572 28.4451 29.8726 27.6552 30.1883 26.8899C30.7189 25.601 31.5088 24.4627 32.2602 23.2992C33.0399 22.0928 33.8336 20.8918 34.5507 19.6479C37.4549 14.6103 35.5926 9.15241 32.4676 6.07245C27.1635 0.846121 18.4371 1.70413 14.2767 7.87905C12.7622 10.1256 12.0794 12.6086 12.2782 15.3145C12.3752 16.6495 12.8051 17.8971 13.3908 19.0949C14.0725 20.4883 14.938 21.7665 15.8025 23.0489C16.549 24.1604 17.3111 25.2634 17.8754 26.4853C18.2876 27.377 18.585 28.2978 18.5963 29.2919C18.6 29.667 18.4317 29.9489 18.0871 30.1012C17.5855 30.3241 16.9788 29.9993 16.9617 29.4382C16.9161 28.0046 16.265 26.8122 15.5302 25.6535C14.7435 24.408 13.9042 23.1958 13.1138 21.953C12.0826 20.3318 11.2101 18.6302 10.8318 16.7293C10.2466 13.7849 10.7203 10.9746 12.1019 8.33941C14.0543 4.61474 17.1171 2.26471 21.2175 1.31881C22.1591 1.10176 23.1387 1.04816 24.1013 0.919006L24.1088 0.995644Z"/>
        <path d="M19.6578 42.377C20.146 42.5597 20.6225 42.7827 21.1246 42.9193C23.6794 43.616 26.1821 43.5089 28.5847 42.3223C29.0365 42.0999 29.4497 41.7864 29.8511 41.4798C30.2798 41.1486 30.7675 41.1406 31.0933 41.5136C31.4079 41.8732 31.357 42.3711 30.9492 42.7232C29.8602 43.6675 28.5836 44.2586 27.1977 44.5989C24.3235 45.3053 21.5233 45.1091 18.855 43.7666C18.3019 43.4885 17.7858 43.1176 17.3008 42.7291C16.6866 42.2376 16.8442 41.4868 17.5918 41.236C20.6644 40.2056 23.7388 39.1798 26.8151 38.1587C27.9073 37.7948 28.9995 37.4293 30.0944 37.0713C30.6485 36.8902 31.1008 37.0869 31.252 37.558C31.4031 38.029 31.1448 38.4578 30.6024 38.6378L19.9563 42.1851C19.8636 42.2162 19.7719 42.2505 19.6803 42.2837L19.6578 42.377Z"/>
        <path d="M25.2039 34.3977H22.5876C21.0155 34.3977 19.4435 34.3977 17.8714 34.3977C17.313 34.3977 16.9448 34.0761 16.9368 33.5847C16.9287 33.0932 17.3076 32.7497 17.8789 32.7492C20.5039 32.7463 23.1288 32.7463 25.7538 32.7492H30.2556C30.336 32.7492 30.4163 32.7492 30.4967 32.754C30.919 32.7888 31.2283 33.067 31.2872 33.4625C31.3135 33.6547 31.2711 33.85 31.1675 34.0141C31.0638 34.1781 30.9056 34.3003 30.7207 34.3591C29.8343 34.6629 28.9431 34.9529 28.054 35.2498C24.7527 36.352 21.4514 37.4551 18.1501 38.5591C17.7814 38.6829 17.4448 38.6695 17.1629 38.3737C16.9202 38.1186 16.8414 37.7429 17.0327 37.4626C17.171 37.2601 17.3669 37.1037 17.5949 37.0135C19.163 36.4679 20.7397 35.9513 22.3153 35.4256L25.2093 34.4609C25.2061 34.4389 25.205 34.418 25.2039 34.3977Z"/>
        <path d="M14.8358 14.1236C15.0239 9.44232 18.7389 5.59653 23.4105 5.24818C23.6415 5.23103 23.8741 5.2262 24.1072 5.22995C24.5896 5.23746 24.932 5.56919 24.9406 6.0258C24.9486 6.49366 24.6142 6.82969 24.126 6.88006C23.515 6.9417 22.8934 6.96206 22.2985 7.10676C18.9474 7.92512 16.5984 10.8459 16.481 14.2881C16.4805 14.4042 16.4741 14.5201 16.4617 14.6354C16.4347 14.832 16.3372 15.0121 16.1874 15.1422C16.0376 15.2724 15.8456 15.3436 15.6471 15.3428C15.4487 15.3441 15.2567 15.2719 15.1083 15.1401C14.9599 15.0083 14.8655 14.8262 14.8433 14.629C14.8315 14.4608 14.829 14.2921 14.8358 14.1236Z"/>
        <path d="M11.241 4.5922C11.2343 4.73758 11.1893 4.87861 11.1105 5.00097C11.0317 5.12333 10.922 5.22267 10.7924 5.2889C10.496 5.44968 10.2029 5.41753 9.93492 5.22995C9.58336 4.98611 9.23822 4.7294 8.89362 4.47966L5.03926 1.67838C4.95244 1.61568 4.86454 1.55351 4.78201 1.48599C4.41437 1.18587 4.34255 0.697642 4.61052 0.338573C4.67322 0.250878 4.75281 0.176595 4.84462 0.120086C4.93642 0.0635766 5.0386 0.0259807 5.14514 0.00950572C5.25167 -0.0069693 5.36043 -0.00199133 5.46502 0.0241473C5.56961 0.0502859 5.66792 0.0970583 5.75418 0.161718C6.49751 0.686924 7.22958 1.22821 7.96594 1.76306C8.91881 2.45583 9.87258 3.14771 10.8272 3.83869C11.0829 4.02359 11.2345 4.25671 11.241 4.5922Z"/>
        <path d="M43.7849 0.809072C43.7785 1.14349 43.6193 1.3734 43.3647 1.55937C42.18 2.41399 40.9958 3.27307 39.8121 4.13663C39.3298 4.48819 38.8474 4.84405 38.3613 5.19186C37.9294 5.50055 37.4406 5.43624 37.155 5.04287C36.8693 4.64951 36.9658 4.16449 37.3956 3.85151C39.0688 2.63282 40.7434 1.41574 42.4194 0.200263C42.7018 -0.00499635 43.0014 -0.0676995 43.3235 0.0930778C43.6241 0.239385 43.7677 0.491269 43.7849 0.809072Z"/>
        <path d="M37.835 23.617C38.0033 23.6899 38.1919 23.7349 38.3372 23.8394C40.0318 25.0581 41.7221 26.2829 43.4081 27.5137C43.825 27.8176 43.9054 28.3031 43.6262 28.6885C43.347 29.0738 42.854 29.1493 42.4434 28.8524C40.7524 27.6284 39.0637 26.4011 37.3773 25.1706C37.0349 24.9209 36.9223 24.5688 37.0429 24.206C37.1544 23.8732 37.4599 23.6583 37.835 23.617Z"/>
        <path d="M11.234 24.439C11.234 24.7938 11.0614 25.0254 10.7999 25.2145C9.49118 26.1624 8.18442 27.1113 6.87962 28.0614C6.51841 28.3234 6.15934 28.5876 5.79652 28.847C5.38118 29.1439 4.89617 29.0796 4.61159 28.6954C4.32701 28.3111 4.40204 27.8223 4.81631 27.5195C6.50983 26.2841 8.20693 25.0529 9.90759 23.826C10.0314 23.7282 10.1811 23.6686 10.3382 23.6545C10.4953 23.6405 10.6532 23.6725 10.7924 23.7466C11.0807 23.8897 11.2136 24.1438 11.234 24.439Z"/>
    </symbol>

    <symbol id="departureByCar" viewBox="0 0 49 45">
        <path d="M0 44.009C0.183095 43.5838 0.505717 43.4283 0.965109 43.4343C2.21479 43.452 3.46502 43.4404 4.71525 43.4404H5.01857C5.02353 43.3968 5.03787 43.3659 5.02794 43.3472C4.69374 42.7279 4.63087 42.0611 4.6419 41.3701C4.66065 40.3316 4.64466 39.2932 4.64907 38.2547C4.65529 38.1743 4.64199 38.0936 4.6103 38.0195C4.57861 37.9454 4.52948 37.88 4.46708 37.829C3.54664 37.0299 3.09552 36.0151 3.09717 34.7925C3.10158 32.1365 3.11096 29.4805 3.09166 26.8245C3.07953 25.0857 3.3856 23.4257 4.17037 21.865C4.18835 21.8184 4.20382 21.7709 4.2167 21.7227C4.09813 21.7227 4.00272 21.7227 3.90676 21.7227C2.67473 21.7122 1.68315 20.8552 1.57285 19.6331C1.51125 18.9543 1.51217 18.2712 1.57561 17.5926C1.69142 16.3721 2.65984 15.5261 3.89187 15.5156C5.1967 15.5046 6.50189 15.5046 7.80746 15.5156C8.05728 15.5156 8.16813 15.4605 8.23596 15.198C8.69425 13.4194 9.1735 11.6453 9.65054 9.87169C10.4993 6.73315 13.2214 4.65679 16.4808 4.65183C16.7449 4.65183 17.0775 4.72407 17.2528 4.59668C17.4282 4.46928 17.4541 4.1246 17.5391 3.87367C17.7916 3.1253 18.0354 2.37362 18.2946 1.62745C18.6509 0.597265 19.4787 0.00496342 20.5706 0.00330895C23.4016 -0.00110298 26.2326 -0.00110298 29.0636 0.00330895C30.1666 0.00551491 30.9938 0.60664 31.3534 1.65447C31.6651 2.56737 31.9681 3.48285 32.2622 4.4009C32.3267 4.60164 32.4194 4.67278 32.6312 4.66341C33.8218 4.60826 34.9811 4.75826 36.073 5.26453C38.0766 6.19269 39.3875 7.72253 39.9759 9.85018C40.4723 11.6387 40.9399 13.4349 41.4098 15.2283C41.4649 15.4401 41.5399 15.5217 41.7738 15.5195C43.0422 15.5057 44.3106 15.5123 45.5791 15.514C47.1117 15.514 48.0817 16.4819 48.0845 18.0067C48.0845 18.4292 48.0884 18.8522 48.0845 19.2752C48.0768 20.7294 47.0984 21.7083 45.6408 21.7227H45.4335C45.4333 21.7624 45.4389 21.802 45.45 21.8401C46.2773 23.4687 46.5613 25.2042 46.5425 27.0175C46.5161 29.5996 46.5287 32.1823 46.5359 34.7649C46.5392 35.998 46.092 37.0216 45.1649 37.8295C45.102 37.8803 45.0524 37.9455 45.0203 38.0197C44.9882 38.0939 44.9746 38.1747 44.9807 38.2553C44.9851 39.3031 44.9691 40.3509 44.9884 41.3988C45.0011 42.0981 44.9256 42.7703 44.5472 43.4393H44.8914C46.1504 43.4393 47.4095 43.4509 48.6685 43.4332C49.1285 43.4266 49.4489 43.5854 49.6336 44.0079V44.4491C49.4384 44.7882 49.1753 44.9939 48.7551 44.9934C43.1784 44.989 37.6016 44.989 32.0245 44.9934C27.2563 44.9934 22.488 44.9934 17.7194 44.9934C12.1611 44.9934 6.60263 44.9956 1.04397 45C0.577411 44.9983 0.220596 44.8765 0 44.4502V44.009ZM4.67444 31.0324C4.66506 31.1333 4.65348 31.2045 4.65348 31.2756C4.65348 32.4519 4.63969 33.6288 4.65348 34.8051C4.66837 36.266 5.65333 37.2256 7.11423 37.2256C9.43932 37.2256 11.7644 37.2256 14.0895 37.2256C23.5459 37.2256 33.0056 37.2141 42.4593 37.2389C43.7465 37.2422 45.0232 36.346 44.9862 34.7224C44.9691 33.9415 44.9862 33.16 44.9862 32.3791V31.0318H43.056C41.1442 31.0318 39.2323 31.0318 37.3205 31.0318C36.705 31.0318 36.2175 30.7936 35.8899 30.2598C35.6693 29.9029 35.6693 29.5092 35.6765 29.1115C35.6919 27.6016 36.7293 26.3436 38.2183 26.0784C39.7283 25.8081 41.2438 25.5688 42.7565 25.3151C43.4509 25.1987 44.1446 25.0807 44.8434 24.9632C44.8362 24.8855 44.8357 24.8303 44.8263 24.7763C44.5323 23.1477 43.7398 21.7651 42.7025 20.5072C42.6606 20.457 42.5205 20.4371 42.4543 20.4664C42.0859 20.6318 41.7192 20.8033 41.3635 20.9947C40.3598 21.5357 39.2899 21.737 38.1527 21.7354C29.2255 21.7218 20.3011 21.7195 11.3795 21.7287C10.3471 21.7287 9.3759 21.5225 8.45987 21.0449C7.99772 20.8039 7.52564 20.5811 7.06184 20.3522C5.91198 21.71 5.05166 23.1786 4.7886 24.961L4.94632 24.9881C7.03059 25.3362 9.11467 25.6837 11.1986 26.0304C12.954 26.321 13.9864 27.5619 13.956 29.3537C13.94 30.4053 13.3174 31.0274 12.2618 31.0302C10.3598 31.0346 8.45656 31.0302 6.55502 31.0302L4.67444 31.0324ZM41.6409 19.091C41.5306 18.9437 41.4285 18.7943 41.3166 18.6498C40.6741 17.8258 40.2462 16.901 39.982 15.8923C39.4912 14.0172 38.993 12.1444 38.4874 10.2737C37.8367 7.86426 35.7554 6.24784 33.2648 6.22137C32.0063 6.20868 30.7467 6.21861 29.4877 6.21861C25.1132 6.21861 20.7388 6.20593 16.3622 6.22468C13.8584 6.23516 11.7815 7.87915 11.1357 10.3057C10.6719 12.0451 10.2031 13.7834 9.74981 15.5261C9.4895 16.5287 9.15585 17.496 8.53653 18.3437C8.36391 18.5808 8.18964 18.8158 7.99607 19.0788C8.48855 19.322 8.96173 19.5614 9.43932 19.7919C9.98083 20.0496 10.5741 20.1799 11.1738 20.173C16.9269 20.173 22.6808 20.1759 28.4354 20.1818C28.6924 20.1818 28.7735 20.1002 28.8292 19.8642C29.0577 18.8997 29.589 18.0337 30.3453 17.3931C31.1017 16.7525 32.0433 16.371 33.0322 16.3044C34.0212 16.2378 35.0054 16.4897 35.8408 17.0231C36.6762 17.5565 37.3188 18.3434 37.6745 19.2685C37.7848 19.5581 37.8648 19.8597 37.9586 20.1548C39.1641 20.2734 40.3642 19.9287 41.6409 19.0904V19.091ZM11.9778 43.4211H37.6222C37.6068 43.3716 37.5884 43.3232 37.567 43.276C37.3084 42.7841 37.2163 42.258 37.2207 41.7054C37.2278 40.8329 37.2207 39.9599 37.2207 39.0869C37.2207 38.9904 37.2113 38.8939 37.2063 38.8001H12.4085C12.4085 39.6555 12.4003 40.4905 12.4085 41.3249C12.4223 42.039 12.3937 42.7405 11.9778 43.4211ZM30.7125 4.64576C30.4368 3.81301 30.1748 3.02107 29.9107 2.23023C29.7408 1.7212 29.5114 1.5552 28.977 1.55465C27.7637 1.55465 26.5513 1.55465 25.3399 1.55465C23.7693 1.55465 22.1986 1.55465 20.628 1.55465C20.1791 1.55465 19.9066 1.70907 19.7798 2.07636C19.4947 2.9036 19.2283 3.73084 18.9525 4.55807C18.9459 4.57903 18.9592 4.60715 18.9647 4.64466L30.7125 4.64576ZM10.8589 38.7985H6.24288C6.22937 38.829 6.21973 38.861 6.2142 38.8939C6.2142 39.9318 6.18552 40.9703 6.22137 42.0071C6.24949 42.8227 6.92893 43.4205 7.76003 43.4354C8.22824 43.4437 8.69756 43.4409 9.16523 43.4393C10.2026 43.436 10.8555 42.7874 10.8583 41.7561C10.8583 40.9658 10.8583 40.1761 10.8583 39.3847L10.8589 38.7985ZM43.4078 38.7985H38.7935C38.7875 38.8873 38.7781 38.9584 38.7781 39.0301C38.7781 39.9583 38.7715 40.8859 38.7781 41.8135C38.7825 42.7615 39.4432 43.4266 40.389 43.4387C40.8572 43.4448 41.3265 43.4387 41.7942 43.4387C42.7632 43.4343 43.4222 42.7863 43.4294 41.8151C43.436 40.8964 43.4294 39.9776 43.4266 39.0577C43.4249 38.9766 43.415 38.8961 43.4084 38.7979L43.4078 38.7985ZM4.66506 29.4496H12.3859C12.4929 28.4172 11.9574 27.7284 10.9774 27.5712C9.49116 27.3319 8.00765 27.0749 6.52303 26.8295C5.91033 26.7275 5.29762 26.6271 4.66396 26.5229L4.66506 29.4496ZM44.9658 26.5416C44.9058 26.5413 44.8457 26.5442 44.786 26.5504C43.5816 26.7497 42.3773 26.9499 41.1732 27.151C40.2588 27.3038 39.3406 27.4372 38.4323 27.6209C38.2336 27.6617 38.0452 27.7421 37.8783 27.8573C37.7114 27.9725 37.5694 28.1202 37.4609 28.2915C37.3523 28.4628 37.2794 28.6542 37.2465 28.8543C37.2135 29.0545 37.2213 29.2592 37.2692 29.4562H44.9658V26.5416ZM30.3965 20.152H36.2975C36.1111 18.8786 34.7164 17.8358 33.272 17.8496C31.6699 17.865 30.5377 19.1803 30.3965 20.152ZM42.124 17.0868C42.2613 17.2876 42.3672 17.4552 42.4852 17.6141C42.9567 18.2483 43.4663 18.8577 43.8932 19.52C44.2241 20.0313 44.6051 20.2921 45.2167 20.1757C45.359 20.1493 45.5101 20.1757 45.6579 20.1757C46.2149 20.1702 46.5287 19.8619 46.5348 19.3049C46.5398 18.8637 46.5348 18.4226 46.5348 17.9814C46.5348 17.3747 46.2464 17.0786 45.6447 17.0758C44.5693 17.0709 43.4939 17.0714 42.4196 17.0709C42.338 17.0686 42.2585 17.078 42.124 17.0868ZM7.49035 17.1161C7.44292 17.0913 7.42693 17.0764 7.41149 17.0764C6.21916 17.0764 5.02684 17.0664 3.83452 17.0813C3.4038 17.0868 3.11758 17.4122 3.10655 17.8606C3.09552 18.3569 3.09386 18.8533 3.10655 19.3463C3.11648 19.8564 3.43358 20.1647 3.94095 20.1735C4.29832 20.1785 4.65789 20.189 5.0136 20.1642C5.15038 20.1504 5.27689 20.0854 5.36766 19.9822C5.96713 19.2057 6.55281 18.4176 7.1396 17.6312C7.25817 17.4641 7.36957 17.2898 7.48814 17.1161H7.49035Z"/>
        <path d="M24.844 32.5799H36.4755C37.0071 32.5799 37.3507 32.886 37.3485 33.3564C37.3463 33.8268 37.0011 34.134 36.4711 34.134H13.2081C12.6875 34.134 12.3401 33.8125 12.3478 33.3398C12.355 32.8838 12.7002 32.581 13.2125 32.581L24.844 32.5799Z"/>
        <path d="M41.1408 32.5826C41.6736 32.5826 42.2063 32.5782 42.7402 32.5826C43.2222 32.587 43.5635 32.9135 43.558 33.3608C43.5525 33.808 43.2205 34.1251 42.7528 34.1279C41.6693 34.1352 40.5847 34.1352 39.499 34.1279C39.0374 34.1246 38.7077 33.7838 38.711 33.3442C38.7143 32.9047 39.049 32.5826 39.5134 32.5776C40.0555 32.5721 40.5971 32.5776 41.1392 32.5776L41.1408 32.5826Z"/>
        <path d="M8.56438 32.5793C9.08775 32.5793 9.61221 32.5793 10.135 32.5793C10.6435 32.5793 10.9838 32.8969 10.9805 33.3563C10.9772 33.8157 10.6407 34.1284 10.1301 34.1323C9.08297 34.1345 8.03605 34.1345 6.98932 34.1323C6.48195 34.1323 6.13617 33.8097 6.13672 33.3547C6.13727 32.8997 6.48416 32.5887 6.99374 32.5854C7.51765 32.582 8.04157 32.5854 8.56438 32.5854V32.5793Z"/>
        <path d="M24.0447 29.4805C24.0447 29.2241 24.0386 28.9671 24.0447 28.7084C24.0579 28.249 24.3921 27.9181 24.8278 27.9231C25.2514 27.9286 25.5801 28.254 25.5889 28.7023C25.5992 29.2171 25.6001 29.7303 25.5916 30.2421C25.5834 30.6965 25.2337 31.0379 24.8063 31.0302C24.3789 31.0225 24.0568 30.6905 24.0425 30.2482C24.0348 29.9917 24.0425 29.7347 24.0425 29.4761L24.0447 29.4805Z"/>
        <path d="M29.4661 29.4954C29.4661 29.7524 29.4738 30.0094 29.4661 30.2675C29.4501 30.6999 29.1286 31.0247 28.7205 31.0346C28.5157 31.0393 28.3173 30.9632 28.168 30.8229C28.0187 30.6826 27.9305 30.4893 27.9225 30.2846C27.9048 29.7441 27.9061 29.2035 27.9264 28.6627C27.9318 28.4623 28.0165 28.2722 28.1619 28.1341C28.3072 27.996 28.5013 27.9211 28.7017 27.9259C29.1264 27.9336 29.4534 28.2568 29.4694 28.698C29.4788 28.9638 29.4694 29.2296 29.4694 29.4954H29.4661Z"/>
        <path d="M17.8347 29.4998C17.8347 29.7563 17.8441 30.0138 17.8347 30.2719C17.8154 30.7026 17.4911 31.0225 17.0813 31.0313C16.8813 31.0378 16.6867 30.9652 16.5397 30.8293C16.3927 30.6933 16.3052 30.505 16.296 30.305C16.2729 29.7535 16.2707 29.202 16.2927 28.655C16.3023 28.4551 16.3895 28.2668 16.5357 28.1303C16.682 27.9937 16.8758 27.9196 17.0758 27.9237C17.4972 27.9298 17.822 28.2546 17.8391 28.7046C17.8485 28.9699 17.8391 29.2362 17.8391 29.5021L17.8347 29.4998Z"/>
        <path d="M21.7188 29.4717C21.7188 29.7287 21.7271 29.9857 21.7188 30.2438C21.7001 30.701 21.3603 31.0352 20.9302 31.0336C20.5 31.0319 20.1774 30.6922 20.1708 30.2251C20.1636 29.7287 20.1614 29.2351 20.168 28.7405C20.1741 28.264 20.5061 27.9259 20.9511 27.9265C21.3813 27.9265 21.7034 28.2607 21.7172 28.7316C21.7249 28.9787 21.7172 29.228 21.7172 29.4739L21.7188 29.4717Z"/>
        <path d="M33.3503 29.5015C33.3503 29.758 33.3619 30.0155 33.3503 30.2736C33.3255 30.7176 32.983 31.0391 32.5628 31.0314C32.1425 31.0236 31.815 30.6966 31.8056 30.2488C31.7951 29.7354 31.7929 29.2214 31.8056 28.7085C31.8139 28.2601 32.1425 27.9309 32.5628 27.9237C32.7661 27.9227 32.9619 28.0008 33.1088 28.1415C33.2556 28.2821 33.342 28.4744 33.3498 28.6776C33.3669 28.9533 33.3531 29.2291 33.3531 29.5048L33.3503 29.5015Z"/>
        <path d="M24.8393 9.31354C25.3808 9.31354 25.9229 9.31354 26.4645 9.31354C26.9294 9.31354 27.2631 9.63506 27.2697 10.0751C27.2768 10.5257 26.9388 10.861 26.4601 10.8621C25.385 10.8651 24.3106 10.8651 23.2366 10.8621C22.7662 10.8621 22.4392 10.5428 22.4336 10.0989C22.4287 9.64057 22.7563 9.3185 23.241 9.31519C23.7738 9.31133 24.3065 9.31519 24.8404 9.31519L24.8393 9.31354Z"/>
    </symbol>

    <symbol id="pencilWithRuler" viewBox="0 0 46 45">
        <path d="M45.0452 6.93849C44.5601 8.28648 43.5446 9.2263 42.5639 10.2039C32.7509 20.0103 22.9378 29.8172 13.1245 39.6247C12.7547 39.9853 12.3201 40.2727 11.8435 40.4715C8.32821 41.9467 4.80282 43.3985 1.26731 44.8269C0.970163 44.9466 0.388286 44.9714 0.280967 44.8108C0.108513 44.5546 0.107272 44.0589 0.233822 43.745C1.63455 40.2608 3.06236 36.7869 4.51726 33.3233C4.75176 32.7692 5.08847 32.2641 5.5098 31.8345C14.4493 22.8698 23.3983 13.915 32.3568 4.97015C33.2253 4.10168 33.3866 4.09423 34.2488 4.96581C36.1564 6.89506 38.0515 8.8361 39.8939 10.7163C41.0899 9.59602 42.2438 8.63573 43.2438 7.53649C43.9373 6.77472 43.8089 5.6457 43.062 4.83802C42.1414 3.84114 41.1799 2.87713 40.1799 1.95965C39.2928 1.14577 38.1328 1.19415 37.1924 2.01486C36.7364 2.41374 36.3623 2.91683 35.8741 3.26422C35.6421 3.42923 35.229 3.33928 34.8977 3.36472C34.9201 3.03159 34.814 2.59053 34.9877 2.3821C35.8413 1.35916 36.8189 0.467115 38.1067 0H39.3207C41.8625 1.275 43.7706 3.18296 45.0452 5.72386V6.93849ZM30.8649 8.64318L6.88447 32.5926L8.88817 35.1689C8.99176 35.0801 9.15119 34.9617 9.29014 34.8233C15.1743 28.9359 21.058 23.0485 26.9413 17.161C27.1857 16.9166 27.4164 16.622 27.7148 16.4787C27.9202 16.3813 28.2924 16.4247 28.4772 16.5593C28.6211 16.6648 28.6757 17.032 28.6162 17.2417C28.551 17.4694 28.3265 17.6623 28.1447 17.844C22.1771 23.8117 16.2082 29.7783 10.238 35.7439C10.113 35.8793 9.99711 36.0229 9.89125 36.1738L12.4719 38.1781L36.3096 14.3348L34.0584 11.9496C33.8797 12.1208 33.6701 12.315 33.4672 12.516C32.7501 13.2293 32.0653 13.9799 31.296 14.6356C31.0988 14.8038 30.6465 14.6735 30.3116 14.6803C30.3314 14.3664 30.2719 14.0166 30.3922 13.7498C30.5125 13.4831 30.8103 13.2802 31.0386 13.0594C31.76 12.3609 32.4852 11.6667 33.1651 11.0123L30.8649 8.64318ZM5.78771 33.703C5.26229 34.9697 4.78897 36.1112 4.31627 37.2526C3.40623 39.4535 3.41988 39.4386 5.10844 41.1284C5.50484 41.5255 5.82555 41.5627 6.31934 41.3462C7.77156 40.7147 9.24796 40.1378 10.7113 39.5305C10.9092 39.4479 11.0835 39.3127 11.323 39.1713C10.6741 38.1787 9.88567 37.5913 8.74177 37.5584C7.55506 37.5261 7.53893 37.4964 7.47876 36.26C7.42417 35.1385 6.87207 34.3314 5.78771 33.703ZM31.9257 7.36528L37.5844 13.0519L39.0242 11.8906L33.332 6.13081L31.9257 7.36528ZM4.09295 42.2358L2.89756 40.7066C2.52535 41.6284 2.26481 42.2699 1.90501 43.152L4.09295 42.2358Z"/>
        <path d="M9.66113 0C13.6727 3.99829 17.6873 7.99534 21.705 11.9911C22.1833 12.4663 22.2596 12.895 21.7447 13.3931C20.9556 14.1567 20.2156 14.975 19.3905 15.6964C19.161 15.8962 18.5841 16.0066 18.3756 15.859C17.9178 15.542 18.148 15.0897 18.491 14.7603C19.1567 14.1214 19.8372 13.4986 20.5034 12.8764L18.3943 10.8727C17.8025 11.4583 17.117 12.1903 16.3633 12.8454C16.1654 13.0172 15.7578 12.9477 15.447 12.9887C15.4123 12.6785 15.3006 12.3491 15.3682 12.0625C15.4197 11.8429 15.6846 11.6611 15.8769 11.4887C16.4557 10.9694 17.045 10.4626 17.6474 9.93782L15.3844 7.77905C14.8261 8.39939 14.2188 9.08982 13.5947 9.76413C13.2895 10.0935 12.9173 10.4161 12.4837 10.0085C12.0265 9.57803 12.2945 9.1686 12.658 8.82184C13.3044 8.20584 13.9607 7.59729 14.6201 6.97571L9.3857 1.97516L1.63147 9.77964C2.31384 10.4 3.10663 11.0625 3.83925 11.7889C6.8144 14.7413 9.77941 17.7041 12.7343 20.6771C12.8974 20.8397 13.1332 20.9972 13.1784 21.1932C13.2355 21.437 13.2188 21.8136 13.068 21.9581C12.9173 22.1027 12.5451 22.1014 12.3025 22.0382C12.1046 21.9867 11.9477 21.7571 11.7852 21.594C8.08381 17.8955 4.38432 14.1956 0.686692 10.4943C-0.236372 9.56996 -0.230169 9.50607 0.713366 8.56564C3.58016 5.70877 6.44715 2.85356 9.31436 0H9.66113Z"/>
        <path d="M45.0449 35.7316C42.0888 38.6984 39.1347 41.6668 36.1827 44.6365C35.6865 45.1396 35.2932 45.1092 34.8012 44.6154C30.9694 40.7693 27.114 36.9425 23.2983 33.0771C23.0713 32.8476 22.9311 32.2056 23.083 31.9934C23.4435 31.4897 23.8802 31.8147 24.2338 32.169C27.7039 35.6429 31.1737 39.1168 34.6431 42.5906C34.9036 42.8531 35.0674 43.211 35.2535 43.4908L43.1597 35.507L38.0251 30.4146C37.4811 31.0151 36.9085 31.6621 36.3205 32.2887C35.9786 32.6516 35.568 33.0703 35.073 32.6044C34.5531 32.115 35.0022 31.7136 35.3596 31.3743C35.9849 30.78 36.6306 30.2062 37.3446 29.553L35.0953 27.6386C34.563 28.1678 33.9241 28.8626 33.2138 29.4748C32.9774 29.6789 32.4632 29.847 32.2436 29.7285C31.694 29.4283 31.8714 28.9531 32.2579 28.5896C32.9464 27.9395 33.6561 27.3117 34.3745 26.6585L32.171 24.4371C31.5668 25.1194 30.9868 25.7925 30.3863 26.4476C30.0364 26.8285 29.6071 27.1752 29.1413 26.6703C28.6946 26.187 29.1357 25.8285 29.4576 25.5016C30.1673 24.7813 30.9018 24.0847 31.5972 23.3515C32.1059 22.8149 32.5476 22.8273 33.0631 23.3471C37.0498 27.3648 41.0425 31.3776 45.0412 35.3854L45.0449 35.7316Z"/>
        <path d="M10.1953 8.2176C10.1822 9.39996 9.28089 10.2647 8.08612 10.2455C6.89135 10.2263 6.02225 9.31498 6.04334 8.14254C6.05395 7.59019 6.28307 7.06457 6.68051 6.68086C7.07795 6.29714 7.61129 6.08662 8.16366 6.09542C9.32928 6.11217 10.2089 7.03213 10.1953 8.2176ZM9.21638 8.22876C8.69963 7.85036 8.39629 7.45768 8.14071 7.48436C7.86528 7.51537 7.49742 7.91115 7.43352 8.20457C7.39382 8.38695 7.8324 8.85096 8.08054 8.87019C8.36217 8.89377 8.6711 8.56064 9.21638 8.22876Z"/>
        <path d="M38.9485 36.8903C38.9553 37.4421 38.7429 37.9741 38.358 38.3695C37.973 38.7649 37.447 38.9914 36.8952 38.9995C35.7165 39.0112 34.814 38.126 34.8009 36.948C34.7879 35.7514 35.6508 34.863 36.8375 34.8513C38.0242 34.8395 38.933 35.7203 38.9485 36.8903ZM36.8487 35.8165C36.5007 36.3581 36.1551 36.6595 36.1663 36.943C36.1787 37.1943 36.6322 37.6496 36.8158 37.6155C37.1123 37.5597 37.5161 37.2005 37.5602 36.9219C37.5968 36.6682 37.2134 36.3519 36.8487 35.8165Z"/>
    </symbol>

    <symbol id="production" viewBox="0 0 54 43">
        <path d="M0 10.3816C0.328523 9.44468 0.862045 8.70353 1.89361 8.47093C2.18418 8.4121 2.48025 8.38478 2.77668 8.38946C4.6992 8.38289 6.62303 8.39734 8.54555 8.38026C9.34452 8.37369 10.1225 8.40654 10.7414 8.93087C11.9504 7.93478 13.0884 6.92556 14.2987 6.01227C18.2869 3.00168 22.7338 1.01345 27.6958 0.314355C29.0979 0.125586 30.51 0.0207098 31.9246 0.000286822C32.6931 -0.00994431 33.4401 0.253832 34.0317 0.744344C34.6234 1.23486 35.021 1.92004 35.1533 2.6771C35.4227 4.37622 34.5265 5.88086 32.9194 6.42226C32.692 6.49848 32.4568 6.55367 32.1835 6.62069C32.4923 7.45251 32.7735 8.25542 33.1033 9.04125C33.153 9.11458 33.2182 9.17612 33.2943 9.22153C33.3703 9.26694 33.4554 9.29511 33.5436 9.30407C38.1245 9.7732 41.9695 11.7062 45.0484 15.1242C47.0872 17.3795 48.4927 20.1343 49.1221 23.1086C49.2693 23.7828 49.0065 24.1691 48.402 24.2414C48.2115 24.265 47.9119 24.2874 47.8632 24.3991C47.7264 24.7523 47.6281 25.1193 47.5702 25.4937C47.557 25.5607 47.6346 25.654 47.6871 25.7224C48.2456 26.4556 48.2443 27.1757 47.7082 27.9327C47.6478 28.0317 47.6096 28.1427 47.5962 28.2579C47.5828 28.3732 47.5946 28.49 47.6306 28.6002C48.0052 29.4518 47.9316 30.189 47.2154 30.825C47.1628 30.892 47.1186 30.9653 47.084 31.0431H49.6228V29.6344C49.6228 28.4806 49.6228 27.3256 49.6228 26.1718C49.6228 25.562 49.9382 25.1993 50.4231 25.2138C50.887 25.2256 51.1879 25.5791 51.1918 26.1586C51.1997 27.5923 51.1918 29.026 51.1918 30.4597V31.1009C51.8134 31.1009 52.3863 31.072 52.9553 31.1088C53.414 31.139 53.6899 31.4268 53.7004 31.8973C53.7096 32.306 53.3824 32.6082 52.912 32.6489C52.7556 32.6621 52.5979 32.6581 52.4402 32.6581C50.8633 32.6581 49.293 32.6581 47.7187 32.6581C47.3834 32.652 47.0587 32.7753 46.812 33.0024C46.1444 33.5281 45.7607 34.1063 45.8224 34.9841C45.8553 35.4414 45.4821 35.699 45.101 35.8593C44.5754 36.08 44.2495 36.4283 44.1982 37.0144C44.1417 37.6556 43.7646 38.0262 43.1535 38.1589C42.6581 38.2667 42.298 38.5032 42.1574 39.0223C41.9669 39.7267 41.4636 40.0499 40.7619 40.0539C40.5524 40.0443 40.345 40.0986 40.1671 40.2096C39.9892 40.3206 39.8492 40.4831 39.7658 40.6754C39.4412 41.3233 38.9195 41.5769 38.2138 41.4507C38.0006 41.402 37.7777 41.419 37.5743 41.4995C37.3709 41.5799 37.1967 41.7201 37.0745 41.9015C36.6396 42.481 36.0706 42.6216 35.4043 42.3706C35.2127 42.2857 35.0002 42.26 34.7939 42.2967C34.5876 42.3335 34.397 42.4311 34.2466 42.5769C33.6986 43.0697 33.1073 43.142 32.4765 42.7412C32.3048 42.6215 32.1004 42.5573 31.8911 42.5573C31.6817 42.5573 31.4774 42.6215 31.3057 42.7412C30.6999 43.1144 30.1111 43.092 29.5789 42.5993C29.1847 42.2326 28.7419 42.2208 28.2648 42.3916C27.663 42.6098 27.1597 42.4718 26.7773 41.9672C26.6339 41.7589 26.4311 41.5985 26.1953 41.5071C25.9595 41.4157 25.7016 41.3974 25.4553 41.4547C24.8245 41.5638 24.3607 41.3233 24.0729 40.7582C23.9737 40.5347 23.8094 40.3462 23.6015 40.2175C23.3935 40.0888 23.1516 40.0258 22.9073 40.0368C22.2502 40.0368 21.8205 39.6925 21.6405 39.0657C21.4894 38.54 21.1477 38.2641 20.6208 38.155C20.0071 38.0236 19.6378 37.6491 19.58 37.0078C19.5301 36.4467 19.2278 36.0879 18.7153 35.8816C18.1253 35.6411 17.8598 35.1891 17.9164 34.557C17.9623 34.0406 17.7022 33.7186 17.3605 33.3467C16.8059 32.7436 16.1923 32.6174 15.4222 32.6463C14.0424 32.6989 12.6626 32.6621 11.2789 32.6595C11.0869 32.665 10.8947 32.654 10.7046 32.6266C10.2999 32.557 10.0476 32.256 10.1054 31.8947C10.1501 31.624 10.4129 31.3519 10.6468 31.1627C10.7782 31.0523 11.0489 31.0852 11.2565 31.0852C12.865 31.0852 14.4734 31.0852 16.0819 31.0852H16.7849C16.5352 30.7724 16.2987 30.5727 16.1923 30.3177C16.0609 30.001 15.8848 29.5792 15.9925 29.3085C16.2842 28.57 16.2461 27.9379 15.777 27.3072C15.6758 27.1757 15.6456 26.9891 15.5549 26.7815C14.3052 26.7815 13.0345 26.7736 11.7625 26.7947C11.6389 26.7947 11.4734 26.9537 11.4024 27.0798C10.8991 27.9865 10.1448 28.4609 9.10404 28.4622C6.9187 28.4622 4.73205 28.4741 2.54671 28.4622C1.30095 28.453 0.541407 27.8893 0.0867302 26.7119C0.064447 26.653 0.0353379 26.597 0 26.545L0 10.3816ZM46.1326 24.2493H41.8381C40.938 24.2493 40.8539 24.1901 40.524 23.3636C39.9154 21.8278 38.8962 20.489 37.5778 19.4936C37.3452 19.3226 37.0661 19.2264 36.7775 19.2176C33.5265 19.1992 30.2754 19.1992 27.0243 19.2176C26.7523 19.2277 26.4895 19.3193 26.27 19.4804C24.9914 20.4403 23.9909 21.7228 23.3712 23.1967C22.9204 24.2545 22.9257 24.2558 21.7496 24.2558H17.6089C17.8888 25.0088 18.1345 25.7132 17.5786 26.3794C17.3158 26.6948 17.3513 27.0036 17.5865 27.3216C17.9715 27.8472 18.0478 28.4044 17.7429 28.9918C17.5458 29.3742 17.6601 29.6633 17.9295 29.9774C18.1989 30.2915 18.371 30.6607 18.6246 31.0681H45.1877C45.4834 30.6108 45.7554 30.235 45.9762 29.8302C46.08 29.641 46.1917 29.3493 46.1168 29.1863C45.7765 28.4386 45.8711 27.7776 46.3284 27.1179C46.3718 27.0409 46.3965 26.9547 46.4004 26.8663C46.4043 26.778 46.3872 26.6899 46.3507 26.6094C45.8658 25.9195 45.7581 25.2138 46.1444 24.449C46.1641 24.403 46.1391 24.3426 46.1326 24.2493ZM47.3153 22.6723C46.1102 17.2018 40.5818 11.0216 32.2833 10.8218C24.107 10.626 17.9715 16.4554 16.4945 22.6487C16.6338 22.6592 16.7691 22.6763 16.9045 22.6763C18.4078 22.6763 19.9125 22.6645 21.4158 22.6868C21.7732 22.6868 21.9243 22.5646 22.0728 22.2518C22.8685 20.5081 24.127 19.016 25.7116 17.9377C25.9846 17.7559 26.3035 17.6552 26.6314 17.6472C30.1453 17.6262 33.6596 17.6262 37.1744 17.6472C37.5179 17.6566 37.8518 17.7627 38.1376 17.9534C39.7157 19.0405 40.9736 20.5307 41.7803 22.2689C41.8578 22.4319 42.0431 22.6631 42.1745 22.6631C43.8815 22.6802 45.599 22.671 47.3074 22.671L47.3153 22.6723ZM19.2528 32.6936C19.3395 33.2009 19.3842 33.6608 19.5051 34.1023C19.5629 34.3231 19.693 34.6148 19.8717 34.6976C20.5524 35.013 20.9598 35.4861 21.0268 36.2443C21.03 36.3847 21.0843 36.5191 21.1797 36.6222C21.2751 36.7253 21.4048 36.79 21.5446 36.8041C21.8754 36.8496 22.1848 36.9938 22.4324 37.2179C22.68 37.4421 22.8542 37.7357 22.9322 38.0604C23.0295 38.3928 23.2371 38.5361 23.5801 38.5387C24.312 38.5387 24.8403 38.8896 25.1636 39.5427C25.3108 39.8384 25.546 39.9225 25.8535 39.8712C26.571 39.7529 27.1597 39.9671 27.6012 40.5558C27.6755 40.676 27.7916 40.7646 27.9271 40.8046C28.0626 40.8446 28.2081 40.8332 28.3358 40.7727C28.6397 40.6339 28.9787 40.5913 29.3075 40.6505C29.6362 40.7097 29.9391 40.8678 30.1755 41.1038C30.2756 41.214 30.4132 41.283 30.5614 41.2973C30.7095 41.3117 30.8578 41.2703 30.9771 41.1814C31.5987 40.7871 32.2295 40.7976 32.8484 41.1814C33.1506 41.3706 33.4043 41.3128 33.6487 41.0894C34.1743 40.6137 34.7735 40.4941 35.4424 40.7569C35.5765 40.8239 35.7306 40.8388 35.875 40.7987C36.0194 40.7587 36.1439 40.6665 36.2243 40.5401C36.6645 39.9461 37.2624 39.7516 37.976 39.8673C38.1119 39.9026 38.2561 39.8874 38.3817 39.8246C38.5074 39.7618 38.606 39.6555 38.6593 39.5256C38.7947 39.2198 39.0187 38.9618 39.3025 38.7849C39.5862 38.608 39.9166 38.5204 40.2507 38.5335C40.3986 38.5453 40.5457 38.5016 40.6632 38.411C40.7808 38.3204 40.8604 38.1894 40.8867 38.0433C40.9616 37.7267 41.1302 37.44 41.3705 37.2206C41.6107 37.0012 41.9115 36.8592 42.2337 36.8133C42.5635 36.7515 42.7659 36.5741 42.7935 36.2285C42.85 35.49 43.2403 34.9999 43.917 34.7305C44.2166 34.6122 44.3112 34.3954 44.3401 34.0853C44.3875 33.6174 44.4992 33.1575 44.5846 32.6884L19.2528 32.6936ZM6.7229 9.96112H2.8437C1.85287 9.96243 1.57691 10.2423 1.57691 11.2489C1.57691 16.0392 1.57691 20.8313 1.57691 25.6251C1.56809 25.8009 1.57823 25.9771 1.60714 26.1507C1.69124 26.545 1.92778 26.8525 2.3404 26.859C3.7859 26.8827 5.23141 26.8682 6.7229 26.8682V26.2112C6.7229 22.3644 6.7229 18.5185 6.7229 14.6735C6.71399 14.4814 6.725 14.289 6.75576 14.0992C6.84117 13.6879 7.11713 13.4422 7.53238 13.4592C7.96735 13.4737 8.23937 13.7339 8.28667 14.1833C8.29943 14.3582 8.30294 14.5337 8.29719 14.7089C8.29719 18.5549 8.29719 22.4008 8.29719 26.2467V26.8472C9.61128 26.9944 10.1106 26.8472 10.0975 25.3334C10.0554 20.6841 10.083 16.0335 10.0817 11.383C10.0817 11.2082 10.0883 11.0321 10.0817 10.8573C10.0436 10.3645 9.75058 10.0386 9.26436 9.99003C8.96945 9.97218 8.6738 9.96999 8.37866 9.98346C8.3353 10.057 8.31953 10.0715 8.31821 10.086C8.31821 10.5748 8.31164 11.0636 8.30113 11.5538C8.2893 12.1294 7.99495 12.4737 7.52976 12.4855C7.06457 12.4973 6.7413 12.1425 6.73079 11.5656C6.71239 11.0531 6.7229 10.5472 6.7229 9.96112ZM11.6613 15.2333C13.2723 13.726 14.8151 12.1504 16.4932 10.7443C19.136 8.52298 22.2176 6.88411 25.5368 5.93473C26.1754 5.75076 26.4948 5.90188 26.7418 6.50111C26.8154 6.67851 26.8732 6.85986 26.9455 7.03857L27.9219 9.64179L31.4292 9.18449C31.3832 9.05308 31.3451 8.91378 31.2978 8.79026C31.0074 8.0018 30.7117 7.22255 30.4226 6.43672C30.0835 5.51685 30.3871 5.05955 31.3543 5.03984C31.5645 5.03984 31.7748 5.03984 31.9837 5.02275C32.9522 4.94128 33.6631 4.18042 33.6395 3.25924C33.6158 2.29995 32.8655 1.57457 31.8655 1.56931C29.558 1.55704 27.2595 1.85629 25.0322 2.45896C20.237 3.73888 16.1226 6.21595 12.4839 9.54455C11.882 10.0938 11.5903 10.6182 11.6455 11.4539C11.7257 12.7352 11.6613 14.0256 11.6613 15.2333ZM26.4133 10.1188C26.0926 9.26202 25.7891 8.45122 25.4763 7.61283C23.8474 8.12008 22.2811 8.80999 20.8074 9.66939C17.1897 11.7496 14.2697 14.5986 11.7835 17.9166C11.6875 18.048 11.6928 18.2465 11.6376 18.4712C13.1239 18.4712 14.5194 18.4567 15.915 18.4817C16.0752 18.4996 16.2369 18.4662 16.3769 18.3864C16.5169 18.3066 16.628 18.1844 16.6942 18.0375C17.9335 15.8564 19.6347 13.9727 21.6786 12.5183C23.1296 11.489 24.7252 10.6803 26.4133 10.1188ZM11.6954 20.0888V25.1744H16.2251C16.0385 24.8353 16.233 24.3294 15.6995 24.2545C14.7047 24.1231 14.5089 23.8537 14.7796 22.8681C15.0345 21.9325 15.3223 21.0048 15.6022 20.0481H11.9228C11.846 20.055 11.7699 20.0687 11.6954 20.0888Z"/>
        <path d="M31.9032 30.1312C31.0382 30.113 30.2149 29.7563 29.6101 29.1378C29.0052 28.5192 28.6669 27.6882 28.668 26.8231C28.669 25.9579 29.0092 25.1277 29.6156 24.5106C30.2219 23.8935 31.0461 23.5388 31.9111 23.5226C32.7858 23.5349 33.6211 23.8887 34.2386 24.5084C34.8561 25.1281 35.2068 25.9646 35.216 26.8394C35.2105 27.7144 34.859 28.5516 34.2383 29.1684C33.6176 29.7851 32.7782 30.1312 31.9032 30.1312ZM31.8848 28.5543C32.1125 28.5588 32.3388 28.5181 32.5506 28.4344C32.7624 28.3507 32.9555 28.2257 33.1186 28.0668C33.2817 27.9079 33.4116 27.7181 33.5007 27.5085C33.5899 27.2989 33.6364 27.0737 33.6378 26.846C33.6368 26.3852 33.4541 25.9433 33.1293 25.6164C32.8046 25.2894 32.364 25.1037 31.9032 25.0996C31.4532 25.1036 31.0226 25.2835 30.7034 25.6007C30.3842 25.9179 30.2017 26.3474 30.1949 26.7974C30.1873 27.0244 30.2254 27.2507 30.3068 27.4628C30.3882 27.6749 30.5113 27.8685 30.6689 28.0322C30.8265 28.1959 31.0152 28.3263 31.2241 28.4158C31.4329 28.5052 31.6576 28.5519 31.8848 28.553V28.5543Z"/>
    </symbol>

    <symbol id="delivery" viewBox="0 0 40 43">
        <path d="M38.7573 0C39.0673 0.494714 39.378 0.988587 39.709 1.51186C38.8766 2.04605 38.0686 2.56764 37.2572 3.08419C35.0524 4.49274 32.8409 5.89289 30.6454 7.30731C30.4527 7.43507 30.3019 7.61678 30.212 7.82975C27.0522 16.061 23.9 24.2922 20.7553 32.5234C20.7015 32.6637 20.6537 32.8073 20.5873 32.9837C22.2504 33.5675 23.4145 34.651 23.9655 36.3115C24.181 36.9361 24.2685 37.5978 24.2228 38.257C24.177 38.9161 23.999 39.5594 23.6992 40.1482C23.1284 41.3022 22.1441 42.1989 20.9421 42.66C19.7402 43.1212 18.4087 43.1129 17.2125 42.6369C14.8691 41.718 13.0969 38.806 14.5046 35.6026L0 29.9012C0.220899 29.3401 0.433399 28.8026 0.660178 28.2289C1.7084 28.6388 2.7331 29.0378 3.75613 29.4401C7.61641 30.9598 11.4761 32.4809 15.3353 34.0034C15.5713 34.0974 15.7393 34.0874 15.9358 33.9194C16.6102 33.3434 17.4387 32.9778 18.3187 32.8678C18.6278 32.8266 18.7655 32.7049 18.8747 32.4176C20.5378 28.0438 22.2081 23.6729 23.8857 19.3047C25.4843 15.1303 27.0802 10.9548 28.6732 6.77816C28.785 6.46489 29.0016 6.1999 29.2864 6.02811C32.2771 4.13045 35.2619 2.22747 38.2408 0.31917C38.3911 0.222579 38.5289 0.10667 38.6733 0H38.7573ZM15.809 37.8905C15.8128 38.7684 16.1637 39.609 16.7851 40.229C17.4065 40.8491 18.248 41.198 19.1258 41.1998C20.9334 41.1998 22.4494 39.6644 22.4225 37.8695C22.3948 36.0477 20.9241 34.5846 19.125 34.588C18.2474 34.5864 17.4051 34.9334 16.7833 35.5527C16.1614 36.172 15.811 37.0129 15.809 37.8905Z"/>
        <path d="M7.83047 11.9336C7.95898 11.9731 8.14964 12.0176 8.33442 12.0873C12.8028 13.8114 17.2703 15.5377 21.737 17.2663C22.5123 17.5661 22.687 17.9726 22.3905 18.7395L17.6727 30.9301C17.3317 31.8095 16.9352 31.9825 16.0516 31.6415L2.84638 26.5323C1.95018 26.1854 1.7822 25.8099 2.12824 24.9146C3.69554 20.8645 5.26171 16.8152 6.82676 12.7668C6.99979 12.3141 7.24168 11.9731 7.83047 11.9336ZM8.28655 13.9948L4.01051 25.0464L16.1894 29.7601C17.6172 26.0585 19.0384 22.394 20.4654 18.7076L8.28655 13.9948Z"/>
        <path d="M8.15234 9.76241C8.18594 9.6465 8.22794 9.44072 8.30185 9.24838C9.0141 7.40055 9.72972 5.55272 10.4487 3.7049C10.7553 2.91621 11.1651 2.73059 11.9538 3.03296C16.4205 4.75872 20.8864 6.48644 25.3514 8.21611C26.1166 8.51261 26.2946 8.91829 25.9948 9.69606C25.2713 11.5713 24.5454 13.4457 23.8169 15.3193C23.5414 16.0257 23.0878 16.2256 22.389 15.956C17.8971 14.2202 13.4055 12.4824 8.91415 10.7426C8.50259 10.583 8.16998 10.3571 8.15234 9.76241ZM22.3882 14.0175C22.9585 12.5442 23.5111 11.118 24.0772 9.6549L11.8984 4.94042C11.3306 6.41196 10.7805 7.84067 10.2143 9.30801L22.3882 14.0175Z"/>
    </symbol>

    <symbol id="montage" viewBox="0 0 47 43">
        <path d="M36.1793 6.05468C37.4021 6.05468 38.5628 6.05468 39.7244 6.05468C39.9978 6.05069 40.2709 6.07487 40.5393 6.12683C40.8551 6.19105 41.1511 6.32935 41.4029 6.53034C41.6548 6.73133 41.8553 6.98927 41.988 7.28292C42.1017 7.51822 42.2429 7.56292 42.4719 7.56135C43.5433 7.55351 44.6154 7.56135 45.6876 7.56135C45.8184 7.55767 45.9493 7.56108 46.0798 7.57155C46.479 7.61547 46.748 7.89234 46.7551 8.25548C46.7621 8.63665 46.4876 8.94018 46.0688 8.97077C45.7307 8.99587 45.3895 8.98097 45.0492 8.98097C44.1864 8.98097 43.3237 8.98803 42.4609 8.98097C42.2256 8.98097 42.1009 9.03666 41.9825 9.26489C41.5542 10.0963 40.8421 10.4908 39.9103 10.4924C38.8259 10.4924 37.7409 10.4924 36.6554 10.4924H36.1793C36.1793 10.9629 36.1793 11.388 36.1793 11.8155C36.1715 13.3779 35.2813 14.2712 33.7189 14.2751C31.9283 14.2798 30.1377 14.2751 28.3471 14.2751H27.8922C27.8624 14.4649 27.8467 14.6296 27.8091 14.7896C27.7108 15.2469 27.4692 15.6608 27.1193 15.9712C26.7695 16.2816 26.3296 16.4721 25.8639 16.5151C25.7077 16.5323 25.5506 16.5412 25.3934 16.5418C24.631 16.5489 24.6177 16.5418 24.511 17.2955C24.3866 18.1661 24.4576 19.0535 24.7188 19.8932C24.9706 20.712 24.7 21.0697 23.8326 21.0697C23.0482 21.0697 22.2639 21.0783 21.4796 21.0657C21.2357 21.0618 21.1118 21.1199 21.0404 21.3795C20.0506 24.9536 19.0459 28.523 18.0521 32.0964C17.8576 32.7952 18.209 33.2462 18.9353 33.2729C19.1965 33.2815 19.4592 33.2729 19.7196 33.2878C20.0421 33.3063 20.3483 33.4355 20.5866 33.6536C20.8249 33.8716 20.9807 34.1651 21.0278 34.4847C21.0553 34.6663 21.0682 34.8499 21.0663 35.0337C21.0663 37.099 21.0663 39.1644 21.0663 41.2298C21.0663 42.4557 20.5235 42.9992 19.2961 43C15.4654 43 11.6354 43 7.8058 43C6.57363 43 6.02853 42.4572 6.02853 41.2361C6.02853 38.9223 6.02853 36.6086 6.02853 34.2948C6.02853 33.5537 6.16579 33.3654 6.89128 33.2486C7.6403 33.1286 8.08658 32.6948 8.28423 31.9937C9.44659 27.8579 10.6144 23.7238 11.7533 19.5818C12.2097 17.9222 11.1478 16.6014 9.40816 16.5371C8.41992 16.4987 7.4152 16.4689 6.45206 16.2712C3.09596 15.5794 0.480261 12.6704 0.0630036 9.25783C-0.194886 7.18524 0.344882 5.09212 1.57291 3.40271C2.80093 1.7133 4.62535 0.553988 6.67638 0.15974C7.25469 0.0550282 7.84164 0.00539401 8.42933 0.0115033C14.089 0 19.7502 -0.00287583 25.413 0.00287583C26.8153 0.00287583 27.6051 0.662488 27.8443 2.03348C27.8961 2.3276 28.0844 2.25936 28.2498 2.25936C30.0799 2.26302 31.91 2.26302 33.7401 2.25936C34.7213 2.25936 35.5166 2.60368 35.944 3.52525C36.0969 3.85623 36.1417 4.25153 36.173 4.6233C36.2075 5.07898 36.1793 5.53703 36.1793 6.05468ZM12.4999 16.5418C13.2929 17.6649 13.4607 18.7944 13.1164 20.0163C11.8741 24.4226 10.6403 28.8321 9.39404 33.2713H14.7533C15.4356 33.2713 15.7674 33.5066 15.7611 33.9811C15.7549 34.4556 15.4215 34.6776 14.736 34.6784C12.4482 34.6784 10.1611 34.6847 7.87325 34.6721C7.55246 34.6721 7.44971 34.7505 7.45207 35.0854C7.46619 37.1116 7.46619 39.1375 7.45207 41.1631C7.45207 41.5168 7.55717 41.5969 7.89678 41.5961C11.6741 41.5843 15.4521 41.589 19.2302 41.589H19.609V34.7199C19.1321 34.6823 18.6678 34.7066 18.231 34.5984C16.9635 34.2846 16.3055 33.0799 16.6733 31.7544C18.1478 26.4451 19.6307 21.1379 21.122 15.8328C21.2788 15.2728 21.4937 15.1167 22.0827 15.1151C23.1933 15.1151 24.3047 15.1151 25.4161 15.1151C26.1557 15.1151 26.4443 14.8359 26.4451 14.1002C26.4483 10.2178 26.4483 6.33546 26.4451 2.45309C26.4451 1.70171 26.1518 1.41543 25.3902 1.41543C19.7306 1.41543 14.0701 1.39504 8.40972 1.42171C5.4348 1.43583 3.20734 2.79583 2.00341 5.5182C-0.0460164 10.159 3.37361 14.9481 8.19482 15.0869C11.6168 15.1857 15.0443 15.1104 18.4694 15.1159C18.6646 15.11 18.8598 15.13 19.0498 15.1755C19.3792 15.2665 19.5416 15.512 19.5321 15.8508C19.5368 16.0036 19.4865 16.1529 19.3904 16.2717C19.2942 16.3904 19.1586 16.4707 19.0082 16.4979C18.842 16.5313 18.6725 16.5455 18.5031 16.5402C16.673 16.5402 14.843 16.5402 13.0129 16.5402L12.4999 16.5418ZM33.9118 12.8241C34.0044 12.8277 34.0971 12.8224 34.1887 12.8084C34.5652 12.7018 34.766 12.381 34.7667 11.85C34.7709 9.4594 34.7709 7.0688 34.7667 4.6782C34.7668 4.54776 34.7518 4.41774 34.722 4.29074C34.6318 3.91898 34.3683 3.73545 33.9001 3.74172C33.9001 3.99819 33.9173 4.25702 33.9001 4.51271C33.8663 4.92212 33.5942 5.17938 33.2216 5.18644C32.8491 5.1935 32.5471 4.9182 32.5157 4.49702C32.4977 4.24055 32.5157 3.98251 32.5157 3.71819H27.8961V12.8249H32.5079V12.3457C32.5079 10.5951 32.5079 8.84345 32.5079 7.09076C32.5045 6.94719 32.5113 6.80356 32.5283 6.66095C32.5473 6.49721 32.6254 6.346 32.7477 6.23558C32.8702 6.12516 33.0286 6.06309 33.1934 6.06095C33.3645 6.05465 33.5315 6.11428 33.66 6.22753C33.7884 6.34079 33.8684 6.49902 33.8836 6.66958C33.9048 6.87802 33.9129 7.08758 33.9079 7.29704C33.9118 9.11979 33.9111 10.9473 33.9111 12.8241H33.9118ZM36.1809 9.06411C37.4977 9.06411 38.7644 9.07744 40.0311 9.05705C40.1335 9.05664 40.2348 9.036 40.3292 8.99631C40.4236 8.95663 40.5092 8.89867 40.5812 8.82579C40.6531 8.75291 40.7099 8.66653 40.7484 8.57162C40.7868 8.4767 40.8061 8.37513 40.8052 8.27273C40.8052 7.84449 40.4915 7.48841 40.0005 7.48057C38.8115 7.45625 37.6224 7.46331 36.4334 7.48057C36.3479 7.48057 36.1981 7.63743 36.1926 7.72449C36.166 8.15038 36.1801 8.58097 36.1801 9.06411H36.1809ZM23.1071 19.6399V16.5732C22.4255 16.4822 22.4247 16.4822 22.2326 17.152C22.1604 17.4022 22.0914 17.6532 22.0216 17.9034L21.5423 19.6399H23.1071Z"/>
        <path d="M7.91333 7.56134C8.95804 7.56134 10.0028 7.55663 11.0506 7.56604C11.2412 7.56604 11.489 7.56604 11.6083 7.67585C11.7808 7.83271 11.9636 8.10252 11.9502 8.31115C11.9369 8.51978 11.7196 8.7535 11.5322 8.90095C11.4106 8.99664 11.1832 8.97939 11.0035 8.97939C8.92667 8.98409 6.8498 8.98409 4.77292 8.97939C4.69449 8.97939 4.61606 8.97939 4.53762 8.97939C4.09135 8.95037 3.79174 8.6735 3.78154 8.28448C3.77056 7.8782 4.07017 7.5731 4.54547 7.56683C5.59018 7.55271 6.63568 7.56134 7.68274 7.56055L7.91333 7.56134Z"/>
        <path d="M7.83417 6.70878C7.25926 6.70878 6.68436 6.71427 6.10867 6.70878C5.60984 6.7025 5.29454 6.42407 5.29297 6.00289C5.29141 5.58171 5.6067 5.297 6.10396 5.297C7.29299 5.29073 8.48175 5.29073 9.67026 5.297C10.1628 5.297 10.4875 5.60446 10.475 6.01622C10.4632 6.41544 10.1456 6.6978 9.67496 6.70407C9.06241 6.71505 8.44829 6.70878 7.83417 6.70878Z"/>
        <path d="M7.86712 11.254C7.293 11.254 6.71888 11.261 6.14162 11.254C5.60907 11.2454 5.2875 10.9677 5.28907 10.5387C5.29064 10.1097 5.6028 9.8328 6.14476 9.8328C7.29509 9.826 8.4436 9.826 9.59027 9.8328C10.1267 9.8328 10.4585 10.1065 10.4718 10.5253C10.4852 10.9442 10.1322 11.2508 9.58713 11.2571C9.02007 11.2595 8.44124 11.254 7.86712 11.254Z"/>
    </symbol>
</svg>