<svg width="23" height="30" viewBox="0 0 23 30" fill="none" xmlns="http://www.w3.org/2000/svg">
<path fill-rule="evenodd" clip-rule="evenodd" d="M0.65918 2.65892C0.65918 1.19035 1.8497 -0.000167847 3.31827 -0.000167847H19.6819C21.1505 -0.000167847 22.341 1.19035 22.341 2.65892V27.2044C22.341 28.673 21.1505 29.8635 19.6819 29.8635H3.31827C1.8497 29.8635 0.65918 28.673 0.65918 27.2044V2.65892ZM3.31827 1.2271C2.5275 1.2271 1.88645 1.86815 1.88645 2.65892V27.2044C1.88645 27.9951 2.5275 28.6362 3.31827 28.6362H19.6819C20.4727 28.6362 21.1137 27.9951 21.1137 27.2044V2.65892C21.1137 1.86815 20.4727 1.2271 19.6819 1.2271H3.31827ZM4.23873 3.83506H18.7615V10.0481H4.23873V3.83506ZM5.466 5.06233V8.82086H17.5342V5.06233H5.466ZM4.23873 11.5055H18.7615V26.0282H4.23873V11.5055ZM5.466 12.7328V15.9416L8.62367 15.9416V12.7328H5.466ZM9.85094 12.7328V15.9416H13.0981V12.7328H9.85094ZM14.3254 12.7328V15.9416L17.5342 15.9416V12.7328H14.3254ZM17.5342 17.1689H14.3254V24.801H17.5342V17.1689ZM13.0981 24.801V21.5794H9.85094V24.801H13.0981ZM8.62367 24.801V21.5794H5.466V24.801H8.62367ZM5.466 20.3521H8.62367V17.1689H5.466V20.3521ZM9.85094 17.1689V20.3521H13.0981V17.1689L9.85094 17.1689Z" fill="black"/>
</svg>
