<svg width="19" height="17" viewBox="0 0 19 17" fill="none" xmlns="http://www.w3.org/2000/svg">
<path d="M2.89844 2.51953C4.65625 1.08984 6.77734 0.375 9.26172 0.375C11.7461 0.375 13.8672 1.08984 15.625 2.51953C17.3828 3.94922 18.2617 5.67188 18.2617 7.6875C18.2617 9.70312 17.3828 11.4258 15.625 12.8555C13.8672 14.2852 11.7461 15 9.26172 15C8.16016 15 7.07031 14.8359 5.99219 14.5078C4.46875 15.5859 2.83984 16.125 1.10547 16.125C0.730469 16.125 0.472656 15.9492 0.332031 15.5977C0.191406 15.2695 0.238281 14.9766 0.472656 14.7188C0.519531 14.6719 0.625 14.5547 0.789062 14.3672C0.976562 14.1562 1.19922 13.8398 1.45703 13.418C1.73828 12.9727 1.96094 12.5391 2.125 12.1172C0.882813 10.8047 0.261719 9.32812 0.261719 7.6875C0.261719 5.67188 1.14062 3.94922 2.89844 2.51953ZM9.26172 13.3125C11.2773 13.3125 13 12.7617 14.4297 11.6602C15.8594 10.5586 16.5742 9.23438 16.5742 7.6875C16.5742 6.14062 15.8594 4.81641 14.4297 3.71484C13 2.61328 11.2773 2.0625 9.26172 2.0625C7.24609 2.0625 5.52344 2.61328 4.09375 3.71484C2.66406 4.81641 1.94922 6.14062 1.94922 7.6875C1.94922 8.88281 2.41797 9.97266 3.35547 10.957L4.05859 11.7305L3.70703 12.7148C3.51953 13.1836 3.28516 13.6641 3.00391 14.1562C3.70703 13.9219 4.375 13.5703 5.00781 13.1016L5.71094 12.6445L6.51953 12.8906C7.41016 13.1719 8.32422 13.3125 9.26172 13.3125Z" fill="#C9C9C9"/>
</svg>
