<svg width="55" height="56" viewBox="0 0 55 56" fill="none" xmlns="http://www.w3.org/2000/svg">
<path d="M33.2447 14.9199L20.5251 39.9318L22.0367 40.7004L34.7558 15.6886L33.2447 14.9199ZM24.9558 21.6617C24.9558 18.8569 22.6738 16.5745 19.8686 16.5745C17.0638 16.5745 14.7815 18.8565 14.7815 21.6617C14.7815 24.4665 17.0638 26.7488 19.8686 26.7488C22.6738 26.7488 24.9558 24.4669 24.9558 21.6617ZM19.8686 25.0531C17.9986 25.0531 16.4772 23.5317 16.4772 21.6617C16.4772 19.7917 17.9986 18.2702 19.8686 18.2702C21.7386 18.2702 23.2601 19.7917 23.2601 21.6617C23.2601 23.5317 21.7386 25.0531 19.8686 25.0531ZM35.1305 30.1403C32.3253 30.1403 30.0429 32.4222 30.0429 35.2274C30.0429 38.0327 32.3253 40.3146 35.1305 40.3146C37.9357 40.3146 40.2173 38.0327 40.2173 35.2274C40.2173 32.4222 37.9357 30.1403 35.1305 30.1403ZM35.1305 38.6189C33.2605 38.6189 31.7391 37.0974 31.7391 35.2274C31.7391 33.3574 33.2605 31.836 35.1305 31.836C37.0005 31.836 38.522 33.3574 38.522 35.2274C38.522 37.0974 37.0005 38.6189 35.1305 38.6189ZM53.0598 32.2501C54.013 31.0104 54.9987 29.7301 54.9987 28.1619C54.9987 26.5938 54.0134 25.313 53.0598 24.0742C52.4183 23.2405 51.812 22.4526 51.6107 21.7011C51.3966 20.899 51.5293 19.8829 51.6694 18.8064C51.8672 17.2849 52.0723 15.7121 51.3182 14.4086C50.5513 13.0846 49.0744 12.4735 47.645 11.883C46.6541 11.4737 45.7172 11.0866 45.1468 10.5157C44.5765 9.94494 44.1894 9.00844 43.7796 8.01713C43.1882 6.58818 42.5776 5.10999 41.2531 4.34392C40.6318 3.98423 39.8785 3.80951 38.9506 3.80951C38.2608 3.80951 37.5465 3.90286 36.8562 3.99236C36.1839 4.07972 35.5497 4.16236 34.9592 4.16236C34.5696 4.16236 34.2433 4.12554 33.9615 4.05017C33.2087 3.84934 32.4208 3.24299 31.5871 2.6011C30.3487 1.6479 29.0679 0.662155 27.4998 0.662155C25.9312 0.662155 24.6505 1.64747 23.4116 2.6011C22.5779 3.24299 21.79 3.84934 21.0385 4.05017C20.7563 4.12596 20.4304 4.16236 20.0408 4.16236C19.4503 4.16236 18.8156 4.08014 18.1438 3.99236C17.4531 3.90244 16.7388 3.80951 16.049 3.80951C15.121 3.80951 14.3678 3.98423 13.7465 4.3435C12.422 5.10957 11.8114 6.58776 11.2204 8.0167C10.8111 9.00758 10.424 9.94408 9.85316 10.5149C9.28236 11.0857 8.34586 11.4728 7.35455 11.8826C5.92517 12.4731 4.44741 13.0842 3.68134 14.4086C2.92726 15.7121 3.13194 17.2849 3.32978 18.8059C3.47023 19.882 3.60212 20.8986 3.38802 21.7006C3.18718 22.4522 2.58083 23.2401 1.93894 24.0742C0.985744 25.3126 0 26.5938 0 28.1619C0 29.7301 0.985744 31.0104 1.93894 32.2497C2.58083 33.083 3.18718 33.8713 3.38802 34.6237C3.60212 35.4248 3.47023 36.4419 3.32978 37.518C3.13194 39.039 2.92726 40.6122 3.68134 41.9153C4.44741 43.2393 5.92517 43.8508 7.35412 44.4409C8.34543 44.8507 9.28236 45.2378 9.85316 45.809C10.424 46.3794 10.8106 47.3163 11.2204 48.3072C11.8109 49.7366 12.4216 51.2139 13.746 51.9804C14.3674 52.3401 15.1206 52.5148 16.0485 52.5148C16.7388 52.5148 17.4526 52.421 18.1434 52.3315C18.8156 52.2437 19.4507 52.1615 20.0408 52.1615C20.4304 52.1615 20.7563 52.1984 21.0385 52.2733C21.79 52.475 22.5775 53.0813 23.4116 53.7228C24.6505 54.6764 25.9312 55.6622 27.4998 55.6622C29.0683 55.6622 30.3487 54.676 31.5871 53.7228C32.4208 53.0813 33.2087 52.475 33.9607 52.2741C34.2424 52.1984 34.5696 52.1619 34.9592 52.1619C35.5489 52.1619 36.1835 52.2437 36.8554 52.3315C37.5461 52.4219 38.2603 52.5148 38.9498 52.5148C39.8781 52.5148 40.6318 52.3401 41.2522 51.9804C42.5771 51.2143 43.1878 49.7366 43.7787 48.3072C44.1885 47.3163 44.5756 46.3794 45.146 45.809C45.7172 45.2386 46.6537 44.8515 47.645 44.4417C49.0744 43.8512 50.5513 43.2402 51.3182 41.9165C52.0719 40.6131 51.8668 39.0398 51.6689 37.5184C51.5293 36.4419 51.3957 35.4249 51.6098 34.6228C51.812 33.8713 52.4179 33.0838 53.0598 32.2501ZM49.9736 34.1856C49.673 35.3114 49.8336 36.5451 49.9882 37.7376C50.1578 39.0351 50.3171 40.2611 49.8516 41.0665C49.3737 41.8926 48.2193 42.3692 46.9984 42.8745C45.8971 43.3296 44.758 43.8002 43.9483 44.6104C43.1381 45.4206 42.6679 46.5592 42.2119 47.6602C41.7066 48.8814 41.23 50.0359 40.4035 50.5129C40.0421 50.7219 39.5805 50.8195 38.9493 50.8195C38.3695 50.8195 37.7413 50.7373 37.0742 50.6508C36.3783 50.5596 35.6594 50.4662 34.9597 50.4662C34.4201 50.4662 33.9499 50.5219 33.5234 50.6358C32.4435 50.9244 31.4822 51.6639 30.5529 52.3791C29.4918 53.1952 28.4907 53.966 27.4998 53.966C26.5085 53.966 25.5065 53.1952 24.4458 52.3791C23.5166 51.6635 22.5552 50.9244 21.4761 50.6358C21.0492 50.521 20.5799 50.4662 20.0403 50.4662C19.3398 50.4662 18.6199 50.56 17.9237 50.6504C17.2574 50.7377 16.6279 50.8195 16.0481 50.8195C15.4174 50.8195 14.9557 50.7223 14.5948 50.5133C13.7683 50.0354 13.2917 48.8818 12.7868 47.6606C12.3317 46.5597 11.861 45.421 11.0513 44.6104C10.2411 43.8007 9.10251 43.3301 8.00114 42.874C6.77988 42.3696 5.62628 41.893 5.14797 41.0661C4.68207 40.2606 4.84137 39.0347 5.01051 37.7372C5.16638 36.5455 5.32653 35.3127 5.0255 34.186C4.73688 33.1057 3.99736 32.1447 3.28225 31.2155C2.46565 30.1548 1.69486 29.1533 1.69486 28.1619C1.69486 27.1706 2.46607 26.169 3.28225 25.1084C3.99736 24.1787 4.73688 23.2178 5.0255 22.1383C5.32653 21.0121 5.16638 19.7788 5.01094 18.5867C4.8418 17.2888 4.6825 16.0632 5.1484 15.2573C5.62671 14.4313 6.78031 13.9543 8.00157 13.4494C9.10251 12.9942 10.2416 12.5236 11.0513 11.7135C11.861 10.9037 12.3317 9.76509 12.7868 8.66373C13.2917 7.44247 13.7683 6.28843 14.5948 5.81055C14.9562 5.60158 15.4178 5.50438 16.0485 5.50438C16.6288 5.50438 17.2578 5.58617 17.9241 5.67309C18.62 5.76388 19.3398 5.85765 20.0399 5.85765C20.5794 5.85765 21.0488 5.80241 21.4757 5.68808C22.5552 5.39947 23.5161 4.65994 24.4453 3.94483C25.5065 3.12866 26.5085 2.35745 27.4994 2.35745C28.4907 2.35745 29.4923 3.12866 30.5529 3.94483C31.4822 4.65994 32.4439 5.39947 33.5234 5.68808C33.9508 5.80241 34.4206 5.85765 34.9597 5.85765C35.6589 5.85765 36.3792 5.76388 37.075 5.67352C37.7413 5.5866 38.37 5.50481 38.9502 5.50481C39.5814 5.50481 40.043 5.60201 40.4035 5.81098C41.2304 6.28929 41.7074 7.4429 42.2127 8.66459C42.6679 9.76595 43.1385 10.9046 43.9483 11.7143C44.7589 12.5241 45.8971 12.9947 46.9984 13.4499C48.2197 13.9547 49.3729 14.4317 49.8512 15.2578C50.3171 16.0632 50.1582 17.2892 49.9891 18.5871C49.8336 19.7797 49.673 21.0129 49.9741 22.1387C50.2627 23.2182 51.0018 24.1791 51.7169 25.1084C52.5331 26.169 53.3043 27.1706 53.3043 28.1619C53.3043 29.1528 52.5331 30.1548 51.7169 31.216C51.0018 32.1447 50.2627 33.1061 49.9736 34.1856Z" fill="white"/>
</svg>
