<svg width="22" height="25" viewBox="0 0 22 25" fill="none" xmlns="http://www.w3.org/2000/svg">
<path d="M10.6212 13.4628C13.5674 13.4628 15.9643 10.6727 15.9643 7.24363C15.9643 5.57559 15.9643 0.5 10.6212 0.5C5.27815 0.5 5.27815 5.57559 5.27815 7.24363C5.27815 10.6727 7.6751 13.4628 10.6212 13.4628ZM10.6212 2.0766C13.3314 2.0766 14.3877 3.52549 14.3877 7.24363C14.3877 9.8035 12.6981 11.8862 10.6212 11.8862C8.54433 11.8862 6.85474 9.8035 6.85474 7.24363C6.85474 3.52549 7.91106 2.0766 10.6212 2.0766ZM16.6475 15.6164C15.6916 15.258 14.8843 14.353 14.6589 14.084C14.3798 13.7508 13.8843 13.705 13.549 13.9846C13.2147 14.2637 13.1701 14.7608 13.4496 15.0951C13.818 15.5355 14.8139 16.6139 16.0957 17.0932C16.9229 17.4032 19.5075 18.6035 19.6614 21.5092C16.8183 22.4483 13.7813 22.9234 10.6228 22.9234C7.46488 22.9234 4.42731 22.4483 1.58418 21.5092C1.73764 18.6062 4.31958 17.4032 5.14413 17.0937C6.43326 16.6112 7.4281 15.5355 7.79597 15.0951C8.07555 14.7608 8.03088 14.2637 7.69664 13.9846C7.36188 13.705 6.86525 13.7508 6.58619 14.084C6.36179 14.352 5.5551 15.2554 4.59128 15.6164C3.46453 16.0395 -0.194744 17.7595 0.00811088 22.1088C0.0228258 22.4294 0.230411 22.709 0.532592 22.8157C3.69524 23.9335 7.09018 24.5 10.6228 24.5C14.156 24.5 17.5504 23.9335 20.7125 22.8157C21.0142 22.709 21.2217 22.4299 21.237 22.1088C21.4388 17.7548 17.7758 16.0379 16.6475 15.6164Z" fill="#afafaf"/>
</svg>
