<svg width="24" height="24" viewBox="0 0 24 24" fill="none" xmlns="http://www.w3.org/2000/svg">
<path d="M0.837891 3.28436V1.51464C0.837891 1.12366 1.31644 0.806747 1.90683 0.806747H22.6126C23.203 0.806747 23.6815 1.12366 23.6815 1.51464V3.28436C23.6815 3.67533 23.203 3.99225 22.6126 3.99225H1.90683C1.31644 3.99225 0.837891 3.67533 0.837891 3.28436ZM1.90683 13.9511H22.6126C23.203 13.9511 23.6815 13.6342 23.6815 13.2432V11.4735C23.6815 11.0826 23.203 10.7656 22.6126 10.7656H1.90683C1.31644 10.7656 0.837891 11.0826 0.837891 11.4735V13.2432C0.837891 13.6342 1.31644 13.9511 1.90683 13.9511ZM1.90683 23.91H22.6126C23.203 23.91 23.6815 23.5931 23.6815 23.2021V21.4324C23.6815 21.0414 23.203 20.7245 22.6126 20.7245H1.90683C1.31644 20.7245 0.837891 21.0414 0.837891 21.4324V23.2021C0.837891 23.5931 1.31644 23.91 1.90683 23.91Z" fill="black"/>
</svg>
