<svg width="16" height="16" viewBox="0 0 16 16" fill="none" xmlns="http://www.w3.org/2000/svg">
<path d="M2.5 2.53125C4.02083 1.01042 5.85417 0.25 8 0.25C10.1458 0.25 11.9688 1.01042 13.4688 2.53125C14.9896 4.03125 15.75 5.85417 15.75 8C15.75 10.1458 14.9896 11.9792 13.4688 13.5C11.9688 15 10.1458 15.75 8 15.75C5.85417 15.75 4.02083 15 2.5 13.5C1 11.9792 0.25 10.1458 0.25 8C0.25 5.85417 1 4.03125 2.5 2.53125ZM3.5625 12.4375C4.79167 13.6458 6.27083 14.25 8 14.25C9.72917 14.25 11.1979 13.6458 12.4062 12.4375C13.6354 11.2083 14.25 9.72917 14.25 8C14.25 6.27083 13.6354 4.80208 12.4062 3.59375C11.1979 2.36458 9.72917 1.75 8 1.75C6.27083 1.75 4.79167 2.36458 3.5625 3.59375C2.35417 4.80208 1.75 6.27083 1.75 8C1.75 9.72917 2.35417 11.2083 3.5625 12.4375ZM11.3438 6.28125C11.3438 6.76042 11.2292 7.16667 11 7.5C10.7708 7.83333 10.5104 8.07292 10.2188 8.21875C9.92708 8.36458 9.66667 8.52083 9.4375 8.6875C9.20833 8.85417 9.09375 9.02083 9.09375 9.1875V9.375C9.09375 9.47917 9.05208 9.57292 8.96875 9.65625C8.90625 9.71875 8.82292 9.75 8.71875 9.75H7.28125C7.17708 9.75 7.08333 9.71875 7 9.65625C6.9375 9.57292 6.90625 9.47917 6.90625 9.375V9.09375C6.90625 8.84375 6.94792 8.61458 7.03125 8.40625C7.11458 8.19792 7.25 8.01042 7.4375 7.84375C7.625 7.67708 7.77083 7.5625 7.875 7.5C7.97917 7.41667 8.15625 7.3125 8.40625 7.1875C8.57292 7.08333 8.69792 7.01042 8.78125 6.96875C8.86458 6.90625 8.94792 6.84375 9.03125 6.78125C9.13542 6.69792 9.19792 6.61458 9.21875 6.53125C9.26042 6.44792 9.28125 6.35417 9.28125 6.25C9.28125 6 9.14583 5.79167 8.875 5.625C8.625 5.45833 8.34375 5.375 8.03125 5.375C7.80208 5.375 7.59375 5.41667 7.40625 5.5C7.23958 5.5625 7.09375 5.65625 6.96875 5.78125C6.84375 5.90625 6.6875 6.08333 6.5 6.3125C6.35417 6.5 6.1875 6.52083 6 6.375L5.125 5.71875C4.9375 5.57292 4.90625 5.39583 5.03125 5.1875C5.80208 4.0625 6.85417 3.5 8.1875 3.5C8.97917 3.5 9.69792 3.77083 10.3438 4.3125C11.0104 4.85417 11.3438 5.51042 11.3438 6.28125ZM8.90625 10.5938C9.17708 10.8438 9.3125 11.1458 9.3125 11.5C9.3125 11.8542 9.17708 12.1667 8.90625 12.4375C8.65625 12.6875 8.35417 12.8125 8 12.8125C7.64583 12.8125 7.33333 12.6875 7.0625 12.4375C6.8125 12.1667 6.6875 11.8542 6.6875 11.5C6.6875 11.1458 6.8125 10.8438 7.0625 10.5938C7.33333 10.3229 7.64583 10.1875 8 10.1875C8.35417 10.1875 8.65625 10.3229 8.90625 10.5938Z" fill="#F26422"/>
</svg>
