<svg width="24" height="20" viewBox="0 0 24 20" fill="none" xmlns="http://www.w3.org/2000/svg">
<path d="M21.823 0.714285H2.18011C1.09975 0.714285 0.21582 1.59821 0.21582 2.67857V17.6071C0.21582 18.6875 1.09975 19.5714 2.18011 19.5714H21.823C22.9033 19.5714 23.7873 18.6875 23.7873 17.6071V2.67857C23.7873 1.59821 22.9033 0.714285 21.823 0.714285ZM2.18011 2.28571H21.823C22.0317 2.28571 22.2158 2.46987 22.2158 2.67857V5.42857H1.78725V2.67857C1.78725 2.46987 1.9714 2.28571 2.18011 2.28571ZM21.823 18H2.18011C1.9714 18 1.78725 17.8158 1.78725 17.6071V10.1429H22.2158V17.6071C22.2158 17.8158 22.0317 18 21.823 18ZM3.35868 16.4286H6.50153V14.8571H3.35868V16.4286ZM8.07296 16.4286H12.7872V14.8571H8.07296V16.4286Z" fill="#3A3A3A"/>
</svg>
