<svg width="22" height="19" viewBox="0 0 22 19" fill="none" xmlns="http://www.w3.org/2000/svg">
<path d="M12.9464 16.4888C12.9464 16.9771 12.5419 17.2143 12.0536 17.2143H9.375C8.88672 17.2143 8.48214 16.9771 8.48214 16.4888V15.7076V9.17857V6.5H12.9464V9.17857V15.7076V16.4888ZM6.58482 4.71429C5.84542 4.71429 5.24554 4.1144 5.24554 3.375C5.24554 2.6356 5.84542 2.03571 6.58482 2.03571C7.05915 2.03571 7.39397 2.28683 7.54743 2.46819L9.30525 4.71429H6.58482ZM16.183 3.375C16.183 4.1144 15.5831 4.71429 14.8438 4.71429H12.1373L13.8811 2.46819C14.0346 2.28683 14.3694 2.03571 14.8438 2.03571C15.5831 2.03571 16.183 2.6356 16.183 3.375ZM21.4286 6.94643C21.4286 6.69531 21.2333 6.5 20.9821 6.5H14.8438C16.5737 6.5 17.9688 5.10491 17.9688 3.375C17.9688 1.64509 16.5737 0.249999 14.8438 0.249999C13.909 0.249999 13.0441 0.640624 12.5 1.32422L10.7143 3.62612L8.92857 1.32422C8.38449 0.640624 7.51953 0.249999 6.58482 0.249999C4.85491 0.249999 3.45982 1.64509 3.45982 3.375C3.45982 5.10491 4.85491 6.5 6.58482 6.5H0.446429C0.195312 6.5 0 6.69531 0 6.94643V11.4107C0 11.6618 0.195312 11.8571 0.446429 11.8571H1.78571V17.6607C1.78571 18.4001 2.3856 19 3.125 19H18.3036C19.043 19 19.6429 18.4001 19.6429 17.6607V11.8571H20.9821C21.2333 11.8571 21.4286 11.6618 21.4286 11.4107V6.94643Z" fill="#F26422"/>
</svg>
