<svg width="24" height="23" viewBox="0 0 24 23" fill="none" xmlns="http://www.w3.org/2000/svg">
<path d="M11.0489 1.24883C11.3483 0.327516 12.6517 0.327517 12.9511 1.24883L14.9187 7.30456C15.0526 7.71658 15.4365 7.99554 15.8697 7.99554H22.2371C23.2058 7.99554 23.6086 9.23515 22.8249 9.80456L17.6736 13.5472C17.3231 13.8018 17.1764 14.2532 17.3103 14.6652L19.2779 20.721C19.5773 21.6423 18.5228 22.4084 17.7391 21.839L12.5878 18.0964C12.2373 17.8417 11.7627 17.8417 11.4122 18.0964L6.2609 21.839C5.47719 22.4084 4.42271 21.6423 4.72206 20.721L6.68969 14.6652C6.82356 14.2532 6.6769 13.8018 6.32642 13.5472L1.17511 9.80455C0.391392 9.23515 0.794168 7.99554 1.76289 7.99554H8.13026C8.56349 7.99554 8.94744 7.71658 9.08132 7.30456L11.0489 1.24883Z" fill="#FFE600"/>
</svg>
