<svg width="17" height="16" viewBox="0 0 17 16" fill="none" xmlns="http://www.w3.org/2000/svg">
<path d="M7.44895 0.92705C7.7483 0.00573969 9.05171 0.00573993 9.35106 0.927051L10.5104 4.49524C10.6443 4.90727 11.0283 5.18623 11.4615 5.18623L15.2133 5.18623C16.182 5.18623 16.5848 6.42584 15.8011 6.99524L12.7658 9.20051C12.4153 9.45515 12.2687 9.90652 12.4025 10.3185L13.5619 13.8867C13.8613 14.808 12.8068 15.5742 12.0231 15.0048L8.98779 12.7995C8.6373 12.5449 8.16271 12.5449 7.81222 12.7995L4.77693 15.0048C3.99322 15.5742 2.93874 14.808 3.23809 13.8867L4.39747 10.3185C4.53134 9.90652 4.38468 9.45515 4.0342 9.20051L0.99891 6.99524C0.215197 6.42584 0.617972 5.18623 1.5867 5.18623L5.33852 5.18623C5.77174 5.18623 6.1557 4.90727 6.28957 4.49524L7.44895 0.92705Z" fill="#FFE600"/>
</svg>
