<svg width="413" height="470" viewBox="0 0 413 470" fill="none" xmlns="http://www.w3.org/2000/svg">
<path fill-rule="evenodd" clip-rule="evenodd" d="M-1 372.377V203.674L138.763 -1H253.963L-1 372.377ZM11.7249 -1C15.775 14.5015 17.8 31.5014 17.8 50C17.8 82.9071 11.5333 111.052 -1 134.433L-1 -1L11.7249 -1ZM165 427.6C191.667 455.333 226.333 469.2 269 469.2C311.667 469.2 346.333 455.333 373 427.6C399.667 399.867 413 362 413 314C413 266.533 399.667 228.933 373 201.2C346.333 172.933 311.667 158.8 269 158.8C226.867 158.8 192.467 172.933 165.8 201.2C139.133 228.933 125.8 266.533 125.8 314C125.8 362 138.867 399.867 165 427.6ZM303.4 374C294.867 386.8 283.4 393.2 269 393.2C254.6 393.2 243.133 386.8 234.6 374C226.067 361.2 221.8 341.2 221.8 314C221.8 286.8 226.067 266.8 234.6 254C243.133 241.2 254.6 234.8 269 234.8C283.4 234.8 294.867 241.2 303.4 254C311.933 266.8 316.2 286.8 316.2 314C316.2 341.2 311.933 361.2 303.4 374Z" fill="url(#paint0_linear)"/>
<defs>
<linearGradient id="paint0_linear" x1="8.39581" y1="490" x2="480.067" y2="490" gradientUnits="userSpaceOnUse">
<stop stop-color="#FFE600"/>
<stop offset="0.692708" stop-color="#FFE600" stop-opacity="0"/>
</linearGradient>
</defs>
</svg>
