<svg width="239" height="397" viewBox="0 0 239 397" fill="none" xmlns="http://www.w3.org/2000/svg">
<path fill-rule="evenodd" clip-rule="evenodd" d="M0 92.5481L63.1971 0H149.597L0 219.075V92.5481ZM53 365.2C73 386 99 396.4 131 396.4C163 396.4 189 386 209 365.2C229 344.4 239 316 239 280C239 244.4 229 216.2 209 195.4C189 174.2 163 163.6 131 163.6C99.4 163.6 73.6 174.2 53.6 195.4C33.6 216.2 23.6 244.4 23.6 280C23.6 316 33.4 344.4 53 365.2ZM156.8 325C150.4 334.6 141.8 339.4 131 339.4C120.2 339.4 111.6 334.6 105.2 325C98.8 315.4 95.6 300.4 95.6 280C95.6 259.6 98.8 244.6 105.2 235C111.6 225.4 120.2 220.6 131 220.6C141.8 220.6 150.4 225.4 156.8 235C163.2 244.6 166.4 259.6 166.4 280C166.4 300.4 163.2 315.4 156.8 325Z" fill="url(#paint0_linear)"/>
<defs>
<linearGradient id="paint0_linear" x1="5.42415" y1="413.935" x2="277.717" y2="413.935" gradientUnits="userSpaceOnUse">
<stop stop-color="#FFE600"/>
<stop offset="0.692708" stop-color="#FFE600" stop-opacity="0"/>
</linearGradient>
</defs>
</svg>
