<svg width="13" height="11" viewBox="0 0 13 11" fill="none" xmlns="http://www.w3.org/2000/svg">
<path d="M6.60156 6.18457L2.35156 10.4346C2.20573 10.5804 2.02865 10.6533 1.82031 10.6533C1.61198 10.6533 1.4349 10.5804 1.28906 10.4346L0.601562 9.71582C0.455729 9.56999 0.382812 9.3929 0.382812 9.18457C0.382812 8.97624 0.455729 8.79915 0.601562 8.65332L3.60156 5.65332L0.601562 2.65332C0.455729 2.50749 0.382812 2.3304 0.382812 2.12207C0.382812 1.91374 0.455729 1.73665 0.601562 1.59082L1.28906 0.87207C1.4349 0.726237 1.61198 0.65332 1.82031 0.65332C2.02865 0.65332 2.20573 0.726237 2.35156 0.87207L6.60156 5.12207C6.7474 5.2679 6.82031 5.44499 6.82031 5.65332C6.82031 5.86165 6.7474 6.03874 6.60156 6.18457ZM12.6016 5.12207C12.7474 5.2679 12.8203 5.44499 12.8203 5.65332C12.8203 5.86165 12.7474 6.03874 12.6016 6.18457L8.35156 10.4346C8.20573 10.5804 8.02865 10.6533 7.82031 10.6533C7.61198 10.6533 7.4349 10.5804 7.28906 10.4346L6.60156 9.71582C6.45573 9.56999 6.38281 9.3929 6.38281 9.18457C6.38281 8.97624 6.45573 8.79915 6.60156 8.65332L9.60156 5.65332L6.60156 2.65332C6.45573 2.50749 6.38281 2.3304 6.38281 2.12207C6.38281 1.91374 6.45573 1.73665 6.60156 1.59082L7.28906 0.87207C7.3724 0.80957 7.45573 0.757487 7.53906 0.71582C7.64323 0.674154 7.73698 0.65332 7.82031 0.65332C7.92448 0.65332 8.01823 0.674154 8.10156 0.71582C8.20573 0.757487 8.28906 0.80957 8.35156 0.87207L12.6016 5.12207Z" fill="#D0D0D0"/>
</svg>
