<svg width="24" height="20" viewBox="0 0 24 20" fill="none" xmlns="http://www.w3.org/2000/svg">
<path d="M11.7871 11.3535L19.7559 19.3223C20.0293 19.5957 20.3613 19.7324 20.752 19.7324C21.1426 19.7324 21.4746 19.5957 21.748 19.3223L23.0371 17.9746C23.3105 17.7012 23.4473 17.3691 23.4473 16.9785C23.4473 16.5879 23.3105 16.2559 23.0371 15.9824L17.4121 10.3574L23.0371 4.73242C23.3105 4.45898 23.4473 4.12695 23.4473 3.73633C23.4473 3.3457 23.3105 3.01367 23.0371 2.74023L21.748 1.39258C21.4746 1.11914 21.1426 0.982422 20.752 0.982422C20.3613 0.982422 20.0293 1.11914 19.7559 1.39258L11.7871 9.36133C11.5137 9.63477 11.377 9.9668 11.377 10.3574C11.377 10.748 11.5137 11.0801 11.7871 11.3535ZM0.537109 9.36133C0.263672 9.63477 0.126953 9.9668 0.126953 10.3574C0.126953 10.748 0.263672 11.0801 0.537109 11.3535L8.50586 19.3223C8.7793 19.5957 9.11133 19.7324 9.50195 19.7324C9.89258 19.7324 10.2246 19.5957 10.498 19.3223L11.7871 17.9746C12.0605 17.7012 12.1973 17.3691 12.1973 16.9785C12.1973 16.5879 12.0605 16.2559 11.7871 15.9824L6.16211 10.3574L11.7871 4.73242C12.0605 4.45898 12.1973 4.12695 12.1973 3.73633C12.1973 3.3457 12.0605 3.01367 11.7871 2.74023L10.498 1.39258C10.3418 1.27539 10.1855 1.17773 10.0293 1.09961C9.83398 1.02148 9.6582 0.982422 9.50195 0.982422C9.30664 0.982422 9.13086 1.02148 8.97461 1.09961C8.7793 1.17773 8.62305 1.27539 8.50586 1.39258L0.537109 9.36133Z" fill="#D0D0D0"/>
</svg>
