<svg width="13" height="11" viewBox="0 0 13 11" fill="none" xmlns="http://www.w3.org/2000/svg">
<path d="M6.39844 6.18457L10.6484 10.4346C10.7943 10.5804 10.9714 10.6533 11.1797 10.6533C11.388 10.6533 11.5651 10.5804 11.7109 10.4346L12.3984 9.71582C12.5443 9.56999 12.6172 9.3929 12.6172 9.18457C12.6172 8.97624 12.5443 8.79915 12.3984 8.65332L9.39844 5.65332L12.3984 2.65332C12.5443 2.50749 12.6172 2.3304 12.6172 2.12207C12.6172 1.91374 12.5443 1.73665 12.3984 1.59082L11.7109 0.87207C11.5651 0.726237 11.388 0.65332 11.1797 0.65332C10.9714 0.65332 10.7943 0.726237 10.6484 0.87207L6.39844 5.12207C6.2526 5.2679 6.17969 5.44499 6.17969 5.65332C6.17969 5.86165 6.2526 6.03874 6.39844 6.18457ZM0.398438 5.12207C0.252604 5.2679 0.179688 5.44499 0.179688 5.65332C0.179688 5.86165 0.252604 6.03874 0.398438 6.18457L4.64844 10.4346C4.79427 10.5804 4.97135 10.6533 5.17969 10.6533C5.38802 10.6533 5.5651 10.5804 5.71094 10.4346L6.39844 9.71582C6.54427 9.56999 6.61719 9.3929 6.61719 9.18457C6.61719 8.97624 6.54427 8.79915 6.39844 8.65332L3.39844 5.65332L6.39844 2.65332C6.54427 2.50749 6.61719 2.3304 6.61719 2.12207C6.61719 1.91374 6.54427 1.73665 6.39844 1.59082L5.71094 0.87207C5.6276 0.80957 5.54427 0.757487 5.46094 0.71582C5.35677 0.674154 5.26302 0.65332 5.17969 0.65332C5.07552 0.65332 4.98177 0.674154 4.89844 0.71582C4.79427 0.757487 4.71094 0.80957 4.64844 0.87207L0.398438 5.12207Z" fill="#D0D0D0"/>
</svg>
