<svg width="24" height="20" viewBox="0 0 24 20" fill="none" xmlns="http://www.w3.org/2000/svg">
<path d="M12.27 11.3535L4.30127 19.3223C4.02783 19.5957 3.6958 19.7324 3.30518 19.7324C2.91455 19.7324 2.58252 19.5957 2.30908 19.3223L1.02002 17.9746C0.746582 17.7012 0.609863 17.3691 0.609863 16.9785C0.609863 16.5879 0.746582 16.2559 1.02002 15.9824L6.64502 10.3574L1.02002 4.73242C0.746582 4.45898 0.609863 4.12695 0.609863 3.73633C0.609863 3.3457 0.746582 3.01367 1.02002 2.74023L2.30908 1.39258C2.58252 1.11914 2.91455 0.982422 3.30518 0.982422C3.6958 0.982422 4.02783 1.11914 4.30127 1.39258L12.27 9.36133C12.5435 9.63477 12.6802 9.9668 12.6802 10.3574C12.6802 10.748 12.5435 11.0801 12.27 11.3535ZM23.52 9.36133C23.7935 9.63477 23.9302 9.9668 23.9302 10.3574C23.9302 10.748 23.7935 11.0801 23.52 11.3535L15.5513 19.3223C15.2778 19.5957 14.9458 19.7324 14.5552 19.7324C14.1646 19.7324 13.8325 19.5957 13.5591 19.3223L12.27 17.9746C11.9966 17.7012 11.8599 17.3691 11.8599 16.9785C11.8599 16.5879 11.9966 16.2559 12.27 15.9824L17.895 10.3574L12.27 4.73242C11.9966 4.45898 11.8599 4.12695 11.8599 3.73633C11.8599 3.3457 11.9966 3.01367 12.27 2.74023L13.5591 1.39258C13.7153 1.27539 13.8716 1.17773 14.0278 1.09961C14.2231 1.02148 14.3989 0.982422 14.5552 0.982422C14.7505 0.982422 14.9263 1.02148 15.0825 1.09961C15.2778 1.17773 15.4341 1.27539 15.5513 1.39258L23.52 9.36133Z" fill="#D0D0D0"/>
</svg>
